<?xml version="1.0" encoding="UTF-8"?>
<svg xmlns="http://www.w3.org/2000/svg" width="560" height="322.08014" xmlns:xlink="http://www.w3.org/1999/xlink" version="1.1" viewBox="0 0 560 322.08014">
  <!-- Generator: Adobe Illustrator 29.2.1, SVG Export Plug-In . SVG Version: 2.1.0 Build 116)  -->
  <defs>
    <style>
      .st0, .st1, .st2, .st3, .st4, .st5, .st6, .st7, .st8, .st9, .st10, .st11, .st12, .st13 {
        fill: none;
      }

      .st14 {
        stroke: #fcf7f2;
        stroke-width: 2px;
      }

      .st14, .st1, .st2, .st3, .st4, .st5, .st6, .st7, .st8, .st9, .st10, .st11, .st12, .st13 {
        stroke-miterlimit: 10;
      }

      .st14, .st15 {
        fill: #f0b43c;
      }

      .st1 {
        stroke-dasharray: 7.58545 7.58545;
      }

      .st1, .st2, .st3, .st4, .st5, .st6, .st7, .st8, .st9, .st10, .st11, .st12, .st13 {
        stroke-linecap: round;
      }

      .st1, .st4, .st5, .st6 {
        stroke: #dbe3e6;
      }

      .st1, .st4, .st5, .st6, .st8, .st10 {
        stroke-width: 3px;
      }

      .st16 {
        fill: #8f8f8f;
      }

      .st17 {
        fill: #090028;
      }

      .st2 {
        stroke-width: 4px;
      }

      .st2, .st13 {
        stroke: #8a5dd1;
      }

      .st18 {
        fill: #221a3e;
      }

      .st19 {
        fill: #44425d;
      }

      .st20 {
        fill: #231f20;
        fill-opacity: .25;
      }

      .st3, .st7, .st8 {
        stroke: #ff4930;
      }

      .st3, .st12 {
        stroke-width: 11px;
      }

      .st21 {
        fill: #33c5ff;
      }

      .st22 {
        fill: #ff4930;
      }

      .st23 {
        clip-path: url(#clippath-11);
      }

      .st24 {
        clip-path: url(#clippath-10);
      }

      .st25 {
        clip-path: url(#clippath-1);
      }

      .st26 {
        clip-path: url(#clippath-3);
      }

      .st27 {
        clip-path: url(#clippath-7);
      }

      .st28 {
        clip-path: url(#clippath-6);
      }

      .st29 {
        clip-path: url(#clippath-9);
      }

      .st30 {
        clip-path: url(#clippath-8);
      }

      .st31 {
        clip-path: url(#clippath-5);
      }

      .st32 {
        fill: #dbe3e6;
      }

      .st33 {
        fill: #a9b6bb;
      }

      .st4 {
        stroke-dasharray: 7.89586 7.89586;
      }

      .st34 {
        opacity: .75;
      }

      .st35 {
        opacity: .15;
      }

      .st6 {
        stroke-dasharray: 7.54595 7.54595;
      }

      .st7, .st11 {
        stroke-width: 5px;
      }

      .st9 {
        stroke: #5c478e;
      }

      .st10, .st11, .st12 {
        stroke: #33c5ff;
      }

      .st36 {
        fill: #8a5dd1;
      }

      .st13 {
        stroke-width: .4px;
      }
    </style>
    <clipPath id="clippath-1">
      <rect class="st0" x="941.83122" y="-398.29418" width="324.95899" height="324.95899"/>
    </clipPath>
    <clipPath id="clippath-2">
      <rect class="st0" x="941.83122" y="-398.29418" width="324.95899" height="324.95899"/>
    </clipPath>
    <clipPath id="clippath-3">
      <rect class="st0" x="116.00097" y="-398.29418" width="324.95899" height="324.95899"/>
    </clipPath>
    <clipPath id="clippath-4">
      <rect class="st0" x="116.00097" y="-398.29418" width="324.95899" height="324.95899"/>
    </clipPath>
    <clipPath id="clippath-5">
      <rect class="st0" x="945.12292" y="-842.22224" width="324.95899" height="324.95899"/>
    </clipPath>
    <clipPath id="clippath-6">
      <rect class="st0" x="117.5205" y="-842.22224" width="324.95899" height="324.95899"/>
    </clipPath>
    <clipPath id="clippath-7">
      <path class="st0" d="M488.50246,90.68706l-1.9503-3.20632c3.20877-1.95213,5.12357-5.35644,5.12231-9.10707-.00125-3.73964-1.90977-7.13748-5.10518-9.08961l1.95671-3.20274c4.31991,2.63897,6.89985,7.23385,6.90154,12.2911.00169,5.07221-2.58709,9.67585-6.92509,12.31465Z"/>
    </clipPath>
    <clipPath id="clippath-8">
      <path class="st0" d="M101.46927,90.68706l-1.9503-3.20632c3.20877-1.95213,5.12357-5.35644,5.12231-9.10707-.00125-3.73964-1.90977-7.13748-5.10518-9.08961l1.95671-3.20274c4.31991,2.63897,6.89985,7.23385,6.90154,12.2911.00169,5.07221-2.58709,9.67585-6.92509,12.31465Z"/>
    </clipPath>
    <clipPath id="clippath-9">
      <path class="st0" d="M296.88681,90.68706l-1.9503-3.20632c3.20877-1.95213,5.12357-5.35644,5.12231-9.10707-.00125-3.73964-1.90977-7.13748-5.10518-9.08961l1.95671-3.20274c4.31991,2.63897,6.89985,7.23385,6.90154,12.2911.00169,5.07221-2.58709,9.67585-6.92509,12.31465Z"/>
    </clipPath>
    <clipPath id="clippath-10">
      <rect class="st0" x="1166.53268" y="405.80863" width="190.75606" height="190.91584"/>
    </clipPath>
    <clipPath id="clippath-11">
      <rect class="st0" x="340.70243" y="405.80863" width="190.75606" height="190.91584"/>
    </clipPath>
  </defs>
  <g id="Layer_4">
    <path class="st18" d="M367.04634,305.9991V14.81983c0-8.08759-5.52299-14.64388-12.33595-14.64388h-149.4436c-6.81296,0-12.33595,6.55629-12.33595,14.64388v291.17927c0,8.08759,5.52299,14.64388,12.33595,14.64388h149.4436c6.81296,0,12.33595-6.55629,12.33595-14.64388Z"/>
    <path class="st18" d="M174.95917,305.9991V14.81983c0-8.08759-5.52299-14.64388-12.33595-14.64388H13.17962C6.36666.17595.84367,6.73224.84367,14.81983v291.17927c0,8.08759,5.52299,14.64388,12.33595,14.64388h149.4436c6.81296,0,12.33595-6.55629,12.33595-14.64388Z"/>
    <path class="st18" d="M559.19048,305.9991V14.81983c0-8.08759-5.52299-14.64388-12.33595-14.64388h-149.4436c-6.81296,0-12.33595,6.55629-12.33595,14.64388v291.17927c0,8.08759,5.52299,14.64388,12.33595,14.64388h149.4436c6.81296,0,12.33595-6.55629,12.33595-14.64388Z"/>
    <path class="st17" d="M33.62878,164.1954h110.19782c5.78363,0,10.4792,4.69557,10.4792,10.4792v109.68123H33.62878v-120.16043h0Z"/>
    <path class="st17" d="M225.30544,164.21011h109.40606c5.78363,0,10.4792,4.69557,10.4792,10.4792v109.66652h-119.88526v-120.14572h0Z"/>
    <path class="st17" d="M419.20812,164.14694h109.62498c5.78363,0,10.4792,4.69557,10.4792,10.4792v109.72969h-120.10418v-120.20888h0Z"/>
  </g>
  <g id="Layer_1">
    <g class="st25">
      <g id="KpjvK6">
        <path class="st15" d="M442.46995-426.7365c20.77632,9.23647,47.54945-11.93225,65.92577-19.57394,96.43415-40.1016,193.03796-80.02376,288.94433-121.00674,101.24183-43.26294,211.61575-100.73,313.70233-137.11432,4.33491-1.54499,10.57229-3.83414,14.59285-.51697,11.27296,9.30075,25.48959,33.91414,32.22567,47.29071,7.89481-10.24247,35.10942-6.14393,37.01615-15.5926-2.08659-24.63355-6.5234-48.3752-21.62904-69.06414-6.35733-8.7071-17.11896-9.13605-21.85185-18.26485-5.49753-10.60364.03268-28.73584-7.39743-40.12254l11.23989-1.73181c-2.23784-10.4645.6497-22.82716,11.90423-26.60968l6.87223,12.8214c17.27189-7.05412,39.39834-3.73073,56.48499-7.57149,6.18638-1.39059,12.39973-6.77129,19.42419-8.60234,17.34044-4.52007,32.31005-10.07989,50.22605-13.71048,1.62853,31.94599,19.92452,40.58923,35.81714,63.56288,97.23714,140.56161,237.12883,285.94955,376.91215,385.86394,32.42478,23.1766,33.95959,15.53959,65.99232,22.45683,14.80381,3.19678,50.74775,28.40634,50.71464,43.93606-.01129,5.29658-6.73717,11.12369-8.1823,16.85942-3.08836,12.2578,3.10226,22.01655-15.0329,32.40587l2.67981,4.11797c20.12067,18.67547,37.79027,40.65449,58.17363,59.03378,33.98977,30.64793,73.08638,55.77977,106.9365,87.28568,22.9766,21.38542,59.72154,69.00157,80.48781,83.53378,11.68346,8.17607,34.79086,13.43316,47.49013,23.94391,103.11627,85.34587,123.48857,187.72813,171.21981,303.96519,8.05612,19.6186,20.13931,43.90336,26.54286,61.27606,4.21195,11.42694,3.22521,28.06037,7.98812,40.06275l-21.58374-18.2006c1.40958,22.15201-5.69846,73.19029,4.17669,91.68477,5.76613,10.79899,19.56509,6.49008,12.83247,24.64038l13.27101,1.57917c-9.41563,8.06852-2.13043,18.97379-18.12095,21.78159,7.69699,10.77103,24.71435,4.17509,29.16125,16.19474,2.24784,6.07575-3.1992,45.58963-7.3325,47.65528-12.98563-3.02922-18.38321-14.41276-23.35432-25.65158-8.71326-2.9969-47.47976,43.29813-56.70468,49.40729-12.5848,8.33423-33.57251,6.0385-41.87311,13.4978-10.83104,9.73328,1.30154,21.36824-33.71941,32.07559-53.14174,16.24762-40.04167-30.20852-54.81377-51.44426-10.45766-15.03349-56.09552-53.17917-74.14439-61.43051-34.11587-15.59663-50.49965-13.8147-86.21571-15.58935-10.79258-.53626-18.80022-10.1234-29.2676-.63582-5.07323,4.59834-2.23427,14.98706-10.80585,17.36516-10.23492-17.92868-45.21203-33.88891-55.53933-45.85652-21.56989-24.99593-27.14892-62.36364-62.49305-79.32833-10.89136-5.2277-37.76893-2.9249-43.54534-6.71579-6.20264-4.07061-5.00413-18.12602-21.95586-8.67293l9.982,11.56114c-32.15933,19.44892-25.68999-34.37212-57.87081-31.67729l2.76436-15.37809,28.349,10.57484c-13.15811-14.54903-9.68144-37.03745-17.33154-51.74778-5.49251-10.56152-18.41048-13.4365-19.80113-22.54164-1.29821-8.49989,15.92645-16.4768,10.15327-28.6775l-33.10883,33.33414-18.3455-11.55611c14.02701,15.91692,42.73138,26.11905,36.73135,52.19756-11.28041-8.03283-27.01837,1.80529-37.45441-1.58398-5.23339-1.69962-20.38336-17.42115-29.26889-22.63256-31.71093-18.59859-68.87814-35.13075-96.07606-61.39339-8.56382-8.26933-22.48117-31.90071-29.21519-35.49387-5.71025-3.04689-38.21951,5.97354-33.47525-16.65654,2.80693-13.38905,10.45851-26.25609,13.13128-42.76675,1.92782-11.90884-.87773-25.80317,2.25268-38.01518,4.43111-17.28617,22.81249-36.85364-2.24234-53.70434-3.04537-2.04817-6.58599,3.49733-8.04312,3.23708-4.32266-.77203-7.94629-9.98505-15.14603-3.56838l20.00356,23.17436c-33.08855,22.65977-27.16169-21.32479-43.92687-23.9694-11.02522-1.73916-23.40065,8.86274-30.91411,16.0068,8.4597,19.00518,24.37805,1.67733,37.71597,11.94178l8.70431,47.56982-21.18494,6.86226,8.32285,16.60517c-14.33381,7.53804-16.71682-12.46227-24.90452-20.98552-7.49531-7.80248-22.81466-6.77359-30.6804-16.44564-12.83082-15.77733-7.3192-39.72055-14.35313-58.93189-16.56531-45.24379-22.76808-79.26227-32.47334-126.94858-1.77507-8.72174,1.76346-22.17682-1.82337-31.34247-3.83704-9.80504-14.14513-8.59569-17.75046-14.84699-4.67787-8.11098,2.09375-17.90192-2.25046-26.01423l-16.60526,8.32286c5.51353-25.54-38.20255-38.34775-18.54389-53.16407l-2.46315-4.90211c-15.64405.19352-28.32479-17.93603-40.97224-26.93932-4.64853-3.30913-11.84637-2.7525-15.09509-5.33378-5.70835-4.53559-5.14532-17.21428-13.21724-22.378-9.24757,10.35006-23.7604,9.9672-35.06853,17.47437-8.46755,5.62138-10.07666,16.60006-21.19673,19.11305-8.24347-5.44713-21.92496-29.46738-26.75997-32.29614-4.84835-2.83657-15.68396,3.79022-24.89928-.04622-8.89135-3.70158-29.64613-26.7475-32.66173-27.176-8.17331-1.16138-14.83716,11.71137-24.26888-6.15724-21.67571,22.70683-39.18231-20.34155-50.20164-34.50546-6.71409-1.15005-45.60556-3.18215-47.65739-4.41373-3.11112-1.86739-6.48405-11.92282-12.41102-16.96485-1.62274-1.38045-35.80529-19.01177-37.87327-19.52405-16.9308-4.19411-38.23923,1.97403-52.99885,1.22127-14.34771-.73175-51.42673-11.80875-60.7591-9.5585-8.1402,1.96279-22.50347,16.19815-30.63355,21.93517-4.73541,3.34156-11.61939,2.39572-15.81063,5.75779-1.1834.94928-17.13498,23.31174-17.50527,24.78295-4.40226,17.49061,16.01312,23.68945,18.31626,33.56011-.62751,26.53825-23.88693,12.50262-35.12004,16.4578-28.28749,9.96002-37.63852,54.44056-53.89483,78.9873-2.74875,4.15056-22.01409,34.3564-25.26719,22.19338-10.07018-37.6514-14.074-.70634-22.98758,11.76421-10.17713,14.23832-25.49284,19.69386-37.2622,29.27056-10.30203,8.38274-14.44329,25.31271-32.43466,23.12679-9.02519-22.35756-29.31849-57.14653-57.84008-55.51778-9.11244.52037-15.77037,7.78795-24.87368,8.29267-10.6683.59149-32.1794-14.17338-41.74653-16.15684-8.78548-1.8214-18.35159,2.38509-28.11224,1.30592-16.52472-1.82703-44.57521-12.98522-61.80598-14.08468-89.71762-5.72472-177.80006,23.17366-253.16144,71.29278C6.07665-76.62264-23.7466-45.02874-50.80167-26.80904c-14.76153,9.94086-33.71016,14.97309-48.19874,25.67125-8.63858,6.3786-12.27773,16.59042-21.05564,22.11323-7.78447-2.2816,14.97684-47.73302.30839-63.65531-4.45909-4.84025-14.3179-5.23869-17.17071-12.56288-2.44028-6.26507,2.90314-17.10837,1.70913-24.22867-5.49783-32.78531-29.97988-19.27484-51.95003-27.98974-3.97348-1.57616-36.12835-18.09127-37.97245-19.63685-15.0235-12.59161,1.45598-31.77815-17.09003-44.32364L385.19517-484.14724c28.53446-3.65139,41.239,50.28176,57.27478,57.41074Z"/>
      </g>
    </g>
    <g class="st26">
      <g id="KpjvK62" data-name="KpjvK6">
        <path class="st15" d="M-383.3603-426.7365c20.77632,9.23647,47.54945-11.93225,65.92577-19.57394,96.43415-40.1016,193.03796-80.02376,288.94433-121.00674,101.24183-43.26294,211.61575-100.73,313.70233-137.11432,4.33491-1.54499,10.57229-3.83414,14.59285-.51697,11.27296,9.30075,25.48959,33.91414,32.22567,47.29071,7.89481-10.24247,35.10942-6.14393,37.01615-15.5926-2.08659-24.63355-6.5234-48.3752-21.62904-69.06414-6.35733-8.7071-17.11896-9.13605-21.85185-18.26485-5.49753-10.60364.03268-28.73584-7.39743-40.12254l11.23989-1.73181c-2.23784-10.4645.6497-22.82716,11.90423-26.60968l6.87223,12.8214c17.27189-7.05412,39.39834-3.73073,56.48499-7.57149,6.18638-1.39059,12.39973-6.77129,19.42419-8.60234,17.34044-4.52007,32.31005-10.07989,50.22605-13.71048,1.62853,31.94599,19.92452,40.58923,35.81714,63.56288,97.23714,140.56161,237.12883,285.94955,376.91215,385.86394,32.42478,23.1766,33.95959,15.53959,65.99232,22.45683,14.80381,3.19678,50.74775,28.40634,50.71464,43.93606-.01129,5.29658-6.73717,11.12369-8.1823,16.85942-3.08836,12.2578,3.10226,22.01655-15.0329,32.40587l2.67981,4.11797c20.12067,18.67547,37.79027,40.65449,58.17363,59.03378,33.98977,30.64793,73.08638,55.77977,106.9365,87.28568,22.9766,21.38542,59.72154,69.00157,80.48781,83.53378,11.68346,8.17607,34.79086,13.43316,47.49013,23.94391,103.11627,85.34587,123.48857,187.72813,171.21981,303.96519,8.05612,19.6186,20.13931,43.90336,26.54286,61.27606,4.21195,11.42694,3.22521,28.06037,7.98812,40.06275l-21.58374-18.2006c1.40958,22.15201-5.69846,73.19029,4.17669,91.68477,5.76613,10.79899,19.56509,6.49008,12.83247,24.64038l13.27101,1.57917c-9.41563,8.06852-2.13043,18.97379-18.12095,21.78159,7.69699,10.77103,24.71435,4.17509,29.16125,16.19474,2.24784,6.07575-3.1992,45.58963-7.3325,47.65528-12.98563-3.02922-18.38321-14.41276-23.35432-25.65158-8.71326-2.9969-47.47976,43.29813-56.70468,49.40729-12.5848,8.33423-33.57251,6.0385-41.87311,13.4978-10.83104,9.73328,1.30154,21.36824-33.71941,32.07559-53.14174,16.24762-40.04167-30.20852-54.81377-51.44426-10.45766-15.03349-56.09552-53.17917-74.14439-61.43051-34.11587-15.59663-50.49965-13.8147-86.21571-15.58935-10.79258-.53626-18.80022-10.1234-29.2676-.63582-5.07323,4.59834-2.23427,14.98706-10.80585,17.36516-10.23492-17.92868-45.21203-33.88891-55.53933-45.85652-21.56989-24.99593-27.14892-62.36364-62.49305-79.32833-10.89136-5.2277-37.76893-2.9249-43.54534-6.71579-6.20264-4.07061-5.00413-18.12602-21.95586-8.67293l9.982,11.56114c-32.15933,19.44892-25.68999-34.37212-57.87081-31.67729l2.76436-15.37809,28.349,10.57484c-13.15811-14.54903-9.68144-37.03745-17.33154-51.74778-5.49251-10.56152-18.41048-13.4365-19.80113-22.54164-1.29821-8.49989,15.92645-16.4768,10.15327-28.6775l-33.10883,33.33414-18.3455-11.55611c14.02701,15.91692,42.73138,26.11905,36.73135,52.19756-11.28041-8.03283-27.01837,1.80529-37.45441-1.58398-5.23339-1.69962-20.38336-17.42115-29.26889-22.63256-31.71093-18.59859-68.87814-35.13075-96.07606-61.39339-8.56382-8.26933-22.48117-31.90071-29.21519-35.49387-5.71025-3.04689-38.21951,5.97354-33.47525-16.65654,2.80693-13.38905,10.45851-26.25609,13.13128-42.76675,1.92782-11.90884-.87773-25.80317,2.25268-38.01518,4.43111-17.28617,22.81249-36.85364-2.24234-53.70434-3.04537-2.04817-6.58599,3.49733-8.04312,3.23708-4.32266-.77203-7.94629-9.98505-15.14603-3.56838l20.00356,23.17436c-33.08855,22.65977-27.16169-21.32479-43.92687-23.9694-11.02522-1.73916-23.40065,8.86274-30.91411,16.0068,8.4597,19.00518,24.37805,1.67733,37.71597,11.94178l8.70431,47.56982-21.18494,6.86226,8.32285,16.60517c-14.33381,7.53804-16.71682-12.46227-24.90452-20.98552-7.49531-7.80248-22.81466-6.77359-30.6804-16.44564-12.83082-15.77733-7.3192-39.72055-14.35313-58.93189-16.56531-45.24379-22.76808-79.26227-32.47334-126.94858-1.77507-8.72174,1.76346-22.17682-1.82337-31.34247-3.83704-9.80504-14.14513-8.59569-17.75046-14.84699-4.67787-8.11098,2.09375-17.90192-2.25046-26.01423l-16.60526,8.32286c5.51353-25.54-38.20255-38.34775-18.54389-53.16407l-2.46315-4.90211c-15.64405.19352-28.32479-17.93603-40.97224-26.93932-4.64853-3.30913-11.84637-2.7525-15.09509-5.33378-5.70835-4.53559-5.14532-17.21428-13.21724-22.378-9.24757,10.35006-23.7604,9.9672-35.06853,17.47437-8.46755,5.62138-10.07666,16.60006-21.19673,19.11305-8.24347-5.44713-21.92496-29.46738-26.75997-32.29614-4.84835-2.83657-15.68396,3.79022-24.89928-.04622-8.89135-3.70158-29.64613-26.7475-32.66173-27.176-8.17331-1.16138-14.83716,11.71137-24.26888-6.15724-21.67571,22.70683-39.18231-20.34155-50.20164-34.50546-6.71409-1.15005-45.60556-3.18215-47.65739-4.41373-3.11112-1.86739-6.48405-11.92282-12.41102-16.96485-1.62274-1.38045-35.80529-19.01177-37.87327-19.52405-16.9308-4.19411-38.23923,1.97403-52.99885,1.22127-14.34771-.73175-51.42673-11.80875-60.7591-9.5585-8.1402,1.96279-22.50347,16.19815-30.63355,21.93517-4.73541,3.34156-11.61939,2.39572-15.81063,5.75779-1.1834.94928-17.13498,23.31174-17.50527,24.78295-4.40226,17.49061,16.01312,23.68945,18.31626,33.56011-.62751,26.53825-23.88693,12.50262-35.12004,16.4578-28.28749,9.96002-37.63852,54.44056-53.89483,78.9873-2.74875,4.15056-22.01409,34.3564-25.26719,22.19338-10.07018-37.6514-14.074-.70634-22.98758,11.76421-10.17713,14.23832-25.49284,19.69386-37.2622,29.27056-10.30203,8.38274-14.44329,25.31271-32.43466,23.12679-9.02519-22.35756-29.31849-57.14653-57.84008-55.51778-9.11244.52037-15.77037,7.78795-24.87368,8.29267-10.6683.59149-32.1794-14.17338-41.74653-16.15684-8.78548-1.8214-18.35159,2.38509-28.11224,1.30592-16.52472-1.82703-44.57521-12.98522-61.80598-14.08468-89.71762-5.72472-177.80006,23.17366-253.16144,71.29278-26.46219,16.89642-56.28544,48.49032-83.34051,66.71002-14.76153,9.94086-33.71016,14.97309-48.19874,25.67125-8.63858,6.3786-12.27773,16.59042-21.05564,22.11323-7.78447-2.2816,14.97684-47.73302.30839-63.65531-4.45909-4.84025-14.3179-5.23869-17.17071-12.56288-2.44028-6.26507,2.90314-17.10837,1.70913-24.22867-5.49783-32.78531-29.97988-19.27484-51.95003-27.98974-3.97348-1.57616-36.12835-18.09127-37.97245-19.63685-15.0235-12.59161,1.45598-31.77815-17.09003-44.32364L-440.63508-484.14724c28.53446-3.65139,41.239,50.28176,57.27478,57.41074Z"/>
      </g>
    </g>
    <g class="st31">
      <path class="st14" d="M445.76165-870.66456c20.77632,9.23647,47.54945-11.93225,65.92577-19.57394,96.43415-40.1016,193.03796-80.02376,288.94433-121.00674,101.24183-43.26294,211.61575-100.73,313.70233-137.11432,4.33491-1.54499,10.57229-3.83414,14.59285-.51697,11.27296,9.30075,25.48959,33.91414,32.22567,47.29071,7.89481-10.24247,35.10942-6.14393,37.01615-15.5926-2.08659-24.63355-6.5234-48.3752-21.62904-69.06414-6.35733-8.7071-17.11896-9.13605-21.85185-18.26485-5.49753-10.60364.03268-28.73584-7.39743-40.12254l11.23989-1.73181c-2.23784-10.4645.6497-22.82716,11.90423-26.60968l6.87223,12.8214c17.27189-7.05412,39.39834-3.73073,56.48499-7.57149,6.18638-1.39059,12.39973-6.77129,19.42419-8.60234,17.34044-4.52007,32.31005-10.07989,50.22605-13.71048,1.62853,31.94599,19.92452,40.58923,35.81714,63.56288,97.23714,140.56161,237.12883,285.94955,376.91215,385.86394,32.42478,23.1766,33.95959,15.53959,65.99232,22.45683,14.80381,3.19678,50.74775,28.40634,50.71464,43.93606-.01129,5.29658-6.73717,11.12369-8.1823,16.85942-3.08836,12.2578,3.10226,22.01655-15.0329,32.40587l2.67981,4.11797c20.12067,18.67547,37.79027,40.65449,58.17363,59.03378,33.98977,30.64793,73.08638,55.77977,106.9365,87.28568,22.9766,21.38542,59.72154,69.00157,80.48781,83.53378,11.68346,8.17607,34.79086,13.43316,47.49013,23.94391,103.11627,85.34587,123.48857,187.72813,171.21981,303.96519,8.05612,19.6186,20.13931,43.90336,26.54286,61.27606,4.21195,11.42694,3.22521,28.06037,7.98812,40.06275l-21.58374-18.2006c1.40958,22.15201-5.69846,73.19029,4.17669,91.68477,5.76613,10.79899,19.56509,6.49008,12.83247,24.64038l13.27101,1.57917c-9.41563,8.06852-2.13043,18.97379-18.12095,21.78159,7.69699,10.77103,24.71435,4.17509,29.16125,16.19474,2.24784,6.07575-3.1992,45.58963-7.3325,47.65528-12.98563-3.02922-18.38321-14.41276-23.35432-25.65158-8.71326-2.9969-47.47976,43.29813-56.70468,49.40729-12.5848,8.33423-33.57251,6.0385-41.87311,13.4978-10.83104,9.73328,1.30154,21.36824-33.71941,32.07559-53.14174,16.24762-40.04167-30.20852-54.81377-51.44426-10.45766-15.03349-56.09552-53.17917-74.14439-61.43051-34.11587-15.59663-50.49965-13.8147-86.21571-15.58935-10.79258-.53626-18.80022-10.1234-29.2676-.63582-5.07323,4.59834-2.23427,14.98706-10.80585,17.36516-10.23492-17.92868-45.21203-33.88891-55.53933-45.85652-21.56989-24.99593-27.14892-62.36364-62.49305-79.32833-10.89136-5.2277-37.76893-2.9249-43.54534-6.71579-6.20264-4.07061-5.00413-18.12602-21.95586-8.67293l9.982,11.56114c-32.15933,19.44892-25.68999-34.37212-57.87081-31.67729l2.76436-15.37809,28.349,10.57484c-13.15811-14.54903-9.68144-37.03745-17.33154-51.74778-5.49251-10.56152-18.41048-13.4365-19.80113-22.54164-1.29821-8.49989,15.92645-16.4768,10.15327-28.6775l-33.10883,33.33414-18.3455-11.55611c14.02701,15.91692,42.73138,26.11905,36.73135,52.19756-11.28041-8.03283-27.01837,1.80529-37.45441-1.58398-5.23339-1.69962-20.38336-17.42115-29.26889-22.63256-31.71093-18.59859-68.87814-35.13075-96.07606-61.39339-8.56382-8.26933-22.48117-31.90071-29.21519-35.49387-5.71025-3.04689-38.21951,5.97354-33.47525-16.65654,2.80693-13.38905,10.45851-26.25609,13.13128-42.76675,1.92782-11.90884-.87773-25.80317,2.25268-38.01518,4.43111-17.28617,22.81249-36.85364-2.24234-53.70434-3.04537-2.04817-6.58599,3.49733-8.04312,3.23708-4.32266-.77203-7.94629-9.98505-15.14603-3.56838l20.00356,23.17436c-33.08855,22.65977-27.16169-21.32479-43.92687-23.9694-11.02522-1.73916-23.40065,8.86274-30.91411,16.0068,8.4597,19.00518,24.37805,1.67733,37.71597,11.94178l8.70431,47.56982-21.18494,6.86226,8.32285,16.60517c-14.33381,7.53804-16.71682-12.46227-24.90452-20.98552-7.49531-7.80248-22.81466-6.77359-30.6804-16.44564-12.83082-15.77733-7.3192-39.72055-14.35313-58.93189-16.56531-45.24379-22.76808-79.26227-32.47334-126.94858-1.77507-8.72174,1.76346-22.17682-1.82337-31.34247-3.83704-9.80504-14.14513-8.59569-17.75046-14.84699-4.67787-8.11098,2.09375-17.90192-2.25046-26.01423l-16.60526,8.32286c5.51353-25.54-38.20255-38.34775-18.54389-53.16407l-2.46315-4.90211c-15.64405.19352-28.32479-17.93603-40.97224-26.93932-4.64853-3.30913-11.84637-2.7525-15.09509-5.33378-5.70835-4.53559-5.14532-17.21428-13.21724-22.378-9.24757,10.35006-23.7604,9.9672-35.06853,17.47437-8.46755,5.62138-10.07666,16.60006-21.19673,19.11305-8.24347-5.44713-21.92496-29.46738-26.75997-32.29614-4.84835-2.83657-15.68396,3.79022-24.89928-.04622-8.89135-3.70158-29.64613-26.7475-32.66173-27.176-8.17331-1.16138-14.83716,11.71137-24.26888-6.15724-21.67571,22.70683-39.18231-20.34155-50.20164-34.50546-6.71409-1.15005-45.60556-3.18215-47.65739-4.41373-3.11112-1.86739-6.48405-11.92282-12.41102-16.96485-1.62274-1.38045-35.80529-19.01177-37.87327-19.52405-16.9308-4.19411-38.23923,1.97403-52.99885,1.22127-14.34771-.73175-51.42673-11.80875-60.7591-9.5585-8.1402,1.96279-22.50347,16.19815-30.63355,21.93517-4.73541,3.34156-11.61939,2.39572-15.81063,5.75779-1.1834.94928-17.13498,23.31174-17.50527,24.78295-4.40226,17.49061,16.01312,23.68945,18.31626,33.56011-.62751,26.53825-23.88693,12.50262-35.12004,16.4578-28.28749,9.96002-37.63852,54.44056-53.89483,78.9873-2.74875,4.15056-22.01409,34.3564-25.26719,22.19338-10.07018-37.6514-14.074-.70634-22.98758,11.76421-10.17713,14.23832-25.49284,19.69386-37.2622,29.27056-10.30203,8.38274-14.44329,25.31271-32.43466,23.12679-9.02519-22.35756-29.31849-57.14653-57.84008-55.51778-9.11244.52037-15.77037,7.78795-24.87368,8.29267-10.6683.59149-32.1794-14.17338-41.74653-16.15684-8.78548-1.8214-18.35159,2.38509-28.11224,1.30592-16.52472-1.82703-44.57521-12.98522-61.80598-14.08468-89.71762-5.72472-177.80006,23.17366-253.16144,71.29278-26.46219,16.89642-56.28544,48.49032-83.34051,66.71002-14.76153,9.94086-33.71016,14.97309-48.19874,25.67125-8.63858,6.3786-12.27773,16.59042-21.05564,22.11323-7.78447-2.2816,14.97684-47.73302.30839-63.65531-4.45909-4.84025-14.3179-5.23869-17.17071-12.56288-2.44028-6.26507,2.90314-17.10837,1.70913-24.22867-5.49783-32.78531-29.97988-19.27484-51.95003-27.98974-3.97348-1.57616-36.12835-18.09127-37.97245-19.63685-15.0235-12.59161,1.45598-31.77815-17.09003-44.32364l627.41693-312.7256c28.53446-3.65139,41.239,50.28176,57.27478,57.41074Z"/>
    </g>
    <g class="st28">
      <path class="st14" d="M-381.84077-870.66456c20.77632,9.23647,47.54945-11.93225,65.92577-19.57394,96.43415-40.1016,193.03796-80.02376,288.94433-121.00674,101.24183-43.26294,211.61575-100.73,313.70233-137.11432,4.33491-1.54499,10.57229-3.83414,14.59285-.51697,11.27296,9.30075,25.48959,33.91414,32.22567,47.29071,7.89481-10.24247,35.10942-6.14393,37.01615-15.5926-2.08659-24.63355-6.5234-48.3752-21.62904-69.06414-6.35733-8.7071-17.11896-9.13605-21.85185-18.26485-5.49753-10.60364.03268-28.73584-7.39743-40.12254l11.23989-1.73181c-2.23784-10.4645.6497-22.82716,11.90423-26.60968l6.87223,12.8214c17.27189-7.05412,39.39834-3.73073,56.48499-7.57149,6.18638-1.39059,12.39973-6.77129,19.42419-8.60234,17.34044-4.52007,32.31005-10.07989,50.22605-13.71048,1.62853,31.94599,19.92452,40.58923,35.81714,63.56288,97.23714,140.56161,237.12883,285.94955,376.91215,385.86394,32.42478,23.1766,33.95959,15.53959,65.99232,22.45683,14.80381,3.19678,50.74775,28.40634,50.71464,43.93606-.01129,5.29658-6.73717,11.12369-8.1823,16.85942-3.08836,12.2578,3.10226,22.01655-15.0329,32.40587l2.67981,4.11797c20.12067,18.67547,37.79027,40.65449,58.17363,59.03378,33.98977,30.64793,73.08638,55.77977,106.9365,87.28568,22.9766,21.38542,59.72154,69.00157,80.48781,83.53378,11.68346,8.17607,34.79086,13.43316,47.49013,23.94391,103.11627,85.34587,123.48857,187.72813,171.21981,303.96519,8.05612,19.6186,20.13931,43.90336,26.54286,61.27606,4.21195,11.42694,3.22521,28.06037,7.98812,40.06275l-21.58374-18.2006c1.40958,22.15201-5.69846,73.19029,4.17669,91.68477,5.76613,10.79899,19.56509,6.49008,12.83247,24.64038l13.27101,1.57917c-9.41563,8.06852-2.13043,18.97379-18.12095,21.78159,7.69699,10.77103,24.71435,4.17509,29.16125,16.19474,2.24784,6.07575-3.1992,45.58963-7.3325,47.65528-12.98563-3.02922-18.38321-14.41276-23.35432-25.65158-8.71326-2.9969-47.47976,43.29813-56.70468,49.40729-12.5848,8.33423-33.57251,6.0385-41.87311,13.4978-10.83104,9.73328,1.30154,21.36824-33.71941,32.07559-53.14174,16.24762-40.04167-30.20852-54.81377-51.44426-10.45766-15.03349-56.09552-53.17917-74.14439-61.43051-34.11587-15.59663-50.49965-13.8147-86.21571-15.58935-10.79258-.53626-18.80022-10.1234-29.2676-.63582-5.07323,4.59834-2.23427,14.98706-10.80585,17.36516-10.23492-17.92868-45.21203-33.88891-55.53933-45.85652-21.56989-24.99593-27.14892-62.36364-62.49305-79.32833-10.89136-5.2277-37.76893-2.9249-43.54534-6.71579-6.20264-4.07061-5.00413-18.12602-21.95586-8.67293l9.982,11.56114c-32.15933,19.44892-25.68999-34.37212-57.87081-31.67729l2.76436-15.37809,28.349,10.57484c-13.15811-14.54903-9.68144-37.03745-17.33154-51.74778-5.49251-10.56152-18.41048-13.4365-19.80113-22.54164-1.29821-8.49989,15.92645-16.4768,10.15327-28.6775l-33.10883,33.33414-18.3455-11.55611c14.02701,15.91692,42.73138,26.11905,36.73135,52.19756-11.28041-8.03283-27.01837,1.80529-37.45441-1.58398-5.23339-1.69962-20.38336-17.42115-29.26889-22.63256-31.71093-18.59859-68.87814-35.13075-96.07606-61.39339-8.56382-8.26933-22.48117-31.90071-29.21519-35.49387-5.71025-3.04689-38.21951,5.97354-33.47525-16.65654,2.80693-13.38905,10.45851-26.25609,13.13128-42.76675,1.92782-11.90884-.87773-25.80317,2.25268-38.01518,4.43111-17.28617,22.81249-36.85364-2.24234-53.70434-3.04537-2.04817-6.58599,3.49733-8.04312,3.23708-4.32266-.77203-7.94629-9.98505-15.14603-3.56838l20.00356,23.17436c-33.08855,22.65977-27.16169-21.32479-43.92687-23.9694-11.02522-1.73916-23.40065,8.86274-30.91411,16.0068,8.4597,19.00518,24.37805,1.67733,37.71597,11.94178l8.70431,47.56982-21.18494,6.86226,8.32285,16.60517c-14.33381,7.53804-16.71682-12.46227-24.90452-20.98552-7.49531-7.80248-22.81466-6.77359-30.6804-16.44564-12.83082-15.77733-7.3192-39.72055-14.35313-58.93189-16.56531-45.24379-22.76808-79.26227-32.47334-126.94858-1.77507-8.72174,1.76346-22.17682-1.82337-31.34247-3.83704-9.80504-14.14513-8.59569-17.75046-14.84699-4.67787-8.11098,2.09375-17.90192-2.25046-26.01423l-16.60526,8.32286c5.51353-25.54-38.20255-38.34775-18.54389-53.16407l-2.46315-4.90211c-15.64405.19352-28.32479-17.93603-40.97224-26.93932-4.64853-3.30913-11.84637-2.7525-15.09509-5.33378-5.70835-4.53559-5.14532-17.21428-13.21724-22.378-9.24757,10.35006-23.7604,9.9672-35.06853,17.47437-8.46755,5.62138-10.07666,16.60006-21.19673,19.11305-8.24347-5.44713-21.92496-29.46738-26.75997-32.29614-4.84835-2.83657-15.68396,3.79022-24.89928-.04622-8.89135-3.70158-29.64613-26.7475-32.66173-27.176-8.17331-1.16138-14.83716,11.71137-24.26888-6.15724-21.67571,22.70683-39.18231-20.34155-50.20164-34.50546-6.71409-1.15005-45.60556-3.18215-47.65739-4.41373-3.11112-1.86739-6.48405-11.92282-12.41102-16.96485-1.62274-1.38045-35.80529-19.01177-37.87327-19.52405-16.9308-4.19411-38.23923,1.97403-52.99885,1.22127-14.34771-.73175-51.42673-11.80875-60.7591-9.5585-8.1402,1.96279-22.50347,16.19815-30.63355,21.93517-4.73541,3.34156-11.61939,2.39572-15.81063,5.75779-1.1834.94928-17.13498,23.31174-17.50527,24.78295-4.40226,17.49061,16.01312,23.68945,18.31626,33.56011-.62751,26.53825-23.88693,12.50262-35.12004,16.4578-28.28749,9.96002-37.63852,54.44056-53.89483,78.9873-2.74875,4.15056-22.01409,34.3564-25.26719,22.19338-10.07018-37.6514-14.074-.70634-22.98758,11.76421-10.17713,14.23832-25.49284,19.69386-37.2622,29.27056-10.30203,8.38274-14.44329,25.31271-32.43466,23.12679-9.02519-22.35756-29.31849-57.14653-57.84008-55.51778-9.11244.52037-15.77037,7.78795-24.87368,8.29267-10.6683.59149-32.1794-14.17338-41.74653-16.15684-8.78548-1.8214-18.35159,2.38509-28.11224,1.30592-16.52472-1.82703-44.57521-12.98522-61.80598-14.08468-89.71762-5.72472-177.80006,23.17366-253.16144,71.29278-26.46219,16.89642-56.28544,48.49032-83.34051,66.71002-14.76153,9.94086-33.71016,14.97309-48.19874,25.67125-8.63858,6.3786-12.27773,16.59042-21.05564,22.11323-7.78447-2.2816,14.97684-47.73302.30839-63.65531-4.45909-4.84025-14.3179-5.23869-17.17071-12.56288-2.44028-6.26507,2.90314-17.10837,1.70913-24.22867-5.49783-32.78531-29.97988-19.27484-51.95003-27.98974-3.97348-1.57616-36.12835-18.09127-37.97245-19.63685-15.0235-12.59161,1.45598-31.77815-17.09003-44.32364l627.41693-312.7256c28.53446-3.65139,41.239,50.28176,57.27478,57.41074Z"/>
    </g>
    <g>
      <rect class="st0" x="206.92389" y="163.67082" width="12.31755" height="66.96658"/>
      <path class="st21" d="M207.52441,214.43159v-1.56006h10.64941v1.56006h-10.64941Z"/>
      <path class="st21" d="M213.71924,203.58686h4.45459v1.56006h-3.76465c-1.83008,0-2.49023.73486-2.49023,1.83008,0,1.48486,1.16992,2.23486,2.29492,2.31006h3.95996v1.55957h-7.58984v-1.46973l1.21533-.0752c-.76514-.71973-1.36523-1.69482-1.36523-2.9248,0-1.78467,1.16992-2.79004,3.28516-2.79004Z"/>
      <path class="st21" d="M210.58398,201.62104v-1.46973l1.56006-.08984c-.95996-.4502-1.70996-1.53027-1.70996-2.89502,0-2.1748,1.77002-3.81006,3.94482-3.81006s3.94482,1.63525,3.94482,3.81006c0,1.36475-.75,2.44482-1.72461,2.89502h5.02441v1.55957h-11.03955ZM216.83887,197.42134c0-1.4248-1.10986-2.48975-2.45996-2.48975s-2.45996,1.06494-2.45996,2.48975,1.10986,2.45996,2.45996,2.45996,2.45996-1.03516,2.45996-2.45996Z"/>
      <path class="st21" d="M210.58398,184.58149h7.58984v1.47021l-1.21484.07471c.76465.72021,1.36475,1.69531,1.36475,2.92529,0,1.78467-1.16992,2.78955-3.28467,2.78955h-4.45508v-1.56006h3.76514c1.82959,0,2.48975-.73486,2.48975-1.82959,0-1.56006-1.29004-2.31006-2.4751-2.31006h-3.77979v-1.56006Z"/>
      <path class="st21" d="M212.06885,178.59614v1.61963h6.10498v1.5752h-6.10498v1.125h-1.48486v-1.125h-2.25v-1.5752h2.25v-1.61963h1.48486Z"/>
      <path class="st21" d="M216.68896,170.60151v-5.87939h1.48486v7.48438h-1.48486c-3.19482,0-3.41992-5.90967-6.01465-5.90967-1.05029,0-1.81494.79492-1.81494,1.97998,0,1.39502.82471,2.37012,1.96484,2.37012v1.55957c-1.91992,0-3.4502-1.66455-3.4502-3.94482,0-2.00977,1.32031-3.53955,3.34521-3.53955,3.65967,0,3.8999,5.87939,5.96973,5.87939Z"/>
    </g>
    <g>
      <rect class="st0" x="278.29603" y="292.00889" width="66.96658" height="12.31755"/>
      <path class="st22" d="M296.25684,292.6103h1.55957v10.64941h-1.55957v-10.64941Z"/>
      <path class="st22" d="M307.10156,298.80512v4.45459h-1.56055v-3.76465c0-1.83008-.73438-2.49023-1.83008-2.49023-1.48438,0-2.23438,1.16992-2.30957,2.29492v3.95996h-1.55957v-7.58984h1.46973l.0752,1.21533c.71973-.76514,1.69531-1.36523,2.9248-1.36523,1.78418,0,2.79004,1.16992,2.79004,3.28516Z"/>
      <path class="st22" d="M309.06738,295.66987h1.46973l.08984,1.56006c.4502-.95996,1.53027-1.70996,2.89453-1.70996,2.17578,0,3.81055,1.77002,3.81055,3.94482s-1.63477,3.94482-3.81055,3.94482c-1.36426,0-2.44434-.75-2.89453-1.72461v5.02441h-1.55957v-11.03955ZM313.26758,301.92475c1.42383,0,2.48926-1.10986,2.48926-2.45996s-1.06543-2.45996-2.48926-2.45996c-1.42578,0-2.46094,1.10986-2.46094,2.45996s1.03516,2.45996,2.46094,2.45996Z"/>
      <path class="st22" d="M326.10742,295.66987v7.58984h-1.4707l-.07422-1.21484c-.7207.76465-1.69531,1.36475-2.92578,1.36475-1.78516,0-2.78906-1.16992-2.78906-3.28467v-4.45508h1.55957v3.76514c0,1.82959.73535,2.48975,1.8291,2.48975,1.56055,0,2.31055-1.29004,2.31055-2.4751v-3.77979h1.56055Z"/>
      <path class="st22" d="M332.0918,297.15473h-1.61914v6.10498h-1.5752v-6.10498h-1.125v-1.48486h1.125v-2.24951h1.5752v2.24951h1.61914v1.48486Z"/>
      <path class="st22" d="M344.52637,301.77485v1.48486h-6.35938v-1.48486h2.39941v-7.24463l-2.07031.46484v-1.54492l3.64551-.83984v9.16455h2.38477Z"/>
    </g>
    <g class="st35">
      <line class="st13" x1="225.26261" y1="164.27062" x2="225.26261" y2="284.20814"/>
      <line class="st13" x1="235.26261" y1="164.27062" x2="235.26261" y2="284.20814"/>
      <line class="st13" x1="245.26261" y1="164.27062" x2="245.26261" y2="284.20814"/>
      <line class="st13" x1="255.26261" y1="164.27062" x2="255.26261" y2="284.20814"/>
      <line class="st13" x1="265.26261" y1="164.27062" x2="265.26261" y2="284.20814"/>
      <line class="st13" x1="275.26261" y1="164.27062" x2="275.26261" y2="284.20814"/>
      <line class="st13" x1="285.26261" y1="164.27062" x2="285.26261" y2="284.20814"/>
      <line class="st13" x1="295.26261" y1="164.27062" x2="295.26261" y2="284.20814"/>
      <line class="st13" x1="305.26261" y1="164.27062" x2="305.26261" y2="284.20814"/>
      <line class="st13" x1="315.26261" y1="164.27062" x2="315.26261" y2="284.20814"/>
      <line class="st13" x1="325.26261" y1="164.27062" x2="325.26261" y2="284.20814"/>
      <line class="st13" x1="335.26261" y1="164.27062" x2="335.26261" y2="284.20814"/>
      <line class="st13" x1="345.26261" y1="174.14913" x2="345.26261" y2="284.20814"/>
      <line class="st13" x1="335.17422" y1="164.20782" x2="225.29176" y2="164.20782"/>
      <line class="st13" x1="345.21306" y1="174.20782" x2="225.29176" y2="174.20782"/>
      <line class="st13" x1="345.21306" y1="184.20782" x2="225.29176" y2="184.20782"/>
      <line class="st13" x1="345.21306" y1="194.20782" x2="225.29176" y2="194.20782"/>
      <line class="st13" x1="345.21306" y1="204.20782" x2="225.29176" y2="204.20782"/>
      <line class="st13" x1="345.25921" y1="214.20782" x2="225.29638" y2="214.20782"/>
      <line class="st13" x1="345.25921" y1="224.20782" x2="225.29638" y2="224.20782"/>
      <line class="st13" x1="345.25921" y1="234.20782" x2="225.29638" y2="234.20782"/>
      <line class="st13" x1="345.25921" y1="244.20782" x2="225.29638" y2="244.20782"/>
      <line class="st13" x1="345.25921" y1="254.20782" x2="225.29638" y2="254.20782"/>
      <line class="st13" x1="345.25921" y1="264.20782" x2="225.29638" y2="264.20782"/>
      <line class="st13" x1="345.25921" y1="274.20782" x2="225.29638" y2="274.20782"/>
      <line class="st13" x1="345.25921" y1="284.20782" x2="225.29638" y2="284.20782"/>
    </g>
    <polyline class="st9" points="225.29637 163.8484 225.29637 284.35582 345.50843 284.35582"/>
    <g>
      <line class="st5" x1="225.44405" y1="240.49467" x2="229.38765" y2="241.16406"/>
      <line class="st1" x1="236.86612" y1="242.43347" x2="337.82559" y2="259.5705"/>
      <line class="st5" x1="341.56485" y1="260.20521" x2="345.50842" y2="260.8746"/>
    </g>
    <g>
      <rect class="st0" x="224.34663" y="262.98964" width="81.4357" height="12.72687"/>
      <path class="st36" d="M255.44824,267.73188c.37012-.31982.73242-.55322,1.08691-.70068s.71143-.22119,1.07129-.22119c.50049,0,1.19531.19434,2.08398.58203.88867.38818,1.51562.58203,1.88086.58203.41162,0,.81445-.10938,1.20801-.32812s.73145-.49707,1.0127-.83594v1.70312c-.33789.27637-.69678.49609-1.07715.66016-.38086.16406-.77197.24609-1.17383.24609-.15576,0-.33789-.01807-.54688-.05469-.20898-.03613-.39648-.08057-.5625-.13281-.09131-.02588-.3418-.12109-.75195-.28516s-.60156-.24609-.57471-.24609c-.36963-.16113-.65137-.27344-.84424-.33594-.31641-.09863-.6001-.14844-.85205-.14844-.46631,0-.90576.13721-1.31836.41211-.24121.16113-.53369.4248-.87646.79102l.23438-1.6875ZM255.21387,271.10688c.34277-.29492.69922-.52344,1.06934-.68604.36963-.1626.7583-.24365,1.16553-.24365.49854,0,1.20752.19434,2.12646.58203.91943.38818,1.56104.58203,1.92578.58203.32129,0,.69141-.08789,1.10938-.26367s.81152-.47607,1.18164-.90039v1.70312c-.34863.28125-.71143.50293-1.08936.66406-.37793.16162-.76514.24219-1.16162.24219-.23047,0-.44629-.01953-.64746-.05859-.20068-.03906-.35498-.0791-.46191-.12109-.09131-.03125-.5332-.21094-1.32666-.53906-.354-.15088-.63232-.26025-.83594-.32812-.32715-.104-.6167-.15625-.86865-.15625-.46582,0-.90283.13623-1.31006.40918-.23584.16016-.52783.4248-.87646.79395v-1.67969Z"/>
      <path class="st36" d="M278.30273,267.48286v3.64941c0,2.48096-1.96875,4.01758-4.16162,4.01758s-4.16162-1.53662-4.16162-4.01758v-3.64941c0-2.48145,1.96875-4.01758,4.16162-4.01758s4.16162,1.53613,4.16162,4.01758ZM276.92627,271.13227v-3.64941c0-1.60107-1.24854-2.72119-2.78516-2.72119s-2.78516,1.12012-2.78516,2.72119v3.64941c0,1.60059,1.24854,2.72119,2.78516,2.72119s2.78516-1.12061,2.78516-2.72119Z"/>
    </g>
    <g>
      <rect class="st0" x="242.95439" y="203.69585" width="81.4357" height="12.72687"/>
      <path class="st36" d="M275.04785,208.43794c.37012-.31982.73242-.55322,1.08691-.70068s.71143-.22119,1.07129-.22119c.50049,0,1.19531.19434,2.08398.58203.88867.38818,1.51562.58203,1.88086.58203.41113,0,.81445-.10938,1.20801-.32812s.73145-.49707,1.0127-.83594v1.70312c-.33789.27637-.69629.49609-1.07715.66016s-.77148.24609-1.17383.24609c-.15576,0-.33789-.01807-.54688-.05469-.20898-.03613-.39648-.08057-.5625-.13281-.09131-.02588-.3418-.12109-.75195-.28516s-.60156-.24609-.57471-.24609c-.36963-.16113-.65137-.27344-.84424-.33594-.31641-.09863-.6001-.14844-.85205-.14844-.46631,0-.90576.13721-1.31836.41211-.24121.16113-.53369.4248-.87646.79102l.23438-1.6875ZM274.81348,211.81294c.34277-.29492.69922-.52344,1.06934-.68604.36963-.1626.7583-.24365,1.16553-.24365.49854,0,1.20752.19434,2.12646.58203.91943.38818,1.56104.58203,1.92578.58203.32129,0,.69141-.08789,1.10938-.26367s.81152-.47607,1.18164-.90039v1.70312c-.34863.28125-.71191.50293-1.08887.66406-.37891.16162-.76562.24219-1.16211.24219-.23047,0-.44629-.01953-.64746-.05859-.20068-.03906-.35498-.0791-.46191-.12109-.09131-.03125-.5332-.21094-1.32666-.53906-.354-.15088-.63232-.26025-.83594-.32812-.32715-.104-.6167-.15625-.86865-.15625-.46582,0-.90283.13623-1.31006.40918-.23584.16016-.52783.4248-.87646.79395v-1.67969Z"/>
      <path class="st36" d="M296.07812,214.39936v1.29639h-6.65918v-1.29639h2.6416v-8.37158l-2.19336.54443v-1.37646l3.56934-.86475v10.06836h2.6416Z"/>
    </g>
    <g>
      <path class="st21" d="M400.46777,214.43159v-1.56006h10.64941v1.56006h-10.64941Z"/>
      <path class="st21" d="M406.66309,203.58686h4.4541v1.56006h-3.76465c-1.83008,0-2.49023.73486-2.49023,1.83008,0,1.48486,1.16992,2.23486,2.29492,2.31006h3.95996v1.55957h-7.58984v-1.46973l1.21582-.0752c-.76562-.71973-1.36523-1.69482-1.36523-2.9248,0-1.78467,1.16992-2.79004,3.28516-2.79004Z"/>
      <path class="st21" d="M403.52734,201.62104v-1.46973l1.56055-.08984c-.95996-.4502-1.70996-1.53027-1.70996-2.89502,0-2.1748,1.76953-3.81006,3.94434-3.81006s3.94531,1.63525,3.94531,3.81006c0,1.36475-.75,2.44482-1.72461,2.89502h5.02441v1.55957h-11.04004ZM409.78223,197.42134c0-1.4248-1.10938-2.48975-2.45996-2.48975-1.34961,0-2.45996,1.06494-2.45996,2.48975s1.11035,2.45996,2.45996,2.45996c1.35059,0,2.45996-1.03516,2.45996-2.45996Z"/>
      <path class="st21" d="M403.52734,184.58149h7.58984v1.47021l-1.21484.07471c.76465.72021,1.36523,1.69531,1.36523,2.92529,0,1.78467-1.16992,2.78955-3.28516,2.78955h-4.45508v-1.56006h3.76562c1.8291,0,2.48926-.73486,2.48926-1.82959,0-1.56006-1.29004-2.31006-2.47461-2.31006h-3.78027v-1.56006Z"/>
      <path class="st21" d="M405.0127,178.59614v1.61963h6.10449v1.5752h-6.10449v1.125h-1.48535v-1.125h-2.25v-1.5752h2.25v-1.61963h1.48535Z"/>
      <path class="st21" d="M409.63281,170.60151v-5.87939h1.48438v7.48438h-1.48438c-3.19531,0-3.41992-5.90967-6.01465-5.90967-1.05078,0-1.81543.79492-1.81543,1.97998,0,1.39502.8252,2.37012,1.96484,2.37012v1.55957c-1.91992,0-3.4502-1.66455-3.4502-3.94482,0-2.00977,1.32031-3.53955,3.3457-3.53955,3.65918,0,3.89941,5.87939,5.96973,5.87939Z"/>
    </g>
    <g>
      <rect class="st0" x="472.08525" y="292.00889" width="66.96658" height="12.31755"/>
      <path class="st22" d="M490.04395,292.6103h1.55957v10.64941h-1.55957v-10.64941Z"/>
      <path class="st22" d="M500.88867,298.80512v4.45459h-1.56055v-3.76465c0-1.83008-.73438-2.49023-1.83008-2.49023-1.48438,0-2.23438,1.16992-2.30957,2.29492v3.95996h-1.55957v-7.58984h1.46973l.0752,1.21533c.71973-.76514,1.69531-1.36523,2.9248-1.36523,1.78418,0,2.79004,1.16992,2.79004,3.28516Z"/>
      <path class="st22" d="M502.85449,295.66987h1.46973l.08984,1.56006c.4502-.95996,1.53027-1.70996,2.89453-1.70996,2.17578,0,3.81055,1.77002,3.81055,3.94482s-1.63477,3.94482-3.81055,3.94482c-1.36426,0-2.44434-.75-2.89453-1.72461v5.02441h-1.55957v-11.03955ZM507.05469,301.92475c1.42383,0,2.48926-1.10986,2.48926-2.45996s-1.06543-2.45996-2.48926-2.45996c-1.42578,0-2.46094,1.10986-2.46094,2.45996s1.03516,2.45996,2.46094,2.45996Z"/>
      <path class="st22" d="M519.89453,295.66987v7.58984h-1.4707l-.07422-1.21484c-.7207.76465-1.69531,1.36475-2.92578,1.36475-1.78516,0-2.78906-1.16992-2.78906-3.28467v-4.45508h1.55957v3.76514c0,1.82959.73535,2.48975,1.8291,2.48975,1.56055,0,2.31055-1.29004,2.31055-2.4751v-3.77979h1.56055Z"/>
      <path class="st22" d="M525.87891,297.15473h-1.61914v6.10498h-1.5752v-6.10498h-1.125v-1.48486h1.125v-2.24951h1.5752v2.24951h1.61914v1.48486Z"/>
      <path class="st22" d="M538.31348,301.77485v1.48486h-6.35938v-1.48486h2.39941v-7.24463l-2.07031.46484v-1.54492l3.64551-.83984v9.16455h2.38477Z"/>
    </g>
    <g class="st35">
      <line class="st13" x1="419.05182" y1="164.27062" x2="419.05182" y2="284.20814"/>
      <line class="st13" x1="429.05182" y1="164.27062" x2="429.05182" y2="284.20814"/>
      <line class="st13" x1="439.05182" y1="164.27062" x2="439.05182" y2="284.20814"/>
      <line class="st13" x1="449.05182" y1="164.27062" x2="449.05182" y2="284.20814"/>
      <line class="st13" x1="459.05182" y1="164.27062" x2="459.05182" y2="284.20814"/>
      <line class="st13" x1="469.05182" y1="164.27062" x2="469.05182" y2="284.20814"/>
      <line class="st13" x1="479.05182" y1="164.27062" x2="479.05182" y2="284.20814"/>
      <line class="st13" x1="489.05182" y1="164.27062" x2="489.05182" y2="284.20814"/>
      <line class="st13" x1="499.05182" y1="164.27062" x2="499.05182" y2="284.20814"/>
      <line class="st13" x1="509.05182" y1="164.27062" x2="509.05182" y2="284.20814"/>
      <line class="st13" x1="519.05182" y1="164.27062" x2="519.05182" y2="284.20814"/>
      <line class="st13" x1="529.05182" y1="164.27062" x2="529.05182" y2="284.20814"/>
      <line class="st13" x1="539.05182" y1="174.25989" x2="539.05182" y2="284.20814"/>
      <line class="st13" x1="529.09739" y1="164.20782" x2="419.08098" y2="164.20782"/>
      <line class="st13" x1="539.00228" y1="174.20782" x2="419.08098" y2="174.20782"/>
      <line class="st13" x1="539.00228" y1="184.20782" x2="419.08098" y2="184.20782"/>
      <line class="st13" x1="539.00228" y1="194.20782" x2="419.08098" y2="194.20782"/>
      <line class="st13" x1="539.00228" y1="204.20782" x2="419.08098" y2="204.20782"/>
      <line class="st13" x1="539.04842" y1="214.20782" x2="419.0856" y2="214.20782"/>
      <line class="st13" x1="539.04842" y1="224.20782" x2="419.0856" y2="224.20782"/>
      <line class="st13" x1="539.04842" y1="234.20782" x2="419.0856" y2="234.20782"/>
      <line class="st13" x1="539.04842" y1="244.20782" x2="419.0856" y2="244.20782"/>
      <line class="st13" x1="539.04842" y1="254.20782" x2="419.0856" y2="254.20782"/>
      <line class="st13" x1="539.04842" y1="264.20782" x2="419.0856" y2="264.20782"/>
      <line class="st13" x1="539.04842" y1="274.20782" x2="419.0856" y2="274.20782"/>
      <line class="st13" x1="539.04842" y1="284.20782" x2="419.0856" y2="284.20782"/>
    </g>
    <polyline class="st9" points="419.12724 163.8484 419.12724 284.35582 539.3393 284.35582"/>
    <g>
      <line class="st5" x1="471.25851" y1="163.84841" x2="471.76544" y2="167.81615"/>
      <line class="st6" x1="472.72177" y1="175.30126" x2="485.6322" y2="276.35017"/>
      <line class="st5" x1="486.11035" y1="280.09271" x2="486.61731" y2="284.06046"/>
    </g>
    <g>
      <path class="st36" d="M500.23535,222.32026c.37012-.31982.73242-.55322,1.08691-.70068s.71094-.22119,1.07129-.22119c.50098,0,1.19531.19434,2.08398.58203.88867.38818,1.51562.58203,1.88086.58203.41113,0,.81445-.10938,1.20801-.32812s.73145-.49707,1.0127-.83594v1.70312c-.33789.27637-.69629.49609-1.07715.66016s-.77148.24609-1.17383.24609c-.15625,0-.33789-.01807-.54688-.05469-.20898-.03613-.39648-.08057-.5625-.13281-.0918-.02588-.3418-.12109-.75195-.28516s-.60156-.24609-.57422-.24609c-.37012-.16113-.65234-.27344-.84473-.33594-.31641-.09863-.60059-.14844-.85254-.14844-.46582,0-.90527.13721-1.31836.41211-.24023.16113-.5332.4248-.87598.79102l.23438-1.6875ZM500.00098,225.69526c.34277-.29492.69922-.52344,1.06934-.68604.36914-.1626.75781-.24365,1.16602-.24365.49805,0,1.20703.19434,2.12598.58203.91895.38818,1.56152.58203,1.92578.58203.32129,0,.69141-.08789,1.10938-.26367s.81152-.47607,1.18164-.90039v1.70312c-.34863.28125-.71191.50293-1.08887.66406-.37891.16162-.76562.24219-1.16211.24219-.23047,0-.44629-.01953-.64746-.05859-.2002-.03906-.35449-.0791-.46191-.12109-.0918-.03125-.5332-.21094-1.32617-.53906-.35449-.15088-.63281-.26025-.83594-.32812-.32812-.104-.61719-.15625-.86914-.15625-.46582,0-.90234.13623-1.31055.40918-.23535.16016-.52734.4248-.87598.79395v-1.67969Z"/>
      <path class="st36" d="M521.26562,228.28169v1.29639h-6.65918v-1.29639h2.6416v-8.37158l-2.19336.54443v-1.37646l3.56934-.86475v10.06836h2.6416Z"/>
    </g>
    <g>
      <path class="st36" d="M434.56836,222.32075c.37012-.31982.73242-.55322,1.08691-.70068s.71191-.22119,1.07129-.22119c.5,0,1.19531.19434,2.08398.58203.88867.38818,1.51562.58203,1.88086.58203.41211,0,.81445-.10938,1.20801-.32812s.73145-.49707,1.0127-.83594v1.70312c-.33789.27637-.69727.49609-1.07715.66016-.38086.16406-.77246.24609-1.17383.24609-.15527,0-.33789-.01807-.54688-.05469-.20898-.03613-.39648-.08057-.5625-.13281-.09082-.02588-.3418-.12109-.75195-.28516s-.60156-.24609-.5752-.24609c-.36914-.16113-.65039-.27344-.84375-.33594-.31641-.09863-.59961-.14844-.85156-.14844-.4668,0-.90625.13721-1.31836.41211-.24219.16113-.53418.4248-.87695.79102l.23438-1.6875ZM434.33398,225.69575c.34277-.29492.69922-.52344,1.06934-.68604s.75879-.24365,1.16504-.24365c.49902,0,1.20801.19434,2.12695.58203.91992.38818,1.56055.58203,1.92578.58203.32129,0,.69141-.08789,1.10938-.26367s.81152-.47607,1.18164-.90039v1.70312c-.34863.28125-.71094.50293-1.08984.66406-.37695.16162-.76465.24219-1.16113.24219-.23047,0-.44629-.01953-.64746-.05859s-.35547-.0791-.46191-.12109c-.09082-.03125-.5332-.21094-1.32715-.53906-.35352-.15088-.63184-.26025-.83594-.32812-.32617-.104-.61621-.15625-.86816-.15625-.46582,0-.90332.13623-1.30957.40918-.23633.16016-.52832.4248-.87695.79395v-1.67969Z"/>
      <path class="st36" d="M457.42285,222.07173v3.64941c0,2.48096-1.96875,4.01758-4.16113,4.01758-2.19336,0-4.16211-1.53662-4.16211-4.01758v-3.64941c0-2.48096,1.96875-4.01807,4.16211-4.01807,2.19238,0,4.16113,1.53711,4.16113,4.01807ZM456.04688,225.72114v-3.64941c0-1.60107-1.24902-2.72119-2.78516-2.72119-1.53711,0-2.78516,1.12012-2.78516,2.72119v3.64941c0,1.60059,1.24805,2.72119,2.78516,2.72119,1.53613,0,2.78516-1.12061,2.78516-2.72119Z"/>
    </g>
    <g>
      <path class="st21" d="M14.83691,214.43159v-1.56006h10.64941v1.56006h-10.64941Z"/>
      <path class="st21" d="M21.03174,203.58686h4.45459v1.56006h-3.76465c-1.83008,0-2.49023.73486-2.49023,1.83008,0,1.48486,1.16992,2.23486,2.29492,2.31006h3.95996v1.55957h-7.58984v-1.46973l1.21533-.0752c-.76514-.71973-1.36523-1.69482-1.36523-2.9248,0-1.78467,1.16992-2.79004,3.28516-2.79004Z"/>
      <path class="st21" d="M17.89648,201.62104v-1.46973l1.56006-.08984c-.95996-.4502-1.70996-1.53027-1.70996-2.89502,0-2.1748,1.77002-3.81006,3.94482-3.81006s3.94482,1.63525,3.94482,3.81006c0,1.36475-.75,2.44482-1.72461,2.89502h5.02441v1.55957h-11.03955ZM24.15137,197.42134c0-1.4248-1.10986-2.48975-2.45996-2.48975s-2.45996,1.06494-2.45996,2.48975,1.10986,2.45996,2.45996,2.45996,2.45996-1.03516,2.45996-2.45996Z"/>
      <path class="st21" d="M17.89648,184.58149h7.58984v1.47021l-1.21484.07471c.76465.72021,1.36475,1.69531,1.36475,2.92529,0,1.78467-1.16992,2.78955-3.28467,2.78955h-4.45508v-1.56006h3.76514c1.82959,0,2.48975-.73486,2.48975-1.82959,0-1.56006-1.29004-2.31006-2.4751-2.31006h-3.77979v-1.56006Z"/>
      <path class="st21" d="M19.38135,178.59614v1.61963h6.10498v1.5752h-6.10498v1.125h-1.48486v-1.125h-2.25v-1.5752h2.25v-1.61963h1.48486Z"/>
      <path class="st21" d="M24.00146,170.60151v-5.87939h1.48486v7.48438h-1.48486c-3.19482,0-3.41992-5.90967-6.01465-5.90967-1.05029,0-1.81494.79492-1.81494,1.97998,0,1.39502.82471,2.37012,1.96484,2.37012v1.55957c-1.91992,0-3.4502-1.66455-3.4502-3.94482,0-2.00977,1.32031-3.53955,3.34521-3.53955,3.65967,0,3.8999,5.87939,5.96973,5.87939Z"/>
    </g>
    <g>
      <rect class="st0" x="88.36877" y="292.00889" width="66.96658" height="12.31755"/>
      <path class="st22" d="M106.3291,292.6103h1.56006v10.64941h-1.56006v-10.64941Z"/>
      <path class="st22" d="M117.17383,298.80512v4.45459h-1.56006v-3.76465c0-1.83008-.73486-2.49023-1.83008-2.49023-1.48486,0-2.23486,1.16992-2.31006,2.29492v3.95996h-1.55957v-7.58984h1.46973l.0752,1.21533c.71973-.76514,1.69482-1.36523,2.9248-1.36523,1.78467,0,2.79004,1.16992,2.79004,3.28516Z"/>
      <path class="st22" d="M119.13965,295.66987h1.46973l.08984,1.56006c.4502-.95996,1.53027-1.70996,2.89502-1.70996,2.1748,0,3.81006,1.77002,3.81006,3.94482s-1.63525,3.94482-3.81006,3.94482c-1.36475,0-2.44482-.75-2.89502-1.72461v5.02441h-1.55957v-11.03955ZM123.33936,301.92475c1.4248,0,2.48975-1.10986,2.48975-2.45996s-1.06494-2.45996-2.48975-2.45996-2.45996,1.10986-2.45996,2.45996,1.03516,2.45996,2.45996,2.45996Z"/>
      <path class="st22" d="M136.1792,295.66987v7.58984h-1.47021l-.07471-1.21484c-.72021.76465-1.69531,1.36475-2.92529,1.36475-1.78467,0-2.78955-1.16992-2.78955-3.28467v-4.45508h1.56006v3.76514c0,1.82959.73486,2.48975,1.82959,2.48975,1.56006,0,2.31006-1.29004,2.31006-2.4751v-3.77979h1.56006Z"/>
      <path class="st22" d="M142.16455,297.15473h-1.61963v6.10498h-1.5752v-6.10498h-1.125v-1.48486h1.125v-2.24951h1.5752v2.24951h1.61963v1.48486Z"/>
      <path class="st22" d="M154.59863,301.77485v1.48486h-6.35938v-1.48486h2.3999v-7.24463l-2.07031.46484v-1.54492l3.64502-.83984v9.16455h2.38477Z"/>
    </g>
    <g class="st35">
      <line class="st13" x1="34.25413" y1="164.27062" x2="34.25413" y2="284.20814"/>
      <line class="st13" x1="44.25413" y1="164.27062" x2="44.25413" y2="284.20814"/>
      <line class="st13" x1="54.25413" y1="164.27062" x2="54.25413" y2="284.20814"/>
      <line class="st13" x1="64.25413" y1="164.27062" x2="64.25413" y2="284.20814"/>
      <line class="st13" x1="74.25413" y1="164.27062" x2="74.25413" y2="284.20814"/>
      <line class="st13" x1="84.25413" y1="164.27062" x2="84.25413" y2="284.20814"/>
      <line class="st13" x1="94.25413" y1="164.27062" x2="94.25413" y2="284.20814"/>
      <line class="st13" x1="104.25413" y1="164.27062" x2="104.25413" y2="284.20814"/>
      <line class="st13" x1="114.25413" y1="164.27062" x2="114.25413" y2="284.20814"/>
      <line class="st13" x1="124.25413" y1="164.27062" x2="124.25413" y2="284.20814"/>
      <line class="st13" x1="134.25413" y1="164.27062" x2="134.25413" y2="284.20814"/>
      <line class="st13" x1="144.25413" y1="164.27062" x2="144.25413" y2="284.20814"/>
      <line class="st13" x1="154.25413" y1="174.25989" x2="154.25413" y2="284.20814"/>
      <line class="st13" x1="144.22313" y1="164.20782" x2="34.28329" y2="164.20782"/>
      <line class="st13" x1="154.20459" y1="174.20782" x2="34.28329" y2="174.20782"/>
      <line class="st13" x1="154.20459" y1="184.20782" x2="34.28329" y2="184.20782"/>
      <line class="st13" x1="154.20459" y1="194.20782" x2="34.28329" y2="194.20782"/>
      <line class="st13" x1="154.20459" y1="204.20782" x2="34.28329" y2="204.20782"/>
      <line class="st13" x1="154.25073" y1="214.20782" x2="34.28791" y2="214.20782"/>
      <line class="st13" x1="154.25073" y1="224.20782" x2="34.28791" y2="224.20782"/>
      <line class="st13" x1="154.25073" y1="234.20782" x2="34.28791" y2="234.20782"/>
      <line class="st13" x1="154.25073" y1="244.20782" x2="34.28791" y2="244.20782"/>
      <line class="st13" x1="154.25073" y1="254.20782" x2="34.28791" y2="254.20782"/>
      <line class="st13" x1="154.25073" y1="264.20782" x2="34.28791" y2="264.20782"/>
      <line class="st13" x1="154.25073" y1="274.20782" x2="34.28791" y2="274.20782"/>
      <line class="st13" x1="154.25073" y1="284.20782" x2="34.28791" y2="284.20782"/>
    </g>
    <polyline class="st9" points="33.93826 163.8484 33.93826 284.35582 154.15032 284.35582"/>
    <g>
      <rect class="st0" x="39.63415" y="238.84385" width="81.4357" height="12.72687"/>
      <path class="st36" d="M70.7373,243.58637c.37012-.31982.73242-.55322,1.08691-.70068s.71143-.22119,1.07129-.22119c.50049,0,1.19531.19434,2.08398.58203.88867.38818,1.51562.58203,1.88086.58203.41162,0,.81445-.10938,1.20801-.32812s.73145-.49707,1.0127-.83594v1.70312c-.33789.27637-.69678.49609-1.07715.66016-.38086.16406-.77197.24609-1.17383.24609-.15576,0-.33789-.01807-.54688-.05469-.20898-.03613-.39648-.08057-.5625-.13281-.09131-.02588-.3418-.12109-.75195-.28516s-.60156-.24609-.57471-.24609c-.36963-.16113-.65137-.27344-.84424-.33594-.31641-.09863-.6001-.14844-.85205-.14844-.46631,0-.90576.13721-1.31836.41211-.24121.16113-.53369.4248-.87646.79102l.23438-1.6875ZM70.50293,246.96137c.34277-.29492.69922-.52344,1.06934-.68604.36963-.1626.7583-.24365,1.16553-.24365.49854,0,1.20752.19434,2.12646.58203.91943.38818,1.56104.58203,1.92578.58203.32129,0,.69141-.08789,1.10938-.26367s.81152-.47607,1.18164-.90039v1.70312c-.34863.28125-.71143.50293-1.08936.66406-.37793.16162-.76514.24219-1.16162.24219-.23047,0-.44629-.01953-.64746-.05859-.20068-.03906-.35498-.0791-.46191-.12109-.09131-.03125-.5332-.21094-1.32666-.53906-.354-.15088-.63232-.26025-.83594-.32812-.32715-.104-.6167-.15625-.86865-.15625-.46582,0-.90283.13623-1.31006.40918-.23584.16016-.52783.4248-.87646.79395v-1.67969Z"/>
      <path class="st36" d="M93.5918,243.33735v3.64941c0,2.48096-1.96875,4.01758-4.16162,4.01758s-4.16162-1.53662-4.16162-4.01758v-3.64941c0-2.48145,1.96875-4.01758,4.16162-4.01758s4.16162,1.53613,4.16162,4.01758ZM92.21533,246.98676v-3.64941c0-1.60107-1.24854-2.72119-2.78516-2.72119s-2.78516,1.12012-2.78516,2.72119v3.64941c0,1.60059,1.24854,2.72119,2.78516,2.72119s2.78516-1.12061,2.78516-2.72119Z"/>
    </g>
    <g>
      <rect class="st0" x="95.7528" y="188.63242" width="55.14855" height="29.56246"/>
      <path class="st36" d="M114.70264,193.37495c.37012-.31982.73242-.55322,1.08691-.70068s.71143-.22119,1.07129-.22119c.50049,0,1.19531.19434,2.08398.58203.88867.38818,1.51562.58203,1.88086.58203.41162,0,.81445-.10938,1.20801-.32812s.73145-.49707,1.0127-.83594v1.70312c-.33789.27637-.69678.49609-1.07715.66016-.38086.16406-.77197.24609-1.17383.24609-.15576,0-.33789-.01807-.54688-.05469-.20898-.03613-.39648-.08057-.5625-.13281-.09131-.02588-.3418-.12109-.75195-.28516s-.60156-.24609-.57471-.24609c-.36963-.16113-.65137-.27344-.84424-.33594-.31641-.09863-.6001-.14844-.85205-.14844-.46631,0-.90576.13721-1.31836.41211-.24121.16113-.53369.4248-.87646.79102l.23438-1.6875ZM114.46826,196.74995c.34277-.29492.69922-.52344,1.06934-.68604.36963-.1626.7583-.24365,1.16553-.24365.49854,0,1.20752.19434,2.12646.58203.91943.38818,1.56104.58203,1.92578.58203.32129,0,.69141-.08789,1.10938-.26367s.81152-.47607,1.18164-.90039v1.70312c-.34863.28125-.71143.50293-1.08936.66406-.37793.16162-.76514.24219-1.16162.24219-.23047,0-.44629-.01953-.64746-.05859-.20068-.03906-.35498-.0791-.46191-.12109-.09131-.03125-.5332-.21094-1.32666-.53906-.354-.15088-.63232-.26025-.83594-.32812-.32715-.104-.6167-.15625-.86865-.15625-.46582,0-.90283.13623-1.31006.40918-.23584.16016-.52783.4248-.87646.79395v-1.67969Z"/>
      <path class="st36" d="M135.73242,199.33637v1.29639h-6.65869v-1.29639h2.64111v-8.37158l-2.19287.54443v-1.37695l3.56934-.86426v10.06836h2.64111Z"/>
    </g>
    <g>
      <line class="st5" x1="54.02283" y1="163.84841" x2="56.86369" y2="166.66435"/>
      <line class="st4" x1="62.47145" y1="172.22291" x2="149.39166" y2="258.38067"/>
      <line class="st5" x1="152.19554" y1="261.15995" x2="155.03641" y2="263.97589"/>
    </g>
    <circle class="st17" cx="472.67075" cy="77.56402" r="46.96245"/>
    <circle class="st17" cx="279.98859" cy="77.56402" r="46.96245"/>
    <circle class="st17" cx="88.24948" cy="77.56402" r="46.96245"/>
    <g>
      <line class="st2" x1="484.188" y1="78.37579" x2="537.94897" y2="78.37579"/>
      <g>
        <path class="st10" d="M493.92798,78.05281s-15.0104-3.21198-28.38444,18.68153c-11.51092,18.84356-27.51824,18.11143-27.51824,18.11143h-28.79155"/>
        <path class="st3" d="M490.36783,77.02602s-13.86068,4.21611-25.62671-18.08755c-10.20833-19.35089-26.43337-18.65689-26.43337-18.65689h-29.074"/>
      </g>
      <g id="NEURON">
        <g>
          <circle class="st32" cx="480.73848" cy="78.37579" r="16.6277"/>
          <circle class="st32" cx="479.29838" cy="76.56727" r="14.24369"/>
        </g>
        <path class="st16" d="M488.50246,90.68706l-1.9503-3.20632c3.20877-1.95213,5.12357-5.35644,5.12231-9.10707-.00125-3.73964-1.90977-7.13748-5.10518-9.08961l1.95671-3.20274c4.31991,2.63897,6.89985,7.23385,6.90154,12.2911.00169,5.07221-2.58709,9.67585-6.92509,12.31465Z"/>
        <g class="st27">
          <polygon class="st19" points="489.66665 77.05181 496.32432 77.05181 495.0786 88.07887 488.61418 93.80834 484.64018 88.31329 489.66665 77.05181"/>
          <circle class="st20" cx="480.87285" cy="78.41311" r="12.04763"/>
        </g>
        <g>
          <rect class="st0" x="475.08115" y="73.96484" width="9.84157" height="10.06357"/>
          <path class="st33" d="M476.37109,83.29682l-.00391-9.33057h.48535l5.7373,5.18604-.00195-5.18799,1.04492-.00049.00293,9.33057-.47266.00049-5.74902-5.18555.00195,5.1875h-1.04492Z"/>
        </g>
        <g class="st34">
          <rect class="st0" x="475.5174" y="73.96484" width="9.84157" height="10.06357"/>
          <path class="st32" d="M476.80664,83.29634l-.00391-9.33057h.48535l5.7373,5.18604-.00195-5.18799,1.04492-.00049.00293,9.33057h-.47266l-5.74902-5.18555.00195,5.1875-1.04492.00049Z"/>
        </g>
      </g>
    </g>
    <g>
      <line class="st2" x1="97.15481" y1="78.37579" x2="150.91578" y2="78.37579"/>
      <g>
        <path class="st11" d="M106.89478,78.05281s-15.0104-3.21198-28.38444,18.68153c-11.51092,18.84356-27.51824,18.11143-27.51824,18.11143h-28.79155"/>
        <path class="st7" d="M103.33463,77.02602s-13.86068,4.21611-25.62671-18.08755c-10.20833-19.35089-26.43337-18.65689-26.43337-18.65689h-29.074"/>
      </g>
      <g id="NEURON1" data-name="NEURON">
        <g>
          <circle class="st32" cx="93.70528" cy="78.37579" r="16.6277"/>
          <circle class="st32" cx="92.26518" cy="76.56727" r="14.24369"/>
        </g>
        <path class="st16" d="M101.46927,90.68706l-1.9503-3.20632c3.20877-1.95213,5.12357-5.35644,5.12231-9.10707-.00125-3.73964-1.90977-7.13748-5.10518-9.08961l1.95671-3.20274c4.31991,2.63897,6.89985,7.23385,6.90154,12.2911.00169,5.07221-2.58709,9.67585-6.92509,12.31465Z"/>
        <g class="st30">
          <polygon class="st19" points="96.54074 86.06033 109.29113 86.06033 110.27504 88.07887 101.58099 93.80834 97.60698 88.31329 96.54074 86.06033"/>
          <circle class="st20" cx="93.83966" cy="78.41311" r="12.04763"/>
        </g>
        <g>
          <rect class="st0" x="88.04795" y="73.96484" width="9.84157" height="10.06357"/>
          <path class="st33" d="M89.33887,83.29682l-.00342-9.33057h.48486l5.7373,5.18604-.00195-5.18799,1.04492-.00049.00342,9.33057-.47266.00049-5.74951-5.18555.00195,5.1875h-1.04492Z"/>
        </g>
        <g class="st34">
          <rect class="st0" x="88.4842" y="73.96484" width="9.84157" height="10.06357"/>
          <path class="st32" d="M89.77441,83.29634l-.00342-9.33057h.48486l5.7373,5.18604-.00195-5.18799,1.04492-.00049.00342,9.33057h-.47266l-5.74951-5.18555.00195,5.1875-1.04492.00049Z"/>
        </g>
      </g>
    </g>
    <g>
      <line class="st2" x1="292.57235" y1="78.37579" x2="346.33332" y2="78.37579"/>
      <g>
        <path class="st12" d="M283.35025,85.1455c-3.08877,2.73488-6.30016,6.47773-9.42237,11.58884-11.51092,18.84356-27.51824,18.11143-27.51824,18.11143h-28.79155"/>
        <path class="st8" d="M298.75217,77.02602s-13.86068,4.21611-25.62671-18.08755c-10.20833-19.35089-26.43337-18.65689-26.43337-18.65689h-29.074"/>
      </g>
      <g id="NEURON2" data-name="NEURON">
        <g>
          <circle class="st32" cx="289.12282" cy="78.37579" r="16.6277"/>
          <circle class="st32" cx="287.68272" cy="76.56727" r="14.24369"/>
        </g>
        <path class="st16" d="M296.88681,90.68706l-1.9503-3.20632c3.20877-1.95213,5.12357-5.35644,5.12231-9.10707-.00125-3.73964-1.90977-7.13748-5.10518-9.08961l1.95671-3.20274c4.31991,2.63897,6.89985,7.23385,6.90154,12.2911.00169,5.07221-2.58709,9.67585-6.92509,12.31465Z"/>
        <g class="st29">
          <polygon class="st19" points="293.8421 69.66778 309.34857 69.66778 308.3148 88.07887 296.99853 93.80834 293.02452 88.31329 293.8421 69.66778"/>
          <circle class="st20" cx="289.2572" cy="78.41311" r="12.04763"/>
        </g>
        <g>
          <rect class="st0" x="283.46549" y="73.96484" width="9.84157" height="10.06357"/>
          <path class="st33" d="M284.75488,83.29682l-.00293-9.33057h.48438l5.7373,5.18604-.00195-5.18799,1.04492-.00049.00391,9.33057-.47266.00049-5.75-5.18555.00195,5.1875h-1.04492Z"/>
        </g>
        <g class="st34">
          <rect class="st0" x="283.90174" y="73.96484" width="9.84157" height="10.06357"/>
          <path class="st32" d="M285.19043,83.29634l-.00293-9.33057h.48438l5.7373,5.18604-.00195-5.18799,1.04492-.00049.00391,9.33057h-.47266l-5.75-5.18555.00195,5.1875-1.04492.00049Z"/>
        </g>
      </g>
    </g>
  </g>
  <g id="Layer_5">
    <g class="st24">
      <path class="st15" d="M882.4076,390.81489c11.91185,5.29562,27.26189-6.84121,37.79773-11.22248,55.28933-22.99176,110.67593-45.88064,165.66267-69.37772,58.04575-24.80427,121.32728-57.7523,179.85736-78.6128,2.48537-.8858,6.06149-2.19825,8.36663-.2964,6.46321,5.33247,14.61414,19.44425,18.47619,27.11354,4.52639-5.8724,20.12955-3.52255,21.22275-8.93983-1.19632-14.12334-3.74011-27.73532-12.40074-39.59707-3.6449-4.99211-9.81495-5.23804-12.52849-10.47193-3.15194-6.07947.01874-16.47534-4.24123-23.00376l6.44425-.99291c-1.28304-5.99969.3725-13.08767,6.82515-15.25633l3.94011,7.35099c9.90262-4.0444,22.58855-2.13897,32.38497-4.34102,3.54689-.79728,7.10923-3.88224,11.13662-4.93204,9.94193-2.59153,18.52457-5.77918,28.79649-7.86074.9337,18.31584,11.42348,23.27133,20.53531,36.44299,55.74971,80.58927,135.95489,163.94564,216.09793,221.23033,18.59035,13.28802,19.47031,8.90943,37.83588,12.87535,8.48758,1.83283,29.0956,16.28642,29.07661,25.1902-.00647,3.03673-3.86268,6.37763-4.69122,9.66614-1.77068,7.02786,1.77865,12.62292-8.61893,18.57951l1.53644,2.36098c11.53594,10.70735,21.66658,23.30875,33.35313,33.84629,19.48761,17.57161,41.90318,31.98064,61.31072,50.04417,13.17335,12.26106,34.24061,39.5612,46.14669,47.89306,6.69857,4.68765,19.94691,7.70173,27.22788,13.72795,59.12044,48.932,70.80065,107.63161,98.16676,174.27469,4.61888,11.24808,11.54662,25.17145,15.21802,35.13187,2.41487,6.5515,1.84913,16.08807,4.57989,22.96948l-12.37477-10.43509c.80817,12.70058-3.26714,41.96275,2.39465,52.56633,3.30594,6.19147,11.2174,3.72101,7.35734,14.12726l7.60877.9054c-5.39834,4.62599-1.22145,10.87839-10.38942,12.48821,4.41297,6.17544,14.16967,2.39374,16.71924,9.28505,1.28877,3.48346-1.83422,26.13825-4.204,27.32257-7.44515-1.73676-10.53979-8.26338-13.38991-14.70702-4.99564-1.71824-27.22194,24.82445-32.51093,28.32706-7.21534,4.77833-19.24838,3.4621-24.00743,7.7388-6.20984,5.58046.74622,12.25121-19.33261,18.39014-30.46816,9.31537-22.9574-17.31968-31.4268-29.49493-5.99577-8.61927-32.16167-30.48962-42.50977-35.22043-19.55992-8.94214-28.95335-7.92049-49.43072-8.93796-6.18779-.30746-10.77887-5.80413-16.78022-.36454-2.90867,2.6364-1.28099,8.59264-6.1954,9.9561-5.86806-10.27919-25.92176-19.42979-31.84279-26.29127-12.36683-14.33111-15.5655-35.75542-35.82962-45.48192-6.24443-2.99724-21.65435-1.67696-24.96618-3.85041-3.55621-2.33383-2.86906-10.39233-12.58812-4.97252l5.72306,6.62844c-18.43816,11.1508-14.72904-19.70683-33.17951-18.16178l1.58491-8.81684,16.25355,6.06296c-7.54404-8.34151-5.55074-21.23496-9.93683-29.66895-3.14906-6.05532-10.55542-7.70365-11.35273-12.92397-.74431-4.87331,9.13123-9.44677,5.82125-16.44189l-18.98254,19.11172-10.51817-6.62556c8.04221,9.12577,24.49951,14.97504,21.05946,29.92682-6.46749-4.60553-15.49065,1.03504-21.47402-.90815-3.0005-.97446-11.68655-9.9882-16.78096-12.9761-18.18107-10.66327-39.49043-20.14178-55.08402-35.19914-4.90996-4.74112-12.8893-18.28988-16.75017-20.34997-3.2739-1.7469-21.91268,3.42486-19.19262-9.54982,1.60932-7.67645,5.99625-15.05361,7.52866-24.51979,1.10529-6.82779-.50323-14.79393,1.29155-21.79553,2.54052-9.91081,13.07926-21.12958-1.28562-30.79072-1.74602-1.17429-3.77599,2.00515-4.61143,1.85594-2.47834-.44263-4.55591-5.72481-8.68379-2.04589l11.46879,13.28673c-18.97091,12.9917-15.57282-12.22631-25.18493-13.74256-6.32118-.99713-13.41647,5.08134-17.72422,9.1773,4.85027,10.89638,13.97685.96167,21.62399,6.84667l4.99051,27.27357-12.14613,3.93439,4.7718,9.52037c-8.21811,4.32184-9.58438-7.14509-14.2787-12.03179-4.29734-4.47345-13.0805-3.88355-17.59023-9.4289-7.35639-9.04574-4.19637-22.77329-8.22919-33.78787-9.49752-25.93997-13.0538-45.44404-18.61819-72.7844-1.01772-5.0005,1.01106-12.71481-1.04541-17.96982-2.19992-5.6216-8.10994-4.92823-10.17701-8.51234-2.682-4.65033,1.20042-10.26384-1.29028-14.91494l-7.2409,4.77181c3.16111-14.64305-24.18249-21.98621-12.91144-30.48096l-1.41222-2.81056c-8.96932.11095-16.23967-10.2834-23.49093-15.44533-2.66518-1.89725-6.79197-1.57811-8.65458-3.05806-3.27281-2.60043-2.95001-9.8696-7.57794-12.83015-5.30198,5.93408-13.62273,5.71457-20.10611,10.01871-4.85476,3.22295-5.77733,9.51744-12.15289,10.95823-4.72629-3.12305-12.57041-16.89476-15.3425-18.51659-2.77974-1.62631-8.99221,2.17308-14.27569-.0265-5.09775-2.12225-16.99724-15.33535-18.7262-15.58103-4.68607-.66586-8.5067,6.71457-13.91426-3.53018-12.4275,13.01868-22.46469-11.66258-28.78249-19.78328-3.84944-.65936-26.14739-1.82445-27.32378-2.53056-1.78372-1.07065-3.71755-6.8358-7.11571-9.72659-.93038-.79146-20.52852-10.90017-21.71417-11.19387-9.70706-2.40464-21.92399,1.13178-30.38623.7002-8.22608-.41954-29.48488-6.7704-34.83548-5.48025-4.66708,1.12534-12.90209,9.28701-17.56337,12.57626-2.71499,1.91584-6.66183,1.37356-9.06483,3.30116-.67849.54426-9.82413,13.3655-10.03643,14.209-2.52398,10.02802,9.18093,13.58206,10.5014,19.24127-.35978,15.21538-13.69528,7.16823-20.13564,9.43587-16.21828,5.71045-21.57958,31.21283-30.89993,45.28639-1.57596,2.37967-12.62151,19.69782-14.48663,12.7243-5.77361-21.58697-8.06915-.40497-13.17964,6.74487-5.83493,8.16336-14.61601,11.29123-21.36382,16.78191-5.90654,4.80614-8.28088,14.51273-18.59601,13.25946-5.17448-12.81843-16.80939-32.76426-33.1619-31.83044-5.22451.29835-9.04175,4.46512-14.26102,4.7545-6.11654.33912-18.44966-8.12613-23.93486-9.26332-5.03705-1.04428-10.52166,1.36746-16.11781.74873-9.47424-1.04751-25.55665-7.44491-35.4357-8.07528-51.43849-3.2822-101.93947,13.28633-145.14699,40.87484-15.17177,9.68735-32.27056,27.80133-47.78225,38.24737-8.46334,5.69947-19.3273,8.58463-27.63415,14.7183-4.95282,3.65709-7.03929,9.51191-12.07199,12.67835-4.46313-1.30813,8.58678-27.36714.17681-36.49599-2.55656-2.7751-8.20899-3.00354-9.84462-7.20277-1.3991-3.592,1.66448-9.80887.97991-13.89121-3.15211-18.79705-17.18859-11.05099-29.78491-16.04757-2.27815-.90367-20.71375-10.37241-21.77104-11.25855-8.61354-7.21924.83477-18.21961-9.79836-25.41241l359.72175-179.29736c16.35988-2.09348,23.64387,28.82843,32.83779,32.91574Z"/>
    </g>
    <g class="st23">
      <path class="st15" d="M56.57735,390.81489c11.91185,5.29562,27.26189-6.84121,37.79773-11.22248,55.28933-22.99176,110.67593-45.88064,165.66267-69.37772,58.04575-24.80427,121.32728-57.7523,179.85736-78.6128,2.48537-.8858,6.06149-2.19825,8.36663-.2964,6.46321,5.33247,14.61414,19.44425,18.47619,27.11354,4.52639-5.8724,20.12955-3.52255,21.22275-8.93983-1.19632-14.12334-3.74011-27.73532-12.40074-39.59707-3.6449-4.99211-9.81495-5.23804-12.52849-10.47193-3.15194-6.07947.01874-16.47534-4.24123-23.00376l6.44425-.99291c-1.28304-5.99969.3725-13.08767,6.82515-15.25633l3.94011,7.35099c9.90262-4.0444,22.58855-2.13897,32.38497-4.34102,3.54689-.79728,7.10923-3.88224,11.13662-4.93204,9.94193-2.59153,18.52457-5.77918,28.79649-7.86074.9337,18.31584,11.42348,23.27133,20.53531,36.44299,55.74971,80.58927,135.95489,163.94564,216.09793,221.23033,18.59035,13.28802,19.47031,8.90943,37.83588,12.87535,8.48758,1.83283,29.0956,16.28642,29.07661,25.1902-.00647,3.03673-3.86268,6.37763-4.69122,9.66614-1.77068,7.02786,1.77865,12.62292-8.61893,18.57951l1.53644,2.36098c11.53594,10.70735,21.66658,23.30875,33.35313,33.84629,19.48761,17.57161,41.90318,31.98064,61.31072,50.04417,13.17335,12.26106,34.24061,39.5612,46.14669,47.89306,6.69857,4.68765,19.94691,7.70173,27.22788,13.72795,59.12044,48.932,70.80065,107.63161,98.16676,174.27469,4.61888,11.24808,11.54662,25.17145,15.21802,35.13187,2.41487,6.5515,1.84913,16.08807,4.57989,22.96948l-12.37477-10.43509c.80817,12.70058-3.26714,41.96275,2.39465,52.56633,3.30594,6.19147,11.2174,3.72101,7.35734,14.12726l7.60877.9054c-5.39834,4.62599-1.22145,10.87839-10.38942,12.48821,4.41297,6.17544,14.16967,2.39374,16.71924,9.28505,1.28877,3.48346-1.83422,26.13825-4.204,27.32257-7.44515-1.73676-10.53979-8.26338-13.38991-14.70702-4.99564-1.71824-27.22194,24.82445-32.51093,28.32706-7.21534,4.77833-19.24838,3.4621-24.00743,7.7388-6.20984,5.58046.74622,12.25121-19.33261,18.39014-30.46816,9.31537-22.9574-17.31968-31.4268-29.49493-5.99577-8.61927-32.16167-30.48962-42.50977-35.22043-19.55992-8.94214-28.95335-7.92049-49.43072-8.93796-6.18779-.30746-10.77887-5.80413-16.78022-.36454-2.90867,2.6364-1.28099,8.59264-6.1954,9.9561-5.86806-10.27919-25.92176-19.42979-31.84279-26.29127-12.36683-14.33111-15.5655-35.75542-35.82962-45.48192-6.24443-2.99724-21.65435-1.67696-24.96618-3.85041-3.55621-2.33383-2.86906-10.39233-12.58812-4.97252l5.72306,6.62844c-18.43816,11.1508-14.72904-19.70683-33.17951-18.16178l1.58491-8.81684,16.25355,6.06296c-7.54404-8.34151-5.55074-21.23496-9.93683-29.66895-3.14906-6.05532-10.55542-7.70365-11.35273-12.92397-.74431-4.87331,9.13123-9.44677,5.82125-16.44189l-18.98254,19.11172-10.51817-6.62556c8.04221,9.12577,24.49951,14.97504,21.05946,29.92682-6.46749-4.60553-15.49065,1.03504-21.47402-.90815-3.0005-.97446-11.68655-9.9882-16.78096-12.9761-18.18107-10.66327-39.49043-20.14178-55.08402-35.19914-4.90996-4.74112-12.8893-18.28988-16.75017-20.34997-3.2739-1.7469-21.91268,3.42486-19.19262-9.54982,1.60932-7.67645,5.99625-15.05361,7.52866-24.51979,1.10529-6.82779-.50323-14.79393,1.29155-21.79553,2.54052-9.91081,13.07926-21.12958-1.28562-30.79072-1.74602-1.17429-3.77599,2.00515-4.61143,1.85594-2.47834-.44263-4.55591-5.72481-8.68379-2.04589l11.46879,13.28673c-18.97091,12.9917-15.57282-12.22631-25.18493-13.74256-6.32118-.99713-13.41647,5.08134-17.72422,9.1773,4.85027,10.89638,13.97685.96167,21.62399,6.84667l4.99051,27.27357-12.14613,3.93439,4.7718,9.52037c-8.21811,4.32184-9.58438-7.14509-14.2787-12.03179-4.29734-4.47345-13.0805-3.88355-17.59023-9.4289-7.35639-9.04574-4.19637-22.77329-8.22919-33.78787-9.49752-25.93997-13.0538-45.44404-18.61819-72.7844-1.01772-5.0005,1.01106-12.71481-1.04541-17.96982-2.19992-5.6216-8.10994-4.92823-10.17701-8.51234-2.682-4.65033,1.20042-10.26384-1.29028-14.91494l-7.2409,4.77181c3.16111-14.64305-24.18249-21.98621-12.91144-30.48096l-1.41222-2.81056c-8.96932.11095-16.23967-10.2834-23.49093-15.44533-2.66518-1.89725-6.79197-1.57811-8.65458-3.05806-3.27281-2.60043-2.95001-9.8696-7.57794-12.83015-5.30198,5.93408-13.62273,5.71457-20.10611,10.01871-4.85476,3.22295-5.77733,9.51744-12.15289,10.95823-4.72629-3.12305-12.57041-16.89476-15.3425-18.51659-2.77974-1.62631-8.99221,2.17308-14.27569-.0265-5.09775-2.12225-16.99724-15.33535-18.7262-15.58103-4.68607-.66586-8.5067,6.71457-13.91426-3.53018-12.4275,13.01868-22.46469-11.66258-28.78249-19.78328-3.84944-.65936-26.14739-1.82445-27.32378-2.53056-1.78372-1.07065-3.71755-6.8358-7.11571-9.72659-.93038-.79146-20.52852-10.90017-21.71417-11.19387-9.70706-2.40464-21.92399,1.13178-30.38623.7002-8.22608-.41954-29.48488-6.7704-34.83548-5.48025-4.66708,1.12534-12.90209,9.28701-17.56337,12.57626-2.71499,1.91584-6.66183,1.37356-9.06483,3.30116-.67849.54426-9.82413,13.3655-10.03643,14.209-2.52398,10.02802,9.18093,13.58206,10.5014,19.24127-.35978,15.21538-13.69528,7.16823-20.13564,9.43587-16.21828,5.71045-21.57958,31.21283-30.89993,45.28639-1.57596,2.37967-12.62151,19.69782-14.48663,12.7243-5.77361-21.58697-8.06915-.40497-13.17964,6.74487-5.83493,8.16336-14.61601,11.29123-21.36382,16.78191-5.90654,4.80614-8.28088,14.51273-18.59601,13.25946-5.17448-12.81843-16.80939-32.76426-33.1619-31.83044-5.22451.29835-9.04175,4.46512-14.26102,4.7545-6.11654.33912-18.44966-8.12613-23.93486-9.26332-5.03705-1.04428-10.52166,1.36746-16.11781.74873-9.47424-1.04751-25.55665-7.44491-35.4357-8.07528-51.43849-3.2822-101.93947,13.28633-145.14699,40.87484-15.17177,9.68735-32.27056,27.80133-47.78225,38.24737-8.46334,5.69947-19.3273,8.58463-27.63415,14.7183-4.95282,3.65709-7.03929,9.51191-12.07199,12.67835-4.46313-1.30813,8.58678-27.36714.17681-36.49599-2.55656-2.7751-8.20899-3.00354-9.84462-7.20277-1.3991-3.592,1.66448-9.80887.97991-13.89121-3.15211-18.79705-17.18859-11.05099-29.78491-16.04757-2.27815-.90367-20.71375-10.37241-21.77104-11.25855-8.61354-7.21924.83477-18.21961-9.79836-25.41241L23.73956,357.89915c16.35988-2.09348,23.64387,28.82843,32.83779,32.91574Z"/>
    </g>
  </g>
</svg>