<?xml version="1.0" encoding="UTF-8"?>
<svg xmlns="http://www.w3.org/2000/svg" width="560" height="407.29188" xmlns:xlink="http://www.w3.org/1999/xlink" version="1.1" viewBox="0 0 560 407.29188">
  <!-- Generator: Adobe Illustrator 29.2.1, SVG Export Plug-In . SVG Version: 2.1.0 Build 116)  -->
  <defs>
    <style>
      .st0, .st1 {
        fill: none;
      }

      .st2 {
        fill: #f3f4f5;
      }

      .st3 {
        isolation: isolate;
      }

      .st4 {
        clip-path: url(#clippath-1);
      }

      .st5 {
        clip-path: url(#clippath-4);
      }

      .st6 {
        clip-path: url(#clippath-2);
      }

      .st7 {
        fill: #f1b43c;
      }

      .st8 {
        fill: #fff;
      }

      .st1 {
        stroke: #f3f4f5;
      }

      .st1, .st9 {
        stroke-miterlimit: 10;
      }

      .st10, .st9 {
        fill: #f0b43c;
      }

      .st11 {
        mix-blend-mode: overlay;
        opacity: .15;
      }

      .st9 {
        stroke: #fcf7f2;
        stroke-width: 3px;
      }
    </style>
    <clipPath id="clippath-1">
      <rect class="st0" x="117.99585" y="41.33851" width="324.81732" height="324.46099"/>
    </clipPath>
    <clipPath id="clippath-2">
      <rect class="st0" x="1166.53268" y="-316.70244" width="190.75606" height="190.91584"/>
    </clipPath>
    <clipPath id="clippath-4">
      <rect class="st0" x="340.70243" y="-316.70244" width="190.75606" height="190.91584"/>
    </clipPath>
  </defs>
  <g class="st3">
    <g id="Layer_1">
      <g>
        <rect class="st2" x="103.39698" y="26.93499" width="353.20605" height="353.20605"/>
        <rect class="st7" x="117.5205" y="41.05852" width="324.95899" height="324.95899"/>
        <g class="st4">
          <path class="st9" d="M404.11472-25.15847c16.54293,8.509,14.20584,8.11365,13.25051,30.26897-.47204,10.94732,2.68985,24.64992,1.29221,38.11921-1.23404,11.89255-25.27324,21.401-27.56497,33.858-2.26537,12.31374-.41421,24.97719-4.01931,36.56543-3.87892,12.46839,11.34862,34.6318,5.55288,44.73465-6.69372,11.66816-25.38427,20.80235-35.17986,27.0422-10.01268,6.37815-28.11802,5.2166-41.98877,3.3494-13.72087-1.84703-13.46569-28.75418-22.89159-34.46778-11.11521-6.7376-37.66737,9.76902-45.91056,1.88402-9.62242-9.2043-19.17141-4.28814-29.83496-8.29723-9.64824-3.62738-8.39598-13.56675-23.05772-7.26479-10.09897,4.34078-4.83256,12.79747-11.07369,24.69603-5.39163,10.27901-10.84403,12.1094-10.5143,24.96079.29494,11.49573-18.80126,27.12507-11.9314,38.52352,5.65687,9.38586,19.67744,14.54122,30.95814,22.60277,11.38406,8.13542,20.56434,16.37411,30.48663,20.76252,12.13805,5.3684,34.07969-14.79718,44.68386-10.0109,10.56337,4.76787.71353,42.46609,10.4672,52.13331,11.61187,11.50895,24.87437,13.29509,27.60415,23.62525,3.82079,14.45885-19.25799,14.63041-24.81469,25.2529-9.45535,18.07536,18.73933,53.69541-.74258,56.32295-19.19205,2.58845-18.92988-40.66597-38.20022-42.58663-19.27532-1.92115-19.68186,2.15783-38.95718.23668-19.28201-1.92182-22.70608,32.43262-41.9881,30.5108-19.2759-1.92121-18.96887-5.00174-38.24477-6.92295-19.28915-1.92253-17.3763-21.11453-36.66545-23.03706-19.28915-1.92253-25.9637,17.8006-38.5482,3.05619-12.07953-14.15277,18.87685-16.06969,20.72223-34.58483,1.8456-18.51727-21.45265-20.83939-19.60706-39.35666,1.84589-18.52017,13.62961-17.3457,15.4755-35.86587,1.84557-18.51703-3.03933-19.00391-1.19375-37.52094,1.84576-18.51892.16067-18.68687,2.00643-37.20578,1.84581-18.51941.24932-18.67853,2.09513-37.19795,1.84521-18.51342-12.58628-19.95179-10.74106-38.46521,1.84569-18.5182,28.95031-15.81671,30.796-34.33491,1.84633-18.52464,14.2247-17.2909,16.07103-35.81553,1.84575-18.51877-37.86215-22.47641-36.0164-40.99518,1.84701-18.53149,15.49303-17.17141,17.34005-35.7029,1.84701-18.53149-18.93865-37.83436-4.83725-49.99898,13.43944-11.59358,31.73368-12.7681,49.40145-11.07111,17.66956,1.69717,16.60413,12.78962,34.27369,14.48679,17.67004,1.69721,15.65017,22.72652,33.3202,24.42373,17.66432,1.69666,18.35158-5.45855,36.0159-3.76188,17.66888,1.6971,15.54947,23.7627,33.21835,25.4598,17.67502,1.69769,18.38471-5.69102,36.05973-3.99333,17.66942,1.69715,19.13578-13.56946,36.80521-11.8723,17.68156,1.69832,20.48601-21.5594,38.12722-19.48342,16.62417,1.9563,12.70426,28.81346,28.50015,36.93821Z"/>
        </g>
        <g class="st11">
          <g>
            <line class="st1" x1="153.73603" y1="35.00059" x2="153.73603" y2="368.16434"/>
            <line class="st1" x1="117.48404" y1="35.00059" x2="117.48404" y2="368.16434"/>
            <line class="st1" x1="189.98801" y1="35.00059" x2="189.98801" y2="368.16434"/>
            <line class="st1" x1="226.23999" y1="35.00059" x2="226.23999" y2="368.16434"/>
            <line class="st1" x1="262.49197" y1="35.00059" x2="262.49197" y2="368.16434"/>
            <line class="st1" x1="298.74396" y1="35.00059" x2="298.74396" y2="368.16434"/>
            <line class="st1" x1="334.99594" y1="35.00059" x2="334.99594" y2="368.16434"/>
            <line class="st1" x1="371.24792" y1="35.00059" x2="371.24792" y2="368.16434"/>
            <line class="st1" x1="407.4999" y1="35.00059" x2="407.4999" y2="368.16434"/>
            <line class="st1" x1="443.75188" y1="35.00059" x2="443.75188" y2="368.16434"/>
          </g>
          <g>
            <line class="st1" x1="446.8987" y1="75.15699" x2="113.73495" y2="75.15699"/>
            <line class="st1" x1="446.8987" y1="38.74969" x2="113.73495" y2="38.74969"/>
            <line class="st1" x1="446.8987" y1="111.56429" x2="113.73495" y2="111.56429"/>
            <line class="st1" x1="446.8987" y1="147.97159" x2="113.73495" y2="147.97159"/>
            <line class="st1" x1="446.8987" y1="184.37889" x2="113.73495" y2="184.37889"/>
            <line class="st1" x1="446.8987" y1="220.78619" x2="113.73495" y2="220.78619"/>
            <line class="st1" x1="446.8987" y1="257.19349" x2="113.73495" y2="257.19349"/>
            <line class="st1" x1="446.8987" y1="293.6008" x2="113.73495" y2="293.6008"/>
            <line class="st1" x1="446.8987" y1="330.0081" x2="113.73495" y2="330.0081"/>
            <line class="st1" x1="446.8987" y1="366.4154" x2="113.73495" y2="366.4154"/>
          </g>
        </g>
      </g>
      <g>
        <rect class="st0" x="163.52028" y="85.33938" width="179.22558" height="16.75379"/>
        <path class="st8" d="M173.32324,87.98211h-3.24854v11.60742h-1.97607v-11.60742h-3.24854v-1.88086h8.47314v1.88086Z"/>
        <path class="st8" d="M180.44775,90.20477l-.30371,1.72852c-.18994-.11328-.56982-.26562-.98779-.26562-1.36768,0-2.03271,1.46289-2.03271,3.38184v4.54004h-1.97559v-9.6123h1.86133l.09521,1.12012c.60791-.77832,1.32959-1.31055,2.16553-1.31055.56982,0,.96875.22852,1.17773.41797Z"/>
        <path class="st8" d="M182.61475,87.43133c0-.58887.4751-1.06348,1.06396-1.06348s1.06396.47461,1.06396,1.06348-.4751,1.06348-1.06396,1.06348-1.06396-.47461-1.06396-1.06348ZM184.6665,99.58953h-1.97559v-9.6123h1.97559v9.6123Z"/>
        <path class="st8" d="M192.18994,89.7868c1.72852,0,3.09619.9502,3.64746,2.16602l.11377-1.97559h1.88086v9.6123h-1.88086l-.11377-1.99512c-.55127,1.23535-1.91895,2.18555-3.64746,2.18555-2.75488,0-4.8252-2.24219-4.8252-4.99707,0-2.75391,2.07031-4.99609,4.8252-4.99609ZM192.5127,97.8991c1.78564,0,3.11572-1.40625,3.11572-3.11621,0-1.70898-1.33008-3.11523-3.11572-3.11523-1.82373,0-3.17236,1.40625-3.17236,3.11523,0,1.70996,1.34863,3.11621,3.17236,3.11621Z"/>
        <path class="st8" d="M209.97314,93.94695v5.64258h-1.97559v-4.76855c0-2.31738-.93066-3.15332-2.31787-3.15332-1.88037,0-2.83057,1.48145-2.92529,2.90625v5.01562h-1.97559v-9.6123h1.86133l.09521,1.53809c.91162-.96875,2.14648-1.72852,3.70459-1.72852,2.26025,0,3.5332,1.48242,3.5332,4.16016Z"/>
        <path class="st8" d="M221.20264,91.74383l-.98779-.13281c.3042.5127.49414,1.12012.49414,1.78516,0,2.08984-1.74756,3.60938-4.02734,3.60938-.49414,0-.96875-.0752-1.38672-.20898-.26611.13379-.39893.30469-.39893.53223,0,.47461.66455.58887,1.72852.58887,2.96338,0,4.55957,1.29199,4.55957,3.11523,0,2.01367-2.03271,3.11621-4.25537,3.11621s-4.25537-1.10254-4.25537-3.11621c0-1.02539.53174-1.6709,1.19678-2.08887-.51318-.32324-.85498-.76074-.85498-1.27344,0-.68359.55078-1.17773,1.12061-1.44336-.89258-.64648-1.4624-1.65332-1.4624-2.83105,0-2.1084,1.74756-3.60938,4.0083-3.60938.72168,0,1.38672.15234,1.95654.41797l2.56445-.22754v1.7666ZM218.82812,93.39617c0-1.13965-.96875-1.95605-2.14648-1.95605-1.15869,0-2.12793.81641-2.12793,1.95605,0,1.12109.96924,1.93848,2.12793,1.93848,1.17773,0,2.14648-.81738,2.14648-1.93848ZM216.05469,99.57098c-.11426,0-.24707,0-.37988-.01953-.51318.24707-1.12109.79785-1.12109,1.44434,0,.94922.9502,1.5,2.375,1.5s2.37451-.47461,2.37451-1.4248c0-1.10156-1.27295-1.5-3.24854-1.5Z"/>
        <path class="st8" d="M225.8208,99.58953h-1.97559v-14.24805h1.97559v14.24805Z"/>
        <path class="st8" d="M237.99854,95.39129h-7.63672c.05713,1.48145,1.15869,2.62109,3.00146,2.62109,1.38672,0,2.26074-.75977,2.65967-1.5l1.72852.18945c-.32275,1.33008-1.82373,3.07812-4.40723,3.07812-2.92529,0-4.95801-2.18555-4.95801-5.05371,0-2.67871,1.91846-4.93945,4.80615-4.93945,2.96338,0,4.80615,2.375,4.80615,5.11035v.49414ZM230.36182,94.00457h5.64209c-.07617-1.29199-1.13965-2.45117-2.81152-2.45117-1.61475,0-2.75488,1.10254-2.83057,2.45117Z"/>
        <path class="st8" d="M255.32666,87.98211h-3.24902v11.60742h-1.97559v-11.60742h-3.24854v-1.88086h8.47314v1.88086Z"/>
        <path class="st8" d="M265.4917,95.39129h-7.63672c.05664,1.48145,1.15918,2.62109,3.00195,2.62109,1.38672,0,2.25977-.75977,2.65918-1.5l1.72852.18945c-.32324,1.33008-1.82324,3.07812-4.40723,3.07812-2.92578,0-4.95801-2.18555-4.95801-5.05371,0-2.67871,1.91895-4.93945,4.80566-4.93945,2.96387,0,4.80664,2.375,4.80664,5.11035v.49414ZM257.85498,94.00457h5.6416c-.0752-1.29199-1.13965-2.45117-2.81152-2.45117-1.61426,0-2.75391,1.10254-2.83008,2.45117Z"/>
        <path class="st8" d="M273.28174,90.20477l-.30371,1.72852c-.19043-.11328-.57031-.26562-.98828-.26562-1.36719,0-2.03223,1.46289-2.03223,3.38184v4.54004h-1.97559v-9.6123h1.86133l.09473,1.12012c.6084-.77832,1.33008-1.31055,2.16602-1.31055.57031,0,.96875.22852,1.17773.41797Z"/>
        <path class="st8" d="M280.80615,90.20477l-.30371,1.72852c-.19043-.11328-.57031-.26562-.98828-.26562-1.36719,0-2.03223,1.46289-2.03223,3.38184v4.54004h-1.97559v-9.6123h1.86133l.09473,1.12012c.6084-.77832,1.33008-1.31055,2.16602-1.31055.57031,0,.96875.22852,1.17773.41797Z"/>
        <path class="st8" d="M282.97266,87.43133c0-.58887.47461-1.06348,1.06348-1.06348s1.06348.47461,1.06348,1.06348-.47461,1.06348-1.06348,1.06348-1.06348-.47461-1.06348-1.06348ZM285.02344,99.58953h-1.97559v-9.6123h1.97559v9.6123Z"/>
        <path class="st8" d="M292.75586,91.85809h-2.05176v7.73145h-1.99512v-7.73145h-1.4248v-1.88086h1.4248v-2.84961h1.99512v2.84961h2.05176v1.88086Z"/>
        <path class="st8" d="M294.3916,94.78289c0-2.75391,2.16504-4.99609,5.14844-4.99609,2.94434,0,5.09082,2.24219,5.09082,4.99609,0,2.75488-2.14648,4.99707-5.09082,4.99707-2.9834,0-5.14844-2.24219-5.14844-4.99707ZM302.65527,94.78289c0-1.70898-1.33008-3.11523-3.11523-3.11523-1.82422,0-3.17285,1.40625-3.17285,3.11523,0,1.70996,1.34863,3.11621,3.17285,3.11621,1.78516,0,3.11523-1.40625,3.11523-3.11621Z"/>
        <path class="st8" d="M312.42188,90.20477l-.30371,1.72852c-.19043-.11328-.57031-.26562-.98828-.26562-1.36719,0-2.03223,1.46289-2.03223,3.38184v4.54004h-1.97559v-9.6123h1.86133l.09473,1.12012c.6084-.77832,1.33008-1.31055,2.16602-1.31055.57031,0,.96875.22852,1.17773.41797Z"/>
        <path class="st8" d="M316.35547,89.97723l3.07715,7.14258,3.02051-7.14258h2.12793l-6.00293,13.98145h-2.08984l1.88086-4.3877-4.1416-9.59375h2.12793Z"/>
      </g>
      <g>
        <rect class="st0" x="235.78041" y="212.91875" width="128.02004" height="16.08467"/>
        <path class="st8" d="M239.63672,223.25555c.09473,1.51953,1.23438,2.22266,2.46973,2.22266,1.40527,0,2.20312-.72266,2.20312-1.69141,0-1.23438-1.1582-1.84277-2.73535-2.65918-2.52637-1.4248-3.62793-2.35547-3.62793-4.25586,0-1.99414,1.72852-3.38086,3.91309-3.38086,2.33691,0,3.89453,1.74707,3.9707,3.91309h-1.97559c-.07617-1.23438-.87402-2.03223-1.99512-2.03223-1.06348,0-1.9375.62695-1.9375,1.57617,0,1.21582.93066,1.65332,2.35547,2.39355,2.4502,1.29199,4.02734,2.43164,4.02734,4.52148,0,2.2041-1.86133,3.49609-4.19824,3.49609-2.66016,0-4.36914-1.88086-4.44531-4.10352h1.97559Z"/>
        <path class="st8" d="M256.81152,231.53777v-6.36426c-.55078,1.23535-1.91895,2.18555-3.64746,2.18555-2.75488,0-4.8252-2.24219-4.8252-4.99707,0-2.75391,2.07031-4.99609,4.8252-4.99609,1.72852,0,3.09668.9502,3.64746,2.16602l.11426-1.97559h1.87988v13.98145h-1.99414ZM253.4873,219.24676c-1.82422,0-3.17285,1.40625-3.17285,3.11523,0,1.70996,1.34863,3.11621,3.17285,3.11621,1.78516,0,3.11523-1.40625,3.11523-3.11621,0-1.70898-1.33008-3.11523-3.11523-3.11523Z"/>
        <path class="st8" d="M270.87012,217.55633v9.6123h-1.86133l-.09473-1.53906c-.91211.96875-2.14746,1.72949-3.70508,1.72949-2.26074,0-3.5332-1.48242-3.5332-4.16113v-5.6416h1.97559v4.76758c0,2.31836.93066,3.1543,2.31738,3.1543,1.97656,0,2.92578-1.63379,2.92578-3.13477v-4.78711h1.97559Z"/>
        <path class="st8" d="M277.97852,217.3659c1.72852,0,3.09668.9502,3.64746,2.16602l.11426-1.97559h1.87988v9.6123h-1.87988l-.11426-1.99512c-.55078,1.23535-1.91895,2.18555-3.64746,2.18555-2.75488,0-4.8252-2.24219-4.8252-4.99707,0-2.75391,2.07031-4.99609,4.8252-4.99609ZM278.30176,225.4782c1.78516,0,3.11523-1.40625,3.11523-3.11621,0-1.70898-1.33008-3.11523-3.11523-3.11523-1.82422,0-3.17285,1.40625-3.17285,3.11523,0,1.70996,1.34863,3.11621,3.17285,3.11621Z"/>
        <path class="st8" d="M291.86719,217.78387l-.30371,1.72852c-.19043-.11328-.57031-.26562-.98828-.26562-1.36719,0-2.03223,1.46289-2.03223,3.38184v4.54004h-1.97559v-9.6123h1.86133l.09473,1.12012c.6084-.77832,1.33008-1.31055,2.16602-1.31055.57031,0,.96875.22852,1.17773.41797Z"/>
        <path class="st8" d="M302.75293,222.97039h-7.63672c.05664,1.48145,1.15918,2.62109,3.00098,2.62109,1.3877,0,2.26074-.75977,2.66016-1.5l1.72852.18945c-.32324,1.33008-1.82324,3.07812-4.40723,3.07812-2.92578,0-4.95801-2.18555-4.95801-5.05371,0-2.67871,1.91895-4.93945,4.80566-4.93945,2.96387,0,4.80664,2.375,4.80664,5.11035v.49414ZM295.11621,221.58367h5.6416c-.0752-1.29199-1.13965-2.45117-2.81152-2.45117-1.61426,0-2.75391,1.10254-2.83008,2.45117Z"/>
        <path class="st8" d="M314.13574,223.25555c.09473,1.51953,1.23438,2.22266,2.46973,2.22266,1.40527,0,2.20312-.72266,2.20312-1.69141,0-1.23438-1.1582-1.84277-2.73535-2.65918-2.52637-1.4248-3.62793-2.35547-3.62793-4.25586,0-1.99414,1.72852-3.38086,3.91309-3.38086,2.33691,0,3.89453,1.74707,3.9707,3.91309h-1.97559c-.07617-1.23438-.87402-2.03223-1.99512-2.03223-1.06348,0-1.9375.62695-1.9375,1.57617,0,1.21582.93066,1.65332,2.35547,2.39355,2.4502,1.29199,4.02734,2.43164,4.02734,4.52148,0,2.2041-1.86133,3.49609-4.19824,3.49609-2.66016,0-4.36914-1.88086-4.44531-4.10352h1.97559Z"/>
        <path class="st8" d="M328.17578,219.43719h-2.05176v7.73145h-1.99512v-7.73145h-1.4248v-1.88086h1.4248v-2.84961h1.99512v2.84961h2.05176v1.88086Z"/>
        <path class="st8" d="M334.63477,217.3659c1.72852,0,3.09668.9502,3.64746,2.16602l.11426-1.97559h1.87988v9.6123h-1.87988l-.11426-1.99512c-.55078,1.23535-1.91895,2.18555-3.64746,2.18555-2.75488,0-4.8252-2.24219-4.8252-4.99707,0-2.75391,2.07031-4.99609,4.8252-4.99609ZM334.95801,225.4782c1.78516,0,3.11523-1.40625,3.11523-3.11621,0-1.70898-1.33008-3.11523-3.11523-3.11523-1.82422,0-3.17285,1.40625-3.17285,3.11523,0,1.70996,1.34863,3.11621,3.17285,3.11621Z"/>
        <path class="st8" d="M348.23828,219.43719h-2.05176v7.73145h-1.99512v-7.73145h-1.4248v-1.88086h1.4248v-2.84961h1.99512v2.84961h2.05176v1.88086Z"/>
        <path class="st8" d="M359.48633,222.97039h-7.63672c.05664,1.48145,1.15918,2.62109,3.00195,2.62109,1.38672,0,2.25977-.75977,2.65918-1.5l1.72852.18945c-.32324,1.33008-1.82324,3.07812-4.40723,3.07812-2.92578,0-4.95801-2.18555-4.95801-5.05371,0-2.67871,1.91895-4.93945,4.80566-4.93945,2.96387,0,4.80664,2.375,4.80664,5.11035v.49414ZM351.84961,221.58367h5.6416c-.0752-1.29199-1.13965-2.45117-2.81152-2.45117-1.61426,0-2.75391,1.10254-2.83008,2.45117Z"/>
      </g>
    </g>
    <g id="Layer_5">
      <g class="st6">
        <g id="KpjvK6">
          <path class="st10" d="M882.4076-331.69618c11.91185,5.29562,27.26189-6.84121,37.79773-11.22248,55.28933-22.99176,110.67593-45.88064,165.66267-69.37772,58.04575-24.80427,121.32728-57.7523,179.85736-78.6128,2.48537-.8858,6.06149-2.19825,8.36663-.2964,6.46321,5.33247,14.61414,19.44425,18.47619,27.11354,4.52639-5.8724,20.12955-3.52255,21.22275-8.93983-1.19632-14.12334-3.74011-27.73532-12.40074-39.59707-3.6449-4.99211-9.81495-5.23804-12.52849-10.47193-3.15194-6.07947.01874-16.47534-4.24123-23.00376l6.44425-.99291c-1.28304-5.99969.3725-13.08767,6.82515-15.25633l3.94011,7.35099c9.90262-4.0444,22.58855-2.13897,32.38497-4.34102,3.54689-.79728,7.10923-3.88224,11.13662-4.93204,9.94193-2.59153,18.52457-5.77918,28.79649-7.86074.9337,18.31584,11.42348,23.27133,20.53531,36.44299,55.74971,80.58927,135.95489,163.94564,216.09793,221.23033,18.59035,13.28802,19.47031,8.90943,37.83588,12.87535,8.48758,1.83283,29.0956,16.28642,29.07661,25.1902-.00647,3.03673-3.86268,6.37763-4.69122,9.66614-1.77068,7.02786,1.77865,12.62292-8.61893,18.57951l1.53644,2.36098c11.53594,10.70735,21.66658,23.30875,33.35313,33.84629,19.48761,17.57161,41.90318,31.98064,61.31072,50.04417,13.17335,12.26106,34.24061,39.5612,46.14669,47.89306,6.69857,4.68765,19.94691,7.70173,27.22788,13.72795,59.12044,48.932,70.80065,107.63161,98.16676,174.27469,4.61888,11.24808,11.54662,25.17145,15.21802,35.13187,2.41487,6.5515,1.84913,16.08807,4.57989,22.96948l-12.37477-10.43509c.80817,12.70058-3.26714,41.96275,2.39465,52.56633,3.30594,6.19147,11.2174,3.72101,7.35734,14.12726l7.60877.9054c-5.39834,4.62599-1.22145,10.87839-10.38942,12.48821,4.41297,6.17544,14.16967,2.39374,16.71924,9.28505,1.28877,3.48346-1.83422,26.13825-4.204,27.32257-7.44515-1.73676-10.53979-8.26338-13.38991-14.70702-4.99564-1.71824-27.22194,24.82445-32.51093,28.32706-7.21534,4.77833-19.24838,3.4621-24.00743,7.7388-6.20984,5.58046.74622,12.25121-19.33261,18.39014-30.46816,9.31537-22.9574-17.31968-31.4268-29.49493-5.99577-8.61927-32.16167-30.48962-42.50977-35.22043-19.55992-8.94214-28.95335-7.92049-49.43072-8.93796-6.18779-.30746-10.77887-5.80413-16.78022-.36454-2.90867,2.6364-1.28099,8.59264-6.1954,9.9561-5.86806-10.27919-25.92176-19.42979-31.84279-26.29127-12.36683-14.33111-15.5655-35.75542-35.82962-45.48192-6.24443-2.99724-21.65435-1.67696-24.96618-3.85041-3.55621-2.33383-2.86906-10.39233-12.58812-4.97252l5.72306,6.62844c-18.43816,11.1508-14.72904-19.70683-33.17951-18.16178l1.58491-8.81684,16.25355,6.06296c-7.54404-8.34151-5.55074-21.23496-9.93683-29.66895-3.14906-6.05532-10.55542-7.70365-11.35273-12.92397-.74431-4.87331,9.13123-9.44677,5.82125-16.44189l-18.98254,19.11172-10.51817-6.62556c8.04221,9.12577,24.49951,14.97504,21.05946,29.92682-6.46749-4.60553-15.49065,1.03504-21.47402-.90815-3.0005-.97446-11.68655-9.9882-16.78096-12.9761-18.18107-10.66327-39.49043-20.14178-55.08402-35.19914-4.90996-4.74112-12.8893-18.28988-16.75017-20.34997-3.2739-1.7469-21.91268,3.42486-19.19262-9.54982,1.60932-7.67645,5.99625-15.05361,7.52866-24.51979,1.10529-6.82779-.50323-14.79393,1.29155-21.79553,2.54052-9.91081,13.07926-21.12958-1.28562-30.79072-1.74602-1.17429-3.77599,2.00515-4.61143,1.85594-2.47834-.44263-4.55591-5.72481-8.68379-2.04589l11.46879,13.28673c-18.97091,12.9917-15.57282-12.22631-25.18493-13.74256-6.32118-.99713-13.41647,5.08134-17.72422,9.1773,4.85027,10.89638,13.97685.96167,21.62399,6.84667l4.99051,27.27357-12.14613,3.93439,4.7718,9.52037c-8.21811,4.32184-9.58438-7.14509-14.2787-12.03179-4.29734-4.47345-13.0805-3.88355-17.59023-9.4289-7.35639-9.04574-4.19637-22.77329-8.22919-33.78787-9.49752-25.93997-13.0538-45.44404-18.61819-72.7844-1.01772-5.0005,1.01106-12.71481-1.04541-17.96982-2.19992-5.6216-8.10994-4.92823-10.17701-8.51234-2.682-4.65033,1.20042-10.26384-1.29028-14.91494l-7.2409,4.77181c3.16111-14.64305-24.18249-21.98621-12.91144-30.48096l-1.41222-2.81056c-8.96932.11095-16.23967-10.2834-23.49093-15.44533-2.66518-1.89725-6.79197-1.57811-8.65458-3.05806-3.27281-2.60043-2.95001-9.8696-7.57794-12.83015-5.30198,5.93408-13.62273,5.71457-20.10611,10.01871-4.85476,3.22295-5.77733,9.51744-12.15289,10.95823-4.72629-3.12305-12.57041-16.89476-15.3425-18.51659-2.77974-1.62631-8.99221,2.17308-14.27569-.0265-5.09775-2.12225-16.99724-15.33535-18.7262-15.58103-4.68607-.66586-8.5067,6.71457-13.91426-3.53018-12.4275,13.01868-22.46469-11.66258-28.78249-19.78328-3.84944-.65936-26.14739-1.82445-27.32378-2.53056-1.78372-1.07065-3.71755-6.8358-7.11571-9.72659-.93038-.79146-20.52852-10.90017-21.71417-11.19387-9.70706-2.40464-21.92399,1.13178-30.38623.7002-8.22608-.41954-29.48488-6.7704-34.83548-5.48025-4.66708,1.12534-12.90209,9.28701-17.56337,12.57626-2.71499,1.91584-6.66183,1.37356-9.06483,3.30116-.67849.54426-9.82413,13.3655-10.03643,14.209-2.52398,10.02802,9.18093,13.58206,10.5014,19.24127-.35978,15.21538-13.69528,7.16823-20.13564,9.43587-16.21828,5.71045-21.57958,31.21283-30.89993,45.28639-1.57596,2.37967-12.62151,19.69782-14.48663,12.7243-5.77361-21.58697-8.06915-.40497-13.17964,6.74487-5.83493,8.16336-14.61601,11.29123-21.36382,16.78191-5.90654,4.80614-8.28088,14.51273-18.59601,13.25946-5.17448-12.81843-16.80939-32.76426-33.1619-31.83044-5.22451.29835-9.04175,4.46512-14.26102,4.7545-6.11654.33912-18.44966-8.12613-23.93486-9.26332-5.03705-1.04428-10.52166,1.36746-16.11781.74873-9.47424-1.04751-25.55665-7.44491-35.4357-8.07528-51.43849-3.2822-101.93947,13.28633-145.14699,40.87484-15.17177,9.68735-32.27056,27.80133-47.78225,38.24737-8.46334,5.69947-19.3273,8.58463-27.63415,14.7183-4.95282,3.65709-7.03929,9.51191-12.07199,12.67835-4.46313-1.30813,8.58678-27.36714.17681-36.49599-2.55656-2.7751-8.20899-3.00354-9.84462-7.20277-1.3991-3.592,1.66448-9.80887.97991-13.89121-3.15211-18.79705-17.18859-11.05099-29.78491-16.04757-2.27815-.90367-20.71375-10.37241-21.77104-11.25855-8.61354-7.21924.83477-18.21961-9.79836-25.41241l359.72175-179.29736c16.35988-2.09348,23.64387,28.82843,32.83779,32.91574Z"/>
        </g>
      </g>
      <g class="st5">
        <g id="KpjvK61" data-name="KpjvK6">
          <path class="st10" d="M56.57735-331.69618c11.91185,5.29562,27.26189-6.84121,37.79773-11.22248,55.28933-22.99176,110.67593-45.88064,165.66267-69.37772,58.04575-24.80427,121.32728-57.7523,179.85736-78.6128,2.48537-.8858,6.06149-2.19825,8.36663-.2964,6.46321,5.33247,14.61414,19.44425,18.47619,27.11354,4.52639-5.8724,20.12955-3.52255,21.22275-8.93983-1.19632-14.12334-3.74011-27.73532-12.40074-39.59707-3.6449-4.99211-9.81495-5.23804-12.52849-10.47193-3.15194-6.07947.01874-16.47534-4.24123-23.00376l6.44425-.99291c-1.28304-5.99969.3725-13.08767,6.82515-15.25633l3.94011,7.35099c9.90262-4.0444,22.58855-2.13897,32.38497-4.34102,3.54689-.79728,7.10923-3.88224,11.13662-4.93204,9.94193-2.59153,18.52457-5.77918,28.79649-7.86074.9337,18.31584,11.42348,23.27133,20.53531,36.44299,55.74971,80.58927,135.95489,163.94564,216.09793,221.23033,18.59035,13.28802,19.47031,8.90943,37.83588,12.87535,8.48758,1.83283,29.0956,16.28642,29.07661,25.1902-.00647,3.03673-3.86268,6.37763-4.69122,9.66614-1.77068,7.02786,1.77865,12.62292-8.61893,18.57951l1.53644,2.36098c11.53594,10.70735,21.66658,23.30875,33.35313,33.84629,19.48761,17.57161,41.90318,31.98064,61.31072,50.04417,13.17335,12.26106,34.24061,39.5612,46.14669,47.89306,6.69857,4.68765,19.94691,7.70173,27.22788,13.72795,59.12044,48.932,70.80065,107.63161,98.16676,174.27469,4.61888,11.24808,11.54662,25.17145,15.21802,35.13187,2.41487,6.5515,1.84913,16.08807,4.57989,22.96948l-12.37477-10.43509c.80817,12.70058-3.26714,41.96275,2.39465,52.56633,3.30594,6.19147,11.2174,3.72101,7.35734,14.12726l7.60877.9054c-5.39834,4.62599-1.22145,10.87839-10.38942,12.48821,4.41297,6.17544,14.16967,2.39374,16.71924,9.28505,1.28877,3.48346-1.83422,26.13825-4.204,27.32257-7.44515-1.73676-10.53979-8.26338-13.38991-14.70702-4.99564-1.71824-27.22194,24.82445-32.51093,28.32706-7.21534,4.77833-19.24838,3.4621-24.00743,7.7388-6.20984,5.58046.74622,12.25121-19.33261,18.39014-30.46816,9.31537-22.9574-17.31968-31.4268-29.49493-5.99577-8.61927-32.16167-30.48962-42.50977-35.22043-19.55992-8.94214-28.95335-7.92049-49.43072-8.93796-6.18779-.30746-10.77887-5.80413-16.78022-.36454-2.90867,2.6364-1.28099,8.59264-6.1954,9.9561-5.86806-10.27919-25.92176-19.42979-31.84279-26.29127-12.36683-14.33111-15.5655-35.75542-35.82962-45.48192-6.24443-2.99724-21.65435-1.67696-24.96618-3.85041-3.55621-2.33383-2.86906-10.39233-12.58812-4.97252l5.72306,6.62844c-18.43816,11.1508-14.72904-19.70683-33.17951-18.16178l1.58491-8.81684,16.25355,6.06296c-7.54404-8.34151-5.55074-21.23496-9.93683-29.66895-3.14906-6.05532-10.55542-7.70365-11.35273-12.92397-.74431-4.87331,9.13123-9.44677,5.82125-16.44189l-18.98254,19.11172-10.51817-6.62556c8.04221,9.12577,24.49951,14.97504,21.05946,29.92682-6.46749-4.60553-15.49065,1.03504-21.47402-.90815-3.0005-.97446-11.68655-9.9882-16.78096-12.9761-18.18107-10.66327-39.49043-20.14178-55.08402-35.19914-4.90996-4.74112-12.8893-18.28988-16.75017-20.34997-3.2739-1.7469-21.91268,3.42486-19.19262-9.54982,1.60932-7.67645,5.99625-15.05361,7.52866-24.51979,1.10529-6.82779-.50323-14.79393,1.29155-21.79553,2.54052-9.91081,13.07926-21.12958-1.28562-30.79072-1.74602-1.17429-3.77599,2.00515-4.61143,1.85594-2.47834-.44263-4.55591-5.72481-8.68379-2.04589l11.46879,13.28673c-18.97091,12.9917-15.57282-12.22631-25.18493-13.74256-6.32118-.99713-13.41647,5.08134-17.72422,9.1773,4.85027,10.89638,13.97685.96167,21.62399,6.84667l4.99051,27.27357-12.14613,3.93439,4.7718,9.52037c-8.21811,4.32184-9.58438-7.14509-14.2787-12.03179-4.29734-4.47345-13.0805-3.88355-17.59023-9.4289-7.35639-9.04574-4.19637-22.77329-8.22919-33.78787-9.49752-25.93997-13.0538-45.44404-18.61819-72.7844-1.01772-5.0005,1.01106-12.71481-1.04541-17.96982-2.19992-5.6216-8.10994-4.92823-10.17701-8.51234-2.682-4.65033,1.20042-10.26384-1.29028-14.91494l-7.2409,4.77181c3.16111-14.64305-24.18249-21.98621-12.91144-30.48096l-1.41222-2.81056c-8.96932.11095-16.23967-10.2834-23.49093-15.44533-2.66518-1.89725-6.79197-1.57811-8.65458-3.05806-3.27281-2.60043-2.95001-9.8696-7.57794-12.83015-5.30198,5.93408-13.62273,5.71457-20.10611,10.01871-4.85476,3.22295-5.77733,9.51744-12.15289,10.95823-4.72629-3.12305-12.57041-16.89476-15.3425-18.51659-2.77974-1.62631-8.99221,2.17308-14.27569-.0265-5.09775-2.12225-16.99724-15.33535-18.7262-15.58103-4.68607-.66586-8.5067,6.71457-13.91426-3.53018-12.4275,13.01868-22.46469-11.66258-28.78249-19.78328-3.84944-.65936-26.14739-1.82445-27.32378-2.53056-1.78372-1.07065-3.71755-6.8358-7.11571-9.72659-.93038-.79146-20.52852-10.90017-21.71417-11.19387-9.70706-2.40464-21.92399,1.13178-30.38623.7002-8.22608-.41954-29.48488-6.7704-34.83548-5.48025-4.66708,1.12534-12.90209,9.28701-17.56337,12.57626-2.71499,1.91584-6.66183,1.37356-9.06483,3.30116-.67849.54426-9.82413,13.3655-10.03643,14.209-2.52398,10.02802,9.18093,13.58206,10.5014,19.24127-.35978,15.21538-13.69528,7.16823-20.13564,9.43587-16.21828,5.71045-21.57958,31.21283-30.89993,45.28639-1.57596,2.37967-12.62151,19.69782-14.48663,12.7243-5.77361-21.58697-8.06915-.40497-13.17964,6.74487-5.83493,8.16336-14.61601,11.29123-21.36382,16.78191-5.90654,4.80614-8.28088,14.51273-18.59601,13.25946-5.17448-12.81843-16.80939-32.76426-33.1619-31.83044-5.22451.29835-9.04175,4.46512-14.26102,4.7545-6.11654.33912-18.44966-8.12613-23.93486-9.26332-5.03705-1.04428-10.52166,1.36746-16.11781.74873-9.47424-1.04751-25.55665-7.44491-35.4357-8.07528-51.43849-3.2822-101.93947,13.28633-145.14699,40.87484-15.17177,9.68735-32.27056,27.80133-47.78225,38.24737-8.46334,5.69947-19.3273,8.58463-27.63415,14.7183-4.95282,3.65709-7.03929,9.51191-12.07199,12.67835-4.46313-1.30813,8.58678-27.36714.17681-36.49599-2.55656-2.7751-8.20899-3.00354-9.84462-7.20277-1.3991-3.592,1.66448-9.80887.97991-13.89121-3.15211-18.79705-17.18859-11.05099-29.78491-16.04757-2.27815-.90367-20.71375-10.37241-21.77104-11.25855-8.61354-7.21924.83477-18.21961-9.79836-25.41241L23.73956-364.61191c16.35988-2.09348,23.64387,28.82843,32.83779,32.91574Z"/>
        </g>
      </g>
    </g>
  </g>
</svg>