<?xml version="1.0" encoding="UTF-8"?>
<svg xmlns="http://www.w3.org/2000/svg" width="560" height="296.67907" xmlns:xlink="http://www.w3.org/1999/xlink" version="1.1" viewBox="0 0 560 296.67907">
  <!-- Generator: Adobe Illustrator 29.2.1, SVG Export Plug-In . SVG Version: 2.1.0 Build 116)  -->
  <defs>
    <style>
      .st0, .st1, .st2, .st3, .st4, .st5, .st6 {
        fill: none;
      }

      .st7 {
        fill: #f3f4f5;
      }

      .st8 {
        fill: #8f8f8f;
      }

      .st9 {
        fill: #44425d;
      }

      .st10 {
        fill: #231f20;
        fill-opacity: .25;
      }

      .st11 {
        fill: #33c5ff;
      }

      .st12 {
        fill-opacity: .8;
      }

      .st12, .st13 {
        fill: #090028;
      }

      .st14 {
        isolation: isolate;
      }

      .st1 {
        stroke-dasharray: 7.94541 7.94541;
      }

      .st1, .st2, .st3, .st4, .st5 {
        stroke-linecap: round;
      }

      .st1, .st2, .st3, .st4, .st5, .st6 {
        stroke-miterlimit: 10;
      }

      .st1, .st5 {
        stroke: #dbe3e6;
        stroke-width: 3px;
      }

      .st15 {
        fill: #ff4930;
      }

      .st16 {
        clip-path: url(#clippath-10);
      }

      .st17 {
        clip-path: url(#clippath-4);
      }

      .st18 {
        clip-path: url(#clippath-2);
      }

      .st19 {
        clip-path: url(#clippath-7);
      }

      .st20 {
        clip-path: url(#clippath-8);
      }

      .st21 {
        clip-path: url(#clippath-5);
      }

      .st2 {
        stroke-width: 4px;
      }

      .st2, .st3, .st4 {
        stroke: #5e6669;
      }

      .st22 {
        fill: #f1b43c;
      }

      .st3 {
        stroke-width: 5px;
      }

      .st23 {
        fill: #dbe3e6;
      }

      .st24 {
        fill: #a9b6bb;
      }

      .st4 {
        stroke-width: 16px;
      }

      .st25 {
        opacity: .75;
      }

      .st26 {
        fill: #f0b43c;
      }

      .st27 {
        fill: #5c478e;
      }

      .st13 {
        mix-blend-mode: color;
      }

      .st6 {
        stroke: #5c478e;
        stroke-width: .65px;
      }

      .st28 {
        clip-path: url(#clippath);
      }
    </style>
    <clipPath id="clippath">
      <rect class="st0" x="941.83122" y="-771.18784" width="324.95899" height="324.95899"/>
    </clipPath>
    <clipPath id="clippath-1">
      <rect class="st0" x="941.83122" y="-771.18784" width="324.95899" height="324.95899"/>
    </clipPath>
    <clipPath id="clippath-2">
      <rect class="st0" x="116.00097" y="-771.18784" width="324.95899" height="324.95899"/>
    </clipPath>
    <clipPath id="clippath-3">
      <rect class="st0" x="116.00097" y="-771.18784" width="324.95899" height="324.95899"/>
    </clipPath>
    <clipPath id="clippath-4">
      <path class="st0" d="M170.47781,155.04304l-3.96134-6.51251c6.51747-3.96507,10.40671-10.87971,10.40417-18.4978-.00254-7.59575-3.87902-14.49726-10.36936-18.46232l3.97437-6.50523c8.77437,5.36013,14.01461,14.69301,14.01804,24.96501.00344,10.3024-5.25475,19.65306-14.06587,25.01285Z"/>
    </clipPath>
    <clipPath id="clippath-5">
      <rect class="st0" x="1166.53268" y="413.28307" width="190.75606" height="190.91584"/>
    </clipPath>
    <clipPath id="clippath-7">
      <rect class="st0" x="1166.53268" y="32.91496" width="190.75606" height="190.91584"/>
    </clipPath>
    <clipPath id="clippath-8">
      <rect class="st0" x="340.70243" y="32.91496" width="190.75606" height="190.91584"/>
    </clipPath>
    <clipPath id="clippath-10">
      <rect class="st0" x="340.70243" y="413.28307" width="190.75606" height="190.91584"/>
    </clipPath>
  </defs>
  <g class="st14">
    <g id="Layer_1">
      <g class="st28">
        <g id="KpjvK6">
          <path class="st26" d="M442.46995-799.63016c20.77632,9.23647,47.54945-11.93225,65.92577-19.57394,96.43415-40.1016,193.03796-80.02376,288.94433-121.00674,101.24183-43.26294,211.61575-100.73,313.70233-137.11432,4.33491-1.54499,10.57229-3.83414,14.59285-.51697,11.27296,9.30075,25.48959,33.91414,32.22567,47.29071,7.89481-10.24247,35.10942-6.14393,37.01615-15.5926-2.08659-24.63355-6.5234-48.3752-21.62904-69.06414-6.35733-8.7071-17.11896-9.13605-21.85185-18.26485-5.49753-10.60364.03268-28.73584-7.39743-40.12254l11.23989-1.73181c-2.23784-10.4645.6497-22.82716,11.90423-26.60968l6.87223,12.8214c17.27189-7.05412,39.39834-3.73073,56.48499-7.57149,6.18638-1.39059,12.39973-6.77129,19.42419-8.60234,17.34044-4.52007,32.31005-10.07989,50.22605-13.71048,1.62853,31.94599,19.92452,40.58923,35.81714,63.56288,97.23714,140.56161,237.12883,285.94955,376.91215,385.86394,32.42478,23.1766,33.95959,15.53959,65.99232,22.45683,14.80381,3.19678,50.74775,28.40634,50.71464,43.93606-.01129,5.29658-6.73717,11.12369-8.1823,16.85942-3.08836,12.2578,3.10226,22.01655-15.0329,32.40587l2.67981,4.11797c20.12067,18.67547,37.79027,40.65449,58.17363,59.03378,33.98977,30.64793,73.08638,55.77977,106.9365,87.28568,22.9766,21.38542,59.72154,69.00157,80.48781,83.53378,11.68346,8.17607,34.79086,13.43316,47.49013,23.94391,103.11627,85.34587,123.48857,187.72813,171.21981,303.96519,8.05612,19.6186,20.13931,43.90336,26.54286,61.27606,4.21195,11.42694,3.22521,28.06037,7.98812,40.06275l-21.58374-18.2006c1.40958,22.15201-5.69846,73.19029,4.17669,91.68477,5.76613,10.79899,19.56509,6.49008,12.83247,24.64038l13.27101,1.57917c-9.41563,8.06852-2.13043,18.97379-18.12095,21.78159,7.69699,10.77103,24.71435,4.17509,29.16125,16.19474,2.24784,6.07575-3.1992,45.58963-7.3325,47.65528-12.98563-3.02922-18.38321-14.41276-23.35432-25.65158-8.71326-2.9969-47.47976,43.29813-56.70468,49.40729-12.5848,8.33423-33.57251,6.0385-41.87311,13.4978-10.83104,9.73328,1.30154,21.36824-33.71941,32.07559-53.14174,16.24762-40.04167-30.20852-54.81377-51.44426-10.45766-15.03349-56.09552-53.17917-74.14439-61.43051-34.11587-15.59663-50.49965-13.8147-86.21571-15.58935-10.79258-.53626-18.80022-10.1234-29.2676-.63582-5.07323,4.59834-2.23427,14.98706-10.80585,17.36516-10.23492-17.92868-45.21203-33.88891-55.53933-45.85652-21.56989-24.99593-27.14892-62.36364-62.49305-79.32833-10.89136-5.2277-37.76893-2.9249-43.54534-6.71579-6.20264-4.07061-5.00413-18.12602-21.95586-8.67293l9.982,11.56114c-32.15933,19.44892-25.68999-34.37212-57.87081-31.67729l2.76436-15.37809,28.349,10.57484c-13.15811-14.54903-9.68144-37.03745-17.33154-51.74778-5.49251-10.56152-18.41048-13.4365-19.80113-22.54164-1.29821-8.49989,15.92645-16.4768,10.15327-28.6775l-33.10883,33.33414-18.3455-11.55611c14.02701,15.91692,42.73138,26.11905,36.73135,52.19756-11.28041-8.03283-27.01837,1.80529-37.45441-1.58398-5.23339-1.69962-20.38336-17.42115-29.26889-22.63256-31.71093-18.59859-68.87814-35.13075-96.07606-61.39339-8.56382-8.26933-22.48117-31.90071-29.21519-35.49387-5.71025-3.04689-38.21951,5.97354-33.47525-16.65654,2.80693-13.38905,10.45851-26.25609,13.13128-42.76675,1.92782-11.90884-.87773-25.80317,2.25268-38.01518,4.43111-17.28617,22.81249-36.85364-2.24234-53.70434-3.04537-2.04817-6.58599,3.49733-8.04312,3.23708-4.32266-.77203-7.94629-9.98505-15.14603-3.56838l20.00356,23.17436c-33.08855,22.65977-27.16169-21.32479-43.92687-23.9694-11.02522-1.73916-23.40065,8.86274-30.91411,16.0068,8.4597,19.00518,24.37805,1.67733,37.71597,11.94178l8.70431,47.56982-21.18494,6.86226,8.32285,16.60517c-14.33381,7.53804-16.71682-12.46227-24.90452-20.98552-7.49531-7.80248-22.81466-6.77359-30.6804-16.44564-12.83082-15.77733-7.3192-39.72055-14.35313-58.93189-16.56531-45.24379-22.76808-79.26227-32.47334-126.94858-1.77507-8.72174,1.76346-22.17682-1.82337-31.34247-3.83704-9.80504-14.14513-8.59569-17.75046-14.84699-4.67787-8.11098,2.09375-17.90192-2.25046-26.01423l-16.60526,8.32286c5.51353-25.54-38.20255-38.34775-18.54389-53.16407l-2.46315-4.90211c-15.64405.19352-28.32479-17.93603-40.97224-26.93932-4.64853-3.30913-11.84637-2.7525-15.09509-5.33378-5.70835-4.53559-5.14532-17.21428-13.21724-22.378-9.24757,10.35006-23.7604,9.9672-35.06853,17.47437-8.46755,5.62138-10.07666,16.60006-21.19673,19.11305-8.24347-5.44713-21.92496-29.46738-26.75997-32.29614-4.84835-2.83657-15.68396,3.79022-24.89928-.04622-8.89135-3.70158-29.64613-26.7475-32.66173-27.176-8.17331-1.16138-14.83716,11.71137-24.26888-6.15724-21.67571,22.70683-39.18231-20.34155-50.20164-34.50546-6.71409-1.15005-45.60556-3.18215-47.65739-4.41373-3.11112-1.86739-6.48405-11.92282-12.41102-16.96485-1.62274-1.38045-35.80529-19.01177-37.87327-19.52405-16.9308-4.19411-38.23923,1.97403-52.99885,1.22127-14.34771-.73175-51.42673-11.80875-60.7591-9.5585-8.1402,1.96279-22.50347,16.19815-30.63355,21.93517-4.73541,3.34156-11.61939,2.39572-15.81063,5.75779-1.1834.94928-17.13498,23.31174-17.50527,24.78295-4.40226,17.49061,16.01312,23.68945,18.31626,33.56011-.62751,26.53825-23.88693,12.50262-35.12004,16.4578-28.28749,9.96002-37.63852,54.44056-53.89483,78.9873-2.74875,4.15056-22.01409,34.3564-25.26719,22.19338-10.07018-37.6514-14.074-.70634-22.98758,11.76421-10.17713,14.23832-25.49284,19.69386-37.2622,29.27056-10.30203,8.38274-14.44329,25.31271-32.43466,23.12679-9.02519-22.35756-29.31849-57.14653-57.84008-55.51778-9.11244.52037-15.77037,7.78795-24.87368,8.29267-10.6683.59149-32.1794-14.17338-41.74653-16.15684-8.78548-1.8214-18.35159,2.38509-28.11224,1.30592-16.52472-1.82703-44.57521-12.98522-61.80598-14.08468-89.71762-5.72472-177.80006,23.17366-253.16144,71.29278-26.46219,16.89642-56.28544,48.49032-83.34051,66.71002-14.76153,9.94086-33.71016,14.97309-48.19874,25.67125-8.63858,6.3786-12.27773,16.59042-21.05564,22.11323-7.78447-2.2816,14.97684-47.73302.30839-63.65531-4.45909-4.84025-14.3179-5.23869-17.17071-12.56288-2.44028-6.26507,2.90314-17.10837,1.70913-24.22867-5.49783-32.78531-29.97988-19.27484-51.95003-27.98974-3.97348-1.57616-36.12835-18.09127-37.97245-19.63685-15.0235-12.59161,1.45598-31.77815-17.09003-44.32364l627.41693-312.7256c28.53446-3.65139,41.239,50.28176,57.27478,57.41074Z"/>
        </g>
      </g>
      <g class="st18">
        <g id="KpjvK62" data-name="KpjvK6">
          <path class="st26" d="M-383.3603-799.63016c20.77632,9.23647,47.54945-11.93225,65.92577-19.57394,96.43415-40.1016,193.03796-80.02376,288.94433-121.00674,101.24183-43.26294,211.61575-100.73,313.70233-137.11432,4.33491-1.54499,10.57229-3.83414,14.59285-.51697,11.27296,9.30075,25.48959,33.91414,32.22567,47.29071,7.89481-10.24247,35.10942-6.14393,37.01615-15.5926-2.08659-24.63355-6.5234-48.3752-21.62904-69.06414-6.35733-8.7071-17.11896-9.13605-21.85185-18.26485-5.49753-10.60364.03268-28.73584-7.39743-40.12254l11.23989-1.73181c-2.23784-10.4645.6497-22.82716,11.90423-26.60968l6.87223,12.8214c17.27189-7.05412,39.39834-3.73073,56.48499-7.57149,6.18638-1.39059,12.39973-6.77129,19.42419-8.60234,17.34044-4.52007,32.31005-10.07989,50.22605-13.71048,1.62853,31.94599,19.92452,40.58923,35.81714,63.56288,97.23714,140.56161,237.12883,285.94955,376.91215,385.86394,32.42478,23.1766,33.95959,15.53959,65.99232,22.45683,14.80381,3.19678,50.74775,28.40634,50.71464,43.93606-.01129,5.29658-6.73717,11.12369-8.1823,16.85942-3.08836,12.2578,3.10226,22.01655-15.0329,32.40587l2.67981,4.11797c20.12067,18.67547,37.79027,40.65449,58.17363,59.03378,33.98977,30.64793,73.08638,55.77977,106.9365,87.28568,22.9766,21.38542,59.72154,69.00157,80.48781,83.53378,11.68346,8.17607,34.79086,13.43316,47.49013,23.94391,103.11627,85.34587,123.48857,187.72813,171.21981,303.96519,8.05612,19.6186,20.13931,43.90336,26.54286,61.27606,4.21195,11.42694,3.22521,28.06037,7.98812,40.06275l-21.58374-18.2006c1.40958,22.15201-5.69846,73.19029,4.17669,91.68477,5.76613,10.79899,19.56509,6.49008,12.83247,24.64038l13.27101,1.57917c-9.41563,8.06852-2.13043,18.97379-18.12095,21.78159,7.69699,10.77103,24.71435,4.17509,29.16125,16.19474,2.24784,6.07575-3.1992,45.58963-7.3325,47.65528-12.98563-3.02922-18.38321-14.41276-23.35432-25.65158-8.71326-2.9969-47.47976,43.29813-56.70468,49.40729-12.5848,8.33423-33.57251,6.0385-41.87311,13.4978-10.83104,9.73328,1.30154,21.36824-33.71941,32.07559-53.14174,16.24762-40.04167-30.20852-54.81377-51.44426-10.45766-15.03349-56.09552-53.17917-74.14439-61.43051-34.11587-15.59663-50.49965-13.8147-86.21571-15.58935-10.79258-.53626-18.80022-10.1234-29.2676-.63582-5.07323,4.59834-2.23427,14.98706-10.80585,17.36516-10.23492-17.92868-45.21203-33.88891-55.53933-45.85652-21.56989-24.99593-27.14892-62.36364-62.49305-79.32833-10.89136-5.2277-37.76893-2.9249-43.54534-6.71579-6.20264-4.07061-5.00413-18.12602-21.95586-8.67293l9.982,11.56114c-32.15933,19.44892-25.68999-34.37212-57.87081-31.67729l2.76436-15.37809,28.349,10.57484c-13.15811-14.54903-9.68144-37.03745-17.33154-51.74778-5.49251-10.56152-18.41048-13.4365-19.80113-22.54164-1.29821-8.49989,15.92645-16.4768,10.15327-28.6775l-33.10883,33.33414-18.3455-11.55611c14.02701,15.91692,42.73138,26.11905,36.73135,52.19756-11.28041-8.03283-27.01837,1.80529-37.45441-1.58398-5.23339-1.69962-20.38336-17.42115-29.26889-22.63256-31.71093-18.59859-68.87814-35.13075-96.07606-61.39339-8.56382-8.26933-22.48117-31.90071-29.21519-35.49387-5.71025-3.04689-38.21951,5.97354-33.47525-16.65654,2.80693-13.38905,10.45851-26.25609,13.13128-42.76675,1.92782-11.90884-.87773-25.80317,2.25268-38.01518,4.43111-17.28617,22.81249-36.85364-2.24234-53.70434-3.04537-2.04817-6.58599,3.49733-8.04312,3.23708-4.32266-.77203-7.94629-9.98505-15.14603-3.56838l20.00356,23.17436c-33.08855,22.65977-27.16169-21.32479-43.92687-23.9694-11.02522-1.73916-23.40065,8.86274-30.91411,16.0068,8.4597,19.00518,24.37805,1.67733,37.71597,11.94178l8.70431,47.56982-21.18494,6.86226,8.32285,16.60517c-14.33381,7.53804-16.71682-12.46227-24.90452-20.98552-7.49531-7.80248-22.81466-6.77359-30.6804-16.44564-12.83082-15.77733-7.3192-39.72055-14.35313-58.93189-16.56531-45.24379-22.76808-79.26227-32.47334-126.94858-1.77507-8.72174,1.76346-22.17682-1.82337-31.34247-3.83704-9.80504-14.14513-8.59569-17.75046-14.84699-4.67787-8.11098,2.09375-17.90192-2.25046-26.01423l-16.60526,8.32286c5.51353-25.54-38.20255-38.34775-18.54389-53.16407l-2.46315-4.90211c-15.64405.19352-28.32479-17.93603-40.97224-26.93932-4.64853-3.30913-11.84637-2.7525-15.09509-5.33378-5.70835-4.53559-5.14532-17.21428-13.21724-22.378-9.24757,10.35006-23.7604,9.9672-35.06853,17.47437-8.46755,5.62138-10.07666,16.60006-21.19673,19.11305-8.24347-5.44713-21.92496-29.46738-26.75997-32.29614-4.84835-2.83657-15.68396,3.79022-24.89928-.04622-8.89135-3.70158-29.64613-26.7475-32.66173-27.176-8.17331-1.16138-14.83716,11.71137-24.26888-6.15724-21.67571,22.70683-39.18231-20.34155-50.20164-34.50546-6.71409-1.15005-45.60556-3.18215-47.65739-4.41373-3.11112-1.86739-6.48405-11.92282-12.41102-16.96485-1.62274-1.38045-35.80529-19.01177-37.87327-19.52405-16.9308-4.19411-38.23923,1.97403-52.99885,1.22127-14.34771-.73175-51.42673-11.80875-60.7591-9.5585-8.1402,1.96279-22.50347,16.19815-30.63355,21.93517-4.73541,3.34156-11.61939,2.39572-15.81063,5.75779-1.1834.94928-17.13498,23.31174-17.50527,24.78295-4.40226,17.49061,16.01312,23.68945,18.31626,33.56011-.62751,26.53825-23.88693,12.50262-35.12004,16.4578-28.28749,9.96002-37.63852,54.44056-53.89483,78.9873-2.74875,4.15056-22.01409,34.3564-25.26719,22.19338-10.07018-37.6514-14.074-.70634-22.98758,11.76421-10.17713,14.23832-25.49284,19.69386-37.2622,29.27056-10.30203,8.38274-14.44329,25.31271-32.43466,23.12679-9.02519-22.35756-29.31849-57.14653-57.84008-55.51778-9.11244.52037-15.77037,7.78795-24.87368,8.29267-10.6683.59149-32.1794-14.17338-41.74653-16.15684-8.78548-1.8214-18.35159,2.38509-28.11224,1.30592-16.52472-1.82703-44.57521-12.98522-61.80598-14.08468-89.71762-5.72472-177.80006,23.17366-253.16144,71.29278-26.46219,16.89642-56.28544,48.49032-83.34051,66.71002-14.76153,9.94086-33.71016,14.97309-48.19874,25.67125-8.63858,6.3786-12.27773,16.59042-21.05564,22.11323-7.78447-2.2816,14.97684-47.73302.30839-63.65531-4.45909-4.84025-14.3179-5.23869-17.17071-12.56288-2.44028-6.26507,2.90314-17.10837,1.70913-24.22867-5.49783-32.78531-29.97988-19.27484-51.95003-27.98974-3.97348-1.57616-36.12835-18.09127-37.97245-19.63685-15.0235-12.59161,1.45598-31.77815-17.09003-44.32364l627.41693-312.7256c28.53446-3.65139,41.239,50.28176,57.27478,57.41074Z"/>
        </g>
      </g>
      <g>
        <line class="st2" x1="161.71451" y1="130.03706" x2="270.9109" y2="130.03706"/>
        <g>
          <path class="st3" d="M181.49782,129.38103s-30.48832-6.52401-57.65295,37.94492c-23.38037,38.27403-55.89357,36.78697-55.89357,36.78697H9.47145"/>
          <path class="st4" d="M174.26663,127.29547s-28.15307,8.56353-52.0516-36.73845c-20.73462-39.30448-53.69004-37.89487-53.69004-37.89487H9.47145"/>
        </g>
        <g id="NEURON">
          <g>
            <circle class="st23" cx="154.70802" cy="130.03706" r="33.77329"/>
            <circle class="st23" cx="151.78296" cy="126.36369" r="28.93102"/>
          </g>
          <path class="st8" d="M170.47781,155.04304l-3.96134-6.51251c6.51747-3.96507,10.40671-10.87971,10.40417-18.4978-.00254-7.59575-3.87902-14.49726-10.36936-18.46232l3.97437-6.50523c8.77437,5.36013,14.01461,14.69301,14.01804,24.96501.00344,10.3024-5.25475,19.65306-14.06587,25.01285Z"/>
          <g class="st17">
            <polygon class="st9" points="173.84121 130.48127 186.36514 129.49203 183.8349 149.74542 170.70472 161.38283 162.63293 150.22157 173.84121 130.48127"/>
            <circle class="st10" cx="154.98096" cy="130.11286" r="24.47049"/>
          </g>
          <g>
            <rect class="st0" x="143.21715" y="121.07777" width="19.98967" height="20.44059"/>
            <path class="st24" d="M145.83545,140.03304l-.00635-18.95117.98584-.00098,11.65186,10.53418-.00342-10.53711,2.12256-.00098.00635,18.95117h-.95996l-11.67773-10.5332.00342,10.53711-2.12256.00098Z"/>
          </g>
          <g class="st25">
            <rect class="st0" x="144.10324" y="121.07777" width="19.98967" height="20.44059"/>
            <path class="st23" d="M146.72168,140.03304l-.00635-18.95117.98584-.00098,11.65186,10.53418-.00342-10.53711,2.12256-.00098.00635,18.95117h-.95996l-11.67773-10.5332.00342,10.53711-2.12256.00098Z"/>
          </g>
        </g>
      </g>
      <g>
        <line class="st6" x1="311.40045" y1="230.2123" x2="311.40045" y2="34.6643"/>
        <polygon class="st27" points="314.23309 36.59618 311.40045 26.02639 308.56781 36.59618 314.23309 36.59618"/>
      </g>
      <g>
        <line class="st6" x1="334.80441" y1="252.88961" x2="528.71533" y2="252.88961"/>
        <polygon class="st27" points="526.78345 255.72225 537.35327 252.88961 526.78345 250.05697 526.78345 255.72225"/>
      </g>
      <g>
        <rect class="st0" x="483.0963" y="263.11321" width="54.21528" height="13.70883"/>
        <path class="st15" d="M488.86133,263.71468h1.29004v10.64941h-1.29004v-10.64941Z"/>
        <path class="st15" d="M499.40527,269.92464v4.43945h-1.29004v-3.89941c0-1.90527-.80957-2.625-1.97949-2.625-1.7998,0-2.52051,1.57422-2.52051,2.6543v3.87012h-1.29004v-7.58984h1.21484l.06055,1.32031c.68945-.81055,1.67969-1.46973,2.98438-1.46973,1.75488,0,2.82031,1.1543,2.82031,3.2998Z"/>
        <path class="st15" d="M501.49023,266.77425h1.21484l.0752,1.72461c.46484-1.0791,1.62012-1.87402,3.04492-1.87402,2.1748,0,3.85547,1.76953,3.85547,3.92969,0,2.18945-1.68066,3.95996-3.85547,3.95996-1.4248,0-2.58008-.79492-3.04492-1.875v5.1748h-1.29004v-11.04004ZM505.63086,273.29867c1.55957,0,2.75977-1.24414,2.75977-2.74414,0-1.46973-1.2002-2.71484-2.75977-2.71484-1.54492,0-2.73047,1.24512-2.73047,2.71484,0,1.5,1.18555,2.74414,2.73047,2.74414Z"/>
        <path class="st15" d="M518.39551,266.77425v7.58984h-1.21484l-.04492-1.33496c-.70508.8252-1.68066,1.48535-3,1.48535-1.75488,0-2.82031-1.15527-2.82031-3.2998v-4.44043h1.29004v3.90039c0,1.9043.81055,2.62402,1.98047,2.62402,1.7998,0,2.51953-1.57422,2.51953-2.6543h.01465v-3.87012h1.27539Z"/>
        <path class="st15" d="M524.11035,267.98909h-1.5752v6.375h-1.27539v-6.375h-1.0791v-1.21484h1.0791v-2.25h1.27539v2.25h1.5752v1.21484Z"/>
        <path class="st15" d="M536.55957,273.14925v1.21484h-6.24023v-1.21484h2.47461v-7.84473l-2.05469.50977v-1.29004l3.34473-.80957v9.43457h2.47559Z"/>
      </g>
      <g>
        <rect class="st0" x="285.13746" y="27.4791" width="23.70883" height="54.21528"/>
        <path class="st11" d="M285.73828,77.69857v-1.29004h10.64941v1.29004h-10.64941Z"/>
        <path class="st11" d="M291.94824,67.15462h4.43945v1.29004h-3.89941c-1.90527,0-2.625.80957-2.625,1.97949,0,1.80078,1.57422,2.52051,2.6543,2.52051h3.87012v1.29004h-7.58984v-1.21484l1.32031-.06055c-.81055-.68945-1.46973-1.67969-1.46973-2.98438,0-1.75488,1.1543-2.82031,3.2998-2.82031Z"/>
        <path class="st11" d="M288.79785,65.06966v-1.21484l1.72461-.0752c-1.0791-.46484-1.87402-1.62012-1.87402-3.04492,0-2.1748,1.76953-3.85547,3.92969-3.85547,2.18945,0,3.95996,1.68066,3.95996,3.85547,0,1.4248-.79492,2.58008-1.875,3.04492h5.1748v1.29004h-11.04004ZM295.32227,60.92904c0-1.55957-1.24414-2.75977-2.74414-2.75977-1.4707,0-2.71484,1.2002-2.71484,2.75977,0,1.54492,1.24414,2.73047,2.71484,2.73047,1.5,0,2.74414-1.18555,2.74414-2.73047Z"/>
        <path class="st11" d="M288.79785,48.16439h7.58984v1.21484l-1.33496.04492c.8252.70508,1.48535,1.68066,1.48535,3,0,1.75488-1.15527,2.82031-3.2998,2.82031h-4.44043v-1.29004h3.90039c1.9043,0,2.62402-.80957,2.62402-1.98047,0-1.7998-1.57422-2.51953-2.6543-2.51953v-.01465h-3.87012v-1.27539Z"/>
        <path class="st11" d="M290.0127,42.44954v1.5752h6.375v1.27539h-6.375v1.0791h-1.21484v-1.0791h-2.25v-1.27539h2.25v-1.5752h1.21484Z"/>
        <path class="st11" d="M295.17285,34.63509v-6.10449h1.21484v7.41016h-1.21484c-3.12012,0-3.49512-6.12012-6.2998-6.12012-1.2002,0-2.07031.92969-2.07031,2.20508,0,1.5752.95996,2.625,2.23535,2.625v1.29004c-1.91992,0-3.4502-1.62012-3.4502-3.93066,0-1.97949,1.32031-3.47949,3.33008-3.47949,3.6748,0,4.06445,6.10449,6.25488,6.10449Z"/>
      </g>
    </g>
    <g id="Layer_5">
      <g class="st21">
        <g id="KpjvK64" data-name="KpjvK6">
          <path class="st26" d="M882.4076,398.28933c11.91185,5.29562,27.26189-6.84121,37.79773-11.22248,55.28933-22.99176,110.67593-45.88064,165.66267-69.37772,58.04575-24.80427,121.32728-57.7523,179.85736-78.6128,2.48537-.8858,6.06149-2.19825,8.36663-.2964,6.46321,5.33247,14.61414,19.44425,18.47619,27.11354,4.52639-5.8724,20.12955-3.52255,21.22275-8.93983-1.19632-14.12334-3.74011-27.73532-12.40074-39.59707-3.6449-4.99211-9.81495-5.23804-12.52849-10.47193-3.15194-6.07947.01874-16.47534-4.24123-23.00376l6.44425-.99291c-1.28304-5.99969.3725-13.08767,6.82515-15.25633l3.94011,7.35099c9.90262-4.0444,22.58855-2.13897,32.38497-4.34102,3.54689-.79728,7.10923-3.88224,11.13662-4.93204,9.94193-2.59153,18.52457-5.77918,28.79649-7.86074.9337,18.31584,11.42348,23.27133,20.53531,36.44299,55.74971,80.58927,135.95489,163.94564,216.09793,221.23033,18.59035,13.28802,19.47031,8.90943,37.83588,12.87535,8.48758,1.83283,29.0956,16.28642,29.07661,25.1902-.00647,3.03673-3.86268,6.37763-4.69122,9.66614-1.77068,7.02786,1.77865,12.62292-8.61893,18.57951l1.53644,2.36098c11.53594,10.70735,21.66658,23.30875,33.35313,33.84629,19.48761,17.57161,41.90318,31.98064,61.31072,50.04417,13.17335,12.26106,34.24061,39.5612,46.14669,47.89306,6.69857,4.68765,19.94691,7.70173,27.22788,13.72795,59.12044,48.932,70.80065,107.63161,98.16676,174.27469,4.61888,11.24808,11.54662,25.17145,15.21802,35.13187,2.41487,6.5515,1.84913,16.08807,4.57989,22.96948l-12.37477-10.43509c.80817,12.70058-3.26714,41.96275,2.39465,52.56633,3.30594,6.19147,11.2174,3.72101,7.35734,14.12726l7.60877.9054c-5.39834,4.62599-1.22145,10.87839-10.38942,12.48821,4.41297,6.17544,14.16967,2.39374,16.71924,9.28505,1.28877,3.48346-1.83422,26.13825-4.204,27.32257-7.44515-1.73676-10.53979-8.26338-13.38991-14.70702-4.99564-1.71824-27.22194,24.82445-32.51093,28.32706-7.21534,4.77833-19.24838,3.4621-24.00743,7.7388-6.20984,5.58046.74622,12.25121-19.33261,18.39014-30.46816,9.31537-22.9574-17.31968-31.4268-29.49493-5.99577-8.61927-32.16167-30.48962-42.50977-35.22043-19.55992-8.94214-28.95335-7.92049-49.43072-8.93796-6.18779-.30746-10.77887-5.80413-16.78022-.36454-2.90867,2.6364-1.28099,8.59264-6.1954,9.9561-5.86806-10.27919-25.92176-19.42979-31.84279-26.29127-12.36683-14.33111-15.5655-35.75542-35.82962-45.48192-6.24443-2.99724-21.65435-1.67696-24.96618-3.85041-3.55621-2.33383-2.86906-10.39233-12.58812-4.97252l5.72306,6.62844c-18.43816,11.1508-14.72904-19.70683-33.17951-18.16178l1.58491-8.81684,16.25355,6.06296c-7.54404-8.34151-5.55074-21.23496-9.93683-29.66895-3.14906-6.05532-10.55542-7.70365-11.35273-12.92397-.74431-4.87331,9.13123-9.44677,5.82125-16.44189l-18.98254,19.11172-10.51817-6.62556c8.04221,9.12577,24.49951,14.97504,21.05946,29.92682-6.46749-4.60553-15.49065,1.03504-21.47402-.90815-3.0005-.97446-11.68655-9.9882-16.78096-12.9761-18.18107-10.66327-39.49043-20.14178-55.08402-35.19914-4.90996-4.74112-12.8893-18.28988-16.75017-20.34997-3.2739-1.7469-21.91268,3.42486-19.19262-9.54982,1.60932-7.67645,5.99625-15.05361,7.52866-24.51979,1.10529-6.82779-.50323-14.79393,1.29155-21.79553,2.54052-9.91081,13.07926-21.12958-1.28562-30.79072-1.74602-1.17429-3.77599,2.00515-4.61143,1.85594-2.47834-.44263-4.55591-5.72481-8.68379-2.04589l11.46879,13.28673c-18.97091,12.9917-15.57282-12.22631-25.18493-13.74256-6.32118-.99713-13.41647,5.08134-17.72422,9.1773,4.85027,10.89638,13.97685.96167,21.62399,6.84667l4.99051,27.27357-12.14613,3.93439,4.7718,9.52037c-8.21811,4.32184-9.58438-7.14509-14.2787-12.03179-4.29734-4.47345-13.0805-3.88355-17.59023-9.4289-7.35639-9.04574-4.19637-22.77329-8.22919-33.78787-9.49752-25.93997-13.0538-45.44404-18.61819-72.7844-1.01772-5.0005,1.01106-12.71481-1.04541-17.96982-2.19992-5.6216-8.10994-4.92823-10.17701-8.51234-2.682-4.65033,1.20042-10.26384-1.29028-14.91494l-7.2409,4.77181c3.16111-14.64305-24.18249-21.98621-12.91144-30.48096l-1.41222-2.81056c-8.96932.11095-16.23967-10.2834-23.49093-15.44533-2.66518-1.89725-6.79197-1.57811-8.65458-3.05806-3.27281-2.60043-2.95001-9.8696-7.57794-12.83015-5.30198,5.93408-13.62273,5.71457-20.10611,10.01871-4.85476,3.22295-5.77733,9.51744-12.15289,10.95823-4.72629-3.12305-12.57041-16.89476-15.3425-18.51659-2.77974-1.62631-8.99221,2.17308-14.27569-.0265-5.09775-2.12225-16.99724-15.33535-18.7262-15.58103-4.68607-.66586-8.5067,6.71457-13.91426-3.53018-12.4275,13.01868-22.46469-11.66258-28.78249-19.78328-3.84944-.65936-26.14739-1.82445-27.32378-2.53056-1.78372-1.07065-3.71755-6.8358-7.11571-9.72659-.93038-.79146-20.52852-10.90017-21.71417-11.19387-9.70706-2.40464-21.92399,1.13178-30.38623.7002-8.22608-.41954-29.48488-6.7704-34.83548-5.48025-4.66708,1.12534-12.90209,9.28701-17.56337,12.57626-2.71499,1.91584-6.66183,1.37356-9.06483,3.30116-.67849.54426-9.82413,13.3655-10.03643,14.209-2.52398,10.02802,9.18093,13.58206,10.5014,19.24127-.35978,15.21538-13.69528,7.16823-20.13564,9.43587-16.21828,5.71045-21.57958,31.21283-30.89993,45.28639-1.57596,2.37967-12.62151,19.69782-14.48663,12.7243-5.77361-21.58697-8.06915-.40497-13.17964,6.74487-5.83493,8.16336-14.61601,11.29123-21.36382,16.78191-5.90654,4.80614-8.28088,14.51273-18.59601,13.25946-5.17448-12.81843-16.80939-32.76426-33.1619-31.83044-5.22451.29835-9.04175,4.46512-14.26102,4.7545-6.11654.33912-18.44966-8.12613-23.93486-9.26332-5.03705-1.04428-10.52166,1.36746-16.11781.74873-9.47424-1.04751-25.55665-7.44491-35.4357-8.07528-51.43849-3.2822-101.93947,13.28633-145.14699,40.87484-15.17177,9.68735-32.27056,27.80133-47.78225,38.24737-8.46334,5.69947-19.3273,8.58463-27.63415,14.7183-4.95282,3.65709-7.03929,9.51191-12.07199,12.67835-4.46313-1.30813,8.58678-27.36714.17681-36.49599-2.55656-2.7751-8.20899-3.00354-9.84462-7.20277-1.3991-3.592,1.66448-9.80887.97991-13.89121-3.15211-18.79705-17.18859-11.05099-29.78491-16.04757-2.27815-.90367-20.71375-10.37241-21.77104-11.25855-8.61354-7.21924.83477-18.21961-9.79836-25.41241l359.72175-179.29736c16.35988-2.09348,23.64387,28.82843,32.83779,32.91574Z"/>
        </g>
      </g>
      <g class="st19">
        <path class="st26" d="M882.4076,17.92122c11.91185,5.29562,27.26189-6.84121,37.79773-11.22248,55.28933-22.99176,110.67593-45.88064,165.66267-69.37772,58.04575-24.80427,121.32728-57.7523,179.85736-78.6128,2.48537-.8858,6.06149-2.19825,8.36663-.2964,6.46321,5.33247,14.61414,19.44425,18.47619,27.11354,4.52639-5.8724,20.12955-3.52255,21.22275-8.93983-1.19632-14.12334-3.74011-27.73532-12.40074-39.59707-3.6449-4.99211-9.81495-5.23804-12.52849-10.47193-3.15194-6.07947.01874-16.47534-4.24123-23.00376l6.44425-.99291c-1.28304-5.99969.3725-13.08767,6.82515-15.25633l3.94011,7.35099c9.90262-4.0444,22.58855-2.13897,32.38497-4.34102,3.54689-.79728,7.10923-3.88224,11.13662-4.93204,9.94193-2.59153,18.52457-5.77918,28.79649-7.86074.9337,18.31584,11.42348,23.27133,20.53531,36.44299,55.74971,80.58927,135.95489,163.94564,216.09793,221.23033,18.59035,13.28802,19.47031,8.90943,37.83588,12.87535,8.48758,1.83283,29.0956,16.28642,29.07661,25.1902-.00647,3.03673-3.86268,6.37763-4.69122,9.66614-1.77068,7.02786,1.77865,12.62292-8.61893,18.57951l1.53644,2.36098c11.53594,10.70735,21.66658,23.30875,33.35313,33.84629,19.48761,17.57161,41.90318,31.98064,61.31072,50.04417,13.17335,12.26106,34.24061,39.5612,46.14669,47.89306,6.69857,4.68765,19.94691,7.70173,27.22788,13.72795,59.12044,48.932,70.80065,107.63161,98.16676,174.27469,4.61888,11.24808,11.54662,25.17145,15.21802,35.13187,2.41487,6.5515,1.84913,16.08807,4.57989,22.96948l-12.37477-10.43509c.80817,12.70058-3.26714,41.96275,2.39465,52.56633,3.30594,6.19147,11.2174,3.72101,7.35734,14.12726l7.60877.9054c-5.39834,4.62599-1.22145,10.87839-10.38942,12.48821,4.41297,6.17544,14.16967,2.39374,16.71924,9.28505,1.28877,3.48346-1.83422,26.13825-4.204,27.32257-7.44515-1.73676-10.53979-8.26338-13.38991-14.70702-4.99564-1.71824-27.22194,24.82445-32.51093,28.32706-7.21534,4.77833-19.24838,3.4621-24.00743,7.7388-6.20984,5.58046.74622,12.25121-19.33261,18.39014-30.46816,9.31537-22.9574-17.31968-31.4268-29.49493-5.99577-8.61927-32.16167-30.48962-42.50977-35.22043-19.55992-8.94214-28.95335-7.92049-49.43072-8.93796-6.18779-.30746-10.77887-5.80413-16.78022-.36454-2.90867,2.6364-1.28099,8.59264-6.1954,9.9561-5.86806-10.27919-25.92176-19.42979-31.84279-26.29127-12.36683-14.33111-15.5655-35.75542-35.82962-45.48192-6.24443-2.99724-21.65435-1.67696-24.96618-3.85041-3.55621-2.33383-2.86906-10.39233-12.58812-4.97252l5.72306,6.62844c-18.43816,11.1508-14.72904-19.70683-33.17951-18.16178l1.58491-8.81684,16.25355,6.06296c-7.54404-8.34151-5.55074-21.23496-9.93683-29.66895-3.14906-6.05532-10.55542-7.70365-11.35273-12.92397-.74431-4.87331,9.13123-9.44677,5.82125-16.44189l-18.98254,19.11172-10.51817-6.62556c8.04221,9.12577,24.49951,14.97504,21.05946,29.92682-6.46749-4.60553-15.49065,1.03504-21.47402-.90815-3.0005-.97446-11.68655-9.9882-16.78096-12.9761-18.18107-10.66327-39.49043-20.14178-55.08402-35.19914-4.90996-4.74112-12.8893-18.28988-16.75017-20.34997-3.2739-1.7469-21.91268,3.42486-19.19262-9.54982,1.60932-7.67645,5.99625-15.05361,7.52866-24.51979,1.10529-6.82779-.50323-14.79393,1.29155-21.79553,2.54052-9.91081,13.07926-21.12958-1.28562-30.79072-1.74602-1.17429-3.77599,2.00515-4.61143,1.85594-2.47834-.44263-4.55591-5.72481-8.68379-2.04589l11.46879,13.28673c-18.97091,12.9917-15.57282-12.22631-25.18493-13.74256-6.32118-.99713-13.41647,5.08134-17.72422,9.1773,4.85027,10.89638,13.97685.96167,21.62399,6.84667l4.99051,27.27357-12.14613,3.93439,4.7718,9.52037c-8.21811,4.32184-9.58438-7.14509-14.2787-12.03179-4.29734-4.47345-13.0805-3.88355-17.59023-9.4289-7.35639-9.04574-4.19637-22.77329-8.22919-33.78787-9.49752-25.93997-13.0538-45.44404-18.61819-72.7844-1.01772-5.0005,1.01106-12.71481-1.04541-17.96982-2.19992-5.6216-8.10994-4.92823-10.17701-8.51234-2.682-4.65033,1.20042-10.26384-1.29028-14.91494l-7.2409,4.77181c3.16111-14.64305-24.18249-21.98621-12.91144-30.48096l-1.41222-2.81056c-8.96932.11095-16.23967-10.2834-23.49093-15.44533-2.66518-1.89725-6.79197-1.57811-8.65458-3.05806-3.27281-2.60043-2.95001-9.8696-7.57794-12.83015-5.30198,5.93408-13.62273,5.71457-20.10611,10.01871-4.85476,3.22295-5.77733,9.51744-12.15289,10.95823-4.72629-3.12305-12.57041-16.89476-15.3425-18.51659-2.77974-1.62631-8.99221,2.17308-14.27569-.0265-5.09775-2.12225-16.99724-15.33535-18.7262-15.58103-4.68607-.66586-8.5067,6.71457-13.91426-3.53018-12.4275,13.01868-22.46469-11.66258-28.78249-19.78328-3.84944-.65936-26.14739-1.82445-27.32378-2.53056-1.78372-1.07065-3.71755-6.8358-7.11571-9.72659-.93038-.79146-20.52852-10.90017-21.71417-11.19387-9.70706-2.40464-21.92399,1.13178-30.38623.7002-8.22608-.41954-29.48488-6.7704-34.83548-5.48025-4.66708,1.12534-12.90209,9.28701-17.56337,12.57626-2.71499,1.91584-6.66183,1.37356-9.06483,3.30116-.67849.54426-9.82413,13.3655-10.03643,14.209-2.52398,10.02802,9.18093,13.58206,10.5014,19.24127-.35978,15.21538-13.69528,7.16823-20.13564,9.43587-16.21828,5.71045-21.57958,31.21283-30.89993,45.28639-1.57596,2.37967-12.62151,19.69782-14.48663,12.7243-5.77361-21.58697-8.06915-.40497-13.17964,6.74487-5.83493,8.16336-14.61601,11.29123-21.36382,16.78191-5.90654,4.80614-8.28088,14.51273-18.59601,13.25946-5.17448-12.81843-16.80939-32.76426-33.1619-31.83044-5.22451.29835-9.04175,4.46512-14.26102,4.7545-6.11654.33912-18.44966-8.12613-23.93486-9.26332-5.03705-1.04428-10.52166,1.36746-16.11781.74873-9.47424-1.04751-25.55665-7.44491-35.4357-8.07528-51.43849-3.2822-101.93947,13.28633-145.14699,40.87484-15.17177,9.68735-32.27056,27.80133-47.78225,38.24737-8.46334,5.69947-19.3273,8.58463-27.63415,14.7183-4.95282,3.65709-7.03929,9.51191-12.07199,12.67835-4.46313-1.30813,8.58678-27.36714.17681-36.49599-2.55656-2.7751-8.20899-3.00354-9.84462-7.20277-1.3991-3.592,1.66448-9.80887.97991-13.89121-3.15211-18.79705-17.18859-11.05099-29.78491-16.04757-2.27815-.90367-20.71375-10.37241-21.77104-11.25855-8.61354-7.21924.83477-18.21961-9.79836-25.41241L849.56981-14.99452c16.35988-2.09348,23.64387,28.82843,32.83779,32.91574Z"/>
      </g>
      <g>
        <g>
          <g>
            <g>
              <rect class="st7" x="334.78242" y="27.46767" width="202.50633" height="202.50633"/>
              <rect class="st22" x="340.59427" y="32.92135" width="190.94174" height="190.94903"/>
              <g class="st20">
                <path class="st26" d="M56.57735,17.92122c11.91185,5.29562,27.26189-6.84121,37.79773-11.22248,55.28933-22.99176,110.67593-45.88064,165.66267-69.37772,58.04575-24.80427,121.32728-57.7523,179.85736-78.6128,2.48537-.8858,6.06149-2.19825,8.36663-.2964,6.46321,5.33247,14.61414,19.44425,18.47619,27.11354,4.52639-5.8724,20.12955-3.52255,21.22275-8.93983-1.19632-14.12334-3.74011-27.73532-12.40074-39.59707-3.6449-4.99211-9.81495-5.23804-12.52849-10.47193-3.15194-6.07947.01874-16.47534-4.24123-23.00376l6.44425-.99291c-1.28304-5.99969.3725-13.08767,6.82515-15.25633l3.94011,7.35099c9.90262-4.0444,22.58855-2.13897,32.38497-4.34102,3.54689-.79728,7.10923-3.88224,11.13662-4.93204,9.94193-2.59153,18.52457-5.77918,28.79649-7.86074.9337,18.31584,11.42348,23.27133,20.53531,36.44299,55.74971,80.58927,135.95489,163.94564,216.09793,221.23033,18.59035,13.28802,19.47031,8.90943,37.83588,12.87535,8.48758,1.83283,29.0956,16.28642,29.07661,25.1902-.00647,3.03673-3.86268,6.37763-4.69122,9.66614-1.77068,7.02786,1.77865,12.62292-8.61893,18.57951l1.53644,2.36098c11.53594,10.70735,21.66658,23.30875,33.35313,33.84629,19.48761,17.57161,41.90318,31.98064,61.31072,50.04417,13.17335,12.26106,34.24061,39.5612,46.14669,47.89306,6.69857,4.68765,19.94691,7.70173,27.22788,13.72795,59.12044,48.932,70.80065,107.63161,98.16676,174.27469,4.61888,11.24808,11.54662,25.17145,15.21802,35.13187,2.41487,6.5515,1.84913,16.08807,4.57989,22.96948l-12.37477-10.43509c.80817,12.70058-3.26714,41.96275,2.39465,52.56633,3.30594,6.19147,11.2174,3.72101,7.35734,14.12726l7.60877.9054c-5.39834,4.62599-1.22145,10.87839-10.38942,12.48821,4.41297,6.17544,14.16967,2.39374,16.71924,9.28505,1.28877,3.48346-1.83422,26.13825-4.204,27.32257-7.44515-1.73676-10.53979-8.26338-13.38991-14.70702-4.99564-1.71824-27.22194,24.82445-32.51093,28.32706-7.21534,4.77833-19.24838,3.4621-24.00743,7.7388-6.20984,5.58046.74622,12.25121-19.33261,18.39014-30.46816,9.31537-22.9574-17.31968-31.4268-29.49493-5.99577-8.61927-32.16167-30.48962-42.50977-35.22043-19.55992-8.94214-28.95335-7.92049-49.43072-8.93796-6.18779-.30746-10.77887-5.80413-16.78022-.36454-2.90867,2.6364-1.28099,8.59264-6.1954,9.9561-5.86806-10.27919-25.92176-19.42979-31.84279-26.29127-12.36683-14.33111-15.5655-35.75542-35.82962-45.48192-6.24443-2.99724-21.65435-1.67696-24.96618-3.85041-3.55621-2.33383-2.86906-10.39233-12.58812-4.97252l5.72306,6.62844c-18.43816,11.1508-14.72904-19.70683-33.17951-18.16178l1.58491-8.81684,16.25355,6.06296c-7.54404-8.34151-5.55074-21.23496-9.93683-29.66895-3.14906-6.05532-10.55542-7.70365-11.35273-12.92397-.74431-4.87331,9.13123-9.44677,5.82125-16.44189l-18.98254,19.11172-10.51817-6.62556c8.04221,9.12577,24.49951,14.97504,21.05946,29.92682-6.46749-4.60553-15.49065,1.03504-21.47402-.90815-3.0005-.97446-11.68655-9.9882-16.78096-12.9761-18.18107-10.66327-39.49043-20.14178-55.08402-35.19914-4.90996-4.74112-12.8893-18.28988-16.75017-20.34997-3.2739-1.7469-21.91268,3.42486-19.19262-9.54982,1.60932-7.67645,5.99625-15.05361,7.52866-24.51979,1.10529-6.82779-.50323-14.79393,1.29155-21.79553,2.54052-9.91081,13.07926-21.12958-1.28562-30.79072-1.74602-1.17429-3.77599,2.00515-4.61143,1.85594-2.47834-.44263-4.55591-5.72481-8.68379-2.04589l11.46879,13.28673c-18.97091,12.9917-15.57282-12.22631-25.18493-13.74256-6.32118-.99713-13.41647,5.08134-17.72422,9.1773,4.85027,10.89638,13.97685.96167,21.62399,6.84667l4.99051,27.27357-12.14613,3.93439,4.7718,9.52037c-8.21811,4.32184-9.58438-7.14509-14.2787-12.03179-4.29734-4.47345-13.0805-3.88355-17.59023-9.4289-7.35639-9.04574-4.19637-22.77329-8.22919-33.78787-9.49752-25.93997-13.0538-45.44404-18.61819-72.7844-1.01772-5.0005,1.01106-12.71481-1.04541-17.96982-2.19992-5.6216-8.10994-4.92823-10.17701-8.51234-2.682-4.65033,1.20042-10.26384-1.29028-14.91494l-7.2409,4.77181c3.16111-14.64305-24.18249-21.98621-12.91144-30.48096l-1.41222-2.81056c-8.96932.11095-16.23967-10.2834-23.49093-15.44533-2.66518-1.89725-6.79197-1.57811-8.65458-3.05806-3.27281-2.60043-2.95001-9.8696-7.57794-12.83015-5.30198,5.93408-13.62273,5.71457-20.10611,10.01871-4.85476,3.22295-5.77733,9.51744-12.15289,10.95823-4.72629-3.12305-12.57041-16.89476-15.3425-18.51659-2.77974-1.62631-8.99221,2.17308-14.27569-.0265-5.09775-2.12225-16.99724-15.33535-18.7262-15.58103-4.68607-.66586-8.5067,6.71457-13.91426-3.53018-12.4275,13.01868-22.46469-11.66258-28.78249-19.78328-3.84944-.65936-26.14739-1.82445-27.32378-2.53056-1.78372-1.07065-3.71755-6.8358-7.11571-9.72659-.93038-.79146-20.52852-10.90017-21.71417-11.19387-9.70706-2.40464-21.92399,1.13178-30.38623.7002-8.22608-.41954-29.48488-6.7704-34.83548-5.48025-4.66708,1.12534-12.90209,9.28701-17.56337,12.57626-2.71499,1.91584-6.66183,1.37356-9.06483,3.30116-.67849.54426-9.82413,13.3655-10.03643,14.209-2.52398,10.02802,9.18093,13.58206,10.5014,19.24127-.35978,15.21538-13.69528,7.16823-20.13564,9.43587-16.21828,5.71045-21.57958,31.21283-30.89993,45.28639-1.57596,2.37967-12.62151,19.69782-14.48663,12.7243-5.77361-21.58697-8.06915-.40497-13.17964,6.74487-5.83493,8.16336-14.61601,11.29123-21.36382,16.78191-5.90654,4.80614-8.28088,14.51273-18.59601,13.25946-5.17448-12.81843-16.80939-32.76426-33.1619-31.83044-5.22451.29835-9.04175,4.46512-14.26102,4.7545-6.11654.33912-18.44966-8.12613-23.93486-9.26332-5.03705-1.04428-10.52166,1.36746-16.11781.74873-9.47424-1.04751-25.55665-7.44491-35.4357-8.07528-51.43849-3.2822-101.93947,13.28633-145.14699,40.87484-15.17177,9.68735-32.27056,27.80133-47.78225,38.24737-8.46334,5.69947-19.3273,8.58463-27.63415,14.7183-4.95282,3.65709-7.03929,9.51191-12.07199,12.67835-4.46313-1.30813,8.58678-27.36714.17681-36.49599-2.55656-2.7751-8.20899-3.00354-9.84462-7.20277-1.3991-3.592,1.66448-9.80887.97991-13.89121-3.15211-18.79705-17.18859-11.05099-29.78491-16.04757-2.27815-.90367-20.71375-10.37241-21.77104-11.25855-8.61354-7.21924.83477-18.21961-9.79836-25.41241L23.73956-14.99452c16.35988-2.09348,23.64387,28.82843,32.83779,32.91574Z"/>
              </g>
            </g>
            <rect class="st13" x="333.87956" y="26.15803" width="204.76538" height="204.92048"/>
            <polygon class="st12" points="538.06822 231.17338 333.77716 231.17338 333.77716 26.47877 538.08628 26.47877 538.06822 231.17338"/>
          </g>
          <g>
            <rect class="st22" x="350.34914" y="181.44199" width="12.05439" height="12.05439"/>
            <rect class="st22" x="389.58483" y="142.34316" width="12.05439" height="12.05439"/>
            <rect class="st22" x="396.40059" y="191.55051" width="12.05439" height="12.05439"/>
            <rect class="st22" x="462.38256" y="190.66657" width="12.05439" height="12.05439"/>
            <rect class="st22" x="458.86254" y="160.52374" width="12.05439" height="12.05439"/>
            <rect class="st22" x="494.34885" y="155.29418" width="12.05439" height="12.05439"/>
            <rect class="st22" x="510.03753" y="204.78824" width="12.05439" height="12.05439"/>
            <rect class="st22" x="416.76935" y="206.71353" width="12.05439" height="12.05439"/>
            <rect class="st22" x="424.06127" y="167.18817" width="12.05439" height="12.05439"/>
            <rect class="st22" x="411.98326" y="152.11909" width="12.05439" height="12.05439"/>
            <rect class="st22" x="371.45416" y="202.36023" width="12.05439" height="12.05439"/>
            <rect class="st22" x="369.39969" y="122.04911" width="12.05439" height="12.05439"/>
            <rect class="st22" x="346.42697" y="143.3409" width="12.05439" height="12.05439"/>
            <polygon class="st26" points="450.13226 106.17151 443.48442 117.6859 456.7801 117.6859 450.13226 106.17151"/>
            <polygon class="st26" points="483.00643 67.90535 476.35859 79.41975 489.65427 79.41975 483.00643 67.90535"/>
            <polygon class="st26" points="469.88644 59.90765 463.2386 71.42205 476.53428 71.42205 469.88644 59.90765"/>
            <polygon class="st26" points="516.06473 87.51621 509.41689 99.0306 522.71257 99.0306 516.06473 87.51621"/>
            <polygon class="st26" points="503.55114 114.03755 496.9033 125.55195 510.19898 125.55195 503.55114 114.03755"/>
            <polygon class="st26" points="516.77949 49.97103 510.13165 61.48543 523.42733 61.48543 516.77949 49.97103"/>
            <polygon class="st26" points="491.49159 37.78031 484.84375 49.29471 498.13943 49.29471 491.49159 37.78031"/>
            <polygon class="st26" points="386.25955 90.50453 379.61171 102.01892 392.90738 102.01892 386.25955 90.50453"/>
            <polygon class="st26" points="377.01256 58.30902 370.36472 69.82341 383.6604 69.82341 377.01256 58.30902"/>
            <polygon class="st26" points="396.71867 48.10773 390.07083 59.62212 403.36651 59.62212 396.71867 48.10773"/>
            <polygon class="st26" points="435.75361 42.69139 429.10577 54.20579 442.40145 54.20579 435.75361 42.69139"/>
            <polygon class="st26" points="352.97882 67.65869 346.33098 79.17309 359.62666 79.17309 352.97882 67.65869"/>
            <polygon class="st26" points="353.09779 41.35785 346.44995 52.87224 359.74563 52.87224 353.09779 41.35785"/>
          </g>
        </g>
        <g>
          <line class="st5" x1="408.61188" y1="28.48223" x2="409.56384" y2="32.3673"/>
          <line class="st1" x1="411.4548" y1="40.0844" x2="455.89209" y2="221.4366"/>
          <line class="st5" x1="456.83759" y1="225.29519" x2="457.78955" y2="229.18026"/>
        </g>
      </g>
      <g class="st16">
        <g id="KpjvK65" data-name="KpjvK6">
          <path class="st26" d="M56.57735,398.28933c11.91185,5.29562,27.26189-6.84121,37.79773-11.22248,55.28933-22.99176,110.67593-45.88064,165.66267-69.37772,58.04575-24.80427,121.32728-57.7523,179.85736-78.6128,2.48537-.8858,6.06149-2.19825,8.36663-.2964,6.46321,5.33247,14.61414,19.44425,18.47619,27.11354,4.52639-5.8724,20.12955-3.52255,21.22275-8.93983-1.19632-14.12334-3.74011-27.73532-12.40074-39.59707-3.6449-4.99211-9.81495-5.23804-12.52849-10.47193-3.15194-6.07947.01874-16.47534-4.24123-23.00376l6.44425-.99291c-1.28304-5.99969.3725-13.08767,6.82515-15.25633l3.94011,7.35099c9.90262-4.0444,22.58855-2.13897,32.38497-4.34102,3.54689-.79728,7.10923-3.88224,11.13662-4.93204,9.94193-2.59153,18.52457-5.77918,28.79649-7.86074.9337,18.31584,11.42348,23.27133,20.53531,36.44299,55.74971,80.58927,135.95489,163.94564,216.09793,221.23033,18.59035,13.28802,19.47031,8.90943,37.83588,12.87535,8.48758,1.83283,29.0956,16.28642,29.07661,25.1902-.00647,3.03673-3.86268,6.37763-4.69122,9.66614-1.77068,7.02786,1.77865,12.62292-8.61893,18.57951l1.53644,2.36098c11.53594,10.70735,21.66658,23.30875,33.35313,33.84629,19.48761,17.57161,41.90318,31.98064,61.31072,50.04417,13.17335,12.26106,34.24061,39.5612,46.14669,47.89306,6.69857,4.68765,19.94691,7.70173,27.22788,13.72795,59.12044,48.932,70.80065,107.63161,98.16676,174.27469,4.61888,11.24808,11.54662,25.17145,15.21802,35.13187,2.41487,6.5515,1.84913,16.08807,4.57989,22.96948l-12.37477-10.43509c.80817,12.70058-3.26714,41.96275,2.39465,52.56633,3.30594,6.19147,11.2174,3.72101,7.35734,14.12726l7.60877.9054c-5.39834,4.62599-1.22145,10.87839-10.38942,12.48821,4.41297,6.17544,14.16967,2.39374,16.71924,9.28505,1.28877,3.48346-1.83422,26.13825-4.204,27.32257-7.44515-1.73676-10.53979-8.26338-13.38991-14.70702-4.99564-1.71824-27.22194,24.82445-32.51093,28.32706-7.21534,4.77833-19.24838,3.4621-24.00743,7.7388-6.20984,5.58046.74622,12.25121-19.33261,18.39014-30.46816,9.31537-22.9574-17.31968-31.4268-29.49493-5.99577-8.61927-32.16167-30.48962-42.50977-35.22043-19.55992-8.94214-28.95335-7.92049-49.43072-8.93796-6.18779-.30746-10.77887-5.80413-16.78022-.36454-2.90867,2.6364-1.28099,8.59264-6.1954,9.9561-5.86806-10.27919-25.92176-19.42979-31.84279-26.29127-12.36683-14.33111-15.5655-35.75542-35.82962-45.48192-6.24443-2.99724-21.65435-1.67696-24.96618-3.85041-3.55621-2.33383-2.86906-10.39233-12.58812-4.97252l5.72306,6.62844c-18.43816,11.1508-14.72904-19.70683-33.17951-18.16178l1.58491-8.81684,16.25355,6.06296c-7.54404-8.34151-5.55074-21.23496-9.93683-29.66895-3.14906-6.05532-10.55542-7.70365-11.35273-12.92397-.74431-4.87331,9.13123-9.44677,5.82125-16.44189l-18.98254,19.11172-10.51817-6.62556c8.04221,9.12577,24.49951,14.97504,21.05946,29.92682-6.46749-4.60553-15.49065,1.03504-21.47402-.90815-3.0005-.97446-11.68655-9.9882-16.78096-12.9761-18.18107-10.66327-39.49043-20.14178-55.08402-35.19914-4.90996-4.74112-12.8893-18.28988-16.75017-20.34997-3.2739-1.7469-21.91268,3.42486-19.19262-9.54982,1.60932-7.67645,5.99625-15.05361,7.52866-24.51979,1.10529-6.82779-.50323-14.79393,1.29155-21.79553,2.54052-9.91081,13.07926-21.12958-1.28562-30.79072-1.74602-1.17429-3.77599,2.00515-4.61143,1.85594-2.47834-.44263-4.55591-5.72481-8.68379-2.04589l11.46879,13.28673c-18.97091,12.9917-15.57282-12.22631-25.18493-13.74256-6.32118-.99713-13.41647,5.08134-17.72422,9.1773,4.85027,10.89638,13.97685.96167,21.62399,6.84667l4.99051,27.27357-12.14613,3.93439,4.7718,9.52037c-8.21811,4.32184-9.58438-7.14509-14.2787-12.03179-4.29734-4.47345-13.0805-3.88355-17.59023-9.4289-7.35639-9.04574-4.19637-22.77329-8.22919-33.78787-9.49752-25.93997-13.0538-45.44404-18.61819-72.7844-1.01772-5.0005,1.01106-12.71481-1.04541-17.96982-2.19992-5.6216-8.10994-4.92823-10.17701-8.51234-2.682-4.65033,1.20042-10.26384-1.29028-14.91494l-7.2409,4.77181c3.16111-14.64305-24.18249-21.98621-12.91144-30.48096l-1.41222-2.81056c-8.96932.11095-16.23967-10.2834-23.49093-15.44533-2.66518-1.89725-6.79197-1.57811-8.65458-3.05806-3.27281-2.60043-2.95001-9.8696-7.57794-12.83015-5.30198,5.93408-13.62273,5.71457-20.10611,10.01871-4.85476,3.22295-5.77733,9.51744-12.15289,10.95823-4.72629-3.12305-12.57041-16.89476-15.3425-18.51659-2.77974-1.62631-8.99221,2.17308-14.27569-.0265-5.09775-2.12225-16.99724-15.33535-18.7262-15.58103-4.68607-.66586-8.5067,6.71457-13.91426-3.53018-12.4275,13.01868-22.46469-11.66258-28.78249-19.78328-3.84944-.65936-26.14739-1.82445-27.32378-2.53056-1.78372-1.07065-3.71755-6.8358-7.11571-9.72659-.93038-.79146-20.52852-10.90017-21.71417-11.19387-9.70706-2.40464-21.92399,1.13178-30.38623.7002-8.22608-.41954-29.48488-6.7704-34.83548-5.48025-4.66708,1.12534-12.90209,9.28701-17.56337,12.57626-2.71499,1.91584-6.66183,1.37356-9.06483,3.30116-.67849.54426-9.82413,13.3655-10.03643,14.209-2.52398,10.02802,9.18093,13.58206,10.5014,19.24127-.35978,15.21538-13.69528,7.16823-20.13564,9.43587-16.21828,5.71045-21.57958,31.21283-30.89993,45.28639-1.57596,2.37967-12.62151,19.69782-14.48663,12.7243-5.77361-21.58697-8.06915-.40497-13.17964,6.74487-5.83493,8.16336-14.61601,11.29123-21.36382,16.78191-5.90654,4.80614-8.28088,14.51273-18.59601,13.25946-5.17448-12.81843-16.80939-32.76426-33.1619-31.83044-5.22451.29835-9.04175,4.46512-14.26102,4.7545-6.11654.33912-18.44966-8.12613-23.93486-9.26332-5.03705-1.04428-10.52166,1.36746-16.11781.74873-9.47424-1.04751-25.55665-7.44491-35.4357-8.07528-51.43849-3.2822-101.93947,13.28633-145.14699,40.87484-15.17177,9.68735-32.27056,27.80133-47.78225,38.24737-8.46334,5.69947-19.3273,8.58463-27.63415,14.7183-4.95282,3.65709-7.03929,9.51191-12.07199,12.67835-4.46313-1.30813,8.58678-27.36714.17681-36.49599-2.55656-2.7751-8.20899-3.00354-9.84462-7.20277-1.3991-3.592,1.66448-9.80887.97991-13.89121-3.15211-18.79705-17.18859-11.05099-29.78491-16.04757-2.27815-.90367-20.71375-10.37241-21.77104-11.25855-8.61354-7.21924.83477-18.21961-9.79836-25.41241L23.73956,365.37359c16.35988-2.09348,23.64387,28.82843,32.83779,32.91574Z"/>
        </g>
      </g>
    </g>
  </g>
</svg>