<?xml version="1.0" encoding="UTF-8"?>
<svg xmlns="http://www.w3.org/2000/svg" width="560" height="292.76553" xmlns:xlink="http://www.w3.org/1999/xlink" version="1.1" viewBox="0 0 560 292.76553">
  <!-- Generator: Adobe Illustrator 29.2.1, SVG Export Plug-In . SVG Version: 2.1.0 Build 116)  -->
  <defs>
    <style>
      .st0, .st1, .st2, .st3, .st4, .st5, .st6, .st7, .st8, .st9, .st10, .st11, .st12, .st13, .st14 {
        fill: none;
      }

      .st15 {
        fill-opacity: .5;
        stroke: #44425d;
        stroke-dasharray: 2 2;
      }

      .st15, .st16 {
        fill: #44425d;
      }

      .st15, .st1, .st2, .st3, .st4, .st5, .st6, .st7, .st17, .st8, .st9, .st10, .st11, .st12, .st18, .st13, .st14 {
        stroke-miterlimit: 10;
      }

      .st19 {
        fill: #f3f4f5;
      }

      .st20 {
        fill: #8f8f8f;
      }

      .st21, .st22, .st17, .st23 {
        fill: #090028;
      }

      .st1 {
        stroke-dasharray: 8.0781 8.0781;
      }

      .st1, .st3, .st5, .st6, .st7, .st9, .st11, .st12 {
        stroke-linecap: round;
      }

      .st1, .st6, .st10, .st11, .st18, .st13 {
        stroke-width: 3px;
      }

      .st1, .st6, .st11 {
        stroke: #dbe3e6;
      }

      .st2, .st4 {
        stroke: #fff;
      }

      .st24 {
        fill: #ef4141;
      }

      .st25 {
        fill: #231f20;
        fill-opacity: .25;
      }

      .st26 {
        fill: #33c5ff;
      }

      .st22 {
        fill-opacity: .8;
      }

      .st27 {
        isolation: isolate;
      }

      .st28 {
        fill: #ff4930;
      }

      .st29 {
        clip-path: url(#clippath-3);
      }

      .st30 {
        clip-path: url(#clippath-2);
      }

      .st31 {
        clip-path: url(#clippath-6);
      }

      .st32 {
        clip-path: url(#clippath-8);
      }

      .st33 {
        clip-path: url(#clippath-5);
      }

      .st3 {
        stroke-width: 4px;
      }

      .st3, .st5, .st7, .st9 {
        stroke: #5e6669;
      }

      .st4 {
        stroke-width: 1.2px;
      }

      .st34 {
        fill: #f1b43c;
      }

      .st35, .st36 {
        fill: #fff;
      }

      .st5 {
        stroke-width: 8px;
      }

      .st6 {
        stroke-dasharray: 7.76869 7.76869;
      }

      .st37 {
        fill: #dbe3e6;
      }

      .st38 {
        fill: #8ed84e;
      }

      .st39 {
        fill: #a9b6bb;
      }

      .st7 {
        stroke-width: 10px;
      }

      .st17 {
        fill-opacity: .3;
        stroke: #5e4980;
      }

      .st8 {
        stroke: #433968;
      }

      .st9 {
        stroke-dasharray: 3 5;
      }

      .st10 {
        stroke: #ef4141;
      }

      .st40 {
        opacity: .75;
      }

      .st41 {
        opacity: .3;
      }

      .st42, .st18 {
        fill: #f0b43c;
      }

      .st12 {
        stroke: #090028;
        stroke-opacity: .2;
        stroke-width: 5px;
      }

      .st43 {
        fill: #5c478e;
      }

      .st36 {
        fill-opacity: .1;
      }

      .st18 {
        stroke: #fcf7f2;
      }

      .st13 {
        stroke: #8ed84e;
      }

      .st23 {
        mix-blend-mode: color;
      }

      .st14 {
        stroke: #5c478e;
        stroke-width: .65px;
      }

      .st44 {
        clip-path: url(#clippath);
      }
    </style>
    <clipPath id="clippath">
      <path class="st0" d="M170.47781,157.47355l-3.96134-6.51251c6.51747-3.96507,10.40671-10.87971,10.40417-18.4978-.00254-7.59575-3.87902-14.49726-10.36936-18.46232l3.97437-6.50523c8.77437,5.36013,14.01461,14.69301,14.01804,24.96501.00344,10.3024-5.25475,19.65306-14.06587,25.01285Z"/>
    </clipPath>
    <clipPath id="clippath-2">
      <rect class="st0" x="117.99585" y="392.96616" width="324.81732" height="324.46099"/>
    </clipPath>
    <clipPath id="clippath-3">
      <rect class="st0" x="1166.53268" y="34.92522" width="190.75606" height="190.91584"/>
    </clipPath>
    <clipPath id="clippath-5">
      <rect class="st0" x="1166.53268" y="-345.44289" width="190.75606" height="190.91584"/>
    </clipPath>
    <clipPath id="clippath-6">
      <rect class="st0" x="340.70243" y="-345.44289" width="190.75606" height="190.91584"/>
    </clipPath>
    <clipPath id="clippath-8">
      <rect class="st0" x="340.70243" y="34.92522" width="190.75606" height="190.91584"/>
    </clipPath>
  </defs>
  <g class="st27">
    <g id="Layer_1">
      <circle class="st36" cx="152.67554" cy="132.0633" r="89.80599"/>
      <g>
        <line class="st3" x1="161.71451" y1="132.46758" x2="270.9109" y2="132.46758"/>
        <g>
          <path class="st5" d="M181.49782,131.81155s-30.48832-6.52401-57.65295,37.94492c-23.38037,38.27403-55.89357,36.78697-55.89357,36.78697H9.47145"/>
          <path class="st12" d="M181.49782,131.81155s-30.48832-6.52401-57.65295,37.94492c-23.38037,38.27403-55.89357,36.78697-55.89357,36.78697H9.47145"/>
          <path class="st9" d="M168.57031,138.84631c-11.91113,0-34.65381-5.46094-53.87354-41.89258-17.77197-33.68945-44.74707-33.39062-45.87988-33.36621l-.18164.00781-.11035-.00293H9.47168c-4.69434,0-8.5-3.80566-8.5-8.5s3.80566-8.5,8.5-8.5h58.93604c3.58789-.07422,39.05615.2168,61.3252,42.42969,19.9502,37.81641,41.31787,32.75684,42.21875,32.52637l-.15869.0459,4.94727,16.26367c-.40527.12305-3.43115.98828-8.16992.98828Z"/>
          <path class="st7" d="M174.26663,129.72599s-28.15307,8.56353-52.0516-36.73845c-20.73462-39.30448-53.69004-37.89487-53.69004-37.89487H9.47145"/>
        </g>
        <g id="NEURON">
          <g>
            <circle class="st37" cx="154.70802" cy="132.46758" r="33.77329"/>
            <circle class="st37" cx="151.78296" cy="128.79421" r="28.93102"/>
          </g>
          <path class="st20" d="M170.47781,157.47355l-3.96134-6.51251c6.51747-3.96507,10.40671-10.87971,10.40417-18.4978-.00254-7.59575-3.87902-14.49726-10.36936-18.46232l3.97437-6.50523c8.77437,5.36013,14.01461,14.69301,14.01804,24.96501.00344,10.3024-5.25475,19.65306-14.06587,25.01285Z"/>
          <g class="st44">
            <polygon class="st15" points="173.84121 131.92255 186.36514 131.92255 183.8349 152.17594 170.70472 163.81335 162.63293 152.65209 173.84121 131.92255"/>
            <polygon class="st16" points="173.84121 143.40557 186.36514 143.40557 183.8349 152.17594 170.70472 163.81335 162.63293 152.65209 173.84121 143.40557"/>
            <circle class="st25" cx="154.98096" cy="132.54337" r="24.47049"/>
          </g>
          <g>
            <rect class="st0" x="143.21715" y="123.50828" width="19.98967" height="20.44059"/>
            <path class="st39" d="M145.83545,142.46328l-.00635-18.95117.98584-.00098,11.65186,10.53418-.00342-10.53711,2.12256-.00098.00635,18.95117h-.95996l-11.67773-10.5332.00342,10.53711-2.12256.00098Z"/>
          </g>
          <g class="st40">
            <rect class="st0" x="144.10324" y="123.50828" width="19.98967" height="20.44059"/>
            <path class="st37" d="M146.72119,142.46328l-.00635-18.95117.98584-.00098,11.65186,10.53418-.00342-10.53711,2.12256-.00098.00635,18.95117h-.95996l-11.67773-10.5332.00342,10.53711-2.12256.00098Z"/>
          </g>
        </g>
      </g>
      <g>
        <line class="st14" x1="311.40045" y1="232.06301" x2="311.40045" y2="39.11995"/>
        <polygon class="st43" points="314.23309 41.05184 311.40045 30.48207 308.56781 41.05184 314.23309 41.05184"/>
      </g>
      <g>
        <line class="st14" x1="335.27133" y1="255.34523" x2="528.71539" y2="255.34523"/>
        <polygon class="st43" points="526.78345 258.17788 537.35327 255.34523 526.78345 252.51259 526.78345 258.17788"/>
      </g>
      <g>
        <rect class="st0" x="483.0963" y="265.56888" width="54.21528" height="13.70883"/>
        <path class="st28" d="M488.86133,266.16933h1.29004v10.64941h-1.29004v-10.64941Z"/>
        <path class="st28" d="M499.40527,272.37929v4.43945h-1.29004v-3.89941c0-1.90527-.80957-2.625-1.97949-2.625-1.7998,0-2.52051,1.57422-2.52051,2.6543v3.87012h-1.29004v-7.58984h1.21484l.06055,1.32031c.68945-.81055,1.67969-1.46973,2.98438-1.46973,1.75488,0,2.82031,1.1543,2.82031,3.2998Z"/>
        <path class="st28" d="M501.49023,269.2289h1.21484l.0752,1.72461c.46484-1.0791,1.62012-1.87402,3.04492-1.87402,2.1748,0,3.85547,1.76953,3.85547,3.92969,0,2.18945-1.68066,3.95996-3.85547,3.95996-1.4248,0-2.58008-.79492-3.04492-1.875v5.1748h-1.29004v-11.04004ZM505.63086,275.75331c1.55957,0,2.75977-1.24414,2.75977-2.74414,0-1.46973-1.2002-2.71484-2.75977-2.71484-1.54492,0-2.73047,1.24512-2.73047,2.71484,0,1.5,1.18555,2.74414,2.73047,2.74414Z"/>
        <path class="st28" d="M518.39551,269.2289v7.58984h-1.21484l-.04492-1.33496c-.70508.8252-1.68066,1.48535-3,1.48535-1.75488,0-2.82031-1.15527-2.82031-3.2998v-4.44043h1.29004v3.90039c0,1.9043.81055,2.62402,1.98047,2.62402,1.7998,0,2.51953-1.57422,2.51953-2.6543h.01465v-3.87012h1.27539Z"/>
        <path class="st28" d="M524.11035,270.44374h-1.5752v6.375h-1.27539v-6.375h-1.0791v-1.21484h1.0791v-2.25h1.27539v2.25h1.5752v1.21484Z"/>
        <path class="st28" d="M536.55957,275.6039v1.21484h-6.24023v-1.21484h2.47461v-7.84473l-2.05469.50977v-1.29004l3.34473-.80957v9.43457h2.47559Z"/>
      </g>
      <g>
        <rect class="st0" x="284.13746" y="29.93476" width="13.70883" height="54.21528"/>
        <path class="st26" d="M284.7373,80.15468v-1.29004h10.64941v1.29004h-10.64941Z"/>
        <path class="st26" d="M290.94727,69.61074h4.43945v1.29004h-3.89941c-1.90527,0-2.625.80957-2.625,1.97949,0,1.7998,1.57422,2.52051,2.6543,2.52051h3.87012v1.29004h-7.58984v-1.21484l1.32031-.06055c-.81055-.68945-1.46973-1.67969-1.46973-2.98438,0-1.75488,1.1543-2.82031,3.2998-2.82031Z"/>
        <path class="st26" d="M287.79688,67.52578v-1.21484l1.72461-.0752c-1.0791-.46484-1.87402-1.62012-1.87402-3.04492,0-2.1748,1.76953-3.85547,3.92969-3.85547,2.18945,0,3.95996,1.68066,3.95996,3.85547,0,1.4248-.79492,2.58008-1.875,3.04492h5.1748v1.29004h-11.04004ZM294.32129,63.38515c0-1.55957-1.24414-2.75977-2.74414-2.75977-1.46973,0-2.71484,1.2002-2.71484,2.75977,0,1.54492,1.24512,2.73047,2.71484,2.73047,1.5,0,2.74414-1.18555,2.74414-2.73047Z"/>
        <path class="st26" d="M287.79688,50.6205h7.58984v1.21484l-1.33496.04492c.8252.70508,1.48535,1.68066,1.48535,3,0,1.75488-1.15527,2.82031-3.2998,2.82031h-4.44043v-1.29004h3.90039c1.9043,0,2.62402-.81055,2.62402-1.98047,0-1.7998-1.57422-2.51953-2.6543-2.51953v-.01465h-3.87012v-1.27539Z"/>
        <path class="st26" d="M289.01172,44.90566v1.5752h6.375v1.27539h-6.375v1.0791h-1.21484v-1.0791h-2.25v-1.27539h2.25v-1.5752h1.21484Z"/>
        <path class="st26" d="M294.17188,37.09121v-6.10449h1.21484v7.41016h-1.21484c-3.12012,0-3.49512-6.12012-6.2998-6.12012-1.2002,0-2.07031.92969-2.07031,2.20508,0,1.5752.95996,2.625,2.23535,2.625v1.29004c-1.91992,0-3.4502-1.62012-3.4502-3.92969,0-1.98047,1.32031-3.48047,3.33008-3.48047,3.6748,0,4.06445,6.10449,6.25488,6.10449Z"/>
      </g>
      <g>
        <rect class="st8" x="363.44305" y="166.4881" width="11.69162" height="11.69162"/>
        <rect class="st8" x="404.51573" y="141.9283" width="11.69162" height="11.69162"/>
        <rect class="st8" x="412.07576" y="187.40595" width="11.69162" height="11.69162"/>
        <rect class="st8" x="467.87124" y="187.40595" width="11.69162" height="11.69162"/>
        <rect class="st8" x="467.87124" y="161.10209" width="11.69162" height="11.69162"/>
        <rect class="st8" x="492.47706" y="169.93626" width="11.69162" height="11.69162"/>
        <rect class="st8" x="506.74204" y="197.88971" width="11.69162" height="11.69162"/>
        <rect class="st8" x="441.09987" y="198.53162" width="11.69162" height="11.69162"/>
        <rect class="st8" x="426.89303" y="160.43959" width="11.69162" height="11.69162"/>
        <rect class="st8" x="414.85051" y="157.48437" width="11.69162" height="11.69162"/>
        <rect class="st8" x="381.65155" y="196.04149" width="11.69162" height="11.69162"/>
        <rect class="st8" x="381.65155" y="119.47349" width="11.69162" height="11.69162"/>
        <rect class="st8" x="356.78775" y="133.91651" width="11.69162" height="11.69162"/>
        <polygon class="st8" points="468.79734 108.64041 461.00139 122.14338 476.59328 122.14338 468.79734 108.64041"/>
        <polygon class="st8" points="488.78624 69.43533 480.99029 82.93829 496.58218 82.93829 488.78624 69.43533"/>
        <polygon class="st8" points="478.11233 56.03632 470.31639 69.53929 485.90827 69.53929 478.11233 56.03632"/>
        <polygon class="st8" points="513.25883 99.54827 505.46289 113.05124 521.05477 113.05124 513.25883 99.54827"/>
        <polygon class="st8" points="502.73874 116.33487 494.9428 129.83784 510.53468 129.83784 502.73874 116.33487"/>
        <polygon class="st8" points="506.95598 137.82561 499.16004 151.32857 514.75192 151.32857 506.95598 137.82561"/>
        <polygon class="st8" points="518.11919 61.10137 510.32325 74.60434 525.91514 74.60434 518.11919 61.10137"/>
        <polygon class="st8" points="504.86432 40.80847 497.06837 54.31144 512.66026 54.31144 504.86432 40.80847"/>
        <polygon class="st8" points="399.78937 92.72462 391.99342 106.22759 407.58531 106.22759 399.78937 92.72462"/>
        <polygon class="st8" points="385.91801 70.50478 378.12207 84.00774 393.71395 84.00774 385.91801 70.50478"/>
        <polygon class="st8" points="407.36272 60.31412 399.56678 73.81709 415.15866 73.81709 407.36272 60.31412"/>
        <polygon class="st8" points="441.68927 42.0608 433.89333 55.56377 449.48521 55.56377 441.68927 42.0608"/>
        <polygon class="st8" points="358.91531 68.31501 351.11937 81.81798 366.71126 81.81798 358.91531 68.31501"/>
        <polygon class="st8" points="358.91531 41.00225 351.11937 54.50522 366.71126 54.50522 358.91531 41.00225"/>
      </g>
      <g class="st30">
        <path class="st18" d="M404.11472,326.46918c16.54293,8.509,14.20584,8.11365,13.25051,30.26897-.47204,10.94732,2.68985,24.64992,1.29221,38.11921-1.23404,11.89255-25.27324,21.401-27.56497,33.858-2.26537,12.31374-.41421,24.97719-4.01931,36.56543-3.87892,12.46839,11.34862,34.6318,5.55288,44.73465-6.69372,11.66816-25.38427,20.80235-35.17986,27.0422-10.01268,6.37815-28.11802,5.2166-41.98877,3.3494-13.72087-1.84703-13.46569-28.75418-22.89159-34.46778-11.11521-6.7376-37.66737,9.76902-45.91056,1.88402-9.62242-9.2043-19.17141-4.28814-29.83496-8.29723-9.64824-3.62738-8.39598-13.56675-23.05772-7.26479-10.09897,4.34078-4.83256,12.79747-11.07369,24.69603-5.39163,10.27901-10.84403,12.1094-10.5143,24.96079.29494,11.49573-18.80126,27.12507-11.9314,38.52352,5.65687,9.38586,19.67744,14.54122,30.95814,22.60277,11.38406,8.13542,20.56434,16.37411,30.48663,20.76252,12.13805,5.3684,34.07969-14.79718,44.68386-10.0109,10.56337,4.76787.71353,42.46609,10.4672,52.13331,11.61187,11.50895,24.87437,13.29509,27.60415,23.62525,3.82079,14.45885-19.25799,14.63041-24.81469,25.2529-9.45535,18.07536,18.73933,53.69541-.74258,56.32295-19.19205,2.58845-18.92988-40.66597-38.20022-42.58663-19.27532-1.92115-19.68186,2.15783-38.95718.23668-19.28201-1.92182-22.70608,32.43262-41.9881,30.5108-19.2759-1.92121-18.96887-5.00174-38.24477-6.92295-19.28915-1.92253-17.3763-21.11453-36.66545-23.03706-19.28915-1.92253-25.9637,17.8006-38.5482,3.05619-12.07953-14.15277,18.87685-16.06969,20.72223-34.58483,1.8456-18.51727-21.45265-20.83939-19.60706-39.35666,1.84589-18.52017,13.62961-17.3457,15.4755-35.86587,1.84557-18.51703-3.03933-19.00391-1.19375-37.52094,1.84576-18.51892.16067-18.68687,2.00643-37.20578,1.84581-18.51941.24932-18.67853,2.09513-37.19795,1.84521-18.51342-12.58628-19.95179-10.74106-38.46521,1.84569-18.5182,28.95031-15.81671,30.796-34.33491,1.84633-18.52464,14.2247-17.2909,16.07103-35.81553,1.84575-18.51877-37.86215-22.47641-36.0164-40.99518,1.84701-18.53149,15.49303-17.17141,17.34005-35.7029,1.84701-18.53149-18.93865-37.83436-4.83725-49.99898,13.43944-11.59358,31.73368-12.7681,49.40145-11.07111,17.66956,1.69717,16.60413,12.78962,34.27369,14.48679,17.67004,1.69721,15.65017,22.72652,33.3202,24.42373,17.66432,1.69666,18.35158-5.45855,36.0159-3.76188,17.66888,1.6971,15.54947,23.7627,33.21835,25.4598,17.67502,1.69769,18.38471-5.69102,36.05973-3.99333,17.66942,1.69715,19.13578-13.56946,36.80521-11.8723,17.68156,1.69832,20.48601-21.5594,38.12722-19.48342,16.62417,1.9563,12.70426,28.81346,28.50015,36.93821Z"/>
      </g>
    </g>
    <g id="Layer_5">
      <g class="st29">
        <g id="KpjvK6">
          <path class="st42" d="M882.4076,19.93148c11.91185,5.29562,27.26189-6.84121,37.79773-11.22248,55.28933-22.99176,110.67593-45.88064,165.66267-69.37772,58.04575-24.80427,121.32728-57.7523,179.85736-78.6128,2.48537-.8858,6.06149-2.19825,8.36663-.2964,6.46321,5.33247,14.61414,19.44425,18.47619,27.11354,4.52639-5.8724,20.12955-3.52255,21.22275-8.93983-1.19632-14.12334-3.74011-27.73532-12.40074-39.59707-3.6449-4.99211-9.81495-5.23804-12.52849-10.47193-3.15194-6.07947.01874-16.47534-4.24123-23.00376l6.44425-.99291c-1.28304-5.99969.3725-13.08767,6.82515-15.25633l3.94011,7.35099c9.90262-4.0444,22.58855-2.13897,32.38497-4.34102,3.54689-.79728,7.10923-3.88224,11.13662-4.93204,9.94193-2.59153,18.52457-5.77918,28.79649-7.86074.9337,18.31584,11.42348,23.27133,20.53531,36.44299,55.74971,80.58927,135.95489,163.94564,216.09793,221.23033,18.59035,13.28802,19.47031,8.90943,37.83588,12.87535,8.48758,1.83283,29.0956,16.28642,29.07661,25.1902-.00647,3.03673-3.86268,6.37763-4.69122,9.66614-1.77068,7.02786,1.77865,12.62292-8.61893,18.57951l1.53644,2.36098c11.53594,10.70735,21.66658,23.30875,33.35313,33.84629,19.48761,17.57161,41.90318,31.98064,61.31072,50.04417,13.17335,12.26106,34.24061,39.5612,46.14669,47.89306,6.69857,4.68765,19.94691,7.70173,27.22788,13.72795,59.12044,48.932,70.80065,107.63161,98.16676,174.27469,4.61888,11.24808,11.54662,25.17145,15.21802,35.13187,2.41487,6.5515,1.84913,16.08807,4.57989,22.96948l-12.37477-10.43509c.80817,12.70058-3.26714,41.96275,2.39465,52.56633,3.30594,6.19147,11.2174,3.72101,7.35734,14.12726l7.60877.9054c-5.39834,4.62599-1.22145,10.87839-10.38942,12.48821,4.41297,6.17544,14.16967,2.39374,16.71924,9.28505,1.28877,3.48346-1.83422,26.13825-4.204,27.32257-7.44515-1.73676-10.53979-8.26338-13.38991-14.70702-4.99564-1.71824-27.22194,24.82445-32.51093,28.32706-7.21534,4.77833-19.24838,3.4621-24.00743,7.7388-6.20984,5.58046.74622,12.25121-19.33261,18.39014-30.46816,9.31537-22.9574-17.31968-31.4268-29.49493-5.99577-8.61927-32.16167-30.48962-42.50977-35.22043-19.55992-8.94214-28.95335-7.92049-49.43072-8.93796-6.18779-.30746-10.77887-5.80413-16.78022-.36454-2.90867,2.6364-1.28099,8.59264-6.1954,9.9561-5.86806-10.27919-25.92176-19.42979-31.84279-26.29127-12.36683-14.33111-15.5655-35.75542-35.82962-45.48192-6.24443-2.99724-21.65435-1.67696-24.96618-3.85041-3.55621-2.33383-2.86906-10.39233-12.58812-4.97252l5.72306,6.62844c-18.43816,11.1508-14.72904-19.70683-33.17951-18.16178l1.58491-8.81684,16.25355,6.06296c-7.54404-8.34151-5.55074-21.23496-9.93683-29.66895-3.14906-6.05532-10.55542-7.70365-11.35273-12.92397-.74431-4.87331,9.13123-9.44677,5.82125-16.44189l-18.98254,19.11172-10.51817-6.62556c8.04221,9.12577,24.49951,14.97504,21.05946,29.92682-6.46749-4.60553-15.49065,1.03504-21.47402-.90815-3.0005-.97446-11.68655-9.9882-16.78096-12.9761-18.18107-10.66327-39.49043-20.14178-55.08402-35.19914-4.90996-4.74112-12.8893-18.28988-16.75017-20.34997-3.2739-1.7469-21.91268,3.42486-19.19262-9.54982,1.60932-7.67645,5.99625-15.05361,7.52866-24.51979,1.10529-6.82779-.50323-14.79393,1.29155-21.79553,2.54052-9.91081,13.07926-21.12958-1.28562-30.79072-1.74602-1.17429-3.77599,2.00515-4.61143,1.85594-2.47834-.44263-4.55591-5.72481-8.68379-2.04589l11.46879,13.28673c-18.97091,12.9917-15.57282-12.22631-25.18493-13.74256-6.32118-.99713-13.41647,5.08134-17.72422,9.1773,4.85027,10.89638,13.97685.96167,21.62399,6.84667l4.99051,27.27357-12.14613,3.93439,4.7718,9.52037c-8.21811,4.32184-9.58438-7.14509-14.2787-12.03179-4.29734-4.47345-13.0805-3.88355-17.59023-9.4289-7.35639-9.04574-4.19637-22.77329-8.22919-33.78787-9.49752-25.93997-13.0538-45.44404-18.61819-72.7844-1.01772-5.0005,1.01106-12.71481-1.04541-17.96982-2.19992-5.6216-8.10994-4.92823-10.17701-8.51234-2.682-4.65033,1.20042-10.26384-1.29028-14.91494l-7.2409,4.77181c3.16111-14.64305-24.18249-21.98621-12.91144-30.48096l-1.41222-2.81056c-8.96932.11095-16.23967-10.2834-23.49093-15.44533-2.66518-1.89725-6.79197-1.57811-8.65458-3.05806-3.27281-2.60043-2.95001-9.8696-7.57794-12.83015-5.30198,5.93408-13.62273,5.71457-20.10611,10.01871-4.85476,3.22295-5.77733,9.51744-12.15289,10.95823-4.72629-3.12305-12.57041-16.89476-15.3425-18.51659-2.77974-1.62631-8.99221,2.17308-14.27569-.0265-5.09775-2.12225-16.99724-15.33535-18.7262-15.58103-4.68607-.66586-8.5067,6.71457-13.91426-3.53018-12.4275,13.01868-22.46469-11.66258-28.78249-19.78328-3.84944-.65936-26.14739-1.82445-27.32378-2.53056-1.78372-1.07065-3.71755-6.8358-7.11571-9.72659-.93038-.79146-20.52852-10.90017-21.71417-11.19387-9.70706-2.40464-21.92399,1.13178-30.38623.7002-8.22608-.41954-29.48488-6.7704-34.83548-5.48025-4.66708,1.12534-12.90209,9.28701-17.56337,12.57626-2.71499,1.91584-6.66183,1.37356-9.06483,3.30116-.67849.54426-9.82413,13.3655-10.03643,14.209-2.52398,10.02802,9.18093,13.58206,10.5014,19.24127-.35978,15.21538-13.69528,7.16823-20.13564,9.43587-16.21828,5.71045-21.57958,31.21283-30.89993,45.28639-1.57596,2.37967-12.62151,19.69782-14.48663,12.7243-5.77361-21.58697-8.06915-.40497-13.17964,6.74487-5.83493,8.16336-14.61601,11.29123-21.36382,16.78191-5.90654,4.80614-8.28088,14.51273-18.59601,13.25946-5.17448-12.81843-16.80939-32.76426-33.1619-31.83044-5.22451.29835-9.04175,4.46512-14.26102,4.7545-6.11654.33912-18.44966-8.12613-23.93486-9.26332-5.03705-1.04428-10.52166,1.36746-16.11781.74873-9.47424-1.04751-25.55665-7.44491-35.4357-8.07528-51.43849-3.2822-101.93947,13.28633-145.14699,40.87484-15.17177,9.68735-32.27056,27.80133-47.78225,38.24737-8.46334,5.69947-19.3273,8.58463-27.63415,14.7183-4.95282,3.65709-7.03929,9.51191-12.07199,12.67835-4.46313-1.30813,8.58678-27.36714.17681-36.49599-2.55656-2.7751-8.20899-3.00354-9.84462-7.20277-1.3991-3.592,1.66448-9.80887.97991-13.89121-3.15211-18.79705-17.18859-11.05099-29.78491-16.04757-2.27815-.90367-20.71375-10.37241-21.77104-11.25855-8.61354-7.21924.83477-18.21961-9.79836-25.41241L849.56981-12.98426c16.35988-2.09348,23.64387,28.82843,32.83779,32.91574Z"/>
        </g>
      </g>
      <g class="st33">
        <path class="st42" d="M882.4076-360.43663c11.91185,5.29562,27.26189-6.84121,37.79773-11.22248,55.28933-22.99176,110.67593-45.88064,165.66267-69.37772,58.04575-24.80427,121.32728-57.7523,179.85736-78.6128,2.48537-.8858,6.06149-2.19825,8.36663-.2964,6.46321,5.33247,14.61414,19.44425,18.47619,27.11354,4.52639-5.8724,20.12955-3.52255,21.22275-8.93983-1.19632-14.12334-3.74011-27.73532-12.40074-39.59707-3.6449-4.99211-9.81495-5.23804-12.52849-10.47193-3.15194-6.07947.01874-16.47534-4.24123-23.00376l6.44425-.99291c-1.28304-5.99969.3725-13.08767,6.82515-15.25633l3.94011,7.35099c9.90262-4.0444,22.58855-2.13897,32.38497-4.34102,3.54689-.79728,7.10923-3.88224,11.13662-4.93204,9.94193-2.59153,18.52457-5.77918,28.79649-7.86074.9337,18.31584,11.42348,23.27133,20.53531,36.44299,55.74971,80.58927,135.95489,163.94564,216.09793,221.23033,18.59035,13.28802,19.47031,8.90943,37.83588,12.87535,8.48758,1.83283,29.0956,16.28642,29.07661,25.1902-.00647,3.03673-3.86268,6.37763-4.69122,9.66614-1.77068,7.02786,1.77865,12.62292-8.61893,18.57951l1.53644,2.36098c11.53594,10.70735,21.66658,23.30875,33.35313,33.84629,19.48761,17.57161,41.90318,31.98064,61.31072,50.04417,13.17335,12.26106,34.24061,39.5612,46.14669,47.89306,6.69857,4.68765,19.94691,7.70173,27.22788,13.72795,59.12044,48.932,70.80065,107.63161,98.16676,174.27469,4.61888,11.24808,11.54662,25.17145,15.21802,35.13187,2.41487,6.5515,1.84913,16.08807,4.57989,22.96948l-12.37477-10.43509c.80817,12.70058-3.26714,41.96275,2.39465,52.56633,3.30594,6.19147,11.2174,3.72101,7.35734,14.12726l7.60877.9054c-5.39834,4.62599-1.22145,10.87839-10.38942,12.48821,4.41297,6.17544,14.16967,2.39374,16.71924,9.28505,1.28877,3.48346-1.83422,26.13825-4.204,27.32257-7.44515-1.73676-10.53979-8.26338-13.38991-14.70702-4.99564-1.71824-27.22194,24.82445-32.51093,28.32706-7.21534,4.77833-19.24838,3.4621-24.00743,7.7388-6.20984,5.58046.74622,12.25121-19.33261,18.39014-30.46816,9.31537-22.9574-17.31968-31.4268-29.49493-5.99577-8.61927-32.16167-30.48962-42.50977-35.22043-19.55992-8.94214-28.95335-7.92049-49.43072-8.93796-6.18779-.30746-10.77887-5.80413-16.78022-.36454-2.90867,2.6364-1.28099,8.59264-6.1954,9.9561-5.86806-10.27919-25.92176-19.42979-31.84279-26.29127-12.36683-14.33111-15.5655-35.75542-35.82962-45.48192-6.24443-2.99724-21.65435-1.67696-24.96618-3.85041-3.55621-2.33383-2.86906-10.39233-12.58812-4.97252l5.72306,6.62844c-18.43816,11.1508-14.72904-19.70683-33.17951-18.16178l1.58491-8.81684,16.25355,6.06296c-7.54404-8.34151-5.55074-21.23496-9.93683-29.66895-3.14906-6.05532-10.55542-7.70365-11.35273-12.92397-.74431-4.87331,9.13123-9.44677,5.82125-16.44189l-18.98254,19.11172-10.51817-6.62556c8.04221,9.12577,24.49951,14.97504,21.05946,29.92682-6.46749-4.60553-15.49065,1.03504-21.47402-.90815-3.0005-.97446-11.68655-9.9882-16.78096-12.9761-18.18107-10.66327-39.49043-20.14178-55.08402-35.19914-4.90996-4.74112-12.8893-18.28988-16.75017-20.34997-3.2739-1.7469-21.91268,3.42486-19.19262-9.54982,1.60932-7.67645,5.99625-15.05361,7.52866-24.51979,1.10529-6.82779-.50323-14.79393,1.29155-21.79553,2.54052-9.91081,13.07926-21.12958-1.28562-30.79072-1.74602-1.17429-3.77599,2.00515-4.61143,1.85594-2.47834-.44263-4.55591-5.72481-8.68379-2.04589l11.46879,13.28673c-18.97091,12.9917-15.57282-12.22631-25.18493-13.74256-6.32118-.99713-13.41647,5.08134-17.72422,9.1773,4.85027,10.89638,13.97685.96167,21.62399,6.84667l4.99051,27.27357-12.14613,3.93439,4.7718,9.52037c-8.21811,4.32184-9.58438-7.14509-14.2787-12.03179-4.29734-4.47345-13.0805-3.88355-17.59023-9.4289-7.35639-9.04574-4.19637-22.77329-8.22919-33.78787-9.49752-25.93997-13.0538-45.44404-18.61819-72.7844-1.01772-5.0005,1.01106-12.71481-1.04541-17.96982-2.19992-5.6216-8.10994-4.92823-10.17701-8.51234-2.682-4.65033,1.20042-10.26384-1.29028-14.91494l-7.2409,4.77181c3.16111-14.64305-24.18249-21.98621-12.91144-30.48096l-1.41222-2.81056c-8.96932.11095-16.23967-10.2834-23.49093-15.44533-2.66518-1.89725-6.79197-1.57811-8.65458-3.05806-3.27281-2.60043-2.95001-9.8696-7.57794-12.83015-5.30198,5.93408-13.62273,5.71457-20.10611,10.01871-4.85476,3.22295-5.77733,9.51744-12.15289,10.95823-4.72629-3.12305-12.57041-16.89476-15.3425-18.51659-2.77974-1.62631-8.99221,2.17308-14.27569-.0265-5.09775-2.12225-16.99724-15.33535-18.7262-15.58103-4.68607-.66586-8.5067,6.71457-13.91426-3.53018-12.4275,13.01868-22.46469-11.66258-28.78249-19.78328-3.84944-.65936-26.14739-1.82445-27.32378-2.53056-1.78372-1.07065-3.71755-6.8358-7.11571-9.72659-.93038-.79146-20.52852-10.90017-21.71417-11.19387-9.70706-2.40464-21.92399,1.13178-30.38623.7002-8.22608-.41954-29.48488-6.7704-34.83548-5.48025-4.66708,1.12534-12.90209,9.28701-17.56337,12.57626-2.71499,1.91584-6.66183,1.37356-9.06483,3.30116-.67849.54426-9.82413,13.3655-10.03643,14.209-2.52398,10.02802,9.18093,13.58206,10.5014,19.24127-.35978,15.21538-13.69528,7.16823-20.13564,9.43587-16.21828,5.71045-21.57958,31.21283-30.89993,45.28639-1.57596,2.37967-12.62151,19.69782-14.48663,12.7243-5.77361-21.58697-8.06915-.40497-13.17964,6.74487-5.83493,8.16336-14.61601,11.29123-21.36382,16.78191-5.90654,4.80614-8.28088,14.51273-18.59601,13.25946-5.17448-12.81843-16.80939-32.76426-33.1619-31.83044-5.22451.29835-9.04175,4.46512-14.26102,4.7545-6.11654.33912-18.44966-8.12613-23.93486-9.26332-5.03705-1.04428-10.52166,1.36746-16.11781.74873-9.47424-1.04751-25.55665-7.44491-35.4357-8.07528-51.43849-3.2822-101.93947,13.28633-145.14699,40.87484-15.17177,9.68735-32.27056,27.80133-47.78225,38.24737-8.46334,5.69947-19.3273,8.58463-27.63415,14.7183-4.95282,3.65709-7.03929,9.51191-12.07199,12.67835-4.46313-1.30813,8.58678-27.36714.17681-36.49599-2.55656-2.7751-8.20899-3.00354-9.84462-7.20277-1.3991-3.592,1.66448-9.80887.97991-13.89121-3.15211-18.79705-17.18859-11.05099-29.78491-16.04757-2.27815-.90367-20.71375-10.37241-21.77104-11.25855-8.61354-7.21924.83477-18.21961-9.79836-25.41241l359.72175-179.29736c16.35988-2.09348,23.64387,28.82843,32.83779,32.91574Z"/>
      </g>
      <g class="st31">
        <path class="st42" d="M56.57735-360.43663c11.91185,5.29562,27.26189-6.84121,37.79773-11.22248,55.28933-22.99176,110.67593-45.88064,165.66267-69.37772,58.04575-24.80427,121.32728-57.7523,179.85736-78.6128,2.48537-.8858,6.06149-2.19825,8.36663-.2964,6.46321,5.33247,14.61414,19.44425,18.47619,27.11354,4.52639-5.8724,20.12955-3.52255,21.22275-8.93983-1.19632-14.12334-3.74011-27.73532-12.40074-39.59707-3.6449-4.99211-9.81495-5.23804-12.52849-10.47193-3.15194-6.07947.01874-16.47534-4.24123-23.00376l6.44425-.99291c-1.28304-5.99969.3725-13.08767,6.82515-15.25633l3.94011,7.35099c9.90262-4.0444,22.58855-2.13897,32.38497-4.34102,3.54689-.79728,7.10923-3.88224,11.13662-4.93204,9.94193-2.59153,18.52457-5.77918,28.79649-7.86074.9337,18.31584,11.42348,23.27133,20.53531,36.44299,55.74971,80.58927,135.95489,163.94564,216.09793,221.23033,18.59035,13.28802,19.47031,8.90943,37.83588,12.87535,8.48758,1.83283,29.0956,16.28642,29.07661,25.1902-.00647,3.03673-3.86268,6.37763-4.69122,9.66614-1.77068,7.02786,1.77865,12.62292-8.61893,18.57951l1.53644,2.36098c11.53594,10.70735,21.66658,23.30875,33.35313,33.84629,19.48761,17.57161,41.90318,31.98064,61.31072,50.04417,13.17335,12.26106,34.24061,39.5612,46.14669,47.89306,6.69857,4.68765,19.94691,7.70173,27.22788,13.72795,59.12044,48.932,70.80065,107.63161,98.16676,174.27469,4.61888,11.24808,11.54662,25.17145,15.21802,35.13187,2.41487,6.5515,1.84913,16.08807,4.57989,22.96948l-12.37477-10.43509c.80817,12.70058-3.26714,41.96275,2.39465,52.56633,3.30594,6.19147,11.2174,3.72101,7.35734,14.12726l7.60877.9054c-5.39834,4.62599-1.22145,10.87839-10.38942,12.48821,4.41297,6.17544,14.16967,2.39374,16.71924,9.28505,1.28877,3.48346-1.83422,26.13825-4.204,27.32257-7.44515-1.73676-10.53979-8.26338-13.38991-14.70702-4.99564-1.71824-27.22194,24.82445-32.51093,28.32706-7.21534,4.77833-19.24838,3.4621-24.00743,7.7388-6.20984,5.58046.74622,12.25121-19.33261,18.39014-30.46816,9.31537-22.9574-17.31968-31.4268-29.49493-5.99577-8.61927-32.16167-30.48962-42.50977-35.22043-19.55992-8.94214-28.95335-7.92049-49.43072-8.93796-6.18779-.30746-10.77887-5.80413-16.78022-.36454-2.90867,2.6364-1.28099,8.59264-6.1954,9.9561-5.86806-10.27919-25.92176-19.42979-31.84279-26.29127-12.36683-14.33111-15.5655-35.75542-35.82962-45.48192-6.24443-2.99724-21.65435-1.67696-24.96618-3.85041-3.55621-2.33383-2.86906-10.39233-12.58812-4.97252l5.72306,6.62844c-18.43816,11.1508-14.72904-19.70683-33.17951-18.16178l1.58491-8.81684,16.25355,6.06296c-7.54404-8.34151-5.55074-21.23496-9.93683-29.66895-3.14906-6.05532-10.55542-7.70365-11.35273-12.92397-.74431-4.87331,9.13123-9.44677,5.82125-16.44189l-18.98254,19.11172-10.51817-6.62556c8.04221,9.12577,24.49951,14.97504,21.05946,29.92682-6.46749-4.60553-15.49065,1.03504-21.47402-.90815-3.0005-.97446-11.68655-9.9882-16.78096-12.9761-18.18107-10.66327-39.49043-20.14178-55.08402-35.19914-4.90996-4.74112-12.8893-18.28988-16.75017-20.34997-3.2739-1.7469-21.91268,3.42486-19.19262-9.54982,1.60932-7.67645,5.99625-15.05361,7.52866-24.51979,1.10529-6.82779-.50323-14.79393,1.29155-21.79553,2.54052-9.91081,13.07926-21.12958-1.28562-30.79072-1.74602-1.17429-3.77599,2.00515-4.61143,1.85594-2.47834-.44263-4.55591-5.72481-8.68379-2.04589l11.46879,13.28673c-18.97091,12.9917-15.57282-12.22631-25.18493-13.74256-6.32118-.99713-13.41647,5.08134-17.72422,9.1773,4.85027,10.89638,13.97685.96167,21.62399,6.84667l4.99051,27.27357-12.14613,3.93439,4.7718,9.52037c-8.21811,4.32184-9.58438-7.14509-14.2787-12.03179-4.29734-4.47345-13.0805-3.88355-17.59023-9.4289-7.35639-9.04574-4.19637-22.77329-8.22919-33.78787-9.49752-25.93997-13.0538-45.44404-18.61819-72.7844-1.01772-5.0005,1.01106-12.71481-1.04541-17.96982-2.19992-5.6216-8.10994-4.92823-10.17701-8.51234-2.682-4.65033,1.20042-10.26384-1.29028-14.91494l-7.2409,4.77181c3.16111-14.64305-24.18249-21.98621-12.91144-30.48096l-1.41222-2.81056c-8.96932.11095-16.23967-10.2834-23.49093-15.44533-2.66518-1.89725-6.79197-1.57811-8.65458-3.05806-3.27281-2.60043-2.95001-9.8696-7.57794-12.83015-5.30198,5.93408-13.62273,5.71457-20.10611,10.01871-4.85476,3.22295-5.77733,9.51744-12.15289,10.95823-4.72629-3.12305-12.57041-16.89476-15.3425-18.51659-2.77974-1.62631-8.99221,2.17308-14.27569-.0265-5.09775-2.12225-16.99724-15.33535-18.7262-15.58103-4.68607-.66586-8.5067,6.71457-13.91426-3.53018-12.4275,13.01868-22.46469-11.66258-28.78249-19.78328-3.84944-.65936-26.14739-1.82445-27.32378-2.53056-1.78372-1.07065-3.71755-6.8358-7.11571-9.72659-.93038-.79146-20.52852-10.90017-21.71417-11.19387-9.70706-2.40464-21.92399,1.13178-30.38623.7002-8.22608-.41954-29.48488-6.7704-34.83548-5.48025-4.66708,1.12534-12.90209,9.28701-17.56337,12.57626-2.71499,1.91584-6.66183,1.37356-9.06483,3.30116-.67849.54426-9.82413,13.3655-10.03643,14.209-2.52398,10.02802,9.18093,13.58206,10.5014,19.24127-.35978,15.21538-13.69528,7.16823-20.13564,9.43587-16.21828,5.71045-21.57958,31.21283-30.89993,45.28639-1.57596,2.37967-12.62151,19.69782-14.48663,12.7243-5.77361-21.58697-8.06915-.40497-13.17964,6.74487-5.83493,8.16336-14.61601,11.29123-21.36382,16.78191-5.90654,4.80614-8.28088,14.51273-18.59601,13.25946-5.17448-12.81843-16.80939-32.76426-33.1619-31.83044-5.22451.29835-9.04175,4.46512-14.26102,4.7545-6.11654.33912-18.44966-8.12613-23.93486-9.26332-5.03705-1.04428-10.52166,1.36746-16.11781.74873-9.47424-1.04751-25.55665-7.44491-35.4357-8.07528-51.43849-3.2822-101.93947,13.28633-145.14699,40.87484-15.17177,9.68735-32.27056,27.80133-47.78225,38.24737-8.46334,5.69947-19.3273,8.58463-27.63415,14.7183-4.95282,3.65709-7.03929,9.51191-12.07199,12.67835-4.46313-1.30813,8.58678-27.36714.17681-36.49599-2.55656-2.7751-8.20899-3.00354-9.84462-7.20277-1.3991-3.592,1.66448-9.80887.97991-13.89121-3.15211-18.79705-17.18859-11.05099-29.78491-16.04757-2.27815-.90367-20.71375-10.37241-21.77104-11.25855-8.61354-7.21924.83477-18.21961-9.79836-25.41241L23.73956-393.35237c16.35988-2.09348,23.64387,28.82843,32.83779,32.91574Z"/>
      </g>
      <g>
        <g>
          <rect class="st19" x="334.78242" y="29.47792" width="202.50633" height="202.50633"/>
          <rect class="st34" x="340.59427" y="34.9316" width="190.94174" height="190.94903"/>
          <g class="st32">
            <g id="KpjvK61" data-name="KpjvK6">
              <path class="st42" d="M56.57735,19.93148c11.91185,5.29562,27.26189-6.84121,37.79773-11.22248,55.28933-22.99176,110.67593-45.88064,165.66267-69.37772,58.04575-24.80427,121.32728-57.7523,179.85736-78.6128,2.48537-.8858,6.06149-2.19825,8.36663-.2964,6.46321,5.33247,14.61414,19.44425,18.47619,27.11354,4.52639-5.8724,20.12955-3.52255,21.22275-8.93983-1.19632-14.12334-3.74011-27.73532-12.40074-39.59707-3.6449-4.99211-9.81495-5.23804-12.52849-10.47193-3.15194-6.07947.01874-16.47534-4.24123-23.00376l6.44425-.99291c-1.28304-5.99969.3725-13.08767,6.82515-15.25633l3.94011,7.35099c9.90262-4.0444,22.58855-2.13897,32.38497-4.34102,3.54689-.79728,7.10923-3.88224,11.13662-4.93204,9.94193-2.59153,18.52457-5.77918,28.79649-7.86074.9337,18.31584,11.42348,23.27133,20.53531,36.44299,55.74971,80.58927,135.95489,163.94564,216.09793,221.23033,18.59035,13.28802,19.47031,8.90943,37.83588,12.87535,8.48758,1.83283,29.0956,16.28642,29.07661,25.1902-.00647,3.03673-3.86268,6.37763-4.69122,9.66614-1.77068,7.02786,1.77865,12.62292-8.61893,18.57951l1.53644,2.36098c11.53594,10.70735,21.66658,23.30875,33.35313,33.84629,19.48761,17.57161,41.90318,31.98064,61.31072,50.04417,13.17335,12.26106,34.24061,39.5612,46.14669,47.89306,6.69857,4.68765,19.94691,7.70173,27.22788,13.72795,59.12044,48.932,70.80065,107.63161,98.16676,174.27469,4.61888,11.24808,11.54662,25.17145,15.21802,35.13187,2.41487,6.5515,1.84913,16.08807,4.57989,22.96948l-12.37477-10.43509c.80817,12.70058-3.26714,41.96275,2.39465,52.56633,3.30594,6.19147,11.2174,3.72101,7.35734,14.12726l7.60877.9054c-5.39834,4.62599-1.22145,10.87839-10.38942,12.48821,4.41297,6.17544,14.16967,2.39374,16.71924,9.28505,1.28877,3.48346-1.83422,26.13825-4.204,27.32257-7.44515-1.73676-10.53979-8.26338-13.38991-14.70702-4.99564-1.71824-27.22194,24.82445-32.51093,28.32706-7.21534,4.77833-19.24838,3.4621-24.00743,7.7388-6.20984,5.58046.74622,12.25121-19.33261,18.39014-30.46816,9.31537-22.9574-17.31968-31.4268-29.49493-5.99577-8.61927-32.16167-30.48962-42.50977-35.22043-19.55992-8.94214-28.95335-7.92049-49.43072-8.93796-6.18779-.30746-10.77887-5.80413-16.78022-.36454-2.90867,2.6364-1.28099,8.59264-6.1954,9.9561-5.86806-10.27919-25.92176-19.42979-31.84279-26.29127-12.36683-14.33111-15.5655-35.75542-35.82962-45.48192-6.24443-2.99724-21.65435-1.67696-24.96618-3.85041-3.55621-2.33383-2.86906-10.39233-12.58812-4.97252l5.72306,6.62844c-18.43816,11.1508-14.72904-19.70683-33.17951-18.16178l1.58491-8.81684,16.25355,6.06296c-7.54404-8.34151-5.55074-21.23496-9.93683-29.66895-3.14906-6.05532-10.55542-7.70365-11.35273-12.92397-.74431-4.87331,9.13123-9.44677,5.82125-16.44189l-18.98254,19.11172-10.51817-6.62556c8.04221,9.12577,24.49951,14.97504,21.05946,29.92682-6.46749-4.60553-15.49065,1.03504-21.47402-.90815-3.0005-.97446-11.68655-9.9882-16.78096-12.9761-18.18107-10.66327-39.49043-20.14178-55.08402-35.19914-4.90996-4.74112-12.8893-18.28988-16.75017-20.34997-3.2739-1.7469-21.91268,3.42486-19.19262-9.54982,1.60932-7.67645,5.99625-15.05361,7.52866-24.51979,1.10529-6.82779-.50323-14.79393,1.29155-21.79553,2.54052-9.91081,13.07926-21.12958-1.28562-30.79072-1.74602-1.17429-3.77599,2.00515-4.61143,1.85594-2.47834-.44263-4.55591-5.72481-8.68379-2.04589l11.46879,13.28673c-18.97091,12.9917-15.57282-12.22631-25.18493-13.74256-6.32118-.99713-13.41647,5.08134-17.72422,9.1773,4.85027,10.89638,13.97685.96167,21.62399,6.84667l4.99051,27.27357-12.14613,3.93439,4.7718,9.52037c-8.21811,4.32184-9.58438-7.14509-14.2787-12.03179-4.29734-4.47345-13.0805-3.88355-17.59023-9.4289-7.35639-9.04574-4.19637-22.77329-8.22919-33.78787-9.49752-25.93997-13.0538-45.44404-18.61819-72.7844-1.01772-5.0005,1.01106-12.71481-1.04541-17.96982-2.19992-5.6216-8.10994-4.92823-10.17701-8.51234-2.682-4.65033,1.20042-10.26384-1.29028-14.91494l-7.2409,4.77181c3.16111-14.64305-24.18249-21.98621-12.91144-30.48096l-1.41222-2.81056c-8.96932.11095-16.23967-10.2834-23.49093-15.44533-2.66518-1.89725-6.79197-1.57811-8.65458-3.05806-3.27281-2.60043-2.95001-9.8696-7.57794-12.83015-5.30198,5.93408-13.62273,5.71457-20.10611,10.01871-4.85476,3.22295-5.77733,9.51744-12.15289,10.95823-4.72629-3.12305-12.57041-16.89476-15.3425-18.51659-2.77974-1.62631-8.99221,2.17308-14.27569-.0265-5.09775-2.12225-16.99724-15.33535-18.7262-15.58103-4.68607-.66586-8.5067,6.71457-13.91426-3.53018-12.4275,13.01868-22.46469-11.66258-28.78249-19.78328-3.84944-.65936-26.14739-1.82445-27.32378-2.53056-1.78372-1.07065-3.71755-6.8358-7.11571-9.72659-.93038-.79146-20.52852-10.90017-21.71417-11.19387-9.70706-2.40464-21.92399,1.13178-30.38623.7002-8.22608-.41954-29.48488-6.7704-34.83548-5.48025-4.66708,1.12534-12.90209,9.28701-17.56337,12.57626-2.71499,1.91584-6.66183,1.37356-9.06483,3.30116-.67849.54426-9.82413,13.3655-10.03643,14.209-2.52398,10.02802,9.18093,13.58206,10.5014,19.24127-.35978,15.21538-13.69528,7.16823-20.13564,9.43587-16.21828,5.71045-21.57958,31.21283-30.89993,45.28639-1.57596,2.37967-12.62151,19.69782-14.48663,12.7243-5.77361-21.58697-8.06915-.40497-13.17964,6.74487-5.83493,8.16336-14.61601,11.29123-21.36382,16.78191-5.90654,4.80614-8.28088,14.51273-18.59601,13.25946-5.17448-12.81843-16.80939-32.76426-33.1619-31.83044-5.22451.29835-9.04175,4.46512-14.26102,4.7545-6.11654.33912-18.44966-8.12613-23.93486-9.26332-5.03705-1.04428-10.52166,1.36746-16.11781.74873-9.47424-1.04751-25.55665-7.44491-35.4357-8.07528-51.43849-3.2822-101.93947,13.28633-145.14699,40.87484-15.17177,9.68735-32.27056,27.80133-47.78225,38.24737-8.46334,5.69947-19.3273,8.58463-27.63415,14.7183-4.95282,3.65709-7.03929,9.51191-12.07199,12.67835-4.46313-1.30813,8.58678-27.36714.17681-36.49599-2.55656-2.7751-8.20899-3.00354-9.84462-7.20277-1.3991-3.592,1.66448-9.80887.97991-13.89121-3.15211-18.79705-17.18859-11.05099-29.78491-16.04757-2.27815-.90367-20.71375-10.37241-21.77104-11.25855-8.61354-7.21924.83477-18.21961-9.79836-25.41241L23.73956-12.98426c16.35988-2.09348,23.64387,28.82843,32.83779,32.91574Z"/>
            </g>
          </g>
        </g>
        <rect class="st23" x="333.87956" y="28.16828" width="204.76538" height="204.92048"/>
        <polygon class="st22" points="538.06822 233.18363 333.77716 233.18363 333.77716 28.48902 538.08628 28.48902 538.06822 233.18363"/>
      </g>
      <g class="st41">
        <rect class="st21" x="350.34914" y="183.45224" width="12.05439" height="12.05439"/>
        <rect class="st21" x="389.58483" y="144.35342" width="12.05439" height="12.05439"/>
        <rect class="st21" x="396.40059" y="193.56076" width="12.05439" height="12.05439"/>
        <rect class="st21" x="462.38256" y="192.67683" width="12.05439" height="12.05439"/>
        <rect class="st21" x="458.86254" y="162.534" width="12.05439" height="12.05439"/>
        <rect class="st21" x="494.34885" y="157.30444" width="12.05439" height="12.05439"/>
        <rect class="st21" x="416.76935" y="208.72378" width="12.05439" height="12.05439"/>
        <rect class="st21" x="424.06127" y="169.19842" width="12.05439" height="12.05439"/>
        <rect class="st21" x="411.98326" y="154.12934" width="12.05439" height="12.05439"/>
        <rect class="st21" x="371.45416" y="204.37049" width="12.05439" height="12.05439"/>
        <rect class="st21" x="369.39969" y="124.05937" width="12.05439" height="12.05439"/>
        <rect class="st21" x="346.42697" y="145.35115" width="12.05439" height="12.05439"/>
        <polygon class="st21" points="450.13226 108.18176 443.48442 119.69616 456.7801 119.69616 450.13226 108.18176"/>
        <polygon class="st21" points="483.00643 69.91561 476.35859 81.43 489.65427 81.43 483.00643 69.91561"/>
        <polygon class="st21" points="469.88644 61.91791 463.2386 73.4323 476.53428 73.4323 469.88644 61.91791"/>
        <polygon class="st21" points="516.06473 89.52646 509.41689 101.04086 522.71257 101.04086 516.06473 89.52646"/>
        <polygon class="st21" points="503.55114 116.04781 496.9033 127.5622 510.19898 127.5622 503.55114 116.04781"/>
        <polygon class="st21" points="516.77949 51.98129 510.13165 63.49568 523.42733 63.49568 516.77949 51.98129"/>
        <polygon class="st21" points="491.49159 39.79056 484.84375 51.30496 498.13943 51.30496 491.49159 39.79056"/>
        <polygon class="st21" points="386.25955 92.51478 379.61171 104.02918 392.90738 104.02918 386.25955 92.51478"/>
        <polygon class="st21" points="377.01256 60.31927 370.36472 71.83367 383.6604 71.83367 377.01256 60.31927"/>
        <polygon class="st21" points="396.71867 50.11798 390.07083 61.63238 403.36651 61.63238 396.71867 50.11798"/>
        <polygon class="st21" points="435.75361 44.70165 429.10577 56.21604 442.40145 56.21604 435.75361 44.70165"/>
        <polygon class="st21" points="352.97882 69.66895 346.33098 81.18334 359.62666 81.18334 352.97882 69.66895"/>
        <polygon class="st21" points="353.09779 43.3681 346.44995 54.8825 359.74563 54.8825 353.09779 43.3681"/>
      </g>
      <rect class="st17" x="510.48058" y="206.65082" width="12.05439" height="12.05439"/>
      <g class="st41">
        <line class="st11" x1="404.37625" y1="30.57601" x2="405.45087" y2="34.42897"/>
        <line class="st1" x1="407.62106" y1="42.2101" x2="458.62106" y2="225.06661"/>
        <line class="st11" x1="459.70618" y1="228.95717" x2="460.78079" y2="232.81008"/>
      </g>
      <g>
        <line class="st11" x1="393.37888" y1="30.16365" x2="395.36151" y2="33.63771"/>
        <line class="st6" x1="399.21216" y1="40.38491" x2="505.10486" y2="225.93386"/>
        <line class="st11" x1="507.03018" y1="229.30745" x2="509.01282" y2="232.78151"/>
      </g>
      <g>
        <path class="st2" d="M490.25162,212.04901c-2.94278,3.6817-4.95428,7.39172-12.25174,9.65643-6.4241,1.99371-11.11267.70129-15.65579.0094"/>
        <polygon class="st35" points="485.00549 212.13604 485.15866 213.12512 490.03036 212.36529 490.43231 217.28015 491.42978 217.19763 490.93909 211.21197 485.00549 212.13604"/>
      </g>
      <path class="st4" d="M172.88581,151.04107c3.63722,4.91641,8.98844,8.49115,15.17667,9.8372"/>
      <g>
        <rect class="st0" x="159.23749" y="58.51833" width="52.722" height="12.10981"/>
        <path class="st35" d="M175.64648,59.11855l-3.40479,10.64941h-1.52979l-2.74512-8.59473-2.74463,8.59473h-1.53027l-3.40479-10.64941h1.32031l2.84961,8.9541,2.8501-8.9541h1.31982l2.84961,8.9541,2.8501-8.9541h1.31982Z"/>
        <path class="st35" d="M183.22168,66.37831h-6.2998c.04541,1.37988,1.06543,2.38477,2.625,2.38477,1.24512,0,1.99512-.6748,2.3252-1.34961l1.13965.14941c-.2998,1.03516-1.46973,2.35547-3.46484,2.35547-2.29492,0-3.91455-1.69531-3.91455-3.99023,0-2.12988,1.54492-3.89941,3.79492-3.89941,2.32471,0,3.79443,1.87402,3.79443,4.01953v.33008ZM176.92188,65.44765h5.01025c-.0752-1.18457-1.02002-2.26465-2.50488-2.26465-1.42529,0-2.45996,1.02051-2.50537,2.26465Z"/>
        <path class="st35" d="M184.8125,60.183c0-.41992.32959-.73438.73486-.73438.41992,0,.73486.31445.73486.73438,0,.40527-.31494.73535-.73486.73535-.40527,0-.73486-.33008-.73486-.73535ZM186.19238,69.76796h-1.29004v-7.58984h1.29004v7.58984Z"/>
        <path class="st35" d="M194.78662,70.95253c0,1.56055-1.52979,2.41504-3.31445,2.41504-1.78516,0-3.31494-.85449-3.31494-2.41504,0-.83984.47998-1.39453,1.03467-1.73926-.40479-.22559-.68994-.55566-.68994-.97559,0-.50977.43506-.87012.87012-1.08008-.75-.50977-1.21484-1.31934-1.21484-2.2793,0-1.63477,1.34961-2.84961,3.13477-2.84961.54004,0,1.0498.11914,1.5.3291l1.97998-.17969v1.15527l-.88525-.0752c.34521.4502.54004,1.00488.54004,1.62012,0,1.62012-1.36475,2.84961-3.13477,2.84961-.40527,0-.79492-.05957-1.14014-.17969-.27002.12012-.43506.28516-.43506.47949,0,.39062.55518.51074,1.47021.51074,2.25,0,3.59961.94434,3.59961,2.41406ZM189.37207,64.87831c0,1.00488.87012,1.75488,1.91992,1.75488,1.06494,0,1.90479-.75,1.90479-1.75488,0-1.02051-.83984-1.77051-1.90479-1.77051-1.0498,0-1.91992.75-1.91992,1.77051ZM193.57178,70.96816c0-.99023-1.13965-1.33496-2.72998-1.33496-.1499,0-.28467-.01562-.43457-.03027-.46533.20996-1.03516.73535-1.03516,1.32031,0,.88477.85498,1.36426,2.1001,1.36426,1.22949,0,2.09961-.44922,2.09961-1.31934Z"/>
        <path class="st35" d="M203.81738,65.32851v4.43945h-1.29004v-3.89941c0-1.90527-.81006-2.625-1.97998-2.625-1.7998,0-2.52002,1.57422-2.52002,2.6543v3.87012h-1.28955v-11.25h1.28955v4.98047c.69043-.8252,1.66504-1.46973,2.97021-1.46973,1.75488,0,2.81982,1.1543,2.81982,3.2998Z"/>
        <path class="st35" d="M209.38184,63.39296h-1.57471v6.375h-1.2749v-6.375h-1.08008v-1.21484h1.08008v-2.25h1.2749v2.25h1.57471v1.21484Z"/>
      </g>
      <g>
        <polygon class="st0" points="442.11348 222.03159 363.69505 222.03159 363.69505 176.36749 431.48047 176.36749 442.11348 222.03159"/>
        <path class="st35" d="M372.74609,178.03359c-2.29492,0-4.16895,1.8457-4.16895,4.25977,0,2.41504,1.87402,4.25977,4.16895,4.25977,1.45508,0,2.44531-.62988,3-1.1543v1.30469c-.61426.52539-1.64941,1.06543-3.14941,1.06543-2.98535,0-5.30957-2.43066-5.30957-5.47559s2.32422-5.47461,5.30957-5.47461c1.5,0,2.53516.54004,3.14941,1.06543v1.30469c-.56934-.52539-1.54492-1.15527-3-1.15527Z"/>
        <path class="st35" d="M379.0918,187.61855h-1.29004v-11.25h1.29004v11.25Z"/>
        <path class="st35" d="M384.80664,179.87929c1.4248,0,2.58008.80957,3.05957,1.87402l.06055-1.72461h1.22949v7.58984h-1.22949l-.06055-1.72461c-.47949,1.06445-1.63477,1.875-3.05957,1.875-2.1748,0-3.83984-1.77051-3.83984-3.95996,0-2.16016,1.66504-3.92969,3.83984-3.92969ZM385.00195,186.55312c1.55957,0,2.72949-1.24414,2.72949-2.74414,0-1.4707-1.16992-2.71484-2.72949-2.71484-1.54492,0-2.74512,1.24414-2.74512,2.71484,0,1.5,1.2002,2.74414,2.74512,2.74414Z"/>
        <path class="st35" d="M392.39648,185.51894c.19531.68945.83984,1.1543,1.90527,1.1543.91504,0,1.55957-.38965,1.55957-.98926,0-.85547-.78027-1.03516-2.37012-1.63574-1.10938-.375-2.12988-.94434-2.12988-2.14453,0-1.27441,1.25977-2.02441,2.56543-2.02441,1.60449,0,2.66992.91406,2.74414,2.14453h-1.27441c-.08984-.69043-.75-1.06543-1.44043-1.06543-.61426,0-1.31934.33008-1.31934.94531,0,.69043.76465.88477,2.2793,1.46973,1.42578.52539,2.23535,1.2002,2.23535,2.33984,0,1.26074-1.21484,2.05566-2.87988,2.05566-1.74023,0-2.98535-.79492-3.16504-2.25h1.29004Z"/>
        <path class="st35" d="M399.67188,185.51894c.19531.68945.83984,1.1543,1.90527,1.1543.91504,0,1.55957-.38965,1.55957-.98926,0-.85547-.78027-1.03516-2.37012-1.63574-1.10938-.375-2.12988-.94434-2.12988-2.14453,0-1.27441,1.25977-2.02441,2.56543-2.02441,1.60449,0,2.66992.91406,2.74414,2.14453h-1.27441c-.08984-.69043-.75-1.06543-1.44043-1.06543-.61426,0-1.31934.33008-1.31934.94531,0,.69043.76465.88477,2.2793,1.46973,1.42578.52539,2.23535,1.2002,2.23535,2.33984,0,1.26074-1.21484,2.05566-2.87988,2.05566-1.74023,0-2.98535-.79492-3.16504-2.25h1.29004Z"/>
        <path class="st35" d="M406.0918,178.03359c0-.41992.33008-.73438.73535-.73438.41992,0,.73438.31445.73438.73438,0,.40527-.31445.73535-.73438.73535-.40527,0-.73535-.33008-.73535-.73535ZM407.47168,187.61855h-1.29004v-7.58984h1.29004v7.58984Z"/>
        <path class="st35" d="M411.10156,179.32363v.70508h1.85938v1.21484h-1.85938v6.375h-1.27539v-6.375h-.75v-1.21484h.75v-.88477c0-1.72461.93066-2.3252,1.90527-2.3252.59961,0,1.09473.25488,1.30469.41992v1.11035c-.12012-.08984-.52441-.31543-.89941-.31543-.79492,0-1.03516.51074-1.03516,1.29004Z"/>
        <path class="st35" d="M414.53711,178.03359c0-.41992.3291-.73438.73438-.73438.41992,0,.73535.31445.73535.73438,0,.40527-.31543.73535-.73535.73535-.40527,0-.73438-.33008-.73438-.73535ZM415.91699,187.61855h-1.29004v-7.58984h1.29004v7.58984Z"/>
        <path class="st35" d="M425.51562,184.2289h-6.29883c.04492,1.37988,1.06445,2.38477,2.62402,2.38477,1.24512,0,1.99512-.6748,2.3252-1.34961l1.13965.14941c-.2998,1.03516-1.46973,2.35547-3.46484,2.35547-2.29492,0-3.91406-1.69531-3.91406-3.99023,0-2.12988,1.54492-3.89941,3.79492-3.89941,2.32422,0,3.79395,1.87402,3.79395,4.01953v.33008ZM419.2168,183.29921h5.00977c-.0752-1.18555-1.02051-2.26562-2.50488-2.26562-1.42578,0-2.45996,1.02051-2.50488,2.26562Z"/>
        <path class="st35" d="M431.29102,180.20839l-.22461,1.125c-.15039-.10449-.4502-.23926-.81055-.23926-1.16992,0-1.66406,1.31934-1.66406,2.74414v3.78027h-1.29004v-7.58984h1.21484l.05957.95996c.46484-.64453,1.0498-1.10938,1.75488-1.10938.46484,0,.79492.17969.95996.3291Z"/>
        <path class="st35" d="M387.8291,198.33828c1.4248,0,2.58008.80957,3.05957,1.87402l.06055-1.72461h1.22949v7.58984h-1.22949l-.06055-1.72461c-.47949,1.06445-1.63477,1.875-3.05957,1.875-2.1748,0-3.83984-1.77051-3.83984-3.95996,0-2.16016,1.66504-3.92969,3.83984-3.92969ZM388.02441,205.0121c1.55957,0,2.72949-1.24414,2.72949-2.74414,0-1.4707-1.16992-2.71484-2.72949-2.71484-1.54492,0-2.74512,1.24414-2.74512,2.71484,0,1.5,1.2002,2.74414,2.74512,2.74414Z"/>
        <path class="st35" d="M397.6543,198.33828c1.4248,0,2.5791.80957,3.05957,1.87402v-5.38477h1.29004v11.25h-1.23047l-.05957-1.72461c-.48047,1.06445-1.63477,1.875-3.05957,1.875-2.17578,0-3.83984-1.77051-3.83984-3.95996,0-2.16016,1.66406-3.92969,3.83984-3.92969ZM397.84863,205.0121c1.56055,0,2.73047-1.24414,2.73047-2.74414,0-1.4707-1.16992-2.71484-2.73047-2.71484-1.54492,0-2.74414,1.24414-2.74414,2.71484,0,1.5,1.19922,2.74414,2.74414,2.74414Z"/>
        <path class="st35" d="M405.5293,206.07753l-1.2002,3.4502h-1.33496l1.25977-3.54004v-7.5h1.27539v7.58984ZM404.14941,196.49257c0-.41992.33008-.73438.73438-.73438.41992,0,.73535.31445.73535.73438,0,.40527-.31543.73535-.73535.73535-.4043,0-.73438-.33008-.73438-.73535Z"/>
        <path class="st35" d="M414.61914,198.48769v7.58984h-1.21484l-.04492-1.33496c-.70508.8252-1.67969,1.48535-3,1.48535-1.75488,0-2.82031-1.15527-2.82031-3.2998v-4.44043h1.29004v3.90039c0,1.9043.81055,2.62402,1.98047,2.62402,1.7998,0,2.51953-1.57422,2.51953-2.6543h.01562v-3.87012h1.27441Z"/>
        <path class="st35" d="M417.85938,203.97792c.19531.68945.83984,1.1543,1.90527,1.1543.91504,0,1.55957-.38965,1.55957-.98926,0-.85547-.78027-1.03516-2.37012-1.63574-1.10938-.375-2.12988-.94434-2.12988-2.14453,0-1.27441,1.25977-2.02441,2.56543-2.02441,1.60449,0,2.66992.91406,2.74414,2.14453h-1.27441c-.08984-.69043-.75-1.06543-1.44043-1.06543-.61426,0-1.31934.33008-1.31934.94531,0,.69043.76465.88477,2.2793,1.46973,1.42578.52539,2.23535,1.2002,2.23535,2.33984,0,1.26074-1.21484,2.05566-2.87988,2.05566-1.74023,0-2.98535-.79492-3.16504-2.25h1.29004Z"/>
        <path class="st35" d="M427.78906,199.70253h-1.5752v6.375h-1.27441v-6.375h-1.08008v-1.21484h1.08008v-2.25h1.27441v2.25h1.5752v1.21484Z"/>
        <path class="st35" d="M430.23438,203.97792c.19531.68945.83984,1.1543,1.90527,1.1543.91504,0,1.55957-.38965,1.55957-.98926,0-.85547-.78027-1.03516-2.37012-1.63574-1.10938-.375-2.12988-.94434-2.12988-2.14453,0-1.27441,1.25977-2.02441,2.56543-2.02441,1.60449,0,2.66992.91406,2.74414,2.14453h-1.27441c-.08984-.69043-.75-1.06543-1.44043-1.06543-.61426,0-1.31934.33008-1.31934.94531,0,.69043.76465.88477,2.2793,1.46973,1.42578.52539,2.23535,1.2002,2.23535,2.33984,0,1.26074-1.21484,2.05566-2.87988,2.05566-1.74023,0-2.98535-.79492-3.16504-2.25h1.29004Z"/>
      </g>
      <g>
        <rect class="st0" x="160.56661" y="195.76005" width="54.55709" height="14.21111"/>
        <path class="st35" d="M176.97559,196.36074l-3.40479,10.64941h-1.52979l-2.74512-8.59473-2.74463,8.59473h-1.53027l-3.40479-10.64941h1.32031l2.84961,8.9541,2.8501-8.9541h1.31982l2.84961,8.9541,2.8501-8.9541h1.31982Z"/>
        <path class="st35" d="M184.55078,203.6205h-6.2998c.04541,1.37988,1.06543,2.38477,2.625,2.38477,1.24512,0,1.99512-.6748,2.3252-1.34961l1.13965.14941c-.2998,1.03516-1.46973,2.35547-3.46484,2.35547-2.29492,0-3.91455-1.69531-3.91455-3.99023,0-2.12988,1.54492-3.89941,3.79492-3.89941,2.32471,0,3.79443,1.87402,3.79443,4.01953v.33008ZM178.25098,202.68984h5.01025c-.0752-1.18457-1.02002-2.26465-2.50488-2.26465-1.42529,0-2.45996,1.02051-2.50537,2.26465Z"/>
        <path class="st35" d="M186.1416,197.42519c0-.41992.32959-.73438.73486-.73438.41992,0,.73486.31445.73486.73438,0,.40527-.31494.73535-.73486.73535-.40527,0-.73486-.33008-.73486-.73535ZM187.52148,207.01015h-1.29004v-7.58984h1.29004v7.58984Z"/>
        <path class="st35" d="M196.11572,208.19472c0,1.56055-1.52979,2.41504-3.31445,2.41504-1.78516,0-3.31494-.85449-3.31494-2.41504,0-.83984.47998-1.39453,1.03467-1.73926-.40479-.22559-.68994-.55566-.68994-.97559,0-.50977.43506-.87012.87012-1.08008-.75-.50977-1.21484-1.31934-1.21484-2.2793,0-1.63477,1.34961-2.84961,3.13477-2.84961.54004,0,1.0498.11914,1.5.3291l1.97998-.17969v1.15527l-.88525-.0752c.34521.4502.54004,1.00488.54004,1.62012,0,1.62012-1.36475,2.84961-3.13477,2.84961-.40527,0-.79492-.05957-1.14014-.17969-.27002.12012-.43506.28516-.43506.47949,0,.39062.55518.51074,1.47021.51074,2.25,0,3.59961.94434,3.59961,2.41406ZM190.70117,202.1205c0,1.00488.87012,1.75488,1.91992,1.75488,1.06494,0,1.90479-.75,1.90479-1.75488,0-1.02051-.83984-1.77051-1.90479-1.77051-1.0498,0-1.91992.75-1.91992,1.77051ZM194.90088,208.21035c0-.99023-1.13965-1.33496-2.72998-1.33496-.1499,0-.28467-.01562-.43457-.03027-.46533.20996-1.03516.73535-1.03516,1.32031,0,.88477.85498,1.36426,2.1001,1.36426,1.22949,0,2.09961-.44922,2.09961-1.31934Z"/>
        <path class="st35" d="M205.14648,202.5707v4.43945h-1.29004v-3.89941c0-1.90527-.81006-2.625-1.97998-2.625-1.7998,0-2.52002,1.57422-2.52002,2.6543v3.87012h-1.28955v-11.25h1.28955v4.98047c.69043-.8252,1.66504-1.46973,2.97021-1.46973,1.75488,0,2.81982,1.1543,2.81982,3.2998Z"/>
        <path class="st35" d="M210.71094,200.63515h-1.57471v6.375h-1.2749v-6.375h-1.08008v-1.21484h1.08008v-2.25h1.2749v2.25h1.57471v1.21484Z"/>
      </g>
      <g>
        <rect class="st0" x="211.36876" y="155.2154" width="35.03408" height="15.35879"/>
        <path class="st35" d="M219.64844,163.51015c0,1.90527-1.39502,2.95508-3.68994,2.95508h-3.33008v-10.64941h3.10498c2.22021,0,3.31494,1.15527,3.31494,2.75977,0,.97461-.43506,1.74023-1.2002,2.21973,1.05029.50977,1.80029,1.46973,1.80029,2.71484ZM213.91846,160.25527h1.81494c1.33496,0,2.04004-.49512,2.04004-1.60449,0-1.03516-.70508-1.62012-2.04004-1.62012h-1.81494v3.22461ZM218.37354,163.45058c0-1.16992-.8252-1.98047-2.33984-1.98047h-2.11523v3.78027h2.04004c1.58984,0,2.41504-.64551,2.41504-1.7998Z"/>
        <path class="st35" d="M221.13379,156.88027c0-.41992.32959-.73438.73486-.73438.41992,0,.73486.31445.73486.73438,0,.40527-.31494.73535-.73486.73535-.40527,0-.73486-.33008-.73486-.73535ZM222.51367,166.46523h-1.29004v-7.58984h1.29004v7.58984Z"/>
        <path class="st35" d="M228.36328,158.72597c1.4248,0,2.57959.80957,3.05957,1.87402l.06006-1.72461h1.22998v7.58984h-1.22998l-.06006-1.72461c-.47998,1.06445-1.63477,1.875-3.05957,1.875-2.17529,0-3.83984-1.77051-3.83984-3.95996,0-2.16016,1.66455-3.92969,3.83984-3.92969ZM228.55811,165.3998c1.56006,0,2.72998-1.24414,2.72998-2.74414,0-1.46973-1.16992-2.71484-2.72998-2.71484-1.54492,0-2.74512,1.24512-2.74512,2.71484,0,1.5,1.2002,2.74414,2.74512,2.74414Z"/>
        <path class="st35" d="M235.95361,164.36562c.19482.68945.83984,1.1543,1.90479,1.1543.91504,0,1.56006-.38965,1.56006-.98926,0-.85547-.78027-1.03516-2.37012-1.63574-1.10986-.375-2.12988-.94434-2.12988-2.14453,0-1.27441,1.25977-2.02441,2.56494-2.02441,1.60498,0,2.66992.91406,2.74463,2.14453h-1.2749c-.08984-.69043-.75-1.06543-1.43994-1.06543-.61475,0-1.31982.33008-1.31982.94531,0,.69043.76514.88477,2.27979,1.46973,1.42529.52539,2.23486,1.2002,2.23486,2.33984,0,1.26074-1.21484,2.05566-2.87988,2.05566-1.73975,0-2.98486-.79492-3.16455-2.25h1.29004Z"/>
      </g>
      <path class="st4" d="M136.45747,199.31165c-8.90379.09403-18.65072-6.10856-22.59875-14.01406"/>
      <path class="st4" d="M112.74714,75.64928c4.76425-6.20259,16.28334-10.92837,24.8219-10.39318"/>
      <g>
        <line class="st10" x1="148.81969" y1="54.23559" x2="148.81969" y2="66.81164"/>
        <polygon class="st24" points="144.33199 65.49853 148.81969 73.27026 153.30739 65.49853 144.33199 65.49853"/>
      </g>
      <g>
        <line class="st13" x1="148.81969" y1="209.61328" x2="148.81969" y2="197.03723"/>
        <polygon class="st38" points="153.30739 198.35028 148.81969 190.57861 144.33199 198.35028 153.30739 198.35028"/>
      </g>
      <g>
        <line class="st10" x1="199.76952" y1="152.14788" x2="199.76952" y2="164.72393"/>
        <polygon class="st24" points="195.28181 163.41082 199.76952 171.18249 204.25722 163.41082 195.28181 163.41082"/>
      </g>
      <polygon class="st42" points="516.54453 205.02067 509.89669 216.53507 523.19237 216.53507 516.54453 205.02067"/>
    </g>
  </g>
</svg>