<?xml version="1.0" encoding="UTF-8"?>
<svg xmlns="http://www.w3.org/2000/svg" width="560" height="408.76869" xmlns:xlink="http://www.w3.org/1999/xlink" version="1.1" viewBox="0 0 560 408.76869">
  <!-- Generator: Adobe Illustrator 29.2.1, SVG Export Plug-In . SVG Version: 2.1.0 Build 116)  -->
  <defs>
    <style>
      .st0, .st1 {
        fill: none;
      }

      .st2 {
        stroke: #fcf7f2;
        stroke-width: 2px;
      }

      .st2, .st1 {
        stroke-miterlimit: 10;
      }

      .st2, .st3 {
        fill: #f0b43c;
      }

      .st4 {
        fill: #f3f4f5;
      }

      .st5 {
        isolation: isolate;
      }

      .st6 {
        clip-path: url(#clippath-4);
      }

      .st7 {
        clip-path: url(#clippath-2);
      }

      .st8 {
        clip-path: url(#clippath-5);
      }

      .st9 {
        fill: #f1b43c;
      }

      .st10 {
        fill: #fff;
      }

      .st1 {
        stroke: #f3f4f5;
      }

      .st11 {
        mix-blend-mode: overlay;
        opacity: .15;
      }

      .st12 {
        clip-path: url(#clippath);
      }
    </style>
    <clipPath id="clippath">
      <rect class="st0" x="941.83122" y="483.064" width="324.95899" height="324.95899"/>
    </clipPath>
    <clipPath id="clippath-1">
      <rect class="st0" x="941.83122" y="483.064" width="324.95899" height="324.95899"/>
    </clipPath>
    <clipPath id="clippath-2">
      <rect class="st0" x="116.00097" y="483.064" width="324.95899" height="324.95899"/>
    </clipPath>
    <clipPath id="clippath-3">
      <rect class="st0" x="116.00097" y="483.064" width="324.95899" height="324.95899"/>
    </clipPath>
    <clipPath id="clippath-4">
      <rect class="st0" x="945.12292" y="39.13594" width="324.95899" height="324.95899"/>
    </clipPath>
    <clipPath id="clippath-5">
      <rect class="st0" x="117.5205" y="39.13594" width="324.95899" height="324.95899"/>
    </clipPath>
  </defs>
  <g class="st5">
    <g id="Layer_1">
      <g class="st12">
        <g id="KpjvK6">
          <path class="st3" d="M442.46995,454.62168c20.77632,9.23647,47.54945-11.93225,65.92577-19.57394,96.43415-40.1016,193.03796-80.02376,288.94433-121.00674,101.24183-43.26294,211.61575-100.73,313.70233-137.11432,4.33491-1.54499,10.57229-3.83414,14.59285-.51697,11.27296,9.30075,25.48959,33.91414,32.22567,47.29071,7.89481-10.24247,35.10942-6.14393,37.01615-15.5926-2.08659-24.63355-6.5234-48.3752-21.62904-69.06414-6.35733-8.7071-17.11896-9.13605-21.85185-18.26485-5.49753-10.60364.03268-28.73584-7.39743-40.12254l11.23989-1.73181c-2.23784-10.4645.6497-22.82716,11.90423-26.60968l6.87223,12.8214c17.27189-7.05412,39.39834-3.73073,56.48499-7.57149,6.18638-1.39059,12.39973-6.77129,19.42419-8.60234,17.34044-4.52007,32.31005-10.07989,50.22605-13.71048,1.62853,31.94599,19.92452,40.58923,35.81714,63.56288,97.23714,140.56161,237.12883,285.94955,376.91215,385.86394,32.42478,23.1766,33.95959,15.53959,65.99232,22.45683,14.80381,3.19678,50.74775,28.40634,50.71464,43.93606-.01129,5.29658-6.73717,11.12369-8.1823,16.85942-3.08836,12.2578,3.10226,22.01655-15.0329,32.40587l2.67981,4.11797c20.12067,18.67547,37.79027,40.65449,58.17363,59.03378,33.98977,30.64793,73.08638,55.77977,106.9365,87.28568,22.9766,21.38542,59.72154,69.00157,80.48781,83.53378,11.68346,8.17607,34.79086,13.43316,47.49013,23.94391,103.11627,85.34587,123.48857,187.72813,171.21981,303.96519,8.05612,19.6186,20.13931,43.90336,26.54286,61.27606,4.21195,11.42694,3.22521,28.06037,7.98812,40.06275l-21.58374-18.2006c1.40958,22.15201-5.69846,73.19029,4.17669,91.68477,5.76613,10.79899,19.56509,6.49008,12.83247,24.64038l13.27101,1.57917c-9.41563,8.06852-2.13043,18.97379-18.12095,21.78159,7.69699,10.77103,24.71435,4.17509,29.16125,16.19474,2.24784,6.07575-3.1992,45.58963-7.3325,47.65528-12.98563-3.02922-18.38321-14.41276-23.35432-25.65158-8.71326-2.9969-47.47976,43.29813-56.70468,49.40729-12.5848,8.33423-33.57251,6.0385-41.87311,13.4978-10.83104,9.73328,1.30154,21.36824-33.71941,32.07559-53.14174,16.24762-40.04167-30.20852-54.81377-51.44426-10.45766-15.03349-56.09552-53.17917-74.14439-61.43051-34.11587-15.59663-50.49965-13.8147-86.21571-15.58935-10.79258-.53626-18.80022-10.1234-29.2676-.63582-5.07323,4.59834-2.23427,14.98706-10.80585,17.36516-10.23492-17.92868-45.21203-33.88891-55.53933-45.85652-21.56989-24.99593-27.14892-62.36364-62.49305-79.32833-10.89136-5.2277-37.76893-2.9249-43.54534-6.71579-6.20264-4.07061-5.00413-18.12602-21.95586-8.67293l9.982,11.56114c-32.15933,19.44892-25.68999-34.37212-57.87081-31.67729l2.76436-15.37809,28.349,10.57484c-13.15811-14.54903-9.68144-37.03745-17.33154-51.74778-5.49251-10.56152-18.41048-13.4365-19.80113-22.54164-1.29821-8.49989,15.92645-16.4768,10.15327-28.6775l-33.10883,33.33414-18.3455-11.55611c14.02701,15.91692,42.73138,26.11905,36.73135,52.19756-11.28041-8.03283-27.01837,1.80529-37.45441-1.58398-5.23339-1.69962-20.38336-17.42115-29.26889-22.63256-31.71093-18.59859-68.87814-35.13075-96.07606-61.39339-8.56382-8.26933-22.48117-31.90071-29.21519-35.49387-5.71025-3.04689-38.21951,5.97354-33.47525-16.65654,2.80693-13.38905,10.45851-26.25609,13.13128-42.76675,1.92782-11.90884-.87773-25.80317,2.25268-38.01518,4.43111-17.28617,22.81249-36.85364-2.24234-53.70434-3.04537-2.04817-6.58599,3.49733-8.04312,3.23708-4.32266-.77203-7.94629-9.98505-15.14603-3.56838l20.00356,23.17436c-33.08855,22.65977-27.16169-21.32479-43.92687-23.9694-11.02522-1.73916-23.40065,8.86274-30.91411,16.0068,8.4597,19.00518,24.37805,1.67733,37.71597,11.94178l8.70431,47.56982-21.18494,6.86226,8.32285,16.60517c-14.33381,7.53804-16.71682-12.46227-24.90452-20.98552-7.49531-7.80248-22.81466-6.77359-30.6804-16.44564-12.83082-15.77733-7.3192-39.72055-14.35313-58.93189-16.56531-45.24379-22.76808-79.26227-32.47334-126.94858-1.77507-8.72174,1.76346-22.17682-1.82337-31.34247-3.83704-9.80504-14.14513-8.59569-17.75046-14.84699-4.67787-8.11098,2.09375-17.90192-2.25046-26.01423l-16.60526,8.32286c5.51353-25.54-38.20255-38.34775-18.54389-53.16407l-2.46315-4.90211c-15.64405.19352-28.32479-17.93603-40.97224-26.93932-4.64853-3.30913-11.84637-2.7525-15.09509-5.33378-5.70835-4.53559-5.14532-17.21428-13.21724-22.378-9.24757,10.35006-23.7604,9.9672-35.06853,17.47437-8.46755,5.62138-10.07666,16.60006-21.19673,19.11305-8.24347-5.44713-21.92496-29.46738-26.75997-32.29614-4.84835-2.83657-15.68396,3.79022-24.89928-.04622-8.89135-3.70158-29.64613-26.7475-32.66173-27.176-8.17331-1.16138-14.83716,11.71137-24.26888-6.15724-21.67571,22.70683-39.18231-20.34155-50.20164-34.50546-6.71409-1.15005-45.60556-3.18215-47.65739-4.41373-3.11112-1.86739-6.48405-11.92282-12.41102-16.96485-1.62274-1.38045-35.80529-19.01177-37.87327-19.52405-16.9308-4.19411-38.23923,1.97403-52.99885,1.22127-14.34771-.73175-51.42673-11.80875-60.7591-9.5585-8.1402,1.96279-22.50347,16.19815-30.63355,21.93517-4.73541,3.34156-11.61939,2.39572-15.81063,5.75779-1.1834.94928-17.13498,23.31174-17.50527,24.78295-4.40226,17.49061,16.01312,23.68945,18.31626,33.56011-.62751,26.53825-23.88693,12.50262-35.12004,16.4578-28.28749,9.96002-37.63852,54.44056-53.89483,78.9873-2.74875,4.15056-22.01409,34.3564-25.26719,22.19338-10.07018-37.6514-14.074-.70634-22.98758,11.76421-10.17713,14.23832-25.49284,19.69386-37.2622,29.27056-10.30203,8.38274-14.44329,25.31271-32.43466,23.12679-9.02519-22.35756-29.31849-57.14653-57.84008-55.51778-9.11244.52037-15.77037,7.78795-24.87368,8.29267-10.6683.59149-32.1794-14.17338-41.74653-16.15684-8.78548-1.8214-18.35159,2.38509-28.11224,1.30592-16.52472-1.82703-44.57521-12.98522-61.80598-14.08468-89.71762-5.72472-177.80006,23.17366-253.16144,71.29278-26.46219,16.89642-56.28544,48.49032-83.34051,66.71002-14.76153,9.94086-33.71016,14.97309-48.19874,25.67125-8.63858,6.3786-12.27773,16.59042-21.05564,22.11323-7.78447-2.2816,14.97684-47.73302.30839-63.65531-4.45909-4.84025-14.3179-5.23869-17.17071-12.56288-2.44028-6.26507,2.90314-17.10837,1.70913-24.22867-5.49783-32.78531-29.97988-19.27484-51.95003-27.98974-3.97348-1.57616-36.12835-18.09127-37.97245-19.63685-15.0235-12.59161,1.45598-31.77815-17.09003-44.32364L385.19517,397.21094c28.53446-3.65139,41.239,50.28176,57.27478,57.41074Z"/>
        </g>
      </g>
      <g class="st7">
        <g id="KpjvK62" data-name="KpjvK6">
          <path class="st3" d="M-383.3603,454.62168c20.77632,9.23647,47.54945-11.93225,65.92577-19.57394,96.43415-40.1016,193.03796-80.02376,288.94433-121.00674,101.24183-43.26294,211.61575-100.73,313.70233-137.11432,4.33491-1.54499,10.57229-3.83414,14.59285-.51697,11.27296,9.30075,25.48959,33.91414,32.22567,47.29071,7.89481-10.24247,35.10942-6.14393,37.01615-15.5926-2.08659-24.63355-6.5234-48.3752-21.62904-69.06414-6.35733-8.7071-17.11896-9.13605-21.85185-18.26485-5.49753-10.60364.03268-28.73584-7.39743-40.12254l11.23989-1.73181c-2.23784-10.4645.6497-22.82716,11.90423-26.60968l6.87223,12.8214c17.27189-7.05412,39.39834-3.73073,56.48499-7.57149,6.18638-1.39059,12.39973-6.77129,19.42419-8.60234,17.34044-4.52007,32.31005-10.07989,50.22605-13.71048,1.62853,31.94599,19.92452,40.58923,35.81714,63.56288,97.23714,140.56161,237.12883,285.94955,376.91215,385.86394,32.42478,23.1766,33.95959,15.53959,65.99232,22.45683,14.80381,3.19678,50.74775,28.40634,50.71464,43.93606-.01129,5.29658-6.73717,11.12369-8.1823,16.85942-3.08836,12.2578,3.10226,22.01655-15.0329,32.40587l2.67981,4.11797c20.12067,18.67547,37.79027,40.65449,58.17363,59.03378,33.98977,30.64793,73.08638,55.77977,106.9365,87.28568,22.9766,21.38542,59.72154,69.00157,80.48781,83.53378,11.68346,8.17607,34.79086,13.43316,47.49013,23.94391,103.11627,85.34587,123.48857,187.72813,171.21981,303.96519,8.05612,19.6186,20.13931,43.90336,26.54286,61.27606,4.21195,11.42694,3.22521,28.06037,7.98812,40.06275l-21.58374-18.2006c1.40958,22.15201-5.69846,73.19029,4.17669,91.68477,5.76613,10.79899,19.56509,6.49008,12.83247,24.64038l13.27101,1.57917c-9.41563,8.06852-2.13043,18.97379-18.12095,21.78159,7.69699,10.77103,24.71435,4.17509,29.16125,16.19474,2.24784,6.07575-3.1992,45.58963-7.3325,47.65528-12.98563-3.02922-18.38321-14.41276-23.35432-25.65158-8.71326-2.9969-47.47976,43.29813-56.70468,49.40729-12.5848,8.33423-33.57251,6.0385-41.87311,13.4978-10.83104,9.73328,1.30154,21.36824-33.71941,32.07559-53.14174,16.24762-40.04167-30.20852-54.81377-51.44426-10.45766-15.03349-56.09552-53.17917-74.14439-61.43051-34.11587-15.59663-50.49965-13.8147-86.21571-15.58935-10.79258-.53626-18.80022-10.1234-29.2676-.63582-5.07323,4.59834-2.23427,14.98706-10.80585,17.36516-10.23492-17.92868-45.21203-33.88891-55.53933-45.85652-21.56989-24.99593-27.14892-62.36364-62.49305-79.32833-10.89136-5.2277-37.76893-2.9249-43.54534-6.71579-6.20264-4.07061-5.00413-18.12602-21.95586-8.67293l9.982,11.56114c-32.15933,19.44892-25.68999-34.37212-57.87081-31.67729l2.76436-15.37809,28.349,10.57484c-13.15811-14.54903-9.68144-37.03745-17.33154-51.74778-5.49251-10.56152-18.41048-13.4365-19.80113-22.54164-1.29821-8.49989,15.92645-16.4768,10.15327-28.6775l-33.10883,33.33414-18.3455-11.55611c14.02701,15.91692,42.73138,26.11905,36.73135,52.19756-11.28041-8.03283-27.01837,1.80529-37.45441-1.58398-5.23339-1.69962-20.38336-17.42115-29.26889-22.63256-31.71093-18.59859-68.87814-35.13075-96.07606-61.39339-8.56382-8.26933-22.48117-31.90071-29.21519-35.49387-5.71025-3.04689-38.21951,5.97354-33.47525-16.65654,2.80693-13.38905,10.45851-26.25609,13.13128-42.76675,1.92782-11.90884-.87773-25.80317,2.25268-38.01518,4.43111-17.28617,22.81249-36.85364-2.24234-53.70434-3.04537-2.04817-6.58599,3.49733-8.04312,3.23708-4.32266-.77203-7.94629-9.98505-15.14603-3.56838l20.00356,23.17436c-33.08855,22.65977-27.16169-21.32479-43.92687-23.9694-11.02522-1.73916-23.40065,8.86274-30.91411,16.0068,8.4597,19.00518,24.37805,1.67733,37.71597,11.94178l8.70431,47.56982-21.18494,6.86226,8.32285,16.60517c-14.33381,7.53804-16.71682-12.46227-24.90452-20.98552-7.49531-7.80248-22.81466-6.77359-30.6804-16.44564-12.83082-15.77733-7.3192-39.72055-14.35313-58.93189-16.56531-45.24379-22.76808-79.26227-32.47334-126.94858-1.77507-8.72174,1.76346-22.17682-1.82337-31.34247-3.83704-9.80504-14.14513-8.59569-17.75046-14.84699-4.67787-8.11098,2.09375-17.90192-2.25046-26.01423l-16.60526,8.32286c5.51353-25.54-38.20255-38.34775-18.54389-53.16407l-2.46315-4.90211c-15.64405.19352-28.32479-17.93603-40.97224-26.93932-4.64853-3.30913-11.84637-2.7525-15.09509-5.33378-5.70835-4.53559-5.14532-17.21428-13.21724-22.378-9.24757,10.35006-23.7604,9.9672-35.06853,17.47437-8.46755,5.62138-10.07666,16.60006-21.19673,19.11305-8.24347-5.44713-21.92496-29.46738-26.75997-32.29614-4.84835-2.83657-15.68396,3.79022-24.89928-.04622-8.89135-3.70158-29.64613-26.7475-32.66173-27.176-8.17331-1.16138-14.83716,11.71137-24.26888-6.15724-21.67571,22.70683-39.18231-20.34155-50.20164-34.50546-6.71409-1.15005-45.60556-3.18215-47.65739-4.41373-3.11112-1.86739-6.48405-11.92282-12.41102-16.96485-1.62274-1.38045-35.80529-19.01177-37.87327-19.52405-16.9308-4.19411-38.23923,1.97403-52.99885,1.22127-14.34771-.73175-51.42673-11.80875-60.7591-9.5585-8.1402,1.96279-22.50347,16.19815-30.63355,21.93517-4.73541,3.34156-11.61939,2.39572-15.81063,5.75779-1.1834.94928-17.13498,23.31174-17.50527,24.78295-4.40226,17.49061,16.01312,23.68945,18.31626,33.56011-.62751,26.53825-23.88693,12.50262-35.12004,16.4578-28.28749,9.96002-37.63852,54.44056-53.89483,78.9873-2.74875,4.15056-22.01409,34.3564-25.26719,22.19338-10.07018-37.6514-14.074-.70634-22.98758,11.76421-10.17713,14.23832-25.49284,19.69386-37.2622,29.27056-10.30203,8.38274-14.44329,25.31271-32.43466,23.12679-9.02519-22.35756-29.31849-57.14653-57.84008-55.51778-9.11244.52037-15.77037,7.78795-24.87368,8.29267-10.6683.59149-32.1794-14.17338-41.74653-16.15684-8.78548-1.8214-18.35159,2.38509-28.11224,1.30592-16.52472-1.82703-44.57521-12.98522-61.80598-14.08468-89.71762-5.72472-177.80006,23.17366-253.16144,71.29278-26.46219,16.89642-56.28544,48.49032-83.34051,66.71002-14.76153,9.94086-33.71016,14.97309-48.19874,25.67125-8.63858,6.3786-12.27773,16.59042-21.05564,22.11323-7.78447-2.2816,14.97684-47.73302.30839-63.65531-4.45909-4.84025-14.3179-5.23869-17.17071-12.56288-2.44028-6.26507,2.90314-17.10837,1.70913-24.22867-5.49783-32.78531-29.97988-19.27484-51.95003-27.98974-3.97348-1.57616-36.12835-18.09127-37.97245-19.63685-15.0235-12.59161,1.45598-31.77815-17.09003-44.32364L-440.63508,397.21094c28.53446-3.65139,41.239,50.28176,57.27478,57.41074Z"/>
        </g>
      </g>
      <g class="st6">
        <path class="st2" d="M445.76165,10.69362c20.77632,9.23647,47.54945-11.93225,65.92577-19.57394,96.43415-40.1016,193.03796-80.02376,288.94433-121.00674,101.24183-43.26294,211.61575-100.73,313.70233-137.11432,4.33491-1.54499,10.57229-3.83414,14.59285-.51697,11.27296,9.30075,25.48959,33.91414,32.22567,47.29071,7.89481-10.24247,35.10942-6.14393,37.01615-15.5926-2.08659-24.63355-6.5234-48.3752-21.62904-69.06414-6.35733-8.7071-17.11896-9.13605-21.85185-18.26485-5.49753-10.60364.03268-28.73584-7.39743-40.12254l11.23989-1.73181c-2.23784-10.4645.6497-22.82716,11.90423-26.60968l6.87223,12.8214c17.27189-7.05412,39.39834-3.73073,56.48499-7.57149,6.18638-1.39059,12.39973-6.77129,19.42419-8.60234,17.34044-4.52007,32.31005-10.07989,50.22605-13.71048,1.62853,31.94599,19.92452,40.58923,35.81714,63.56288,97.23714,140.56161,237.12883,285.94955,376.91215,385.86394,32.42478,23.1766,33.95959,15.53959,65.99232,22.45683,14.80381,3.19678,50.74775,28.40634,50.71464,43.93606-.01129,5.29658-6.73717,11.12369-8.1823,16.85942-3.08836,12.2578,3.10226,22.01655-15.0329,32.40587l2.67981,4.11797c20.12067,18.67547,37.79027,40.65449,58.17363,59.03378,33.98977,30.64793,73.08638,55.77977,106.9365,87.28568,22.9766,21.38542,59.72154,69.00157,80.48781,83.53378,11.68346,8.17607,34.79086,13.43316,47.49013,23.94391,103.11627,85.34587,123.48857,187.72813,171.21981,303.96519,8.05612,19.6186,20.13931,43.90336,26.54286,61.27606,4.21195,11.42694,3.22521,28.06037,7.98812,40.06275l-21.58374-18.2006c1.40958,22.15201-5.69846,73.19029,4.17669,91.68477,5.76613,10.79899,19.56509,6.49008,12.83247,24.64038l13.27101,1.57917c-9.41563,8.06852-2.13043,18.97379-18.12095,21.78159,7.69699,10.77103,24.71435,4.17509,29.16125,16.19474,2.24784,6.07575-3.1992,45.58963-7.3325,47.65528-12.98563-3.02922-18.38321-14.41276-23.35432-25.65158-8.71326-2.9969-47.47976,43.29813-56.70468,49.40729-12.5848,8.33423-33.57251,6.0385-41.87311,13.4978-10.83104,9.73328,1.30154,21.36824-33.71941,32.07559-53.14174,16.24762-40.04167-30.20852-54.81377-51.44426-10.45766-15.03349-56.09552-53.17917-74.14439-61.43051-34.11587-15.59663-50.49965-13.8147-86.21571-15.58935-10.79258-.53626-18.80022-10.1234-29.2676-.63582-5.07323,4.59834-2.23427,14.98706-10.80585,17.36516-10.23492-17.92868-45.21203-33.88891-55.53933-45.85652-21.56989-24.99593-27.14892-62.36364-62.49305-79.32833-10.89136-5.2277-37.76893-2.9249-43.54534-6.71579-6.20264-4.07061-5.00413-18.12602-21.95586-8.67293l9.982,11.56114c-32.15933,19.44892-25.68999-34.37212-57.87081-31.67729l2.76436-15.37809,28.349,10.57484c-13.15811-14.54903-9.68144-37.03745-17.33154-51.74778-5.49251-10.56152-18.41048-13.4365-19.80113-22.54164-1.29821-8.49989,15.92645-16.4768,10.15327-28.6775l-33.10883,33.33414-18.3455-11.55611c14.02701,15.91692,42.73138,26.11905,36.73135,52.19756-11.28041-8.03283-27.01837,1.80529-37.45441-1.58398-5.23339-1.69962-20.38336-17.42115-29.26889-22.63256-31.71093-18.59859-68.87814-35.13075-96.07606-61.39339-8.56382-8.26933-22.48117-31.90071-29.21519-35.49387-5.71025-3.04689-38.21951,5.97354-33.47525-16.65654,2.80693-13.38905,10.45851-26.25609,13.13128-42.76675,1.92782-11.90884-.87773-25.80317,2.25268-38.01518,4.43111-17.28617,22.81249-36.85364-2.24234-53.70434-3.04537-2.04817-6.58599,3.49733-8.04312,3.23708-4.32266-.77203-7.94629-9.98505-15.14603-3.56838l20.00356,23.17436c-33.08855,22.65977-27.16169-21.32479-43.92687-23.9694-11.02522-1.73916-23.40065,8.86274-30.91411,16.0068,8.4597,19.00518,24.37805,1.67733,37.71597,11.94178l8.70431,47.56982-21.18494,6.86226,8.32285,16.60517c-14.33381,7.53804-16.71682-12.46227-24.90452-20.98552-7.49531-7.80248-22.81466-6.77359-30.6804-16.44564-12.83082-15.77733-7.3192-39.72055-14.35313-58.93189-16.56531-45.24379-22.76808-79.26227-32.47334-126.94858-1.77507-8.72174,1.76346-22.17682-1.82337-31.34247-3.83704-9.80504-14.14513-8.59569-17.75046-14.84699-4.67787-8.11098,2.09375-17.90192-2.25046-26.01423l-16.60526,8.32286c5.51353-25.54-38.20255-38.34775-18.54389-53.16407l-2.46315-4.90211c-15.64405.19352-28.32479-17.93603-40.97224-26.93932-4.64853-3.30913-11.84637-2.7525-15.09509-5.33378-5.70835-4.53559-5.14532-17.21428-13.21724-22.378-9.24757,10.35006-23.7604,9.9672-35.06853,17.47437-8.46755,5.62138-10.07666,16.60006-21.19673,19.11305-8.24347-5.44713-21.92496-29.46738-26.75997-32.29614-4.84835-2.83657-15.68396,3.79022-24.89928-.04622-8.89135-3.70158-29.64613-26.7475-32.66173-27.176-8.17331-1.16138-14.83716,11.71137-24.26888-6.15724-21.67571,22.70683-39.18231-20.34155-50.20164-34.50546-6.71409-1.15005-45.60556-3.18215-47.65739-4.41373-3.11112-1.86739-6.48405-11.92282-12.41102-16.96485-1.62274-1.38045-35.80529-19.01177-37.87327-19.52405-16.9308-4.19411-38.23923,1.97403-52.99885,1.22127-14.34771-.73175-51.42673-11.80875-60.7591-9.5585-8.1402,1.96279-22.50347,16.19815-30.63355,21.93517-4.73541,3.34156-11.61939,2.39572-15.81063,5.75779-1.1834.94928-17.13498,23.31174-17.50527,24.78295-4.40226,17.49061,16.01312,23.68945,18.31626,33.56011-.62751,26.53825-23.88693,12.50262-35.12004,16.4578-28.28749,9.96002-37.63852,54.44056-53.89483,78.9873-2.74875,4.15056-22.01409,34.3564-25.26719,22.19338-10.07018-37.6514-14.074-.70634-22.98758,11.76421-10.17713,14.23832-25.49284,19.69386-37.2622,29.27056-10.30203,8.38274-14.44329,25.31271-32.43466,23.12679-9.02519-22.35756-29.31849-57.14653-57.84008-55.51778-9.11244.52037-15.77037,7.78795-24.87368,8.29267-10.6683.59149-32.1794-14.17338-41.74653-16.15684-8.78548-1.8214-18.35159,2.38509-28.11224,1.30592-16.52472-1.82703-44.57521-12.98522-61.80598-14.08468-89.71762-5.72472-177.80006,23.17366-253.16144,71.29278-26.46219,16.89642-56.28544,48.49032-83.34051,66.71002-14.76153,9.94086-33.71016,14.97309-48.19874,25.67125-8.63858,6.3786-12.27773,16.59042-21.05564,22.11323-7.78447-2.2816,14.97684-47.73302.30839-63.65531-4.45909-4.84025-14.3179-5.23869-17.17071-12.56288-2.44028-6.26507,2.90314-17.10837,1.70913-24.22867-5.49783-32.78531-29.97988-19.27484-51.95003-27.98974-3.97348-1.57616-36.12835-18.09127-37.97245-19.63685-15.0235-12.59161,1.45598-31.77815-17.09003-44.32364L388.48687-46.71712c28.53446-3.65139,41.239,50.28176,57.27478,57.41074Z"/>
      </g>
      <g>
        <rect class="st4" x="103.39698" y="27.34427" width="353.20605" height="353.20605"/>
        <rect class="st9" x="117.5205" y="41.46779" width="324.95899" height="324.95899"/>
        <g class="st8">
          <path class="st2" d="M-381.84077,10.69362c20.77632,9.23647,47.54945-11.93225,65.92577-19.57394C-219.48085-48.98193-122.87704-88.90409-26.97067-129.88706c101.24183-43.26294,211.61575-100.73,313.70233-137.11432,4.33491-1.54499,10.57229-3.83414,14.59285-.51697,11.27296,9.30075,25.48959,33.91414,32.22567,47.29071,7.89481-10.24247,35.10942-6.14393,37.01615-15.5926-2.08659-24.63355-6.5234-48.3752-21.62904-69.06414-6.35733-8.7071-17.11896-9.13605-21.85185-18.26485-5.49753-10.60364.03268-28.73584-7.39743-40.12254l11.23989-1.73181c-2.23784-10.4645.6497-22.82716,11.90423-26.60968l6.87223,12.8214c17.27189-7.05412,39.39834-3.73073,56.48499-7.57149,6.18638-1.39059,12.39973-6.77129,19.42419-8.60234,17.34044-4.52007,32.31005-10.07989,50.22605-13.71048,1.62853,31.94599,19.92452,40.58923,35.81714,63.56288,97.23714,140.56161,237.12883,285.94955,376.91215,385.86394,32.42478,23.1766,33.95959,15.53959,65.99232,22.45683,14.80381,3.19678,50.74775,28.40634,50.71464,43.93606-.01129,5.29658-6.73717,11.12369-8.1823,16.85942-3.08836,12.2578,3.10226,22.01655-15.0329,32.40587l2.67981,4.11797c20.12067,18.67547,37.79027,40.65449,58.17363,59.03378,33.98977,30.64793,73.08638,55.77977,106.9365,87.28568,22.9766,21.38542,59.72154,69.00157,80.48781,83.53378,11.68346,8.17607,34.79086,13.43316,47.49013,23.94391,103.11627,85.34587,123.48857,187.72813,171.21981,303.96519,8.05612,19.6186,20.13931,43.90336,26.54286,61.27606,4.21195,11.42694,3.22521,28.06037,7.98812,40.06275l-21.58374-18.2006c1.40958,22.15201-5.69846,73.19029,4.17669,91.68477,5.76613,10.79899,19.56509,6.49008,12.83247,24.64038l13.27101,1.57917c-9.41563,8.06852-2.13043,18.97379-18.12095,21.78159,7.69699,10.77103,24.71435,4.17509,29.16125,16.19474,2.24784,6.07575-3.1992,45.58963-7.3325,47.65528-12.98563-3.02922-18.38321-14.41276-23.35432-25.65158-8.71326-2.9969-47.47976,43.29813-56.70468,49.40729-12.5848,8.33423-33.57251,6.0385-41.87311,13.4978-10.83104,9.73328,1.30154,21.36824-33.71941,32.07559-53.14174,16.24762-40.04167-30.20852-54.81377-51.44426-10.45766-15.03349-56.09552-53.17917-74.14439-61.43051-34.11587-15.59663-50.49965-13.8147-86.21571-15.58935-10.79258-.53626-18.80022-10.1234-29.2676-.63582-5.07323,4.59834-2.23427,14.98706-10.80585,17.36516-10.23492-17.92868-45.21203-33.88891-55.53933-45.85652-21.56989-24.99593-27.14892-62.36364-62.49305-79.32833-10.89136-5.2277-37.76893-2.9249-43.54534-6.71579-6.20264-4.07061-5.00413-18.12602-21.95586-8.67293l9.982,11.56114c-32.15933,19.44892-25.68999-34.37212-57.87081-31.67729l2.76436-15.37809,28.349,10.57484c-13.15811-14.54903-9.68144-37.03745-17.33154-51.74778-5.49251-10.56152-18.41048-13.4365-19.80113-22.54164-1.29821-8.49989,15.92645-16.4768,10.15327-28.6775l-33.10883,33.33414-18.3455-11.55611c14.02701,15.91692,42.73138,26.11905,36.73135,52.19756-11.28041-8.03283-27.01837,1.80529-37.45441-1.58398-5.23339-1.69962-20.38336-17.42115-29.26889-22.63256-31.71093-18.59859-68.87814-35.13075-96.07606-61.39339-8.56382-8.26933-22.48117-31.90071-29.21519-35.49387-5.71025-3.04689-38.21951,5.97354-33.47525-16.65654,2.80693-13.38905,10.45851-26.25609,13.13128-42.76675,1.92782-11.90884-.87773-25.80317,2.25268-38.01518,4.43111-17.28617,22.81249-36.85364-2.24234-53.70434-3.04537-2.04817-6.58599,3.49733-8.04312,3.23708-4.32266-.77203-7.94629-9.98505-15.14603-3.56838l20.00356,23.17436c-33.08855,22.65977-27.16169-21.32479-43.92687-23.9694-11.02522-1.73916-23.40065,8.86274-30.91411,16.0068,8.4597,19.00518,24.37805,1.67733,37.71597,11.94178l8.70431,47.56982-21.18494,6.86226,8.32285,16.60517c-14.33381,7.53804-16.71682-12.46227-24.90452-20.98552-7.49531-7.80248-22.81466-6.77359-30.6804-16.44564-12.83082-15.77733-7.3192-39.72055-14.35313-58.93189-16.56531-45.24379-22.76808-79.26227-32.47334-126.94858-1.77507-8.72174,1.76346-22.17682-1.82337-31.34247-3.83704-9.80504-14.14513-8.59569-17.75046-14.84699-4.67787-8.11098,2.09375-17.90192-2.25046-26.01423l-16.60526,8.32286c5.51353-25.54-38.20255-38.34775-18.54389-53.16407l-2.46315-4.90211c-15.64405.19352-28.32479-17.93603-40.97224-26.93932-4.64853-3.30913-11.84637-2.7525-15.09509-5.33378-5.70835-4.53559-5.14532-17.21428-13.21724-22.378-9.24757,10.35006-23.7604,9.9672-35.06853,17.47437-8.46755,5.62138-10.07666,16.60006-21.19673,19.11305-8.24347-5.44713-21.92496-29.46738-26.75997-32.29614-4.84835-2.83657-15.68396,3.79022-24.89928-.04622-8.89135-3.70158-29.64613-26.7475-32.66173-27.176-8.17331-1.16138-14.83716,11.71137-24.26888-6.15724-21.67571,22.70683-39.18231-20.34155-50.20164-34.50546-6.71409-1.15005-45.60556-3.18215-47.65739-4.41373-3.11112-1.86739-6.48405-11.92282-12.41102-16.96485-1.62274-1.38045-35.80529-19.01177-37.87327-19.52405-16.9308-4.19411-38.23923,1.97403-52.99885,1.22127-14.34771-.73175-51.42673-11.80875-60.7591-9.5585-8.1402,1.96279-22.50347,16.19815-30.63355,21.93517-4.73541,3.34156-11.61939,2.39572-15.81063,5.75779-1.1834.94928-17.13498,23.31174-17.50527,24.78295-4.40226,17.49061,16.01312,23.68945,18.31626,33.56011-.62751,26.53825-23.88693,12.50262-35.12004,16.4578-28.28749,9.96002-37.63852,54.44056-53.89483,78.9873-2.74875,4.15056-22.01409,34.3564-25.26719,22.19338-10.07018-37.6514-14.074-.70634-22.98758,11.76421-10.17713,14.23832-25.49284,19.69386-37.2622,29.27056-10.30203,8.38274-14.44329,25.31271-32.43466,23.12679-9.02519-22.35756-29.31849-57.14653-57.84008-55.51778-9.11244.52037-15.77037,7.78795-24.87368,8.29267-10.6683.59149-32.1794-14.17338-41.74653-16.15684-8.78548-1.8214-18.35159,2.38509-28.11224,1.30592-16.52472-1.82703-44.57521-12.98522-61.80598-14.08468-89.71762-5.72472-177.80006,23.17366-253.16144,71.29278-26.46219,16.89642-56.28544,48.49032-83.34051,66.71002-14.76153,9.94086-33.71016,14.97309-48.19874,25.67125-8.63858,6.3786-12.27773,16.59042-21.05564,22.11323-7.78447-2.2816,14.97684-47.73302.30839-63.65531-4.45909-4.84025-14.3179-5.23869-17.17071-12.56288-2.44028-6.26507,2.90314-17.10837,1.70913-24.22867-5.49783-32.78531-29.97988-19.27484-51.95003-27.98974-3.97348-1.57616-36.12835-18.09127-37.97245-19.63685-15.0235-12.59161,1.45598-31.77815-17.09003-44.32364L-439.11555-46.71712c28.53446-3.65139,41.239,50.28176,57.27478,57.41074Z"/>
        </g>
        <g class="st11">
          <g>
            <line class="st1" x1="153.73603" y1="35.40987" x2="153.73603" y2="368.57362"/>
            <line class="st1" x1="117.48404" y1="35.40987" x2="117.48404" y2="368.57362"/>
            <line class="st1" x1="189.98801" y1="35.40987" x2="189.98801" y2="368.57362"/>
            <line class="st1" x1="226.23999" y1="35.40987" x2="226.23999" y2="368.57362"/>
            <line class="st1" x1="262.49197" y1="35.40987" x2="262.49197" y2="368.57362"/>
            <line class="st1" x1="298.74396" y1="35.40987" x2="298.74396" y2="368.57362"/>
            <line class="st1" x1="334.99594" y1="35.40987" x2="334.99594" y2="368.57362"/>
            <line class="st1" x1="371.24792" y1="35.40987" x2="371.24792" y2="368.57362"/>
            <line class="st1" x1="407.4999" y1="35.40987" x2="407.4999" y2="368.57362"/>
            <line class="st1" x1="443.75188" y1="35.40987" x2="443.75188" y2="368.57362"/>
          </g>
          <g>
            <line class="st1" x1="446.8987" y1="75.56626" x2="113.73495" y2="75.56626"/>
            <line class="st1" x1="446.8987" y1="39.15896" x2="113.73495" y2="39.15896"/>
            <line class="st1" x1="446.8987" y1="111.97357" x2="113.73495" y2="111.97357"/>
            <line class="st1" x1="446.8987" y1="148.38087" x2="113.73495" y2="148.38087"/>
            <line class="st1" x1="446.8987" y1="184.78817" x2="113.73495" y2="184.78817"/>
            <line class="st1" x1="446.8987" y1="221.19547" x2="113.73495" y2="221.19547"/>
            <line class="st1" x1="446.8987" y1="257.60277" x2="113.73495" y2="257.60277"/>
            <line class="st1" x1="446.8987" y1="294.01007" x2="113.73495" y2="294.01007"/>
            <line class="st1" x1="446.8987" y1="330.41737" x2="113.73495" y2="330.41737"/>
            <line class="st1" x1="446.8987" y1="366.82468" x2="113.73495" y2="366.82468"/>
          </g>
        </g>
      </g>
      <g>
        <rect class="st0" x="236.542" y="102.52565" width="163.18442" height="19.19148"/>
        <path class="st10" d="M246.34473,105.16818h-3.24854v11.60742h-1.97607v-11.60742h-3.24854v-1.88037h8.47314v1.88037Z"/>
        <path class="st10" d="M253.46924,107.39084l-.30371,1.729c-.18994-.11426-.56982-.26611-.98779-.26611-1.36768,0-2.03271,1.46289-2.03271,3.38135v4.54053h-1.97559v-9.61279h1.86133l.09521,1.12109c.60791-.77881,1.32959-1.31104,2.16553-1.31104.56982,0,.96875.22803,1.17773.41797Z"/>
        <path class="st10" d="M255.63623,104.6174c0-.58887.4751-1.06396,1.06396-1.06396s1.06396.4751,1.06396,1.06396-.4751,1.06396-1.06396,1.06396-1.06396-.4751-1.06396-1.06396ZM257.68799,116.77561h-1.97559v-9.61279h1.97559v9.61279Z"/>
        <path class="st10" d="M265.21143,106.97287c1.72852,0,3.09668.9502,3.64746,2.16602l.11426-1.97607h1.87988v9.61279h-1.87988l-.11426-1.99463c-.55078,1.23486-1.91895,2.18457-3.64746,2.18457-2.75488,0-4.8252-2.2417-4.8252-4.99609,0-2.75488,2.07031-4.99658,4.8252-4.99658ZM265.53418,115.08469c1.78564,0,3.11572-1.40576,3.11572-3.11523,0-1.70996-1.33008-3.11572-3.11572-3.11572-1.82373,0-3.17236,1.40576-3.17236,3.11572,0,1.70947,1.34863,3.11523,3.17236,3.11523Z"/>
        <path class="st10" d="M282.99512,111.13352v5.64209h-1.97559v-4.76807c0-2.31787-.93018-3.15381-2.31689-3.15381-1.88086,0-2.83105,1.48193-2.92578,2.90674v5.01514h-1.97559v-9.61279h1.86133l.09473,1.53906c.91211-.96875,2.14746-1.729,3.70508-1.729,2.26025,0,3.53271,1.48193,3.53271,4.16064Z"/>
        <path class="st10" d="M294.22363,108.9299l-.9873-.1333c.30371.51318.49316,1.12109.49316,1.78613,0,2.08936-1.74707,3.60938-4.02734,3.60938-.49316,0-.96875-.07617-1.38672-.20898-.26562.13281-.39844.30371-.39844.53174,0,.4751.66504.58887,1.72852.58887,2.96387,0,4.55957,1.29199,4.55957,3.11572,0,2.01367-2.0332,3.11523-4.25586,3.11523s-4.25488-1.10156-4.25488-3.11523c0-1.02588.53125-1.67188,1.19629-2.08984-.5127-.32275-.85449-.75977-.85449-1.27295,0-.68359.55078-1.17773,1.12109-1.44336-.89355-.646-1.46289-1.65283-1.46289-2.83057,0-2.10889,1.74707-3.60986,4.00781-3.60986.72266,0,1.38672.15234,1.95703.41797l2.56445-.22803v1.76709ZM291.84961,110.58274c0-1.14014-.96973-1.95703-2.14746-1.95703-1.1582,0-2.12695.81689-2.12695,1.95703,0,1.12061.96875,1.9375,2.12695,1.9375,1.17773,0,2.14746-.81689,2.14746-1.9375ZM289.0752,116.75656c-.11328,0-.24609,0-.37988-.01904-.5127.24707-1.12012.79785-1.12012,1.44385,0,.94971.94922,1.50098,2.37402,1.50098s2.375-.4751,2.375-1.4248c0-1.10205-1.27246-1.50098-3.24902-1.50098Z"/>
        <path class="st10" d="M298.8418,116.77561h-1.97559v-14.24805h1.97559v14.24805Z"/>
        <path class="st10" d="M311.02051,112.57736h-7.63672c.05664,1.48145,1.15918,2.62158,3.00098,2.62158,1.3877,0,2.26074-.75977,2.66016-1.50098l1.72852.18994c-.32324,1.33008-1.82324,3.07764-4.40723,3.07764-2.92578,0-4.95801-2.18457-4.95801-5.05322,0-2.67871,1.91895-4.93945,4.80566-4.93945,2.96387,0,4.80664,2.375,4.80664,5.11035v.49414ZM303.38379,111.19065h5.6416c-.0752-1.29199-1.13965-2.45068-2.81152-2.45068-1.61426,0-2.75391,1.10156-2.83008,2.45068Z"/>
        <path class="st10" d="M328.34766,105.16818h-3.24902v11.60742h-1.97559v-11.60742h-3.24805v-1.88037h8.47266v1.88037Z"/>
        <path class="st10" d="M338.51172,112.57736h-7.63672c.05664,1.48145,1.15918,2.62158,3.00195,2.62158,1.38672,0,2.25977-.75977,2.65918-1.50098l1.72852.18994c-.32324,1.33008-1.82324,3.07764-4.40723,3.07764-2.92578,0-4.95801-2.18457-4.95801-5.05322,0-2.67871,1.91895-4.93945,4.80566-4.93945,2.96387,0,4.80664,2.375,4.80664,5.11035v.49414ZM330.875,111.19065h5.6416c-.0752-1.29199-1.13965-2.45068-2.81152-2.45068-1.61426,0-2.75391,1.10156-2.83008,2.45068Z"/>
        <path class="st10" d="M346.30273,107.39084l-.30371,1.729c-.19043-.11426-.57031-.26611-.98828-.26611-1.36719,0-2.03223,1.46289-2.03223,3.38135v4.54053h-1.97559v-9.61279h1.86133l.09473,1.12109c.6084-.77881,1.33008-1.31104,2.16602-1.31104.57031,0,.96875.22803,1.17773.41797Z"/>
        <path class="st10" d="M353.82715,107.39084l-.30371,1.729c-.19043-.11426-.57031-.26611-.98828-.26611-1.36719,0-2.03223,1.46289-2.03223,3.38135v4.54053h-1.97559v-9.61279h1.86133l.09473,1.12109c.6084-.77881,1.33008-1.31104,2.16602-1.31104.57031,0,.96875.22803,1.17773.41797Z"/>
        <path class="st10" d="M355.99414,104.6174c0-.58887.47461-1.06396,1.06348-1.06396s1.06348.4751,1.06348,1.06396-.47461,1.06396-1.06348,1.06396-1.06348-.4751-1.06348-1.06396ZM358.04492,116.77561h-1.97559v-9.61279h1.97559v9.61279Z"/>
        <path class="st10" d="M365.77734,109.04367h-2.05176v7.73193h-1.99512v-7.73193h-1.4248v-1.88086h1.4248v-2.84961h1.99512v2.84961h2.05176v1.88086Z"/>
        <path class="st10" d="M367.41309,111.96945c0-2.75488,2.16504-4.99658,5.14844-4.99658,2.94434,0,5.09082,2.2417,5.09082,4.99658,0,2.75439-2.14648,4.99609-5.09082,4.99609-2.9834,0-5.14844-2.2417-5.14844-4.99609ZM375.67676,111.96945c0-1.70996-1.33008-3.11572-3.11523-3.11572-1.82422,0-3.17285,1.40576-3.17285,3.11572,0,1.70947,1.34863,3.11523,3.17285,3.11523,1.78516,0,3.11523-1.40576,3.11523-3.11523Z"/>
        <path class="st10" d="M385.44336,107.39084l-.30371,1.729c-.19043-.11426-.57031-.26611-.98828-.26611-1.36719,0-2.03223,1.46289-2.03223,3.38135v4.54053h-1.97559v-9.61279h1.86133l.09473,1.12109c.6084-.77881,1.33008-1.31104,2.16602-1.31104.57031,0,.96875.22803,1.17773.41797Z"/>
        <path class="st10" d="M389.37695,107.16281l3.07715,7.14307,3.02051-7.14307h2.12793l-6.00293,13.98193h-2.08984l1.88086-4.38818-4.1416-9.59375h2.12793Z"/>
      </g>
      <g>
        <rect class="st0" x="170.52875" y="285.61275" width="128.13564" height="19.52376"/>
        <path class="st10" d="M174.38525,295.94895c.09521,1.52002,1.23486,2.22266,2.46973,2.22266,1.40576,0,2.20361-.72168,2.20361-1.69043,0-1.23486-1.15869-1.84277-2.73584-2.65967-2.52637-1.4248-3.62842-2.35596-3.62842-4.25537,0-1.99463,1.729-3.38184,3.91357-3.38184,2.33643,0,3.89453,1.74805,3.97021,3.91357h-1.97559c-.07568-1.23486-.87402-2.03271-1.99463-2.03271-1.06396,0-1.9375.62695-1.9375,1.57666,0,1.21582.93066,1.65283,2.35547,2.39404,2.45068,1.2915,4.02734,2.43164,4.02734,4.521,0,2.20361-1.86182,3.49561-4.19824,3.49561-2.65967,0-4.36963-1.88086-4.44531-4.10352h1.97559Z"/>
        <path class="st10" d="M191.56055,304.23166v-6.36377c-.55127,1.23486-1.91895,2.18457-3.64746,2.18457-2.75488,0-4.8252-2.2417-4.8252-4.99609,0-2.75488,2.07031-4.99658,4.8252-4.99658,1.72852,0,3.09619.9502,3.64746,2.16602l.11377-1.97607h1.88086v13.98193h-1.99463ZM188.23584,291.94065c-1.82373,0-3.17236,1.40576-3.17236,3.11572,0,1.70947,1.34863,3.11523,3.17236,3.11523,1.78564,0,3.11572-1.40576,3.11572-3.11523,0-1.70996-1.33008-3.11572-3.11572-3.11572Z"/>
        <path class="st10" d="M205.62061,290.24973v9.61279h-1.86182l-.09521-1.53857c-.91162.96875-2.14648,1.72852-3.70459,1.72852-2.26025,0-3.5332-1.48193-3.5332-4.16016v-5.64258h1.97559v4.76855c0,2.31738.93115,3.15332,2.31787,3.15332,1.97559,0,2.92529-1.63379,2.92529-3.13428v-4.7876h1.97607Z"/>
        <path class="st10" d="M212.72705,290.05979c1.72852,0,3.09619.9502,3.64746,2.16602l.11377-1.97607h1.88086v9.61279h-1.88086l-.11377-1.99463c-.55127,1.23486-1.91895,2.18457-3.64746,2.18457-2.75488,0-4.8252-2.2417-4.8252-4.99609,0-2.75488,2.07031-4.99658,4.8252-4.99658ZM213.0498,298.1716c1.78564,0,3.11572-1.40576,3.11572-3.11523,0-1.70996-1.33008-3.11572-3.11572-3.11572-1.82373,0-3.17236,1.40576-3.17236,3.11572,0,1.70947,1.34863,3.11523,3.17236,3.11523Z"/>
        <path class="st10" d="M226.61572,290.47776l-.30371,1.729c-.18994-.11426-.56982-.26611-.98779-.26611-1.36768,0-2.03271,1.46289-2.03271,3.38135v4.54053h-1.97559v-9.61279h1.86133l.09521,1.12109c.60791-.77881,1.32959-1.31104,2.16553-1.31104.56982,0,.96875.22803,1.17773.41797Z"/>
        <path class="st10" d="M237.50195,295.66428h-7.63672c.05713,1.48145,1.15869,2.62158,3.00146,2.62158,1.38672,0,2.26025-.75977,2.65967-1.50098l1.72852.18994c-.32324,1.33008-1.82324,3.07764-4.40723,3.07764-2.92529,0-4.95801-2.18457-4.95801-5.05322,0-2.67871,1.91846-4.93945,4.80615-4.93945,2.96338,0,4.80615,2.375,4.80615,5.11035v.49414ZM229.86523,294.27756h5.6416c-.0752-1.29199-1.13916-2.45068-2.81104-2.45068-1.61475,0-2.75488,1.10156-2.83057,2.45068Z"/>
        <path class="st10" d="M248.88477,295.94895c.09473,1.52002,1.23438,2.22266,2.46973,2.22266,1.40527,0,2.20312-.72168,2.20312-1.69043,0-1.23486-1.1582-1.84277-2.73535-2.65967-2.52637-1.4248-3.62793-2.35596-3.62793-4.25537,0-1.99463,1.72852-3.38184,3.91309-3.38184,2.33691,0,3.89453,1.74805,3.9707,3.91357h-1.97559c-.07617-1.23486-.87402-2.03271-1.99512-2.03271-1.06348,0-1.9375.62695-1.9375,1.57666,0,1.21582.93066,1.65283,2.35547,2.39404,2.4502,1.2915,4.02734,2.43164,4.02734,4.521,0,2.20361-1.86133,3.49561-4.19824,3.49561-2.66016,0-4.36914-1.88086-4.44531-4.10352h1.97559Z"/>
        <path class="st10" d="M262.9248,292.13059h-2.05176v7.73193h-1.99512v-7.73193h-1.4248v-1.88086h1.4248v-2.84961h1.99512v2.84961h2.05176v1.88086Z"/>
        <path class="st10" d="M269.38379,290.05979c1.72852,0,3.09668.9502,3.64746,2.16602l.11426-1.97607h1.87988v9.61279h-1.87988l-.11426-1.99463c-.55078,1.23486-1.91895,2.18457-3.64746,2.18457-2.75488,0-4.8252-2.2417-4.8252-4.99609,0-2.75488,2.07031-4.99658,4.8252-4.99658ZM269.70703,298.1716c1.78516,0,3.11523-1.40576,3.11523-3.11523,0-1.70996-1.33008-3.11572-3.11523-3.11572-1.82422,0-3.17285,1.40576-3.17285,3.11572,0,1.70947,1.34863,3.11523,3.17285,3.11523Z"/>
        <path class="st10" d="M282.9873,292.13059h-2.05176v7.73193h-1.99512v-7.73193h-1.4248v-1.88086h1.4248v-2.84961h1.99512v2.84961h2.05176v1.88086Z"/>
        <path class="st10" d="M294.23535,295.66428h-7.63672c.05664,1.48145,1.15918,2.62158,3.00195,2.62158,1.38672,0,2.25977-.75977,2.65918-1.50098l1.72852.18994c-.32324,1.33008-1.82324,3.07764-4.40723,3.07764-2.92578,0-4.95801-2.18457-4.95801-5.05322,0-2.67871,1.91895-4.93945,4.80566-4.93945,2.96387,0,4.80664,2.375,4.80664,5.11035v.49414ZM286.59863,294.27756h5.6416c-.0752-1.29199-1.13965-2.45068-2.81152-2.45068-1.61426,0-2.75391,1.10156-2.83008,2.45068Z"/>
      </g>
    </g>
  </g>
</svg>