<?xml version="1.0" encoding="UTF-8"?>
<svg xmlns="http://www.w3.org/2000/svg" width="560" height="298.15587" xmlns:xlink="http://www.w3.org/1999/xlink" version="1.1" viewBox="0 0 560 298.15587">
  <!-- Generator: Adobe Illustrator 29.2.1, SVG Export Plug-In . SVG Version: 2.1.0 Build 116)  -->
  <defs>
    <style>
      .st0, .st1, .st2, .st3, .st4, .st5, .st6, .st7, .st8, .st9, .st10, .st11, .st12 {
        fill: none;
      }

      .st13 {
        stroke: #fcf7f2;
        stroke-width: 2px;
      }

      .st13, .st1, .st2, .st3, .st4, .st5, .st6, .st7, .st8, .st9, .st10, .st11, .st12 {
        stroke-miterlimit: 10;
      }

      .st13, .st14 {
        fill: #f0b43c;
      }

      .st15 {
        fill: #f3f4f5;
      }

      .st16 {
        mix-blend-mode: color;
      }

      .st16, .st17, .st18 {
        fill: #221a3e;
      }

      .st19 {
        fill: #8f8f8f;
      }

      .st20 {
        fill: #090028;
      }

      .st21 {
        fill: #44425d;
      }

      .st22 {
        fill: #231f20;
        fill-opacity: .25;
      }

      .st23 {
        fill: #33c5ff;
      }

      .st1, .st2 {
        stroke: #5f6668;
      }

      .st1, .st2, .st3, .st4, .st6, .st8, .st10, .st11, .st12 {
        stroke-linecap: round;
      }

      .st1, .st5, .st11 {
        stroke-width: 1.5px;
      }

      .st24 {
        isolation: isolate;
      }

      .st2, .st8 {
        stroke-width: 2.2px;
      }

      .st3 {
        stroke-dasharray: 7.99623 7.99623;
      }

      .st3, .st4, .st10, .st12 {
        stroke: #dbe3e6;
        stroke-width: 3px;
      }

      .st25 {
        fill: #ff4930;
      }

      .st26 {
        clip-path: url(#clippath-17);
      }

      .st27 {
        clip-path: url(#clippath-19);
      }

      .st28 {
        clip-path: url(#clippath-11);
      }

      .st29 {
        clip-path: url(#clippath-16);
      }

      .st30 {
        clip-path: url(#clippath-18);
      }

      .st31 {
        clip-path: url(#clippath-10);
      }

      .st32 {
        clip-path: url(#clippath-15);
      }

      .st33 {
        clip-path: url(#clippath-13);
      }

      .st34 {
        clip-path: url(#clippath-14);
      }

      .st35 {
        clip-path: url(#clippath-12);
      }

      .st36 {
        clip-path: url(#clippath-20);
      }

      .st37 {
        clip-path: url(#clippath-21);
      }

      .st38 {
        clip-path: url(#clippath-3);
      }

      .st39 {
        clip-path: url(#clippath-4);
      }

      .st40 {
        clip-path: url(#clippath-2);
      }

      .st41 {
        clip-path: url(#clippath-7);
      }

      .st42 {
        clip-path: url(#clippath-6);
      }

      .st43 {
        clip-path: url(#clippath-9);
      }

      .st44 {
        clip-path: url(#clippath-8);
      }

      .st45 {
        clip-path: url(#clippath-5);
      }

      .st4 {
        stroke-dasharray: 8.21896 8.21896;
      }

      .st5 {
        stroke: #50416d;
      }

      .st6 {
        stroke: #5e6669;
        stroke-width: 4px;
      }

      .st7 {
        stroke: #fff;
        stroke-width: .65px;
      }

      .st46 {
        fill: #f1b43c;
      }

      .st47 {
        fill: #fff;
      }

      .st8, .st11 {
        stroke: #313b3f;
      }

      .st48 {
        fill: #dbe3e6;
      }

      .st9 {
        stroke: #f3f4f5;
      }

      .st49 {
        fill: #a9b6bb;
      }

      .st10 {
        stroke-dasharray: 7.53603 7.53603;
      }

      .st50 {
        opacity: .75;
      }

      .st51 {
        mix-blend-mode: overlay;
        opacity: .15;
      }

      .st18 {
        fill-opacity: .88;
      }
    </style>
    <clipPath id="clippath-2">
      <rect class="st0" x="433.47136" y="154.12681" width="100.71814" height="100.60765"/>
    </clipPath>
    <clipPath id="clippath-3">
      <rect class="st0" x="433.47136" y="154.12681" width="100.71814" height="100.60765"/>
    </clipPath>
    <clipPath id="clippath-4">
      <rect class="st0" x="238.53289" y="154.12681" width="100.71814" height="100.60765"/>
    </clipPath>
    <clipPath id="clippath-5">
      <rect class="st0" x="238.53289" y="154.12681" width="100.71814" height="100.60765"/>
    </clipPath>
    <clipPath id="clippath-6">
      <rect class="st0" x="48.46788" y="154.12681" width="100.71814" height="100.60765"/>
    </clipPath>
    <clipPath id="clippath-7">
      <rect class="st0" x="48.46788" y="154.12681" width="100.71814" height="100.60765"/>
    </clipPath>
    <clipPath id="clippath-8">
      <path class="st0" d="M104.46927,86.33282l-1.9503-3.20632c3.20877-1.95213,5.12357-5.35644,5.12231-9.10707-.00125-3.73964-1.90977-7.13748-5.10518-9.08961l1.95671-3.20274c4.31991,2.63897,6.89985,7.23385,6.90154,12.2911.00169,5.07221-2.58709,9.67585-6.92509,12.31465Z"/>
    </clipPath>
    <clipPath id="clippath-9">
      <path class="st0" d="M276.06108,44.8827l-.98696-1.62258c1.62381-.98789,2.59281-2.71066,2.59218-4.60869-.00063-1.89246-.96645-3.61196-2.5835-4.59985l.99021-1.62077c2.18612,1.33546,3.49171,3.66073,3.49256,6.21998.00086,2.56682-1.30921,4.89652-3.50448,6.2319Z"/>
    </clipPath>
    <clipPath id="clippath-10">
      <path class="st0" d="M276.06108,79.66149l-.98696-1.62258c1.62381-.98789,2.59281-2.71066,2.59218-4.60869-.00063-1.89246-.96645-3.61196-2.5835-4.59985l.99021-1.62077c2.18612,1.33546,3.49171,3.66073,3.49256,6.21998.00086,2.56682-1.30921,4.89652-3.50448,6.2319Z"/>
    </clipPath>
    <clipPath id="clippath-11">
      <path class="st0" d="M325.23874,79.66149l-.98696-1.62258c1.62381-.98789,2.59281-2.71066,2.59218-4.60869-.00063-1.89246-.96645-3.61196-2.5835-4.59985l.99021-1.62077c2.18612,1.33546,3.49171,3.66073,3.49256,6.21998.00086,2.56682-1.30921,4.89652-3.50448,6.2319Z"/>
    </clipPath>
    <clipPath id="clippath-12">
      <path class="st0" d="M276.06108,113.99725l-.98696-1.62258c1.62381-.98789,2.59281-2.71066,2.59218-4.60869-.00063-1.89246-.96645-3.61196-2.5835-4.59985l.99021-1.62077c2.18612,1.33546,3.49171,3.66073,3.49256,6.21998.00086,2.56682-1.30921,4.89652-3.50448,6.2319Z"/>
    </clipPath>
    <clipPath id="clippath-13">
      <path class="st0" d="M436.64014,53.99819l-.66936-1.10044c1.10128-.66999,1.75846-1.83838,1.75803-3.12564-.00043-1.28348-.65545-2.44965-1.75215-3.11964l.67156-1.09921c1.48264.90572,2.3681,2.48273,2.36868,4.21843.00058,1.74083-.88791,3.32085-2.37676,4.22651Z"/>
    </clipPath>
    <clipPath id="clippath-14">
      <path class="st0" d="M436.64014,77.43514l-.66936-1.10044c1.10128-.66999,1.75846-1.83838,1.75803-3.12564-.00043-1.28348-.65545-2.44965-1.75215-3.11964l.67156-1.09921c1.48264.90572,2.3681,2.48273,2.36868,4.21843.00058,1.74083-.88791,3.32085-2.37676,4.22651Z"/>
    </clipPath>
    <clipPath id="clippath-15">
      <path class="st0" d="M436.64014,100.87209l-.66936-1.10044c1.10128-.66999,1.75846-1.83838,1.75803-3.12564-.00043-1.28348-.65545-2.44965-1.75215-3.11964l.67156-1.09921c1.48264.90572,2.3681,2.48273,2.36868,4.21843.00058,1.74083-.88791,3.32085-2.37676,4.22651Z"/>
    </clipPath>
    <clipPath id="clippath-16">
      <path class="st0" d="M470.02729,53.99819l-.66936-1.10044c1.10128-.66999,1.75846-1.83838,1.75803-3.12564-.00043-1.28348-.65545-2.44965-1.75215-3.11964l.67156-1.09921c1.48264.90572,2.3681,2.48273,2.36868,4.21843.00058,1.74083-.88791,3.32085-2.37676,4.22651Z"/>
    </clipPath>
    <clipPath id="clippath-17">
      <path class="st0" d="M470.02729,77.43514l-.66936-1.10044c1.10128-.66999,1.75846-1.83838,1.75803-3.12564-.00043-1.28348-.65545-2.44965-1.75215-3.11964l.67156-1.09921c1.48264.90572,2.3681,2.48273,2.36868,4.21843.00058,1.74083-.88791,3.32085-2.37676,4.22651Z"/>
    </clipPath>
    <clipPath id="clippath-18">
      <path class="st0" d="M536.54915,77.43514l-.66936-1.10044c1.10128-.66999,1.75846-1.83838,1.75803-3.12564-.00043-1.28348-.65545-2.44965-1.75215-3.11964l.67156-1.09921c1.48264.90572,2.3681,2.48273,2.36868,4.21843.00058,1.74083-.88791,3.32085-2.37676,4.22651Z"/>
    </clipPath>
    <clipPath id="clippath-19">
      <path class="st0" d="M470.02729,100.87209l-.66936-1.10044c1.10128-.66999,1.75846-1.83838,1.75803-3.12564-.00043-1.28348-.65545-2.44965-1.75215-3.11964l.67156-1.09921c1.48264.90572,2.3681,2.48273,2.36868,4.21843.00058,1.74083-.88791,3.32085-2.37676,4.22651Z"/>
    </clipPath>
    <clipPath id="clippath-20">
      <path class="st0" d="M503.65107,65.71666l-.66936-1.10044c1.10128-.66999,1.75846-1.83838,1.75803-3.12564-.00043-1.28348-.65545-2.44965-1.75215-3.11964l.67156-1.09921c1.48264.90572,2.3681,2.48273,2.36868,4.21843.00058,1.74083-.88791,3.32085-2.37676,4.22651Z"/>
    </clipPath>
    <clipPath id="clippath-21">
      <path class="st0" d="M503.65107,89.15361l-.66936-1.10044c1.10128-.66999,1.75846-1.83838,1.75803-3.12564-.00043-1.28348-.65545-2.44965-1.75215-3.11964l.67156-1.09921c1.48264.90572,2.3681,2.48273,2.36868,4.21843.00058,1.74083-.88791,3.32085-2.37676,4.22651Z"/>
    </clipPath>
  </defs>
  <g class="st24">
    <g id="Layer_4">
      <path class="st17" d="M367.07482,283.22205V14.85406c0-7.454-5.52299-13.49666-12.33595-13.49666h-149.4436c-6.81296,0-12.33595,6.04266-12.33595,13.49666v268.36799c0,7.454,5.52299,13.49666,12.33595,13.49666h149.4436c6.81296,0,12.33595-6.04266,12.33595-13.49666Z"/>
      <path class="st17" d="M174.95917,283.22205V14.85406c0-7.454-5.52299-13.49666-12.33595-13.49666H13.17962C6.36666,1.35739.84367,7.40005.84367,14.85406v268.36799c0,7.454,5.52299,13.49666,12.33595,13.49666h149.4436c6.81296,0,12.33595-6.04266,12.33595-13.49666Z"/>
      <path class="st17" d="M559.19048,283.22205V14.85406c0-7.454-5.52299-13.49666-12.33595-13.49666h-149.4436c-6.81296,0-12.33595,6.04266-12.33595,13.49666v268.36799c0,7.454,5.52299,13.49666,12.33595,13.49666h149.4436c6.81296,0,12.33595-6.04266,12.33595-13.49666Z"/>
    </g>
    <g id="Layer_1">
      <g>
        <rect class="st0" x="206.92389" y="149.74655" width="12.31755" height="66.96658"/>
        <path class="st23" d="M207.52441,200.50751v-1.56055h10.64941v1.56055h-10.64941Z"/>
        <path class="st23" d="M213.71924,189.66279h4.45459v1.55957h-3.76465c-1.83008,0-2.49023.73535-2.49023,1.83008,0,1.48535,1.16992,2.23535,2.29492,2.31055h3.95996v1.55957h-7.58984v-1.46973l1.21533-.0752c-.76514-.71973-1.36523-1.69531-1.36523-2.9248,0-1.78516,1.16992-2.79004,3.28516-2.79004Z"/>
        <path class="st23" d="M210.58398,187.69697v-1.46973l1.56006-.08984c-.95996-.4502-1.70996-1.53027-1.70996-2.89551,0-2.1748,1.77002-3.80957,3.94482-3.80957s3.94482,1.63477,3.94482,3.80957c0,1.36523-.75,2.44531-1.72461,2.89551h5.02441v1.55957h-11.03955ZM216.83887,183.49677c0-1.4248-1.10986-2.48926-2.45996-2.48926s-2.45996,1.06445-2.45996,2.48926,1.10986,2.45996,2.45996,2.45996,2.45996-1.03516,2.45996-2.45996Z"/>
        <path class="st23" d="M210.58398,170.65693h7.58984v1.4707l-1.21484.07422c.76465.7207,1.36475,1.69531,1.36475,2.92578,0,1.78418-1.16992,2.78906-3.28467,2.78906h-4.45508v-1.55957h3.76514c1.82959,0,2.48975-.73535,2.48975-1.83008,0-1.55957-1.29004-2.30957-2.4751-2.30957h-3.77979v-1.56055Z"/>
        <path class="st23" d="M212.06885,164.67158v1.62012h6.10498v1.5752h-6.10498v1.125h-1.48486v-1.125h-2.25v-1.5752h2.25v-1.62012h1.48486Z"/>
        <path class="st23" d="M216.68896,156.67743v-5.87988h1.48486v7.48438h-1.48486c-3.19482,0-3.41992-5.90918-6.01465-5.90918-1.05029,0-1.81494.79492-1.81494,1.97949,0,1.39551.82471,2.37012,1.96484,2.37012v1.55957c-1.91992,0-3.4502-1.66406-3.4502-3.94434,0-2.00977,1.32031-3.54004,3.34521-3.54004,3.65967,0,3.8999,5.87988,5.96973,5.87988Z"/>
      </g>
      <g>
        <rect class="st0" x="278.29603" y="278.08462" width="66.96658" height="12.31755"/>
        <path class="st25" d="M296.24707,278.68622h1.55957v10.64941h-1.55957v-10.64941Z"/>
        <path class="st25" d="M307.0918,284.88154v4.4541h-1.56055v-3.76465c0-1.83008-.73438-2.49023-1.83008-2.49023-1.48438,0-2.23438,1.16992-2.30957,2.29492v3.95996h-1.55957v-7.58984h1.46973l.0752,1.21582c.71973-.76562,1.69531-1.36523,2.9248-1.36523,1.78418,0,2.79004,1.16992,2.79004,3.28516Z"/>
        <path class="st25" d="M309.05762,281.74579h1.46973l.08984,1.56055c.4502-.95996,1.53027-1.70996,2.89453-1.70996,2.17578,0,3.81055,1.76953,3.81055,3.94434s-1.63477,3.94531-3.81055,3.94531c-1.36426,0-2.44434-.75-2.89453-1.72461v5.02441h-1.55957v-11.04004ZM313.25781,288.00068c1.42383,0,2.48926-1.10938,2.48926-2.45996,0-1.34961-1.06543-2.45996-2.48926-2.45996-1.42578,0-2.46094,1.11035-2.46094,2.45996,0,1.35059,1.03516,2.45996,2.46094,2.45996Z"/>
        <path class="st25" d="M326.09766,281.74579v7.58984h-1.4707l-.07422-1.21484c-.7207.76465-1.69531,1.36523-2.92578,1.36523-1.78516,0-2.78906-1.16992-2.78906-3.28516v-4.45508h1.55957v3.76562c0,1.8291.73535,2.48926,1.8291,2.48926,1.56055,0,2.31055-1.29004,2.31055-2.47461v-3.78027h1.56055Z"/>
        <path class="st25" d="M332.08203,283.23115h-1.61914v6.10449h-1.5752v-6.10449h-1.125v-1.48535h1.125v-2.24902h1.5752v2.24902h1.61914v1.48535Z"/>
        <path class="st25" d="M344.5166,287.85126v1.48438h-6.35938v-1.48438h2.39941v-7.24512l-2.07031.46484v-1.54492l3.64551-.83984v9.16504h2.38477Z"/>
      </g>
      <g>
        <rect class="st0" x="399.86867" y="149.74655" width="12.31755" height="66.96658"/>
        <path class="st23" d="M400.46875,200.50751v-1.56055h10.64941v1.56055h-10.64941Z"/>
        <path class="st23" d="M406.66309,189.66279h4.45508v1.55957h-3.76465c-1.83008,0-2.49023.73535-2.49023,1.83008,0,1.48535,1.16992,2.23535,2.29492,2.31055h3.95996v1.55957h-7.58984v-1.46973l1.21484-.0752c-.76465-.71973-1.36523-1.69531-1.36523-2.9248,0-1.78516,1.16992-2.79004,3.28516-2.79004Z"/>
        <path class="st23" d="M403.52832,187.69697v-1.46973l1.55957-.08984c-.95996-.4502-1.70996-1.53027-1.70996-2.89551,0-2.1748,1.77051-3.80957,3.94531-3.80957s3.94434,1.63477,3.94434,3.80957c0,1.36523-.75,2.44531-1.72461,2.89551h5.02441v1.55957h-11.03906ZM409.7832,183.49677c0-1.4248-1.11035-2.48926-2.45996-2.48926-1.35059,0-2.45996,1.06445-2.45996,2.48926s1.10938,2.45996,2.45996,2.45996c1.34961,0,2.45996-1.03516,2.45996-2.45996Z"/>
        <path class="st23" d="M403.52832,170.65693h7.58984v1.4707l-1.21484.07422c.76465.7207,1.36426,1.69531,1.36426,2.92578,0,1.78418-1.16992,2.78906-3.28418,2.78906h-4.45508v-1.55957h3.76465c1.83008,0,2.49023-.73535,2.49023-1.83008,0-1.55957-1.29004-2.30957-2.47559-2.30957h-3.7793v-1.56055Z"/>
        <path class="st23" d="M405.0127,164.67158v1.62012h6.10547v1.5752h-6.10547v1.125h-1.48438v-1.125h-2.25v-1.5752h2.25v-1.62012h1.48438Z"/>
        <path class="st23" d="M409.63281,156.67743v-5.87988h1.48535v7.48438h-1.48535c-3.19434,0-3.41992-5.90918-6.01465-5.90918-1.0498,0-1.81445.79492-1.81445,1.97949,0,1.39551.82422,2.37012,1.96484,2.37012v1.55957c-1.91992,0-3.4502-1.66406-3.4502-3.94434,0-2.00977,1.32031-3.54004,3.34473-3.54004,3.66016,0,3.90039,5.87988,5.96973,5.87988Z"/>
      </g>
      <g>
        <rect class="st0" x="472.08525" y="278.08462" width="66.96658" height="12.31755"/>
        <path class="st25" d="M490.03418,278.68622h1.55957v10.64941h-1.55957v-10.64941Z"/>
        <path class="st25" d="M500.87891,284.88154v4.4541h-1.56055v-3.76465c0-1.83008-.73438-2.49023-1.83008-2.49023-1.48438,0-2.23438,1.16992-2.30957,2.29492v3.95996h-1.55957v-7.58984h1.46973l.0752,1.21582c.71973-.76562,1.69531-1.36523,2.9248-1.36523,1.78418,0,2.79004,1.16992,2.79004,3.28516Z"/>
        <path class="st25" d="M502.84473,281.74579h1.46973l.08984,1.56055c.4502-.95996,1.53027-1.70996,2.89453-1.70996,2.17578,0,3.81055,1.76953,3.81055,3.94434s-1.63477,3.94531-3.81055,3.94531c-1.36426,0-2.44434-.75-2.89453-1.72461v5.02441h-1.55957v-11.04004ZM507.04492,288.00068c1.42383,0,2.48926-1.10938,2.48926-2.45996,0-1.34961-1.06543-2.45996-2.48926-2.45996-1.42578,0-2.46094,1.11035-2.46094,2.45996,0,1.35059,1.03516,2.45996,2.46094,2.45996Z"/>
        <path class="st25" d="M519.88477,281.74579v7.58984h-1.4707l-.07422-1.21484c-.7207.76465-1.69531,1.36523-2.92578,1.36523-1.78516,0-2.78906-1.16992-2.78906-3.28516v-4.45508h1.55957v3.76562c0,1.8291.73535,2.48926,1.8291,2.48926,1.56055,0,2.31055-1.29004,2.31055-2.47461v-3.78027h1.56055Z"/>
        <path class="st25" d="M525.86914,283.23115h-1.61914v6.10449h-1.5752v-6.10449h-1.125v-1.48535h1.125v-2.24902h1.5752v2.24902h1.61914v1.48535Z"/>
        <path class="st25" d="M538.30371,287.85126v1.48438h-6.35938v-1.48438h2.39941v-7.24512l-2.07031.46484v-1.54492l3.64551-.83984v9.16504h2.38477Z"/>
      </g>
      <g>
        <rect class="st0" x="14.23665" y="149.74655" width="12.31755" height="66.96658"/>
        <path class="st23" d="M14.83691,200.50751v-1.56055h10.64941v1.56055h-10.64941Z"/>
        <path class="st23" d="M21.03174,189.66279h4.45459v1.55957h-3.76465c-1.83008,0-2.49023.73535-2.49023,1.83008,0,1.48535,1.16992,2.23535,2.29492,2.31055h3.95996v1.55957h-7.58984v-1.46973l1.21533-.0752c-.76514-.71973-1.36523-1.69531-1.36523-2.9248,0-1.78516,1.16992-2.79004,3.28516-2.79004Z"/>
        <path class="st23" d="M17.89648,187.69697v-1.46973l1.56006-.08984c-.95996-.4502-1.70996-1.53027-1.70996-2.89551,0-2.1748,1.77002-3.80957,3.94482-3.80957s3.94482,1.63477,3.94482,3.80957c0,1.36523-.75,2.44531-1.72461,2.89551h5.02441v1.55957h-11.03955ZM24.15137,183.49677c0-1.4248-1.10986-2.48926-2.45996-2.48926s-2.45996,1.06445-2.45996,2.48926,1.10986,2.45996,2.45996,2.45996,2.45996-1.03516,2.45996-2.45996Z"/>
        <path class="st23" d="M17.89648,170.65693h7.58984v1.4707l-1.21484.07422c.76465.7207,1.36475,1.69531,1.36475,2.92578,0,1.78418-1.16992,2.78906-3.28467,2.78906h-4.45508v-1.55957h3.76514c1.82959,0,2.48975-.73535,2.48975-1.83008,0-1.55957-1.29004-2.30957-2.4751-2.30957h-3.77979v-1.56055Z"/>
        <path class="st23" d="M19.38135,164.67158v1.62012h6.10498v1.5752h-6.10498v1.125h-1.48486v-1.125h-2.25v-1.5752h2.25v-1.62012h1.48486Z"/>
        <path class="st23" d="M24.00146,156.67743v-5.87988h1.48486v7.48438h-1.48486c-3.19482,0-3.41992-5.90918-6.01465-5.90918-1.05029,0-1.81494.79492-1.81494,1.97949,0,1.39551.82471,2.37012,1.96484,2.37012v1.55957c-1.91992,0-3.4502-1.66406-3.4502-3.94434,0-2.00977,1.32031-3.54004,3.34521-3.54004,3.65967,0,3.8999,5.87988,5.96973,5.87988Z"/>
      </g>
      <g>
        <rect class="st0" x="88.36877" y="278.08462" width="66.96658" height="12.31755"/>
        <path class="st25" d="M106.32129,278.68622h1.56006v10.64941h-1.56006v-10.64941Z"/>
        <path class="st25" d="M117.16602,284.88154v4.4541h-1.56006v-3.76465c0-1.83008-.73486-2.49023-1.83008-2.49023-1.48486,0-2.23486,1.16992-2.31006,2.29492v3.95996h-1.55957v-7.58984h1.46973l.0752,1.21582c.71973-.76562,1.69482-1.36523,2.9248-1.36523,1.78467,0,2.79004,1.16992,2.79004,3.28516Z"/>
        <path class="st25" d="M119.13184,281.74579h1.46973l.08984,1.56055c.4502-.95996,1.53027-1.70996,2.89502-1.70996,2.1748,0,3.81006,1.76953,3.81006,3.94434s-1.63525,3.94531-3.81006,3.94531c-1.36475,0-2.44482-.75-2.89502-1.72461v5.02441h-1.55957v-11.04004ZM123.33154,288.00068c1.4248,0,2.48975-1.10938,2.48975-2.45996,0-1.34961-1.06494-2.45996-2.48975-2.45996s-2.45996,1.11035-2.45996,2.45996c0,1.35059,1.03516,2.45996,2.45996,2.45996Z"/>
        <path class="st25" d="M136.17139,281.74579v7.58984h-1.47021l-.07471-1.21484c-.72021.76465-1.69531,1.36523-2.92529,1.36523-1.78467,0-2.78955-1.16992-2.78955-3.28516v-4.45508h1.56006v3.76562c0,1.8291.73486,2.48926,1.82959,2.48926,1.56006,0,2.31006-1.29004,2.31006-2.47461v-3.78027h1.56006Z"/>
        <path class="st25" d="M142.15674,283.23115h-1.61963v6.10449h-1.5752v-6.10449h-1.125v-1.48535h1.125v-2.24902h1.5752v2.24902h1.61963v1.48535Z"/>
        <path class="st25" d="M154.59082,287.85126v1.48438h-6.35938v-1.48438h2.3999v-7.24512l-2.07031.46484v-1.54492l3.64502-.83984v9.16504h2.38477Z"/>
      </g>
      <g>
        <g>
          <g>
            <rect class="st15" x="428.9446" y="149.66062" width="109.52081" height="109.52081"/>
            <rect class="st46" x="433.32397" y="154.03999" width="100.76207" height="100.76207"/>
            <g class="st40">
              <path class="st14" d="M522.19004,133.50767c5.12957,2.63844,4.40489,2.51585,4.10867,9.38569-.14637,3.3945.83406,7.64335.40068,11.81986-.38265,3.6876-7.83663,6.63594-8.54724,10.49856-.70244,3.8182-.12844,7.74483-1.24629,11.33807-1.20276,3.86615,3.51894,10.7385,1.72182,13.87115-2.07556,3.61802-7.87106,6.45031-10.90844,8.38515-3.1047,1.97771-8.71873,1.61754-13.01972,1.03857-4.25452-.57272-4.17539-8.91599-7.09814-10.68764-3.44656-2.08917-11.67976,3.02914-14.23577.58419-2.98368-2.85404-5.9446-1.32965-9.25111-2.57278-2.99169-1.12476-2.60339-4.20673-7.14965-2.25264-3.13145,1.34597-1.49846,3.96819-3.43369,7.65765-1.67182,3.18728-3.36248,3.75484-3.26024,7.73975.09146,3.56455-5.82982,8.41084-3.69964,11.94523,1.75406,2.91033,6.10151,4.50889,9.59938,7.00858,3.52993,2.5226,6.37651,5.07722,9.45318,6.43796,3.76372,1.66461,10.5673-4.58825,13.8554-3.10414,3.27545,1.4784.22125,13.16773,3.24563,16.1653,3.60057,3.56865,7.71295,4.12249,8.55939,7.32563,1.18474,4.48335-5.97145,4.53654-7.69445,7.83033-2.93188,5.60474,5.81062,16.64967-.23026,17.46441-5.951.80262-5.86971-12.60955-11.84498-13.2051-5.97682-.5957-6.10288.66909-12.0797.07339-5.9789-.59591-7.04062,10.05659-13.01951,9.46068-5.977-.59572-5.8818-1.55092-11.8588-2.14664-5.98111-.59613-5.38798-6.54712-11.36909-7.14325s-8.05073,5.51955-11.95288.94765c-3.74558-4.38844,5.85326-4.98283,6.42547-10.72393.57228-5.74177-6.65196-6.4618-6.07968-12.20357.57237-5.74267,4.22622-5.37849,4.79859-11.12116.57227-5.74169-.94242-5.89266-.37015-11.63435.57233-5.74228.04982-5.79435.62215-11.53663s.07731-5.79177.64965-11.5342c.57216-5.74057-3.90271-6.18658-3.33055-11.92715.5723-5.74205,8.9768-4.90439,9.54911-10.64644.5725-5.74405,4.41074-5.3615,4.98324-11.10555.57232-5.74223-11.74015-6.9694-11.16783-12.71163.57272-5.74618,4.80402-5.32445,5.37674-11.07062s-5.87243-11.73154-1.49992-15.5035c4.16725-3.5949,9.83986-3.95909,15.31822-3.43289,5.47891.52625,5.14855,3.96576,10.62746,4.49201,5.47906.52627,4.85275,7.04695,10.3318,7.57322,5.47729.5261,5.69039-1.69257,11.16767-1.16647,5.4787.52623,4.82152,7.36825,10.30022,7.89448,5.48061.52641,5.70066-1.76465,11.18127-1.23824,5.47887.52625,5.93355-4.20757,11.41242-3.68132,5.48263.52661,6.35223-6.68506,11.82235-6.04135,5.15476.6066,3.93929,8.93437,8.83722,11.45366Z"/>
            </g>
            <g class="st51">
              <g>
                <line class="st9" x1="444.55354" y1="152.16157" x2="444.55354" y2="255.46775"/>
                <line class="st9" x1="433.31266" y1="152.16157" x2="433.31266" y2="255.46775"/>
                <line class="st9" x1="455.79442" y1="152.16157" x2="455.79442" y2="255.46775"/>
                <line class="st9" x1="467.0353" y1="152.16157" x2="467.0353" y2="255.46775"/>
                <line class="st9" x1="478.27618" y1="152.16157" x2="478.27618" y2="255.46775"/>
                <line class="st9" x1="489.51706" y1="152.16157" x2="489.51706" y2="255.46775"/>
                <line class="st9" x1="500.75794" y1="152.16157" x2="500.75794" y2="255.46775"/>
                <line class="st9" x1="511.99882" y1="152.16157" x2="511.99882" y2="255.46775"/>
                <line class="st9" x1="523.2397" y1="152.16157" x2="523.2397" y2="255.46775"/>
                <line class="st9" x1="534.48058" y1="152.16157" x2="534.48058" y2="255.46775"/>
              </g>
              <g>
                <line class="st9" x1="535.45633" y1="164.61312" x2="432.15016" y2="164.61312"/>
                <line class="st9" x1="535.45633" y1="153.32408" x2="432.15016" y2="153.32408"/>
                <line class="st9" x1="535.45633" y1="175.90216" x2="432.15016" y2="175.90216"/>
                <line class="st9" x1="535.45633" y1="187.1912" x2="432.15016" y2="187.1912"/>
                <line class="st9" x1="535.45633" y1="198.48024" x2="432.15016" y2="198.48024"/>
                <line class="st9" x1="535.45633" y1="209.76928" x2="432.15016" y2="209.76928"/>
                <line class="st9" x1="535.45633" y1="221.05832" x2="432.15016" y2="221.05832"/>
                <line class="st9" x1="535.45633" y1="232.34736" x2="432.15016" y2="232.34736"/>
                <line class="st9" x1="535.45633" y1="243.6364" x2="432.15016" y2="243.6364"/>
                <line class="st9" x1="535.45633" y1="254.92544" x2="432.15016" y2="254.92544"/>
              </g>
            </g>
          </g>
          <g>
            <line class="st7" x1="419.34277" y1="258.72159" x2="419.34277" y2="154.22073"/>
            <polygon class="st47" points="421.04236 155.37991 419.34277 149.03799 417.64319 155.37991 421.04236 155.37991"/>
          </g>
          <g>
            <line class="st7" x1="429.14081" y1="268.36392" x2="534.09113" y2="268.36392"/>
            <polygon class="st47" points="532.93201 270.06363 539.27386 268.36392 532.93201 266.66446 532.93201 270.06363"/>
          </g>
        </g>
        <rect class="st16" x="425.27789" y="147.42424" width="115.09573" height="113.85112"/>
        <rect class="st18" x="426.82853" y="147.42424" width="113.59181" height="113.85112"/>
        <g class="st38">
          <path class="st5" d="M522.19004,133.50767c5.12957,2.63844,4.40489,2.51585,4.10867,9.38569-.14637,3.3945.83406,7.64335.40068,11.81986-.38265,3.6876-7.83663,6.63594-8.54724,10.49856-.70244,3.8182-.12844,7.74483-1.24629,11.33807-1.20276,3.86615,3.51894,10.7385,1.72182,13.87115-2.07556,3.61802-7.87106,6.45031-10.90844,8.38515-3.1047,1.97771-8.71873,1.61754-13.01972,1.03857-4.25452-.57272-4.17539-8.91599-7.09814-10.68764-3.44656-2.08917-11.67976,3.02914-14.23577.58419-2.98368-2.85404-5.9446-1.32965-9.25111-2.57278-2.99169-1.12476-2.60339-4.20673-7.14965-2.25264-3.13145,1.34597-1.49846,3.96819-3.43369,7.65765-1.67182,3.18728-3.36248,3.75484-3.26024,7.73975.09146,3.56455-5.82982,8.41084-3.69964,11.94523,1.75406,2.91033,6.10151,4.50889,9.59938,7.00858,3.52993,2.5226,6.37651,5.07722,9.45318,6.43796,3.76372,1.66461,10.5673-4.58825,13.8554-3.10414,3.27545,1.4784.22125,13.16773,3.24563,16.1653,3.60057,3.56865,7.71295,4.12249,8.55939,7.32563,1.18474,4.48335-5.97145,4.53654-7.69445,7.83033-2.93188,5.60474,5.81062,16.64967-.23026,17.46441-5.951.80262-5.86971-12.60955-11.84498-13.2051-5.97682-.5957-6.10288.66909-12.0797.07339-5.9789-.59591-7.04062,10.05659-13.01951,9.46068-5.977-.59572-5.8818-1.55092-11.8588-2.14664-5.98111-.59613-5.38798-6.54712-11.36909-7.14325s-8.05073,5.51955-11.95288.94765c-3.74558-4.38844,5.85326-4.98283,6.42547-10.72393.57228-5.74177-6.65196-6.4618-6.07968-12.20357.57237-5.74267,4.22622-5.37849,4.79859-11.12116.57227-5.74169-.94242-5.89266-.37015-11.63435.57233-5.74228.04982-5.79435.62215-11.53663s.07731-5.79177.64965-11.5342c.57216-5.74057-3.90271-6.18658-3.33055-11.92715.5723-5.74205,8.9768-4.90439,9.54911-10.64644.5725-5.74405,4.41074-5.3615,4.98324-11.10555.57232-5.74223-11.74015-6.9694-11.16783-12.71163.57272-5.74618,4.80402-5.32445,5.37674-11.07062s-5.87243-11.73154-1.49992-15.5035c4.16725-3.5949,9.83986-3.95909,15.31822-3.43289,5.47891.52625,5.14855,3.96576,10.62746,4.49201,5.47906.52627,4.85275,7.04695,10.3318,7.57322,5.47729.5261,5.69039-1.69257,11.16767-1.16647,5.4787.52623,4.82152,7.36825,10.30022,7.89448,5.48061.52641,5.70066-1.76465,11.18127-1.23824,5.47887.52625,5.93355-4.20757,11.41242-3.68132,5.48263.52661,6.35223-6.68506,11.82235-6.04135,5.15476.6066,3.93929,8.93437,8.83722,11.45366Z"/>
        </g>
      </g>
      <g>
        <g>
          <g>
            <rect class="st15" x="234.00613" y="149.66062" width="109.52081" height="109.52081"/>
            <rect class="st46" x="238.3855" y="154.03999" width="100.76207" height="100.76207"/>
            <g class="st39">
              <path class="st14" d="M327.25156,133.50767c5.12957,2.63844,4.40489,2.51585,4.10867,9.38569-.14637,3.3945.83406,7.64335.40068,11.81986-.38265,3.6876-7.83663,6.63594-8.54724,10.49856-.70244,3.8182-.12844,7.74483-1.24629,11.33807-1.20276,3.86615,3.51894,10.7385,1.72182,13.87115-2.07556,3.61802-7.87106,6.45031-10.90844,8.38515-3.1047,1.97771-8.71873,1.61754-13.01972,1.03857-4.25452-.57272-4.17539-8.91599-7.09814-10.68764-3.44656-2.08917-11.67976,3.02914-14.23577.58419-2.98368-2.85404-5.9446-1.32965-9.25111-2.57278-2.99169-1.12476-2.60339-4.20673-7.14965-2.25264-3.13145,1.34597-1.49846,3.96819-3.43369,7.65765-1.67182,3.18728-3.36248,3.75484-3.26024,7.73975.09146,3.56455-5.82982,8.41084-3.69964,11.94523,1.75406,2.91033,6.10151,4.50889,9.59938,7.00858,3.52993,2.5226,6.37651,5.07722,9.45318,6.43796,3.76372,1.66461,10.5673-4.58825,13.8554-3.10414,3.27545,1.4784.22125,13.16773,3.24563,16.1653,3.60057,3.56865,7.71295,4.12249,8.55939,7.32563,1.18474,4.48335-5.97145,4.53654-7.69445,7.83033-2.93188,5.60474,5.81062,16.64967-.23026,17.46441-5.951.80262-5.86971-12.60955-11.84498-13.2051-5.97682-.5957-6.10288.66909-12.0797.07339-5.9789-.59591-7.04062,10.05659-13.01951,9.46068-5.977-.59572-5.8818-1.55092-11.8588-2.14664-5.98111-.59613-5.38798-6.54712-11.36909-7.14325s-8.05073,5.51955-11.95288.94765c-3.74558-4.38844,5.85326-4.98283,6.42547-10.72393.57228-5.74177-6.65196-6.4618-6.07968-12.20357.57237-5.74267,4.22622-5.37849,4.79859-11.12116.57227-5.74169-.94242-5.89266-.37015-11.63435.57233-5.74228.04982-5.79435.62215-11.53663s.07731-5.79177.64965-11.5342c.57216-5.74057-3.90271-6.18658-3.33055-11.92715.5723-5.74205,8.9768-4.90439,9.54911-10.64644.5725-5.74405,4.41074-5.3615,4.98324-11.10555.57232-5.74223-11.74015-6.9694-11.16783-12.71163.57272-5.74618,4.80402-5.32445,5.37674-11.07062s-5.87243-11.73154-1.49992-15.5035c4.16725-3.5949,9.83986-3.95909,15.31822-3.43289,5.47891.52625,5.14855,3.96576,10.62746,4.49201,5.47906.52627,4.85275,7.04695,10.3318,7.57322,5.47729.5261,5.69039-1.69257,11.16767-1.16647,5.4787.52623,4.82152,7.36825,10.30022,7.89448,5.48061.52641,5.70066-1.76465,11.18127-1.23824,5.47887.52625,5.93355-4.20757,11.41242-3.68132,5.48263.52661,6.35223-6.68506,11.82235-6.04135,5.15476.6066,3.93929,8.93437,8.83722,11.45366Z"/>
            </g>
            <g class="st51">
              <g>
                <line class="st9" x1="249.61507" y1="152.16157" x2="249.61507" y2="255.46775"/>
                <line class="st9" x1="238.37419" y1="152.16157" x2="238.37419" y2="255.46775"/>
                <line class="st9" x1="260.85595" y1="152.16157" x2="260.85595" y2="255.46775"/>
                <line class="st9" x1="272.09683" y1="152.16157" x2="272.09683" y2="255.46775"/>
                <line class="st9" x1="283.33771" y1="152.16157" x2="283.33771" y2="255.46775"/>
                <line class="st9" x1="294.57859" y1="152.16157" x2="294.57859" y2="255.46775"/>
                <line class="st9" x1="305.81947" y1="152.16157" x2="305.81947" y2="255.46775"/>
                <line class="st9" x1="317.06035" y1="152.16157" x2="317.06035" y2="255.46775"/>
                <line class="st9" x1="328.30123" y1="152.16157" x2="328.30123" y2="255.46775"/>
                <line class="st9" x1="339.54211" y1="152.16157" x2="339.54211" y2="255.46775"/>
              </g>
              <g>
                <line class="st9" x1="340.51786" y1="164.61312" x2="237.21169" y2="164.61312"/>
                <line class="st9" x1="340.51786" y1="153.32408" x2="237.21169" y2="153.32408"/>
                <line class="st9" x1="340.51786" y1="175.90216" x2="237.21169" y2="175.90216"/>
                <line class="st9" x1="340.51786" y1="187.1912" x2="237.21169" y2="187.1912"/>
                <line class="st9" x1="340.51786" y1="198.48024" x2="237.21169" y2="198.48024"/>
                <line class="st9" x1="340.51786" y1="209.76928" x2="237.21169" y2="209.76928"/>
                <line class="st9" x1="340.51786" y1="221.05832" x2="237.21169" y2="221.05832"/>
                <line class="st9" x1="340.51786" y1="232.34736" x2="237.21169" y2="232.34736"/>
                <line class="st9" x1="340.51786" y1="243.6364" x2="237.21169" y2="243.6364"/>
                <line class="st9" x1="340.51786" y1="254.92544" x2="237.21169" y2="254.92544"/>
              </g>
            </g>
          </g>
          <g>
            <line class="st7" x1="224.4043" y1="258.72159" x2="224.4043" y2="154.22073"/>
            <polygon class="st47" points="226.10388 155.37991 224.4043 149.03799 222.70471 155.37991 226.10388 155.37991"/>
          </g>
          <g>
            <line class="st7" x1="234.20235" y1="268.36392" x2="339.15265" y2="268.36392"/>
            <polygon class="st47" points="337.9935 270.06363 344.33539 268.36392 337.9935 266.66446 337.9935 270.06363"/>
          </g>
        </g>
        <rect class="st16" x="230.33941" y="147.42424" width="115.09573" height="113.85112"/>
        <rect class="st18" x="231.89006" y="147.42424" width="113.59181" height="113.85112"/>
        <g class="st45">
          <path class="st5" d="M327.25156,133.50767c5.12957,2.63844,4.40489,2.51585,4.10867,9.38569-.14637,3.3945.83406,7.64335.40068,11.81986-.38265,3.6876-7.83663,6.63594-8.54724,10.49856-.70244,3.8182-.12844,7.74483-1.24629,11.33807-1.20276,3.86615,3.51894,10.7385,1.72182,13.87115-2.07556,3.61802-7.87106,6.45031-10.90844,8.38515-3.1047,1.97771-8.71873,1.61754-13.01972,1.03857-4.25452-.57272-4.17539-8.91599-7.09814-10.68764-3.44656-2.08917-11.67976,3.02914-14.23577.58419-2.98368-2.85404-5.9446-1.32965-9.25111-2.57278-2.99169-1.12476-2.60339-4.20673-7.14965-2.25264-3.13145,1.34597-1.49846,3.96819-3.43369,7.65765-1.67182,3.18728-3.36248,3.75484-3.26024,7.73975.09146,3.56455-5.82982,8.41084-3.69964,11.94523,1.75406,2.91033,6.10151,4.50889,9.59938,7.00858,3.52993,2.5226,6.37651,5.07722,9.45318,6.43796,3.76372,1.66461,10.5673-4.58825,13.8554-3.10414,3.27545,1.4784.22125,13.16773,3.24563,16.1653,3.60057,3.56865,7.71295,4.12249,8.55939,7.32563,1.18474,4.48335-5.97145,4.53654-7.69445,7.83033-2.93188,5.60474,5.81062,16.64967-.23026,17.46441-5.951.80262-5.86971-12.60955-11.84498-13.2051-5.97682-.5957-6.10288.66909-12.0797.07339-5.9789-.59591-7.04062,10.05659-13.01951,9.46068-5.977-.59572-5.8818-1.55092-11.8588-2.14664-5.98111-.59613-5.38798-6.54712-11.36909-7.14325s-8.05073,5.51955-11.95288.94765c-3.74558-4.38844,5.85326-4.98283,6.42547-10.72393.57228-5.74177-6.65196-6.4618-6.07968-12.20357.57237-5.74267,4.22622-5.37849,4.79859-11.12116.57227-5.74169-.94242-5.89266-.37015-11.63435.57233-5.74228.04982-5.79435.62215-11.53663s.07731-5.79177.64965-11.5342c.57216-5.74057-3.90271-6.18658-3.33055-11.92715.5723-5.74205,8.9768-4.90439,9.54911-10.64644.5725-5.74405,4.41074-5.3615,4.98324-11.10555.57232-5.74223-11.74015-6.9694-11.16783-12.71163.57272-5.74618,4.80402-5.32445,5.37674-11.07062s-5.87243-11.73154-1.49992-15.5035c4.16725-3.5949,9.83986-3.95909,15.31822-3.43289,5.47891.52625,5.14855,3.96576,10.62746,4.49201,5.47906.52627,4.85275,7.04695,10.3318,7.57322,5.47729.5261,5.69039-1.69257,11.16767-1.16647,5.4787.52623,4.82152,7.36825,10.30022,7.89448,5.48061.52641,5.70066-1.76465,11.18127-1.23824,5.47887.52625,5.93355-4.20757,11.41242-3.68132,5.48263.52661,6.35223-6.68506,11.82235-6.04135,5.15476.6066,3.93929,8.93437,8.83722,11.45366Z"/>
        </g>
      </g>
      <g>
        <g>
          <g>
            <rect class="st15" x="43.94112" y="149.66062" width="109.52081" height="109.52081"/>
            <rect class="st46" x="48.32049" y="154.03999" width="100.76207" height="100.76207"/>
            <g class="st42">
              <path class="st13" d="M137.18656,133.50767c5.12957,2.63844,4.40489,2.51585,4.10867,9.38569-.14637,3.3945.83406,7.64335.40068,11.81986-.38265,3.6876-7.83663,6.63594-8.54724,10.49856-.70244,3.8182-.12844,7.74483-1.24629,11.33807-1.20276,3.86615,3.51894,10.7385,1.72182,13.87115-2.07556,3.61802-7.87106,6.45031-10.90844,8.38515-3.1047,1.97771-8.71873,1.61754-13.01972,1.03857-4.25452-.57272-4.17539-8.91599-7.09814-10.68764-3.44656-2.08917-11.67976,3.02914-14.23577.58419-2.98368-2.85404-5.9446-1.32965-9.25111-2.57278-2.99169-1.12476-2.60339-4.20673-7.14965-2.25264-3.13145,1.34597-1.49846,3.96819-3.43369,7.65765-1.67182,3.18728-3.36248,3.75484-3.26024,7.73975.09146,3.56455-5.82982,8.41084-3.69964,11.94523,1.75406,2.91033,6.10151,4.50889,9.59938,7.00858,3.52993,2.5226,6.37651,5.07722,9.45318,6.43796,3.76372,1.66461,10.5673-4.58825,13.8554-3.10414,3.27545,1.4784.22125,13.16773,3.24563,16.1653,3.60057,3.56865,7.71295,4.12249,8.55939,7.32563,1.18474,4.48335-5.97145,4.53654-7.69445,7.83033-2.93188,5.60474,5.81062,16.64967-.23026,17.46441-5.951.80262-5.86971-12.60955-11.84498-13.2051-5.97682-.5957-6.10288.66909-12.0797.07339-5.9789-.59591-7.04062,10.05659-13.01951,9.46068-5.977-.59572-5.8818-1.55092-11.8588-2.14664-5.98111-.59613-5.38798-6.54712-11.36909-7.14325s-8.05073,5.51955-11.95288.94765c-3.74558-4.38844,5.85326-4.98283,6.42547-10.72393.57228-5.74177-6.65196-6.4618-6.07968-12.20357.57237-5.74267,4.22622-5.37849,4.79859-11.12116.57227-5.74169-.94242-5.89266-.37015-11.63435.57233-5.74228.04982-5.79435.62215-11.53663.57234-5.74243.07731-5.79177.64965-11.5342.57216-5.74057-3.90271-6.18658-3.33055-11.92715.5723-5.74205,8.9768-4.90439,9.54911-10.64644.5725-5.74405,4.41074-5.3615,4.98324-11.10555.57232-5.74223-11.74015-6.9694-11.16783-12.71163.57272-5.74618,4.80402-5.32445,5.37674-11.07062s-5.87243-11.73154-1.49992-15.5035c4.16725-3.5949,9.83986-3.95909,15.31822-3.43289,5.47891.52625,5.14855,3.96576,10.62746,4.49201,5.47906.52627,4.85275,7.04695,10.3318,7.57322,5.47729.5261,5.69039-1.69257,11.16767-1.16647,5.4787.52623,4.82152,7.36825,10.30022,7.89448,5.48061.52641,5.70066-1.76465,11.18127-1.23824,5.47887.52625,5.93355-4.20757,11.41242-3.68132,5.48263.52661,6.35223-6.68506,11.82235-6.04135,5.15476.6066,3.93929,8.93437,8.83722,11.45366Z"/>
            </g>
            <g class="st51">
              <g>
                <line class="st9" x1="59.55006" y1="152.16157" x2="59.55006" y2="255.46775"/>
                <line class="st9" x1="48.30918" y1="152.16157" x2="48.30918" y2="255.46775"/>
                <line class="st9" x1="70.79094" y1="152.16157" x2="70.79094" y2="255.46775"/>
                <line class="st9" x1="82.03182" y1="152.16157" x2="82.03182" y2="255.46775"/>
                <line class="st9" x1="93.2727" y1="152.16157" x2="93.2727" y2="255.46775"/>
                <line class="st9" x1="104.51358" y1="152.16157" x2="104.51358" y2="255.46775"/>
                <line class="st9" x1="115.75446" y1="152.16157" x2="115.75446" y2="255.46775"/>
                <line class="st9" x1="126.99534" y1="152.16157" x2="126.99534" y2="255.46775"/>
                <line class="st9" x1="138.23622" y1="152.16157" x2="138.23622" y2="255.46775"/>
                <line class="st9" x1="149.4771" y1="152.16157" x2="149.4771" y2="255.46775"/>
              </g>
              <g>
                <line class="st9" x1="150.45285" y1="164.61312" x2="47.14668" y2="164.61312"/>
                <line class="st9" x1="150.45285" y1="153.32408" x2="47.14668" y2="153.32408"/>
                <line class="st9" x1="150.45285" y1="175.90216" x2="47.14668" y2="175.90216"/>
                <line class="st9" x1="150.45285" y1="187.1912" x2="47.14668" y2="187.1912"/>
                <line class="st9" x1="150.45285" y1="198.48024" x2="47.14668" y2="198.48024"/>
                <line class="st9" x1="150.45285" y1="209.76928" x2="47.14668" y2="209.76928"/>
                <line class="st9" x1="150.45285" y1="221.05832" x2="47.14668" y2="221.05832"/>
                <line class="st9" x1="150.45285" y1="232.34736" x2="47.14668" y2="232.34736"/>
                <line class="st9" x1="150.45285" y1="243.6364" x2="47.14668" y2="243.6364"/>
                <line class="st9" x1="150.45285" y1="254.92544" x2="47.14668" y2="254.92544"/>
              </g>
            </g>
          </g>
          <g>
            <line class="st7" x1="34.33929" y1="258.72159" x2="34.33929" y2="154.22073"/>
            <polygon class="st47" points="36.03888 155.37991 34.33929 149.03799 32.63971 155.37991 36.03888 155.37991"/>
          </g>
          <g>
            <line class="st7" x1="44.13734" y1="268.36392" x2="149.08765" y2="268.36392"/>
            <polygon class="st47" points="147.9285 270.06363 154.27039 268.36392 147.9285 266.66446 147.9285 270.06363"/>
          </g>
        </g>
        <rect class="st16" x="40.2744" y="147.42424" width="115.09573" height="113.85112"/>
        <rect class="st18" x="41.82505" y="147.42424" width="113.59181" height="113.85112"/>
        <g class="st41">
          <path class="st5" d="M137.18656,133.50767c5.12957,2.63844,4.40489,2.51585,4.10867,9.38569-.14637,3.3945.83406,7.64335.40068,11.81986-.38265,3.6876-7.83663,6.63594-8.54724,10.49856-.70244,3.8182-.12844,7.74483-1.24629,11.33807-1.20276,3.86615,3.51894,10.7385,1.72182,13.87115-2.07556,3.61802-7.87106,6.45031-10.90844,8.38515-3.1047,1.97771-8.71873,1.61754-13.01972,1.03857-4.25452-.57272-4.17539-8.91599-7.09814-10.68764-3.44656-2.08917-11.67976,3.02914-14.23577.58419-2.98368-2.85404-5.9446-1.32965-9.25111-2.57278-2.99169-1.12476-2.60339-4.20673-7.14965-2.25264-3.13145,1.34597-1.49846,3.96819-3.43369,7.65765-1.67182,3.18728-3.36248,3.75484-3.26024,7.73975.09146,3.56455-5.82982,8.41084-3.69964,11.94523,1.75406,2.91033,6.10151,4.50889,9.59938,7.00858,3.52993,2.5226,6.37651,5.07722,9.45318,6.43796,3.76372,1.66461,10.5673-4.58825,13.8554-3.10414,3.27545,1.4784.22125,13.16773,3.24563,16.1653,3.60057,3.56865,7.71295,4.12249,8.55939,7.32563,1.18474,4.48335-5.97145,4.53654-7.69445,7.83033-2.93188,5.60474,5.81062,16.64967-.23026,17.46441-5.951.80262-5.86971-12.60955-11.84498-13.2051-5.97682-.5957-6.10288.66909-12.0797.07339-5.9789-.59591-7.04062,10.05659-13.01951,9.46068-5.977-.59572-5.8818-1.55092-11.8588-2.14664-5.98111-.59613-5.38798-6.54712-11.36909-7.14325s-8.05073,5.51955-11.95288.94765c-3.74558-4.38844,5.85326-4.98283,6.42547-10.72393.57228-5.74177-6.65196-6.4618-6.07968-12.20357.57237-5.74267,4.22622-5.37849,4.79859-11.12116.57227-5.74169-.94242-5.89266-.37015-11.63435.57233-5.74228.04982-5.79435.62215-11.53663.57234-5.74243.07731-5.79177.64965-11.5342.57216-5.74057-3.90271-6.18658-3.33055-11.92715.5723-5.74205,8.9768-4.90439,9.54911-10.64644.5725-5.74405,4.41074-5.3615,4.98324-11.10555.57232-5.74223-11.74015-6.9694-11.16783-12.71163.57272-5.74618,4.80402-5.32445,5.37674-11.07062s-5.87243-11.73154-1.49992-15.5035c4.16725-3.5949,9.83986-3.95909,15.31822-3.43289,5.47891.52625,5.14855,3.96576,10.62746,4.49201,5.47906.52627,4.85275,7.04695,10.3318,7.57322,5.47729.5261,5.69039-1.69257,11.16767-1.16647,5.4787.52623,4.82152,7.36825,10.30022,7.89448,5.48061.52641,5.70066-1.76465,11.18127-1.23824,5.47887.52625,5.93355-4.20757,11.41242-3.68132,5.48263.52661,6.35223-6.68506,11.82235-6.04135,5.15476.6066,3.93929,8.93437,8.83722,11.45366Z"/>
        </g>
      </g>
      <g>
        <line class="st12" x1="43.96642" y1="241.19084" x2="47.19535" y2="238.82988"/>
        <line class="st10" x1="53.27868" y1="234.38188" x2="147.57024" y2="165.43742"/>
        <line class="st12" x1="150.61191" y1="163.21342" x2="153.84084" y2="160.85246"/>
      </g>
      <g>
        <path class="st12" d="M310.08698,259.2078s-1.25201-.76831-3.36578-2.15308"/>
        <path class="st4" d="M299.92395,252.43559c-17.59692-12.37476-50.7704-38.94592-38.86697-56.13977,13.74573-19.85486,59.89212,10.34241,77.07114,22.64307"/>
        <path class="st12" d="M341.45346,221.35722c2.03909,1.50732,3.1908,2.40723,3.1908,2.40723"/>
      </g>
      <g>
        <path class="st12" d="M487.1687,259.2078s-.26523-1.4707-.98132-3.87354"/>
        <path class="st3" d="M483.41412,247.83976c-1.97394-4.45886-4.88876-9.68323-9.10626-14.62378-10.33765-12.10974-30.57849-21.17847-17.72168-39.28296,3.61816-5.09497,9.02698-4.69812,12.70053-4.72583,11.02069-.08313,20.60147,14.54651,32.78513,13.88196,22.54004-1.22949,19.61627-31.12842,16.84192-45.66565"/>
        <path class="st12" d="M518.09802,153.50761c-.54901-2.42639-.96277-3.87878-.96277-3.87878"/>
      </g>
      <circle class="st20" cx="474.22771" cy="73.20979" r="46.96245"/>
      <circle class="st20" cx="280.73122" cy="73.20979" r="46.96245"/>
      <circle class="st20" cx="88.24948" cy="73.20979" r="46.96245"/>
      <g>
        <line class="st6" x1="100.15481" y1="74.02156" x2="153.91578" y2="74.02156"/>
        <g>
          <path class="st6" d="M109.89478,73.69857s-15.0104-3.21198-28.38444,18.68153c-11.51092,18.84356-27.51824,18.11143-27.51824,18.11143h-28.79155"/>
          <path class="st6" d="M106.33463,72.67178s-13.86068,4.21611-25.62671-18.08755c-10.20833-19.35089-26.43337-18.65689-26.43337-18.65689h-29.074"/>
        </g>
        <g id="NEURON">
          <g>
            <circle class="st48" cx="96.70528" cy="74.02156" r="16.6277"/>
            <circle class="st48" cx="95.26518" cy="72.21304" r="14.24369"/>
          </g>
          <path class="st19" d="M104.46927,86.33282l-1.9503-3.20632c3.20877-1.95213,5.12357-5.35644,5.12231-9.10707-.00125-3.73964-1.90977-7.13748-5.10518-9.08961l1.95671-3.20274c4.31991,2.63897,6.89985,7.23385,6.90154,12.2911.00169,5.07221-2.58709,9.67585-6.92509,12.31465Z"/>
          <g class="st44">
            <polygon class="st21" points="99.54074 74.10054 112.29113 74.10054 113.27504 83.72463 104.58099 89.45411 100.60698 83.95906 99.54074 74.10054"/>
            <circle class="st22" cx="96.83966" cy="74.05887" r="12.04763"/>
          </g>
          <g>
            <rect class="st0" x="91.04795" y="69.6106" width="9.84157" height="10.06357"/>
            <path class="st49" d="M92.33838,78.94306l-.00342-9.33105h.48486l5.7373,5.18652-.00195-5.18848,1.04492-.00098.00342,9.33105-.47266.00098-5.74951-5.18555.00195,5.1875h-1.04492Z"/>
          </g>
          <g class="st50">
            <rect class="st0" x="91.4842" y="69.6106" width="9.84157" height="10.06357"/>
            <path class="st48" d="M92.77441,78.94306l-.00342-9.33008h.48486l5.7373,5.18555-.00195-5.1875h1.04492l.00342,9.33008h-.47266l-5.74951-5.18555.00195,5.1875h-1.04492Z"/>
          </g>
        </g>
      </g>
    </g>
    <g id="Layer_5">
      <g>
        <path class="st8" d="M215.19793,91.95866h12.47902c26.80404,0,25.9918-50.3591,41.05522-50.3591h2.28905"/>
        <path class="st8" d="M215.19793,56.10918h12.47902c26.80404,0,25.9918,50.3591,41.05522,50.3591h2.28905"/>
        <path class="st2" d="M215.19793,56.07226h21.11833c12.10981,0,21.26602-17.9432,29.38845-17.9432,1.99369,0-2.21521,0,9.08236,0,19.82613,0,27.69012,33.78195,42.53203,33.78195h7.864"/>
        <path class="st2" d="M215.19793,91.95866s17.86936,0,21.11833,0c12.10981,0,21.26602,17.9432,29.38845,17.9432,1.99369,0-2.21521,0,9.08236,0,19.82613,0,27.69012-33.78195,42.53203-33.78195h7.864"/>
        <path class="st2" d="M215.30869,56.03534h21.11833c12.10981,0,21.26602,17.9432,29.38845,17.9432h4.06122"/>
        <path class="st2" d="M215.19793,91.95866h21.11833c12.10981,0,21.26602-17.9432,29.38845-17.9432h80.5598"/>
        <g>
          <g id="NEURON1" data-name="NEURON">
            <g>
              <circle class="st48" cx="272.13208" cy="38.65251" r="8.41454"/>
              <circle class="st48" cx="271.4033" cy="37.7373" r="7.2081"/>
            </g>
            <path class="st19" d="M276.06108,44.8827l-.98696-1.62258c1.62381-.98789,2.59281-2.71066,2.59218-4.60869-.00063-1.89246-.96645-3.61196-2.5835-4.59985l.99021-1.62077c2.18612,1.33546,3.49171,3.66073,3.49256,6.21998.00086,2.56682-1.30921,4.89652-3.50448,6.2319Z"/>
            <g class="st43">
              <polygon class="st21" points="273.56697 38.69249 280.01938 38.69249 280.51729 43.56281 276.11762 46.46225 274.10655 43.68144 273.56697 38.69249"/>
              <circle class="st22" cx="272.20008" cy="38.6714" r="6.09677"/>
            </g>
            <g>
              <rect class="st0" x="269.26915" y="36.42033" width="4.98038" height="5.09273"/>
              <path class="st49" d="M269.92139,41.14228l-.00146-4.72168h.24561l2.90332,2.62402-.00098-2.625h.52881l.00146,4.72168h-.23926l-2.90967-2.62402.00098,2.625h-.52881Z"/>
            </g>
            <g class="st50">
              <rect class="st0" x="269.48992" y="36.42033" width="4.98038" height="5.09273"/>
              <path class="st48" d="M270.14209,41.14228l-.00146-4.72168h.24561l2.90332,2.62402-.00098-2.625h.52881l.00146,4.72168h-.23926l-2.90967-2.62402.00098,2.625h-.52881Z"/>
            </g>
          </g>
          <g id="NEURON2" data-name="NEURON">
            <g>
              <circle class="st48" cx="272.13208" cy="73.43131" r="8.41454"/>
              <circle class="st48" cx="271.4033" cy="72.5161" r="7.2081"/>
            </g>
            <path class="st19" d="M276.06108,79.66149l-.98696-1.62258c1.62381-.98789,2.59281-2.71066,2.59218-4.60869-.00063-1.89246-.96645-3.61196-2.5835-4.59985l.99021-1.62077c2.18612,1.33546,3.49171,3.66073,3.49256,6.21998.00086,2.56682-1.30921,4.89652-3.50448,6.2319Z"/>
            <g class="st31">
              <polygon class="st21" points="273.56697 73.47128 280.01938 73.47128 280.51729 78.34161 276.11762 81.24104 274.10655 78.46024 273.56697 73.47128"/>
              <circle class="st22" cx="272.20008" cy="73.45019" r="6.09677"/>
            </g>
            <g>
              <rect class="st0" x="269.26915" y="71.19912" width="4.98038" height="5.09273"/>
              <path class="st49" d="M269.92188,75.9206l-.00146-4.72168h.24561l2.90332,2.62402-.00098-2.625h.52881l.00146,4.72168h-.23926l-2.90967-2.62402.00098,2.625h-.52881Z"/>
            </g>
            <g class="st50">
              <rect class="st0" x="269.48992" y="71.19912" width="4.98038" height="5.09273"/>
              <path class="st48" d="M270.14258,75.9206l-.00146-4.72168h.24561l2.90332,2.62402-.00098-2.625h.52881l.00146,4.72168h-.23926l-2.90967-2.62402.00098,2.625h-.52881Z"/>
            </g>
          </g>
          <g id="NEURON3" data-name="NEURON">
            <g>
              <circle class="st48" cx="321.30974" cy="73.43131" r="8.41454"/>
              <circle class="st48" cx="320.58096" cy="72.5161" r="7.2081"/>
            </g>
            <path class="st19" d="M325.23874,79.66149l-.98696-1.62258c1.62381-.98789,2.59281-2.71066,2.59218-4.60869-.00063-1.89246-.96645-3.61196-2.5835-4.59985l.99021-1.62077c2.18612,1.33546,3.49171,3.66073,3.49256,6.21998.00086,2.56682-1.30921,4.89652-3.50448,6.2319Z"/>
            <g class="st28">
              <polygon class="st21" points="322.74463 73.47128 329.19704 73.47128 329.69495 78.34161 325.29528 81.24104 323.28421 78.46024 322.74463 73.47128"/>
              <circle class="st22" cx="321.37774" cy="73.45019" r="6.09677"/>
            </g>
            <g>
              <rect class="st0" x="318.44681" y="71.19912" width="4.98038" height="5.09273"/>
              <path class="st49" d="M319.09961,75.9206l-.00195-4.72168h.24609l2.90332,2.62402-.00098-2.625h.52832l.00195,4.72168h-.23926l-2.91016-2.62402.00098,2.625h-.52832Z"/>
            </g>
            <g class="st50">
              <rect class="st0" x="318.66758" y="71.19912" width="4.98038" height="5.09273"/>
              <path class="st48" d="M319.32031,75.9206l-.00195-4.72168h.24609l2.90332,2.62402-.00098-2.625h.52832l.00195,4.72168h-.23926l-2.91016-2.62402.00098,2.625h-.52832Z"/>
            </g>
          </g>
          <g id="NEURON4" data-name="NEURON">
            <g>
              <circle class="st48" cx="272.13208" cy="107.76706" r="8.41454"/>
              <circle class="st48" cx="271.4033" cy="106.85185" r="7.2081"/>
            </g>
            <path class="st19" d="M276.06108,113.99725l-.98696-1.62258c1.62381-.98789,2.59281-2.71066,2.59218-4.60869-.00063-1.89246-.96645-3.61196-2.5835-4.59985l.99021-1.62077c2.18612,1.33546,3.49171,3.66073,3.49256,6.21998.00086,2.56682-1.30921,4.89652-3.50448,6.2319Z"/>
            <g class="st35">
              <polygon class="st21" points="273.56697 107.80703 280.01938 107.80703 280.51729 112.67736 276.11762 115.57679 274.10655 112.79599 273.56697 107.80703"/>
              <circle class="st22" cx="272.20008" cy="107.78595" r="6.09677"/>
            </g>
            <g>
              <rect class="st0" x="269.26915" y="105.53487" width="4.98038" height="5.09273"/>
              <path class="st49" d="M269.92139,110.25654l-.00146-4.72168h.24561l2.90332,2.62402-.00098-2.625h.52881l.00146,4.72168h-.23926l-2.90967-2.62402.00098,2.625h-.52881Z"/>
            </g>
            <g class="st50">
              <rect class="st0" x="269.48992" y="105.53487" width="4.98038" height="5.09273"/>
              <path class="st48" d="M270.14209,110.25654l-.00146-4.72168h.24561l2.90332,2.62402-.00098-2.625h.52881l.00146,4.72168h-.23926l-2.90967-2.62402.00098,2.625h-.52881Z"/>
            </g>
          </g>
        </g>
      </g>
      <g>
        <g>
          <line class="st1" x1="535.81083" y1="73.21472" x2="547.86461" y2="73.21472"/>
          <path class="st11" d="M398.00979,61.56331s-8.38579,0,6.36997,0c18.78739,0,14.03007,33.05935,26.44748,33.05935,1.61265,0-4.59606,0,5.07985,0,12.17552,0,14.15101-42.73526,29.39057-42.73526,2.25771,0-8.74863,0,5.2008,0,16.93284,0,10.56287,29.83405,27.2538,29.83405h5.16048"/>
          <path class="st11" d="M504.00128,65.35304s-2.66087,0-6.00941,0c-17.72395,0-16.93843,30.35817-28.65298,30.35817-1.52137,0,4.60318,0-4.52504,0-11.48634,0-15.25553-43.17875-29.63247-43.17875-2.12992,0,10.13612,0-3.02372,0-15.97438,0-10.20942,32.77713-25.9556,32.77713-2.35812,0-4.86838,0-4.86838,0"/>
        </g>
        <g>
          <g>
            <path class="st1" d="M433.81064,49.65053h1.3161c13.15415,0,15.61673,23.28197,28.21896,23.28197h7.95907"/>
            <path class="st1" d="M395.59081,61.5554h14.0115c8.03456,0,14.10948-11.90487,19.49852-11.90487h41.15573c13.14311,0,13.70753,11.99342,26.44748,11.99342,4.83795,0-3.52231,0,8.0357,0,11.96117,0,13.65446,11.20793,24.13669,11.20793h7.33756"/>
            <path class="st1" d="M397.6643,61.53091h12.0115c8.03456,0,14.10948,11.90487,19.49852,11.90487,1.32276,0-4.31388,0,8.2648,0s12.41741-23.72545,27.81823-23.72545h5.24112"/>
            <path class="st1" d="M463.61958,73.11887h4.9688c13.14311,0,15.88706-9.60996,28.62701-9.60996,4.83795,0-3.52231,0,8.0357,0"/>
          </g>
          <g>
            <path class="st1" d="M433.81064,97.22238c.39911,0,.83655,0,1.3161,0,13.15415,0,15.61673-23.28197,28.21896-23.28197,3.08645,0,7.95907,0,7.95907,0"/>
            <path class="st1" d="M395.59081,85.31751s11.85588,0,14.0115,0c8.03456,0,14.10948,11.90487,19.49852,11.90487,1.04514,0,28.01263,0,41.15573,0,13.14311,0,13.70753-11.99342,26.44748-11.99342,4.83795,0-3.52231,0,8.0357,0,11.96117,0,13.65446-11.20793,24.13669-11.20793,4.03163,0,7.33756,0,7.33756,0"/>
            <path class="st1" d="M397.6643,85.34201s9.85588,0,12.0115,0c8.03456,0,14.10948-11.90487,19.49852-11.90487,1.32276,0-4.31388,0,8.2648,0s12.41741,23.72545,27.81823,23.72545c3.06404,0,5.24112,0,5.24112,0"/>
            <path class="st1" d="M463.61958,73.75404c.96759,0,3.54783,0,4.9688,0,13.14311,0,15.88706,9.60996,28.62701,9.60996,4.83795,0-3.52231,0,8.0357,0"/>
          </g>
        </g>
        <g>
          <g id="NEURON5" data-name="NEURON">
            <g>
              <circle class="st48" cx="433.97546" cy="49.77284" r="5.70679"/>
              <circle class="st48" cx="433.48121" cy="49.15214" r="4.88858"/>
            </g>
            <path class="st19" d="M436.64014,53.99819l-.66936-1.10044c1.10128-.66999,1.75846-1.83838,1.75803-3.12564-.00043-1.28348-.65545-2.44965-1.75215-3.11964l.67156-1.09921c1.48264.90572,2.3681,2.48273,2.36868,4.21843.00058,1.74083-.88791,3.32085-2.37676,4.22651Z"/>
            <g class="st33">
              <polygon class="st21" points="434.94862 49.79995 439.32468 49.79995 439.66237 53.10303 436.67848 55.06945 435.31456 53.18349 434.94862 49.79995"/>
              <circle class="st22" cx="434.02158" cy="49.78565" r="4.13487"/>
            </g>
            <g>
              <rect class="st0" x="432.03381" y="48.25896" width="3.37773" height="3.45392"/>
              <path class="st49" d="M432.47754,51.46259l-.00098-3.20215h.16602l1.96973,1.7793-.00098-1.78027h.3584l.00098,3.20215h-.16211l-1.97363-1.7793.00098,1.78027h-.3584Z"/>
            </g>
            <g class="st50">
              <rect class="st0" x="432.18353" y="48.25896" width="3.37773" height="3.45392"/>
              <path class="st48" d="M432.62793,51.46259l-.00098-3.20215h.16602l1.96973,1.7793-.00098-1.78027h.3584l.00098,3.20215h-.16211l-1.97363-1.7793.00098,1.78027h-.3584Z"/>
            </g>
          </g>
          <g id="NEURON6" data-name="NEURON">
            <g>
              <circle class="st48" cx="433.97546" cy="73.20979" r="5.70679"/>
              <circle class="st48" cx="433.48121" cy="72.58909" r="4.88858"/>
            </g>
            <path class="st19" d="M436.64014,77.43514l-.66936-1.10044c1.10128-.66999,1.75846-1.83838,1.75803-3.12564-.00043-1.28348-.65545-2.44965-1.75215-3.11964l.67156-1.09921c1.48264.90572,2.3681,2.48273,2.36868,4.21843.00058,1.74083-.88791,3.32085-2.37676,4.22651Z"/>
            <g class="st34">
              <polygon class="st21" points="434.94862 73.2369 439.32468 73.2369 439.66237 76.53998 436.67848 78.50639 435.31456 76.62044 434.94862 73.2369"/>
              <circle class="st22" cx="434.02158" cy="73.2226" r="4.13487"/>
            </g>
            <g>
              <rect class="st0" x="432.03381" y="71.6959" width="3.37773" height="3.45392"/>
              <path class="st49" d="M432.47754,74.89911l-.00098-3.20215h.16602l1.96875,1.7793v-1.78027h.3584l.00098,3.20215h-.16211l-1.97363-1.7793.00098,1.78027h-.3584Z"/>
            </g>
            <g class="st50">
              <rect class="st0" x="432.18353" y="71.6959" width="3.37773" height="3.45392"/>
              <path class="st48" d="M432.62793,74.89911l-.00098-3.20215h.16602l1.96875,1.7793v-1.78027h.3584l.00098,3.20215h-.16211l-1.97363-1.7793.00098,1.78027h-.3584Z"/>
            </g>
          </g>
          <g id="NEURON7" data-name="NEURON">
            <g>
              <circle class="st48" cx="433.97546" cy="96.64674" r="5.70679"/>
              <circle class="st48" cx="433.48121" cy="96.02604" r="4.88858"/>
            </g>
            <path class="st19" d="M436.64014,100.87209l-.66936-1.10044c1.10128-.66999,1.75846-1.83838,1.75803-3.12564-.00043-1.28348-.65545-2.44965-1.75215-3.11964l.67156-1.09921c1.48264.90572,2.3681,2.48273,2.36868,4.21843.00058,1.74083-.88791,3.32085-2.37676,4.22651Z"/>
            <g class="st32">
              <polygon class="st21" points="434.94862 96.67385 439.32468 96.67385 439.66237 99.97693 436.67848 101.94334 435.31456 100.05739 434.94862 96.67385"/>
              <circle class="st22" cx="434.02158" cy="96.65954" r="4.13487"/>
            </g>
            <g>
              <rect class="st0" x="432.03381" y="95.13285" width="3.37773" height="3.45392"/>
              <path class="st49" d="M432.47852,98.33661l-.00098-3.20215h.16602l1.96875,1.7793v-1.78027h.3584l.00098,3.20215h-.16211l-1.97363-1.7793.00098,1.78027h-.3584Z"/>
            </g>
            <g class="st50">
              <rect class="st0" x="432.18353" y="95.13285" width="3.37773" height="3.45392"/>
              <path class="st48" d="M432.62891,98.33661l-.00098-3.20215h.16602l1.96875,1.7793v-1.78027h.3584l.00098,3.20215h-.16211l-1.97363-1.7793.00098,1.78027h-.3584Z"/>
            </g>
          </g>
          <g id="NEURON8" data-name="NEURON">
            <g>
              <circle class="st48" cx="467.36262" cy="49.77284" r="5.70679"/>
              <circle class="st48" cx="466.86836" cy="49.15214" r="4.88858"/>
            </g>
            <path class="st19" d="M470.02729,53.99819l-.66936-1.10044c1.10128-.66999,1.75846-1.83838,1.75803-3.12564-.00043-1.28348-.65545-2.44965-1.75215-3.11964l.67156-1.09921c1.48264.90572,2.3681,2.48273,2.36868,4.21843.00058,1.74083-.88791,3.32085-2.37676,4.22651Z"/>
            <g class="st29">
              <polygon class="st21" points="468.33577 49.79995 472.71183 49.79995 473.04952 53.10303 470.06564 55.06945 468.70172 53.18349 468.33577 49.79995"/>
              <circle class="st22" cx="467.40874" cy="49.78565" r="4.13487"/>
            </g>
            <g>
              <rect class="st0" x="465.42096" y="48.25896" width="3.37773" height="3.45392"/>
              <path class="st49" d="M465.86523,51.46357l-.00098-3.20215h.16602l1.96973,1.7793-.00098-1.78027h.3584l.00098,3.20215h-.16211l-1.97363-1.7793.00098,1.78027h-.3584Z"/>
            </g>
            <g class="st50">
              <rect class="st0" x="465.57069" y="48.25896" width="3.37773" height="3.45392"/>
              <path class="st48" d="M466.01465,51.46357l-.00098-3.20215h.16602l1.96973,1.7793-.00098-1.78027h.3584l.00098,3.20215h-.16211l-1.97363-1.7793.00098,1.78027h-.3584Z"/>
            </g>
          </g>
          <g id="NEURON9" data-name="NEURON">
            <g>
              <circle class="st48" cx="467.36262" cy="73.20979" r="5.70679"/>
              <circle class="st48" cx="466.86836" cy="72.58909" r="4.88858"/>
            </g>
            <path class="st19" d="M470.02729,77.43514l-.66936-1.10044c1.10128-.66999,1.75846-1.83838,1.75803-3.12564-.00043-1.28348-.65545-2.44965-1.75215-3.11964l.67156-1.09921c1.48264.90572,2.3681,2.48273,2.36868,4.21843.00058,1.74083-.88791,3.32085-2.37676,4.22651Z"/>
            <g class="st26">
              <polygon class="st21" points="468.33577 73.2369 472.71183 73.2369 473.04952 76.53998 470.06564 78.50639 468.70172 76.62044 468.33577 73.2369"/>
              <circle class="st22" cx="467.40874" cy="73.2226" r="4.13487"/>
            </g>
            <g>
              <rect class="st0" x="465.42096" y="71.6959" width="3.37773" height="3.45392"/>
              <path class="st49" d="M465.86523,74.90009l-.00098-3.20215h.16602l1.96875,1.7793v-1.78027h.3584l.00098,3.20215h-.16211l-1.97363-1.7793.00098,1.78027h-.3584Z"/>
            </g>
            <g class="st50">
              <rect class="st0" x="465.57069" y="71.6959" width="3.37773" height="3.45392"/>
              <path class="st48" d="M466.01367,74.90009l-.00098-3.20215h.16602l1.96875,1.7793v-1.78027h.3584l.00098,3.20215h-.16211l-1.97363-1.7793.00098,1.78027h-.3584Z"/>
            </g>
          </g>
          <g id="NEURON10" data-name="NEURON">
            <g>
              <circle class="st48" cx="533.88448" cy="73.20979" r="5.70679"/>
              <circle class="st48" cx="533.39022" cy="72.58909" r="4.88858"/>
            </g>
            <path class="st19" d="M536.54915,77.43514l-.66936-1.10044c1.10128-.66999,1.75846-1.83838,1.75803-3.12564-.00043-1.28348-.65545-2.44965-1.75215-3.11964l.67156-1.09921c1.48264.90572,2.3681,2.48273,2.36868,4.21843.00058,1.74083-.88791,3.32085-2.37676,4.22651Z"/>
            <g class="st30">
              <polygon class="st21" points="534.85763 73.2369 539.23369 73.2369 539.57138 76.53998 536.5875 78.50639 535.22358 76.62044 534.85763 73.2369"/>
              <circle class="st22" cx="533.9306" cy="73.2226" r="4.13487"/>
            </g>
            <g>
              <rect class="st0" x="531.94282" y="71.6959" width="3.37773" height="3.45392"/>
              <path class="st49" d="M532.38672,74.89911l-.00098-3.20215h.16602l1.96875,1.78027v-1.78027l.3584-.00098.00098,3.20215-.16211.00098-1.97363-1.78027.00098,1.78027h-.3584Z"/>
            </g>
            <g class="st50">
              <rect class="st0" x="532.09255" y="71.6959" width="3.37773" height="3.45392"/>
              <path class="st48" d="M532.53613,74.89911l-.00098-3.20215h.16602l1.96875,1.78027v-1.78027l.3584-.00098.00098,3.20215h-.16211l-1.97363-1.7793.00098,1.78027h-.3584Z"/>
            </g>
          </g>
          <g id="NEURON11" data-name="NEURON">
            <g>
              <circle class="st48" cx="467.36262" cy="96.64674" r="5.70679"/>
              <circle class="st48" cx="466.86836" cy="96.02604" r="4.88858"/>
            </g>
            <path class="st19" d="M470.02729,100.87209l-.66936-1.10044c1.10128-.66999,1.75846-1.83838,1.75803-3.12564-.00043-1.28348-.65545-2.44965-1.75215-3.11964l.67156-1.09921c1.48264.90572,2.3681,2.48273,2.36868,4.21843.00058,1.74083-.88791,3.32085-2.37676,4.22651Z"/>
            <g class="st27">
              <polygon class="st21" points="468.33577 96.67385 472.71183 96.67385 473.04952 99.97693 470.06564 101.94334 468.70172 100.05739 468.33577 96.67385"/>
              <circle class="st22" cx="467.40874" cy="96.65954" r="4.13487"/>
            </g>
            <g>
              <rect class="st0" x="465.42096" y="95.13285" width="3.37773" height="3.45392"/>
              <path class="st49" d="M465.86621,98.33661l-.00098-3.20215h.16602l1.96875,1.7793v-1.78027h.3584l.00098,3.20215h-.16211l-1.97363-1.7793.00098,1.78027h-.3584Z"/>
            </g>
            <g class="st50">
              <rect class="st0" x="465.57069" y="95.13285" width="3.37773" height="3.45392"/>
              <path class="st48" d="M466.01465,98.33661l-.00098-3.20215h.16602l1.96875,1.7793v-1.78027h.3584l.00098,3.20215h-.16211l-1.97363-1.7793.00098,1.78027h-.3584Z"/>
            </g>
          </g>
          <g id="NEURON12" data-name="NEURON">
            <g>
              <circle class="st48" cx="500.98639" cy="61.49131" r="5.70679"/>
              <circle class="st48" cx="500.49214" cy="60.87061" r="4.88858"/>
            </g>
            <path class="st19" d="M503.65107,65.71666l-.66936-1.10044c1.10128-.66999,1.75846-1.83838,1.75803-3.12564-.00043-1.28348-.65545-2.44965-1.75215-3.11964l.67156-1.09921c1.48264.90572,2.3681,2.48273,2.36868,4.21843.00058,1.74083-.88791,3.32085-2.37676,4.22651Z"/>
            <g class="st36">
              <polygon class="st21" points="501.95955 61.51842 506.33561 61.51842 506.6733 64.82151 503.68941 66.78792 502.32549 64.90196 501.95955 61.51842"/>
              <circle class="st22" cx="501.03251" cy="61.50412" r="4.13487"/>
            </g>
            <g>
              <rect class="st0" x="499.04474" y="59.97743" width="3.37773" height="3.45392"/>
              <path class="st49" d="M499.48828,63.18036l-.00098-3.20215h.16602l1.96973,1.78027-.00098-1.78027h.3584l.00098,3.20215h-.16211l-1.97363-1.78027.00098,1.78027h-.3584Z"/>
            </g>
            <g class="st50">
              <rect class="st0" x="499.19447" y="59.97743" width="3.37773" height="3.45392"/>
              <path class="st48" d="M499.63867,63.18036l-.00098-3.20215h.16602l1.96973,1.78027-.00098-1.78027h.3584l.00098,3.20215h-.16211l-1.97363-1.78027.00098,1.78027h-.3584Z"/>
            </g>
          </g>
          <g id="NEURON13" data-name="NEURON">
            <g>
              <circle class="st48" cx="500.98639" cy="84.92826" r="5.70679"/>
              <circle class="st48" cx="500.49214" cy="84.30756" r="4.88858"/>
            </g>
            <path class="st19" d="M503.65107,89.15361l-.66936-1.10044c1.10128-.66999,1.75846-1.83838,1.75803-3.12564-.00043-1.28348-.65545-2.44965-1.75215-3.11964l.67156-1.09921c1.48264.90572,2.3681,2.48273,2.36868,4.21843.00058,1.74083-.88791,3.32085-2.37676,4.22651Z"/>
            <g class="st37">
              <polygon class="st21" points="501.95955 84.95537 506.33561 84.95537 506.6733 88.25846 503.68941 90.22487 502.32549 88.33891 501.95955 84.95537"/>
              <circle class="st22" cx="501.03251" cy="84.94107" r="4.13487"/>
            </g>
            <g>
              <rect class="st0" x="499.04474" y="83.41438" width="3.37773" height="3.45392"/>
              <path class="st49" d="M499.48828,86.61689l-.00098-3.20215h.16602l1.96875,1.78027v-1.78027h.3584l.00098,3.20215h-.16211l-1.97363-1.78027.00098,1.78027h-.3584Z"/>
            </g>
            <g class="st50">
              <rect class="st0" x="499.19447" y="83.41438" width="3.37773" height="3.45392"/>
              <path class="st48" d="M499.63867,86.61689l-.00098-3.20215h.16602l1.96875,1.78027v-1.78027h.3584l.00098,3.20215h-.16211l-1.97363-1.78027.00098,1.78027h-.3584Z"/>
            </g>
          </g>
        </g>
      </g>
    </g>
  </g>
</svg>